<svg width="18" height="29" viewBox="0 0 18 29" fill="none" xmlns="http://www.w3.org/2000/svg">
<path fill-rule="evenodd" clip-rule="evenodd" d="M17.956 9.21187C17.956 11.2607 17.2172 13.251 15.8742 14.8164C14.61 16.3373 13.6635 17.8566 13.0007 19.0739C13.6401 19.4744 14.0661 20.1754 14.0661 20.9741C14.0661 21.4636 13.9049 21.9158 13.6344 22.2857C13.9049 22.6557 14.0661 23.1078 14.0661 23.5973C14.0661 24.7791 13.1354 25.7498 11.9567 25.8426C11.8669 27.3223 10.6165 28.5 9.08856 28.5C7.56063 28.5 6.31058 27.3223 6.22039 25.8426C5.04172 25.7498 4.11099 24.7791 4.11099 23.5973C4.11099 23.1078 4.27219 22.6557 4.54277 22.2857C4.27219 21.9158 4.11099 21.4636 4.11099 20.9741C4.11099 20.1758 4.5374 19.4744 5.17643 19.0739C4.51322 17.8562 3.56522 16.335 2.29367 14.8055C0.961482 13.251 0.222656 11.2611 0.222656 9.21187C0.222656 6.88551 1.14532 4.69793 2.82064 3.05224C4.49518 1.40656 6.72164 0.5 9.08933 0.5C11.457 0.5 13.6835 1.40656 15.358 3.05262C17.0337 4.69793 17.956 6.88551 17.956 9.21187ZM11.7733 20.6053H6.40612C6.19886 20.6053 6.03075 20.7709 6.03075 20.9741C6.03075 21.1782 6.19924 21.3433 6.40612 21.3433H11.7733C11.9805 21.3433 12.1486 21.1778 12.1486 20.9741C12.1486 20.7705 11.9801 20.6053 11.7733 20.6053ZM9.08932 26.6144C9.55525 26.6144 9.94482 26.2856 10.03 25.8519H8.14861C8.23381 26.2856 8.62337 26.6144 9.08932 26.6144ZM11.7733 23.9661C11.9801 23.9661 12.1486 23.8009 12.1486 23.5969C12.1486 23.3933 11.9801 23.2281 11.7733 23.2281H6.40612C6.19886 23.2281 6.03075 23.3936 6.03075 23.5969C6.03075 23.8009 6.19924 23.9661 6.40612 23.9661H11.7733ZM11.0244 18.72C11.736 17.3462 12.8432 15.4836 14.3988 13.6132C15.4589 12.3767 16.0377 10.8173 16.0377 9.21239C16.0377 7.38946 15.3146 5.67552 14.0019 4.3862C12.6893 3.09613 10.9449 2.38604 9.09 2.38604C7.23507 2.38604 5.49067 3.09613 4.17806 4.38582C2.86544 5.67515 2.14235 7.38946 2.14235 9.21201C2.14235 10.817 2.72113 12.3763 3.77161 13.6019C5.33485 15.4825 6.44328 17.3458 7.15485 18.72H11.0244Z" fill="#6E43B7"/>
</svg>
