<svg width="23" height="18" viewBox="0 0 23 18" fill="none" xmlns="http://www.w3.org/2000/svg">
<path fill-rule="evenodd" clip-rule="evenodd" d="M19.7143 0.608887C21.5289 0.608887 23 2.03598 23 3.79639V4.85889V8.04639V14.4214C23 16.1818 21.5289 17.6089 19.7143 17.6089H3.28571C1.47106 17.6089 0 16.1818 0 14.4214V8.04639V4.85889V3.79639C0 2.03598 1.47106 0.608887 3.28571 0.608887H19.7143ZM2.19048 8.04639V14.4214C2.19048 14.9663 2.61328 15.4154 3.15799 15.4767L3.28571 15.4839H19.7143C20.276 15.4839 20.7389 15.0737 20.8022 14.5453L20.8095 14.4214V8.04639H2.19048ZM20.8095 4.85889H2.19048V3.79639L2.19784 3.67248C2.26111 3.14405 2.72404 2.73389 3.28571 2.73389H19.7143L19.842 2.74103C20.3867 2.80241 20.8095 3.2515 20.8095 3.79639V4.85889Z" fill="#6E43B7"/>
</svg>
