<svg width="15" height="17" viewBox="0 0 15 17" fill="none" xmlns="http://www.w3.org/2000/svg">
<path d="M5.58445 15.1141H1.30139C1.05196 15.1247 0.805254 15.0586 0.593929 14.9247C0.382604 14.7908 0.216646 14.5953 0.118064 14.3642C0.0353414 14.1782 -0.00411306 13.9755 0.00270851 13.7718V3.06712C0.00270851 2.47471 0.00270851 1.8823 0.00270851 1.28988C-0.00296509 1.0419 0.0648019 0.797847 0.197352 0.588829C0.329902 0.379812 0.521227 0.215312 0.746941 0.116309C0.921105 0.0331714 1.11251 -0.00668567 1.30511 7.72311e-05H10.608C10.8749 -0.00962357 11.1377 0.0680637 11.3571 0.221505C11.5764 0.374946 11.7406 0.595876 11.8248 0.851198C11.8688 0.99205 11.8926 1.13851 11.8955 1.28614C11.8955 3.18336 11.8955 5.08057 11.8955 6.9778C11.8972 7.00652 11.8972 7.03532 11.8955 7.06404C10.972 6.85341 10.0108 6.88038 9.10034 7.14249C8.1899 7.40459 7.35959 7.89338 6.68592 8.56382C6.56652 8.40427 6.39875 8.28829 6.20803 8.23349C6.01732 8.17868 5.81407 8.18803 5.6291 8.26011C5.45577 8.31857 5.3042 8.4288 5.19453 8.57614C5.08486 8.72348 5.02227 8.90095 5.0151 9.08498C5.0033 9.28845 5.0561 9.49042 5.16582 9.66165C5.27554 9.83287 5.43648 9.96445 5.62538 10.0373L5.58073 10.1348C5.40388 10.4932 5.26783 10.8705 5.17513 11.2597C5.17513 11.3272 5.13418 11.3422 5.0672 11.3422H2.83451C2.59858 11.3471 2.37326 11.4418 2.20381 11.6073C2.03436 11.7728 1.93335 11.9967 1.92109 12.2342C1.90884 12.4716 1.98624 12.705 2.13774 12.8873C2.28924 13.0696 2.5036 13.1873 2.73775 13.2169C3.1322 13.2356 3.53036 13.2169 3.9248 13.2169H5.04115C5.11388 13.8758 5.29762 14.5174 5.58445 15.1141ZM9.99031 3.77577V1.90105H1.88934V3.77577H9.99031ZM3.74247 5.98044C3.75403 5.8503 3.73859 5.71916 3.69709 5.59537C3.6556 5.47158 3.58896 5.35785 3.50145 5.26142C3.41394 5.165 3.30746 5.08798 3.18879 5.0353C3.07012 4.98261 2.94186 4.95541 2.81218 4.95541C2.6825 4.95541 2.55426 4.98261 2.43559 5.0353C2.31692 5.08798 2.21042 5.165 2.12291 5.26142C2.0354 5.35785 1.96879 5.47158 1.92729 5.59537C1.8858 5.71916 1.87033 5.8503 1.88189 5.98044C1.87033 6.11058 1.8858 6.24173 1.92729 6.36552C1.96879 6.48932 2.0354 6.60305 2.12291 6.69947C2.21042 6.79589 2.31692 6.8729 2.43559 6.92558C2.55426 6.97827 2.6825 7.00549 2.81218 7.00549C2.94186 7.00549 3.07012 6.97827 3.18879 6.92558C3.30746 6.8729 3.41394 6.79589 3.50145 6.69947C3.58896 6.60305 3.6556 6.48932 3.69709 6.36552C3.73859 6.24173 3.75403 6.11058 3.74247 5.98044ZM6.86825 5.98044C6.88499 5.84739 6.87342 5.71228 6.83432 5.58409C6.79522 5.45589 6.7295 5.33755 6.6415 5.23694C6.5535 5.13632 6.44524 5.05574 6.32394 5.00054C6.20263 4.94533 6.07106 4.91678 5.93796 4.91678C5.80486 4.91678 5.67327 4.94533 5.55197 5.00054C5.43067 5.05574 5.32243 5.13632 5.23443 5.23694C5.14643 5.33755 5.0807 5.45589 5.04161 5.58409C5.00251 5.71228 4.99094 5.84739 5.00767 5.98044C4.99094 6.11349 5.00251 6.24861 5.04161 6.37681C5.0807 6.505 5.14643 6.62334 5.23443 6.72396C5.32243 6.82457 5.43067 6.90516 5.55197 6.96036C5.67327 7.01556 5.80486 7.04412 5.93796 7.04412C6.07106 7.04412 6.20263 7.01556 6.32394 6.96036C6.44524 6.90516 6.5535 6.82457 6.6415 6.72396C6.7295 6.62334 6.79522 6.505 6.83432 6.37681C6.87342 6.24861 6.88499 6.11349 6.86825 5.98044ZM9.99402 5.98044C9.99549 5.79341 9.94184 5.61015 9.83987 5.45387C9.73789 5.29759 9.59219 5.17532 9.42119 5.10254C9.2502 5.02977 9.06161 5.00978 8.87933 5.04508C8.69704 5.08038 8.52925 5.1694 8.39721 5.30086C8.26518 5.43233 8.17482 5.60031 8.13762 5.78355C8.10041 5.96679 8.11802 6.15703 8.1882 6.33018C8.25837 6.50333 8.37798 6.65161 8.53185 6.75621C8.68573 6.86082 8.86695 6.91705 9.05257 6.9178C9.17581 6.9208 9.29839 6.89899 9.41315 6.85364C9.52791 6.8083 9.63253 6.74035 9.7209 6.65376C9.80927 6.56716 9.87961 6.46366 9.92779 6.34933C9.97596 6.23501 10.001 6.11215 10.0015 5.98795L9.99402 5.98044ZM2.7973 10.0636C2.9193 10.0661 3.04058 10.0443 3.15418 9.99939C3.26778 9.95452 3.37147 9.88749 3.4593 9.80214C3.54712 9.71678 3.61733 9.61479 3.66593 9.50201C3.71453 9.38924 3.74054 9.26791 3.74247 9.14498C3.75686 9.01543 3.74437 8.88428 3.70581 8.75985C3.66726 8.63541 3.60347 8.52041 3.51848 8.42212C3.4335 8.32384 3.32919 8.2444 3.21214 8.18887C3.09509 8.13334 2.96786 8.10292 2.83853 8.09953C2.7092 8.09614 2.58058 8.11986 2.46082 8.16919C2.34107 8.21852 2.23279 8.29238 2.14285 8.38608C2.05291 8.47979 1.98328 8.59129 1.93835 8.71354C1.89343 8.83579 1.8742 8.9661 1.88189 9.09623C1.87584 9.22208 1.89524 9.34785 1.9389 9.46591C1.98256 9.58397 2.04958 9.69186 2.13588 9.78303C2.22218 9.8742 2.32597 9.94675 2.44095 9.99627C2.55593 10.0458 2.67971 10.0712 2.80475 10.0711L2.7973 10.0636Z" fill="#7172BB"/>
<path d="M15.0002 12.5907C15.0009 13.4628 14.745 14.3155 14.2648 15.041C13.7845 15.7665 13.1016 16.3323 12.3022 16.6667C11.5029 17.0011 10.6231 17.0892 9.77405 16.9198C8.92503 16.7504 8.14493 16.3311 7.5324 15.715C6.91988 15.0988 6.50243 14.3135 6.33286 13.4583C6.16329 12.6031 6.24921 11.7165 6.57974 10.9105C6.91028 10.1045 7.47057 9.41539 8.18981 8.93027C8.90904 8.44515 9.75491 8.18581 10.6204 8.18507C11.1954 8.18359 11.7649 8.29648 12.2965 8.51727C12.8281 8.73805 13.3111 9.0624 13.718 9.47169C14.1249 9.88099 14.4477 10.3672 14.6677 10.9024C14.8877 11.4376 15.0007 12.0114 15.0002 12.5907ZM8.79704 13.5505C8.79093 13.7115 8.81822 13.8721 8.87717 14.0218C8.93611 14.1716 9.02542 14.3074 9.13938 14.4204C9.34291 14.6264 9.60147 14.7684 9.88361 14.8291C9.90322 14.8308 9.92225 14.8366 9.93941 14.8463C9.95658 14.856 9.97148 14.8693 9.98311 14.8853C9.99475 14.9013 10.0029 14.9196 10.0069 14.939C10.0109 14.9584 10.0107 14.9785 10.0064 14.9978C10.0064 15.1853 10.0064 15.3728 10.0064 15.5602V15.7327H11.2567V14.8703C11.3646 14.8329 11.4688 14.8029 11.5656 14.7616C11.6643 14.7209 11.76 14.6733 11.8521 14.6191C12.116 14.4488 12.3142 14.1927 12.4137 13.8933C12.5132 13.5939 12.508 13.2692 12.3991 12.9731C12.3466 12.8206 12.2588 12.6829 12.143 12.5714C12.0271 12.4599 11.8866 12.3778 11.733 12.332C11.4502 12.2382 11.1525 12.1782 10.8623 12.1107C10.6367 12.0757 10.4166 12.0115 10.2074 11.9195C10.1434 11.8859 10.0898 11.8353 10.0524 11.7732C10.015 11.711 9.99522 11.6398 9.99522 11.5671C9.99522 11.4944 10.015 11.4231 10.0524 11.361C10.0898 11.2988 10.1434 11.2482 10.2074 11.2146C10.3208 11.1537 10.4457 11.1176 10.5739 11.1085C10.7022 11.0995 10.8308 11.1177 10.9516 11.1621C11.0498 11.187 11.1388 11.2399 11.2081 11.3143C11.2774 11.3888 11.324 11.4817 11.3423 11.5821C11.3423 11.6346 11.387 11.6383 11.4279 11.6383H12.3135H12.3842C12.3844 11.399 12.3131 11.1651 12.1796 10.9672C11.9758 10.6783 11.6784 10.4701 11.3386 10.3785C11.3248 10.3763 11.3116 10.3712 11.2998 10.3637C11.288 10.3563 11.2778 10.3464 11.2698 10.3349C11.2618 10.3234 11.2562 10.3103 11.2533 10.2966C11.2504 10.2828 11.2503 10.2686 11.253 10.2548C11.253 10.0261 11.253 9.79733 11.253 9.56487C11.253 9.53487 11.253 9.50113 11.253 9.46364H10.0101V10.3448L9.91711 10.3747C9.66774 10.4332 9.4402 10.5625 9.26148 10.7472C9.08276 10.932 8.96033 11.1644 8.90867 11.4171C8.8295 11.7069 8.86226 12.0162 9.00036 12.2827C9.13845 12.5491 9.37162 12.753 9.6529 12.8531C9.93274 12.9435 10.2172 13.0186 10.505 13.0781C10.7327 13.1284 10.9565 13.1948 11.1749 13.2768C11.2304 13.3041 11.2783 13.3449 11.3143 13.3955C11.3502 13.4462 11.3731 13.505 11.3809 13.5667C11.3886 13.6285 11.381 13.6912 11.3587 13.7493C11.3364 13.8073 11.3 13.8589 11.253 13.8992C11.083 14.0186 10.8817 14.0848 10.6746 14.0894C10.4674 14.0941 10.2634 14.0371 10.0883 13.9255C10.0286 13.881 9.97849 13.8249 9.94078 13.7604C9.90306 13.696 9.87856 13.6247 9.86873 13.5505H8.79704Z" fill="#7172BB"/>
</svg>
