<svg width="46" height="46" viewBox="0 0 46 46" fill="none" xmlns="http://www.w3.org/2000/svg">
<circle cx="23.4004" cy="23.4077" r="22.5" fill="#E4E4F3"/>
<path d="M8.83789 11.7615V23.2562C8.83789 23.6846 9.1632 24.0177 9.58145 24.0177H29.7041C30.1224 24.0177 30.4477 23.6846 30.4477 23.2562V11.7615C30.4477 11.3332 30.1224 11 29.7041 11H9.60469C9.1632 11 8.83789 11.3332 8.83789 11.7615Z" fill="#6E43B7"/>
<path d="M29.6793 24.1837H11.9268V23.8267H29.6793C29.9814 23.8267 30.237 23.5649 30.237 23.2555V17.3535H30.5855V23.2555C30.5855 23.7553 30.1905 24.1837 29.6793 24.1837Z" fill="#222222"/>
<path d="M12.2078 21.5664C13.0933 21.5664 13.8111 20.8312 13.8111 19.9243C13.8111 19.0174 13.0933 18.2822 12.2078 18.2822C11.3223 18.2822 10.6045 19.0174 10.6045 19.9243C10.6045 20.8312 11.3223 21.5664 12.2078 21.5664Z" fill="white"/>
<path d="M30.4245 13.5225H8.83789V16.2831H30.4245V13.5225Z" fill="#222222"/>
<path d="M38.9986 28.1587H16.3896V36.1074H38.9986V28.1587Z" fill="white"/>
<path d="M39.1376 36.2497H16.2266V27.9917H39.1376V36.2497ZM16.5286 35.9404H38.8355V28.3011H16.5286V35.9404Z" fill="black"/>
<path d="M35.6978 31.1333H25.2646V31.4903H35.6978V31.1333Z" fill="black"/>
<path d="M35.6978 32.7993H25.2646V33.1563H35.6978V32.7993Z" fill="black"/>
<path d="M22.0372 34.0123C23.0895 34.0123 23.9426 33.1386 23.9426 32.0608C23.9426 30.9831 23.0895 30.1094 22.0372 30.1094C20.9849 30.1094 20.1318 30.9831 20.1318 32.0608C20.1318 33.1386 20.9849 34.0123 22.0372 34.0123Z" fill="#6E43B7"/>
<path d="M22.0373 34.2032C21.5029 34.2032 20.9917 33.989 20.5967 33.6083L20.8523 33.3465C21.1776 33.6559 21.5958 33.8463 22.0373 33.8463C22.99 33.8463 23.7568 33.0609 23.7568 32.0852C23.7568 31.4902 23.478 30.9428 22.99 30.6097L23.1991 30.3003C23.7801 30.7049 24.1054 31.3474 24.1054 32.0614C24.1286 33.2513 23.1991 34.2032 22.0373 34.2032Z" fill="black"/>
<path d="M38.717 24.8281L39.4303 26.1979L40.8442 25.7544L40.4238 27.2415L41.7231 27.9851L40.4238 28.7287L40.8442 30.229L39.4303 29.7854L38.717 31.1552L38.0037 29.7854L36.5899 30.229L36.9975 28.7287L35.6982 27.9851L36.9975 27.2415L36.5899 25.7544L38.0037 26.1979L38.717 24.8281Z" fill="#6E43B7"/>
<path d="M37.5957 27.2807C37.5957 26.9676 37.825 26.7197 38.1434 26.7197C38.4491 26.7197 38.6911 26.9676 38.6911 27.2807C38.6911 27.5938 38.4618 27.8416 38.1434 27.8416C37.825 27.8286 37.5957 27.5807 37.5957 27.2807ZM39.328 27.0589L39.5063 27.1633L37.9651 28.9636L37.7868 28.8462L39.328 27.0589ZM38.3727 27.2807C38.3727 27.1372 38.2708 27.0198 38.1307 27.0198C37.9906 27.0198 37.8887 27.1372 37.8887 27.2807C37.8887 27.4242 37.9906 27.5286 38.1307 27.5286C38.2835 27.5286 38.3727 27.4111 38.3727 27.2807ZM38.6656 28.6896C38.6656 28.3765 38.8949 28.1286 39.2134 28.1286C39.5191 28.1286 39.7611 28.3765 39.7611 28.6896C39.7611 29.0027 39.5318 29.2506 39.2134 29.2506C38.8949 29.2506 38.6656 29.0027 38.6656 28.6896ZM39.4426 28.6896C39.4426 28.5461 39.3407 28.4287 39.2006 28.4287C39.0605 28.4287 38.9586 28.5461 38.9586 28.6896C38.9586 28.8331 39.0605 28.9375 39.2006 28.9375C39.3535 28.9375 39.4426 28.8331 39.4426 28.6896Z" fill="white"/>
</svg>
