<svg width="46" height="46" viewBox="0 0 46 46" fill="none" xmlns="http://www.w3.org/2000/svg">
<circle cx="22.6787" cy="22.9077" r="22.5" fill="#E4E4F3"/>
<path d="M26.1509 33.3343H17.2084C15.5305 33.3343 14.1641 31.9679 14.1641 30.29V8.27085C14.1641 6.59303 15.5305 5.22656 17.2084 5.22656H26.1509C27.8288 5.22656 29.1952 6.59303 29.1952 8.27085V30.29C29.1952 31.9679 27.8461 33.3343 26.1509 33.3343Z" fill="white"/>
<path d="M27.4304 33.4887H15.9278C14.8727 33.4887 14.0078 32.6239 14.0078 31.5688V7.00689C14.0078 5.95177 14.8727 5.08691 15.9278 5.08691H27.4304C28.4855 5.08691 29.3503 5.95177 29.3503 7.00689V31.5688C29.3503 32.6239 28.4855 33.4887 27.4304 33.4887ZM15.9278 5.38096C15.0283 5.38096 14.3192 6.10744 14.3192 6.98959V31.5515C14.3192 32.4509 15.0456 33.1601 15.9278 33.1601H27.4304C28.3298 33.1601 29.039 32.4336 29.039 31.5515V6.98959C29.039 6.09015 28.3125 5.38096 27.4304 5.38096H15.9278V5.38096Z" fill="#222222"/>
<path d="M29.1775 7.99268H14.1982V8.28673H29.1775V7.99268Z" fill="#222222"/>
<path d="M25.9951 13.6143C25.0264 13.6143 24.248 12.836 24.248 11.8673V11.85C24.248 10.8814 25.0264 10.103 25.9951 10.103C26.9637 10.103 27.7421 10.8814 27.7421 11.85V11.8673C27.7421 12.8187 26.9637 13.6143 25.9951 13.6143Z" fill="#6E43B7"/>
<path d="M25.529 11.1753H25.2695V12.5764H25.529V11.1753Z" fill="white"/>
<path d="M26.3227 11.1748C26.3054 11.3478 26.2709 11.4689 26.219 11.5726C26.1671 11.6764 26.0806 11.7629 25.9595 11.8321C25.9422 11.8494 25.9249 11.8667 25.9249 11.8667C25.9249 11.884 25.9422 11.884 25.9595 11.9013C26.0633 11.9705 26.1498 12.0397 26.219 12.1434C26.2881 12.2472 26.3227 12.3856 26.3573 12.5759H26.0633C26.0633 12.4375 26.0287 12.3164 25.9768 12.2472C25.9249 12.1607 25.8557 12.1088 25.7519 12.0397C25.6655 12.0051 25.6309 11.9359 25.6309 11.884C25.6309 11.8148 25.6655 11.7629 25.7519 11.6937C25.8557 11.6072 25.9422 11.538 25.9768 11.4689C26.0114 11.3997 26.046 11.2959 26.046 11.1748H26.3227Z" fill="white"/>
<path d="M26.4971 11.3302C26.4971 11.2437 26.5663 11.1572 26.67 11.1572C26.7565 11.1572 26.843 11.2264 26.843 11.3302C26.843 11.434 26.7738 11.5032 26.67 11.5032C26.5663 11.4859 26.4971 11.4167 26.4971 11.3302Z" fill="#9594D2"/>
<path d="M23.4005 11.2275H15.8936V11.5216H23.4005V11.2275Z" fill="black"/>
<path d="M23.4005 12.6978H15.8936V12.9918H23.4005V12.6978Z" fill="black"/>
<path d="M23.4174 19.6855C20.8574 19.6855 18.6607 18.5958 17.7612 17.0391C16.8618 18.5958 14.665 19.6855 12.1051 19.6855C11.7245 19.6855 11.3613 19.6682 10.998 19.6163V28.0919C10.998 30.0984 12.0705 31.9492 13.8002 32.9524L17.7612 35.2356L21.7222 32.9524C23.452 31.9492 24.5244 30.0984 24.5244 28.0919V19.6163C24.1611 19.6682 23.7979 19.6855 23.4174 19.6855Z" fill="#CACAE6"/>
<path d="M21.7228 32.9524C23.4525 31.9492 24.5249 30.0984 24.5249 28.0919V19.6163C24.1616 19.6682 23.7984 19.6855 23.4179 19.6855C20.8579 19.6855 18.6612 18.5958 17.7617 17.0391V35.2529L21.7228 32.9524Z" fill="#B0B0DA"/>
<path d="M17.8306 35.3736L17.6749 35.1141L21.636 32.8309C23.3138 31.8622 24.3689 30.046 24.3689 28.0915V19.7889C24.0576 19.8235 23.7289 19.8408 23.4176 19.8408C20.8576 19.8408 18.5917 18.7683 17.623 17.1078L17.8825 16.9521C18.7992 18.5089 20.9614 19.5294 23.4176 19.5294C23.7808 19.5294 24.144 19.5121 24.5073 19.4602L24.6803 19.4429V28.0915C24.6803 30.1498 23.5732 32.0525 21.7916 33.0903L17.8306 35.3736Z" fill="#222222"/>
<path d="M15.388 26.1223L14.9844 26.5259L17.0514 28.5929L17.455 28.1893L15.388 26.1223Z" fill="#6E43B7"/>
<path d="M21.5267 24.0984L21.123 23.6948L16.6344 28.1835L17.038 28.5871L21.5267 24.0984Z" fill="#6E43B7"/>
<path d="M31.7012 29.1294H21.1846V39.646H31.7012V29.1294Z" fill="#6E43B7"/>
<path d="M31.805 39.7498H21.1846V39.5423H31.6147V29.1294H31.805V39.7498Z" fill="#222222"/>
<path d="M29.3332 37.4145H23.5732V35.6502C23.5732 35.0275 24.0749 34.5259 24.6976 34.5259H28.2089C28.8316 34.5259 29.3332 35.0275 29.3332 35.6502V37.4145Z" fill="white"/>
<path d="M27.8794 33.8338H25.0254V32.2252C25.0254 31.7409 25.4059 31.3604 25.8902 31.3604H26.9973C27.4816 31.3604 27.8621 31.7409 27.8621 32.2252V33.8338H27.8794Z" fill="white"/>
</svg>
