<svg width="93" height="88" viewBox="0 0 93 88" fill="none" xmlns="http://www.w3.org/2000/svg">
<path d="M42.9178 85.978C66.133 85.978 84.9527 67.1583 84.9527 43.943C84.9527 20.7278 66.133 1.90808 42.9178 1.90808C19.7025 1.90808 0.882812 20.7278 0.882812 43.943C0.882812 67.1583 19.7025 85.978 42.9178 85.978Z" fill="#E4E4F3"/>
<path d="M68.4632 17.9702H14.4102V36.51H68.4632V17.9702Z" fill="white"/>
<path d="M68.803 36.8518H14.0664V17.6H68.8314V36.8518H68.803ZM14.7784 36.1398H68.1195V18.312H14.7784V36.1398Z" fill="black"/>
<path d="M60.6038 24.9191H35.6562V25.7734H60.6038V24.9191Z" fill="black"/>
<path d="M60.6038 28.8207H35.6562V29.675H60.6038V28.8207Z" fill="black"/>
<path d="M37.8789 45.8512V73.4188C37.8789 74.444 38.7048 75.213 39.6731 75.213H89.0841C90.1093 75.213 90.8783 74.3871 90.8783 73.4188V45.8512C90.8783 44.8259 90.0524 44.057 89.0841 44.057H39.7016C38.7048 44 37.8789 44.8259 37.8789 45.8512Z" fill="#9595CE"/>
<path d="M89.0829 75.6401H45.4531V74.7857H89.0829C89.8518 74.7857 90.4499 74.1592 90.4499 73.4187V59.2362H91.3043V73.3903C91.3043 74.6433 90.3075 75.6401 89.0829 75.6401Z" fill="black"/>
<path d="M46.1617 69.4032C48.348 69.4032 50.1203 67.6309 50.1203 65.4447C50.1203 63.2584 48.348 61.4861 46.1617 61.4861C43.9754 61.4861 42.2031 63.2584 42.2031 65.4447C42.2031 67.6309 43.9754 69.4032 46.1617 69.4032Z" fill="white"/>
<path d="M90.9352 50.0375H37.8789V56.6731H90.9352V50.0375Z" fill="black"/>
<path d="M27.9394 31.6686C30.456 31.6686 32.4961 29.6285 32.4961 27.1119C32.4961 24.5954 30.456 22.5553 27.9394 22.5553C25.4229 22.5553 23.3828 24.5954 23.3828 27.1119C23.3828 29.6285 25.4229 31.6686 27.9394 31.6686Z" fill="#6E43B7"/>
<path d="M27.942 32.0673C26.6605 32.0673 25.4359 31.5831 24.4961 30.6718L25.0942 30.0453C25.8631 30.7857 26.8883 31.1844 27.942 31.1844C30.2204 31.1844 32.0715 29.3333 32.0715 27.055C32.0715 25.688 31.388 24.4064 30.2488 23.6375L30.733 22.9255C32.1 23.8653 32.9259 25.4032 32.9259 27.055C32.9259 29.8459 30.7045 32.0673 27.942 32.0673Z" fill="black"/>
</svg>
