<svg width="30" height="29" viewBox="0 0 30 29" fill="none" xmlns="http://www.w3.org/2000/svg">
<path fill-rule="evenodd" clip-rule="evenodd" d="M23.3327 22.1663C23.3327 24.0993 21.7657 25.6663 19.8327 25.6663H8.16602C6.23302 25.6663 4.66602 24.0993 4.66602 22.1663V5.83301C4.66602 3.90001 6.23302 2.33301 8.16602 2.33301H16.2961C16.8596 2.33301 17.3969 2.5707 17.776 2.98762L22.8125 8.52754C23.1472 8.89568 23.3327 9.37537 23.3327 9.87292V22.1663ZM13.9993 4.66634H8.16602C7.56771 4.66634 7.07459 5.11672 7.0072 5.69695L6.99935 5.83301V22.1663C6.99935 22.7646 7.44973 23.2578 8.02996 23.3252L8.16602 23.333H19.8327C20.431 23.333 20.9241 22.8826 20.9915 22.3024L20.9993 22.1663V11.6663H16.9993C15.3425 11.6663 13.9993 10.3232 13.9993 8.66634V4.66634ZM16.3327 4.86818V8.33301C16.3327 8.88529 16.7804 9.33301 17.3327 9.33301H20.3915L16.3327 4.86818Z" fill="#6E43B7"/>
</svg>
