<svg width="31" height="30" viewBox="0 0 31 30" fill="none" xmlns="http://www.w3.org/2000/svg">
<path fill-rule="evenodd" clip-rule="evenodd" d="M10.1158 5.37483C9.66277 5.36057 9.22263 5.52664 8.89198 5.83659C8.56715 6.14107 8.37407 6.55996 8.35312 7.00405C8.37407 7.44815 8.56716 7.86704 8.89198 8.17152C9.19373 8.45438 9.58665 8.61741 9.99732 8.63291H14.1117C13.9483 8.26745 13.7259 7.83558 13.4378 7.40706C12.7075 6.32057 11.6445 5.37519 10.1385 5.37519C10.1309 5.37519 10.1233 5.37507 10.1158 5.37483ZM6.90817 7.02799C6.92724 7.60324 7.10294 8.15709 7.4096 8.63291H4.80833C4.40936 8.63291 4.08594 8.95633 4.08594 9.3553V13.1178C4.08594 13.5168 4.40936 13.8402 4.80833 13.8402H14.4319V24.6245H8.57119C8.26383 24.6245 7.96907 24.5024 7.75174 24.285C7.53441 24.0677 7.41231 23.7729 7.41231 23.4656V15.9405C7.41231 15.5416 7.08889 15.2181 6.68992 15.2181C6.29096 15.2181 5.96753 15.5416 5.96753 15.9405V23.4656C5.96753 24.1561 6.24184 24.8184 6.73012 25.3067C7.2184 25.7949 7.88065 26.0692 8.57119 26.0692H21.74C22.4306 26.0692 23.0928 25.7949 23.5811 25.3067C24.0694 24.8184 24.3437 24.1561 24.3437 23.4656V15.9405C24.3437 15.5416 24.0203 15.2181 23.6213 15.2181C23.2223 15.2181 22.8989 15.5416 22.8989 15.9405V23.4656C22.8989 23.7729 22.7768 24.0677 22.5595 24.285C22.3421 24.5024 22.0474 24.6245 21.74 24.6245H15.8767V13.8402H25.5022C25.9012 13.8402 26.2246 13.5168 26.2246 13.1178V9.3553C26.2246 8.95633 25.9012 8.63291 25.5022 8.63291H22.8989C23.2056 8.15709 23.3813 7.60324 23.4004 7.02799C23.4009 7.01204 23.4009 6.99607 23.4004 6.98012C23.3727 6.1446 23.0145 5.35422 22.4046 4.7825C21.7976 4.21345 20.9904 3.90731 20.159 3.93042C17.9619 3.93511 16.5204 5.3384 15.6717 6.60105C15.4721 6.89797 15.3003 7.19377 15.1543 7.4727C15.0082 7.19377 14.8365 6.89797 14.6369 6.60105C13.7881 5.3384 12.3466 3.93511 10.1495 3.93042C9.3181 3.90731 8.51097 4.21345 7.9039 4.7825C7.29399 5.35422 6.93587 6.1446 6.90817 6.98012L7.63017 7.00405L6.90817 7.02799ZM15.8767 12.3954H24.7798V10.0777H20.3344C20.2762 10.0793 20.2179 10.0793 20.1594 10.0777H15.8767V12.3954ZM14.4319 10.0777H10.1491C10.0906 10.0793 10.0323 10.0793 9.9741 10.0777H5.53072V12.3954H14.4319V10.0777ZM21.4165 8.17152C21.1148 8.45438 20.7219 8.61741 20.3112 8.63291H16.1968C16.3602 8.26745 16.5827 7.83558 16.8707 7.40706C17.6011 6.32057 18.664 5.37519 20.17 5.37519C20.1776 5.37519 20.1852 5.37507 20.1928 5.37483C20.6458 5.36057 21.0859 5.52664 21.4165 5.83659C21.7414 6.14107 21.9345 6.55996 21.9554 7.00405C21.9345 7.44815 21.7414 7.86704 21.4165 8.17152Z" fill="#6E43B7"/>
</svg>
