<svg xmlns="http://www.w3.org/2000/svg" xmlns:xlink="http://www.w3.org/1999/xlink" width="165" height="70" viewBox="0 0 165 70">
    <defs>
        <path id="a" d="M.341.233h24.614v43.455H.34z"/>
        <path id="c" d="M0 .23h85.834v44.538H0z"/>
        <path id="e" d="M.186.285H9.82V16H.186z"/>
    </defs>
    <g fill="none" fill-rule="evenodd">
        <path fill="#F26622" d="M153.441 39.5c0-3.282 2.578-5.5 5.5-5.5 2.926 0 5.5 2.218 5.5 5.5s-2.574 5.5-5.5 5.5c-2.922 0-5.5-2.218-5.5-5.5zm5.53-.622c.936 0 1.2-.502 1.2-.946 0-.53-.264-.944-1.2-.944h-1.197v1.89h1.196zm-1.197.857v3.018h-.965v-6.655h2.397c1.402 0 2.048.622 2.048 1.834 0 .74-.5 1.333-1.141 1.417v.032c.554.09.76.592.877 1.509.088.59.205 1.625.411 1.863h-1.141c-.265-.622-.236-1.509-.442-2.247-.171-.563-.465-.77-1.108-.77h-.936zm5.613-.235c0-2.66-1.868-4.613-4.446-4.613-2.574 0-4.446 1.952-4.446 4.613 0 2.66 1.872 4.61 4.446 4.61 2.578 0 4.446-1.95 4.446-4.61zM135.282 44l-6.096-6.612L123.147 44h-12.706l12.421-13.499L110.442 17h13.104l6.152 6.557L135.623 17h12.649l-12.363 13.445L148.44 44z"/>
        <g transform="translate(85.441 1)">
            <mask id="b" fill="#fff">
                <use xlink:href="#a"/>
            </mask>
            <path fill="#F26622" d="M.341 43.688V.232h24.614V9.92H10.767v6.183h14.188v9.32H10.767v8.554h14.188v9.712z" mask="url(#b)"/>
        </g>
        <g transform="translate(.441)">
            <mask id="d" fill="#fff">
                <use xlink:href="#c"/>
            </mask>
            <path fill="#4E2D87" d="M69.388 36.665c-3.772 0-6.117-3.457-6.117-7.066 0-3.857 2.04-7.566 6.117-7.566 4.229 0 5.912 3.709 5.912 7.566 0 3.658-1.785 7.066-5.912 7.066zM33.021 25.271c.646-2.73 2.8-4.514 5.488-4.514 2.959 0 5.003 1.73 5.54 4.514H33.021zM75.599.23v17.588h-.112c-2.266-2.56-5.097-3.45-8.381-3.45-6.73 0-11.797 4.497-13.577 10.443-2.029-6.55-7.262-10.566-15.02-10.566-6.302 0-11.277 2.78-13.874 7.312v-5.631H11.61V9.81h14.213V.23H0v42.978h11.61V25.143h11.573a16.85 16.85 0 0 0-.53 4.247c0 8.965 6.966 15.256 15.856 15.256 7.474 0 12.401-3.451 15.007-9.742h-9.95c-1.346 1.891-2.367 2.451-5.057 2.451-3.12 0-5.81-2.676-5.81-5.849h20.259c.879 7.121 6.52 13.262 14.262 13.262a9.962 9.962 0 0 0 8.267-4.342h.112v2.782h10.235V.23H75.599z" mask="url(#d)"/>
        </g>
        <path fill="#4E2D87" d="M86.441 66V50h8.676v1.195h-7.244v5.897h6.939v1.195h-6.94v6.517h7.57V66zM96.441 66l4.178-5.654L96.656 55h1.606l3.234 4.37 3.168-4.37h1.606l-4.026 5.346L106.441 66h-1.626l-3.47-4.676L98.048 66z"/>
        <g transform="translate(107.441 54)">
            <mask id="f" fill="#fff">
                <use xlink:href="#e"/>
            </mask>
            <path fill="#4E2D87" d="M8.425 6.166c0-2.396-.97-4.75-3.55-4.75-2.43 0-3.311 2.065-3.311 4.75 0 2.688.881 4.75 3.311 4.75 2.58 0 3.55-2.35 3.55-4.75zM1.564 16H.252V3.904c0-1.112 0-2.242-.066-3.353h1.292l.044 1.688C2.337.905 3.412.285 5.027.285c3.354 0 4.794 2.863 4.794 5.88 0 3.022-1.44 5.885-4.794 5.885-1.507 0-2.69-.6-3.463-1.887V16z" mask="url(#f)"/>
        </g>
        <path fill="#4E2D87" d="M123.627 55.364c-2.115 0-2.847 1.971-2.847 4.007V66h-1.277v-8.273c0-1.135-.02-2.29-.062-3.45h1.257l.082 1.69c.628-1.342 1.675-1.967 3.075-1.967.188 0 .398.022.586.045v1.413c-.293-.047-.524-.094-.814-.094M126.83 59.206h6.262c0-2.242-.973-4.167-2.965-4.167-1.802 0-3.048 1.495-3.296 4.167zm-.04 1.042c0 2.58 1.12 4.709 3.42 4.709 1.782 0 2.613-1.29 2.924-2.581h1.204c-.562 2.4-1.91 3.624-4.293 3.624-3.193 0-4.604-2.582-4.604-5.796 0-3.284 1.473-6.204 4.77-6.204 3.338 0 4.23 3.191 4.23 6.248h-7.65zM139.344 66c-2.23 0-3.903-1.11-3.903-3.624h1.308c0 1.72 1.073 2.58 2.66 2.58 1.48 0 2.638-.747 2.638-2.284 0-1.38-1.351-1.746-2.767-2.174-1.715-.52-3.582-1.088-3.582-3.307 0-2.467 1.95-3.191 3.777-3.191 2.1 0 3.668.859 3.731 3.235h-1.309c-.063-1.356-.986-2.126-2.38-2.126-1.095 0-2.425.45-2.425 1.945 0 1.361 1.33 1.745 2.745 2.152 1.718.498 3.604 1.042 3.604 3.26 0 2.583-1.886 3.534-4.097 3.534M148.345 66c-2.232 0-3.904-1.11-3.904-3.624h1.309c0 1.72 1.071 2.58 2.66 2.58 1.48 0 2.637-.747 2.637-2.284 0-1.38-1.352-1.746-2.768-2.174-1.714-.52-3.58-1.088-3.58-3.307 0-2.467 1.952-3.191 3.775-3.191 2.1 0 3.667.859 3.73 3.235h-1.308c-.063-1.356-.986-2.126-2.38-2.126-1.094 0-2.424.45-2.424 1.945 0 1.361 1.33 1.745 2.746 2.152 1.716.498 3.603 1.042 3.603 3.26 0 2.583-1.887 3.534-4.096 3.534"/>
    </g>
</svg>
