<svg xmlns="http://www.w3.org/2000/svg" width="145" height="48" viewBox="0 0 145 48">
    <path fill="#1D1D1B" fill-rule="evenodd" d="M98 0v48h-7V0h7zM64.28.585l10.24 23.36 10.24 23.8h-8.61l-5.935-13.942-5.935-13.94-5.934 13.72-5.935 14.162H43.8l10.24-23.58L64.28.584zM124.267.58l10.24 23.363 10.241 23.802h-8.613L130.201 33.8l-5.934-13.945-5.934 13.725-5.935 14.164h-8.61l10.24-23.581L124.266.579zM23.782.136c3.59 0 7.052.77 10.32 2.372l-3.268 6.667c-2.18-1.026-4.552-1.602-7.052-1.602-4.36 0-8.462 1.73-11.539 4.807-3.077 3.077-4.807 7.18-4.807 11.54 0 4.359 1.73 8.46 4.807 11.538 3.077 3.077 7.18 4.808 11.539 4.808 2.564 0 5-.576 7.243-1.73h.065v-7.308h-5.963l3.72-6.732h9.741V42.64l-1.73 1.153c-.769.513-1.602 1.026-2.5 1.41-3.268 1.668-6.858 2.501-10.576 2.501a23.74 23.74 0 0 1-9.231-1.86c-2.884-1.217-5.385-2.949-7.563-5.128-2.18-2.18-3.91-4.68-5.129-7.565A23.753 23.753 0 0 1 0 23.92c0-3.206.642-6.347 1.86-9.232 1.217-2.884 2.948-5.385 5.128-7.565 2.178-2.179 4.68-3.91 7.563-5.128a23.743 23.743 0 0 1 9.23-1.859z"/>
</svg>
