<svg xmlns="http://www.w3.org/2000/svg" width="281" height="71" viewBox="0 0 281 71">
    <g fill="none" fill-rule="evenodd">
        <path fill="#009EE3" d="M24.517 16.634h19.2c10.307 0 14.188 5.417 13.588 13.376-.991 13.14-8.643 20.41-18.793 20.41h-5.124c-1.393 0-2.33.957-2.706 3.55l-2.176 15.075c-.143.977-.639 1.543-1.382 1.62H15.06c-1.135 0-1.536-.9-1.239-2.85l7.355-48.326c.287-1.935 1.308-2.855 3.34-2.855z"/>
        <path fill="#113984" d="M107.87 15.738c6.478 0 12.454 3.648 11.637 12.74-.991 10.804-6.567 16.782-15.364 16.808h-7.686c-1.105 0-1.64.936-1.928 2.855l-1.487 9.811c-.223 1.482-.956 2.213-2.037 2.213h-7.151c-1.14 0-1.536-.757-1.284-2.45l5.903-39.322c.292-1.934.991-2.655 2.265-2.655h17.132zM96.224 36.791h5.823c3.643-.144 6.061-2.762 6.304-7.485.149-2.918-1.75-5.007-4.768-4.991l-5.48.026-1.88 12.45zm42.725 20.364c.654-.617 1.318-.936 1.224-.175l-.233 1.821c-.119.952.243 1.456 1.095 1.456h6.354c1.07 0 1.59-.447 1.853-2.166l3.915-25.508c.199-1.281-.104-1.909-1.04-1.909h-6.988c-.63 0-.937.365-1.1 1.363l-.258 1.57c-.134.818-.496.962-.833.139-1.184-2.912-4.207-4.22-8.425-4.116-9.798.21-16.404 7.933-17.112 17.832-.546 7.656 4.737 13.67 11.705 13.67 5.055 0 7.315-1.543 9.863-3.962l-.02-.015zm-5.323-3.926c-4.217 0-7.156-3.493-6.547-7.774.61-4.28 4.555-7.774 8.772-7.774 4.218 0 7.157 3.494 6.547 7.774-.61 4.281-4.55 7.774-8.772 7.774zm31.966-22.637h-6.443c-1.328 0-1.868 1.029-1.447 2.294l7.999 24.315-7.845 11.571c-.66.967-.15 1.847.778 1.847h7.24a2.19 2.19 0 0 0 2.151-1.096l24.601-36.631c.758-1.127.402-2.31-.842-2.31h-6.854c-1.175 0-1.646.483-2.32 1.497l-10.258 15.434-4.585-15.47c-.267-.937-.936-1.451-2.17-1.451h-.005z"/>
        <path fill="#009EE3" d="M218.219 15.738c6.477 0 12.454 3.648 11.636 12.74-.991 10.804-6.567 16.782-15.363 16.808h-7.682c-1.105 0-1.64.936-1.928 2.855l-1.487 9.811c-.223 1.482-.956 2.213-2.036 2.213h-7.152c-1.14 0-1.536-.757-1.283-2.45l5.912-39.332c.292-1.935.991-2.655 2.265-2.655h17.118v.01zm-11.647 21.053h5.823c3.643-.144 6.061-2.762 6.304-7.485.149-2.918-1.75-5.007-4.767-4.991l-5.482.026-1.878 12.45zm42.725 20.364c.654-.617 1.318-.936 1.224-.175l-.233 1.821c-.119.952.243 1.456 1.095 1.456h6.354c1.07 0 1.59-.447 1.853-2.166l3.916-25.508c.198-1.281-.104-1.909-1.041-1.909h-6.978c-.63 0-.937.365-1.1 1.363l-.258 1.57c-.134.818-.496.962-.833.139-1.184-2.912-4.207-4.22-8.425-4.116-9.797.21-16.404 7.933-17.112 17.832-.545 7.656 4.738 13.67 11.706 13.67 5.055 0 7.314-1.543 9.862-3.962l-.03-.015zm-5.318-3.926c-4.217 0-7.156-3.493-6.546-7.774.61-4.28 4.554-7.774 8.772-7.774 4.217 0 7.156 3.494 6.546 7.774-.61 4.281-4.554 7.774-8.772 7.774zm29.305 7.07h-7.335a.852.852 0 0 1-.682-.296.923.923 0 0 1-.215-.733l6.443-42.374c.126-.596.631-1.022 1.219-1.029h7.334a.852.852 0 0 1 .682.295.923.923 0 0 1 .215.734l-6.442 42.374c-.123.6-.629 1.03-1.22 1.039v-.01z"/>
        <path fill="#113984" d="M12.509 0h19.219c5.412 0 11.834.18 16.126 4.116 2.87 2.629 4.376 6.812 4.03 11.319-1.18 15.234-9.957 23.77-21.732 23.77h-9.476c-1.616 0-2.681 1.11-3.137 4.115l-2.646 17.493c-.174 1.132-.645 1.8-1.487 1.883H1.546c-1.313 0-1.779-1.029-1.437-3.303l8.524-56.07C8.975 1.07 10.17 0 12.51 0z"/>
        <path fill="#172C70" d="M17.816 41.545l3.356-22.056c.292-1.935 1.313-2.86 3.345-2.86h19.2c3.176 0 5.748.514 7.76 1.466-1.928 13.562-10.378 21.094-21.44 21.094h-9.46c-1.269.005-2.2.664-2.76 2.356z"/>
    </g>
</svg>
