<svg xmlns="http://www.w3.org/2000/svg" width="104" height="65" viewBox="0 0 104 65">
    <g fill="none" fill-rule="evenodd">
        <g fill="#7972EB">
            <g>
                <g>
                    <path d="M79.874 22.998c-2.995-.002-5.433 2.413-5.435 5.384 0 1.438.564 2.79 1.59 3.809 1.025 1.018 2.389 1.578 3.84 1.58 2.995 0 5.433-2.414 5.435-5.384 0-2.97-2.435-5.388-5.43-5.39M17.144 0l69.75.034c9.413.005 17.11 7.645 17.106 16.979l-.011 22.362c-.005 9.334-7.71 16.967-17.122 16.962l-61.228-.03-9.17 6.342c-.472.395-.98.746-1.52 1.05l-.06.042c-.014.008-.032.015-.047.023C13.407 64.55 11.758 65 10.003 65 4.817 64.997.555 61.084.051 56.075c-.03-.148-.05-.3-.05-.463v-.51L0 55.07v-.015l.002-.016.01-22.505h.001L.02 16.962C.026 7.628 7.73-.005 17.143 0zm62.733 18.643c-5.418-.003-9.826 4.365-9.83 9.736-.001 2.602 1.02 5.05 2.874 6.89 1.855 1.841 4.321 2.855 6.946 2.856 2.007.001 3.875-.599 5.433-1.627v.9c0 .321.264.582.588.583l3.119.001c.324 0 .588-.26.59-.583l.003-9.01v-.364c-.003-.948-.147-1.862-.413-2.724-1.303-3.863-4.982-6.656-9.31-6.658zm-48.206.475c-.325 0-.588.26-.59.583l-.005 9.986c-.002 4.721 3.646 8.421 8.305 8.423 2.274.001 4.386-.885 5.947-2.495 1.526-1.574 2.367-3.677 2.367-5.92l.006-9.984c0-.323-.264-.585-.59-.586l-3.213-.002c-.324.001-.588.261-.59.583l-.004 9.987c-.001 1.113-.407 2.145-1.143 2.905-.724.747-1.71 1.157-2.777 1.157-2.197-.001-3.917-1.787-3.916-4.066l.005-9.987c-.001-.322-.264-.582-.59-.583zm27.3-.502c-2.273-.001-4.385.885-5.945 2.495-1.526 1.574-2.367 3.677-2.368 5.921l-.005 10.346c0 .323.264.585.59.585l3.212.002c.325 0 .588-.26.59-.583l.005-10.348c0-1.114.406-2.146 1.143-2.906.723-.746 1.71-1.158 2.776-1.157 2.198.001 3.917 1.787 3.917 4.066l-.006 10.35c.002.322.265.582.59.583l3.213.001c.324 0 .588-.26.59-.583l.005-10.349c.002-4.72-3.646-8.42-8.307-8.423zm-32.736.35c-2.008 0-3.875.55-5.433 1.515v-.786c-.001-.322-.264-.583-.589-.583L17 19.11c-.325 0-.588.262-.59.584l-.004 8.646v1.34l-.004 7.684c.002.322.264.583.589.583l3.213.002c.325 0 .588-.261.59-.584l.004-7.683v-1.339c.002-2.97 2.44-5.022 5.435-5.02h1.365c.325-.002.587-.262.588-.585l.001-3.185c0-.323-.263-.584-.588-.586z" transform="translate(-994 -4525) translate(156 4327) translate(838 198)"/>
                </g>
            </g>
        </g>
    </g>
</svg>
