<svg xmlns="http://www.w3.org/2000/svg" xmlns:xlink="http://www.w3.org/1999/xlink" width="238" height="67" viewBox="0 0 238 67">
    <defs>
        <path id="a" d="M.031.049h30.367V40H.03z"/>
    </defs>
    <g fill="none" fill-rule="evenodd">
        <path fill="#95BE47" d="M26.26 2.283c.36 0 .724.124 1.072.369-2.68 1.283-5.551 4.517-6.764 10.972-1.772.56-3.505 1.105-5.107 1.61 1.421-4.924 4.794-12.95 10.798-12.95m2.484 2.392c.515 1.312.85 3.195.85 5.735 0 .129-.002.249-.003.37-2.035.64-4.245 1.338-6.46 2.036 1.243-4.889 3.575-7.25 5.613-8.14m6.167 4.427l-3.127.985.002-.687c0-2.105-.287-3.799-.748-5.142 1.85.236 3.08 2.378 3.873 4.844m15.014 3.747a.63.63 0 0 0-.566-.536c-.236-.02-5.217-.396-5.217-.396S40.68 8.42 40.3 8.034c-.38-.387-1.123-.27-1.41-.183-.043.013-.756.236-1.937.609-1.156-3.387-3.196-6.499-6.785-6.499-.099 0-.2.005-.303.01C28.846.598 27.58 0 26.489 0c-8.36 0-12.353 10.64-13.606 16.048a9529.533 9529.533 0 0 0-5.851 1.847c-1.813.58-1.87.638-2.108 2.378C4.744 21.589 0 58.948 0 58.948L36.969 66 57 61.588s-7.031-48.405-7.076-48.737"/>
        <path fill="#5E8E3E" d="M49.37 13.436c-.236-.02-5.211-.387-5.211-.387s-3.455-3.425-3.835-3.804A.946.946 0 0 0 39.791 9L37 66l20-4.32s-7.022-47.394-7.066-47.72c-.044-.324-.33-.504-.565-.524"/>
        <path fill="#FFF" d="M31 22.001l-2.42 7.596s-2.122-1.194-4.721-1.194c-3.812 0-4.003 2.524-4.003 3.16 0 3.47 8.572 4.799 8.572 12.925 0 6.394-3.844 10.512-9.027 10.512C13.18 55 10 50.916 10 50.916l1.666-5.805s3.27 2.962 6.029 2.962c1.802 0 2.535-1.498 2.535-2.591 0-4.527-7.033-4.729-7.033-12.166C13.197 27.057 17.455 21 26.051 21 29.364 21 31 22.001 31 22.001"/>
        <path fill="#231F20" d="M81.852 37.107c-1.94-1.122-2.937-2.067-2.937-3.367 0-1.653 1.385-2.716 3.547-2.716 2.517 0 4.765 1.122 4.765 1.122L89 26.36S87.37 25 82.572 25c-6.677 0-11.303 4.075-11.303 9.804 0 3.247 2.16 5.728 5.042 7.5 2.328 1.417 3.158 2.421 3.158 3.898 0 1.535-1.163 2.774-3.324 2.774-3.219 0-6.261-1.771-6.261-1.771L68 52.993S70.81 55 75.536 55c6.87 0 11.801-3.602 11.801-10.098 0-3.484-2.493-5.964-5.485-7.795M110.173 25.631c-3.686 0-6.585 1.645-8.821 4.142l-.121-.056L104.433 14h-8.337L88 54h8.337l2.78-13.674c1.087-5.163 3.927-8.34 6.585-8.34 1.873 0 2.598 1.191 2.598 2.894 0 1.077-.121 2.383-.363 3.46L104.796 54h8.337l3.262-16.17c.362-1.702.605-3.745.605-5.107 0-4.425-2.478-7.092-6.827-7.092M132.579 48.765c-2.843 0-4.052-2.353-4.052-5.294 0-4.647 2.48-12.235 7.015-12.235 2.963 0 3.931 2.47 3.931 4.882 0 5-2.48 12.647-6.894 12.647M136.691 25C126.652 25 120 33.824 120 43.648 120 49.942 123.991 55 131.49 55c9.858 0 16.51-8.588 16.51-18.647C148 30.53 144.492 25 136.691 25M158.913 49.333c-2.104 0-3.347-1.149-3.347-1.149l1.351-7.414c.94-4.942 3.582-8.218 6.4-8.218 2.466 0 3.23 2.242 3.23 4.368 0 5.115-3.113 12.413-7.634 12.413M166.663 26c-5.468 0-8.572 4.713-8.572 4.713h-.117l.47-4.253h-7.163c-.353 2.874-.999 7.242-1.644 10.517L144 66h8.102l2.231-11.724h.177s1.664 1.034 4.756 1.034c9.511 0 15.734-9.54 15.734-19.195C175 30.77 172.593 26 166.663 26M186.337 14c-2.972 0-5.337 2.348-5.337 5.369 0 2.752 1.756 4.631 4.392 4.631h.135c2.906 0 5.405-1.946 5.473-5.369 0-2.685-1.825-4.631-4.663-4.631M175 55h8.328L189 26h-8.388zM208.475 26.532h-5.457l.284-1.383c.455-2.827 2.047-5.353 4.662-5.353 1.396 0 2.5.421 2.5.421L212 13.722S210.635 13 207.736 13c-2.785 0-5.57.842-7.674 2.767-2.672 2.406-3.922 5.894-4.548 9.382l-.227 1.383h-3.639l-1.136 6.254h3.638L190 56h7.845l4.15-23.214h5.4l1.08-6.254z"/>
        <g transform="translate(207 27)">
            <mask id="b" fill="#fff">
                <use xlink:href="#a"/>
            </mask>
            <path fill="#231F20" d="M22.037.049s-5.009 12.213-7.258 18.88h-.116C14.51 16.782 12.69.049 12.69.049h-8.42l4.82 25.23c.116.561.058.899-.174 1.292-.93 1.742-2.497 3.427-4.355 4.663C3.05 32.3 1.367 32.976.03 33.425L2.237 40c1.626-.337 4.994-1.63 7.839-4.214 3.658-3.316 7.025-8.43 10.51-15.397L30.397.05h-8.361z" mask="url(#b)"/>
        </g>
    </g>
</svg>
