<svg width="321" height="42" viewBox="0 0 321 42" fill="none" xmlns="http://www.w3.org/2000/svg">
<g clip-path="url(#clip0)">
<path d="M52.5097 25.6825C53.938 25.6825 54.7996 24.8757 54.9583 23.8896H58.2231C57.951 26.8478 55.4117 28.2597 52.5097 28.2597C48.7461 28.2597 46.5469 25.9514 46.5469 22.4328C46.5469 18.9143 48.7461 16.606 52.5097 16.606C55.4117 16.606 57.9284 18.0179 58.2231 20.9761H54.981C54.7996 19.99 53.938 19.1832 52.5324 19.1832C50.8546 19.1832 49.8344 20.5503 49.8344 22.4328C49.8344 24.3154 50.8546 25.6825 52.5097 25.6825Z" fill="#001B71"/>
<path d="M65.1611 28.2597C61.3975 28.2597 59.1982 25.9514 59.1982 22.4328C59.1982 18.9143 61.3975 16.606 65.1611 16.606C68.9247 16.606 71.1239 18.9143 71.1239 22.4328C71.1239 25.9514 68.9473 28.2597 65.1611 28.2597ZM65.1611 19.1832C63.4833 19.1832 62.4631 20.5503 62.4631 22.4328C62.4631 24.3154 63.506 25.6825 65.1611 25.6825C66.8388 25.6825 67.8591 24.3154 67.8591 22.4328C67.8591 20.5503 66.8388 19.1832 65.1611 19.1832Z" fill="#001B71"/>
<path d="M77.6984 24.6291H75.862V28.058H72.7559V16.8076H77.6984C80.5551 16.8076 82.3916 17.8834 82.3916 20.7072C82.3689 23.5534 80.5551 24.6291 77.6984 24.6291ZM77.381 19.1608H75.862V22.2759H77.381C78.6507 22.2759 79.1721 21.8277 79.1721 20.7296C79.1721 19.609 78.6507 19.1608 77.381 19.1608Z" fill="#001B71"/>
<path d="M90.4179 26.2427H85.9968L85.43 28.058H82.2559L86.2008 16.8076H90.2819L94.2268 28.058H90.9847L90.4179 26.2427ZM86.7903 23.8223H89.6697L88.2414 19.2728L86.7903 23.8223Z" fill="#001B71"/>
<path d="M95.5869 16.8076H101.142C104.134 16.8076 105.54 18.0178 105.54 20.2813C105.54 21.7157 104.747 22.9259 103.613 23.4189L106.039 28.0804H102.661L100.552 24.0912H98.693V28.0804H95.5869V16.8076ZM100.643 21.9174C101.708 21.9174 102.321 21.4915 102.321 20.5503C102.321 19.5866 101.708 19.1832 100.643 19.1832H98.693V21.9398H100.643V21.9174Z" fill="#001B71"/>
<path d="M110.415 20.1917V28.058H107.513V16.8076H111.752L114.269 24.3826L116.763 16.8076H120.98V28.058H118.078V20.1917L115.493 28.058H112.977L110.415 20.1917Z" fill="#001B71"/>
<path d="M123.179 16.8076H132.044V19.3625H126.285V21.133H131.477V23.5534H126.285V25.4807H132.202V28.0356H123.179V16.8076Z" fill="#001B71"/>
<path d="M133.178 28.058L137.168 22.4104L133.223 16.8076H136.987L139.141 20.0572L141.362 16.8076H144.877L140.932 22.3656L145.013 28.058H141.249L138.936 24.7187L136.669 28.058H133.178Z" fill="#001B71"/>
<path d="M27.5699 33.7505H6.14453L7.95832 36.8656H25.7561L27.5699 33.7505Z" fill="#0071CE"/>
<path d="M30.6527 28.5061H3.06055L4.87433 31.5988H28.839L30.6527 28.5061Z" fill="#0071CE"/>
<path d="M33.7137 23.2395H0L1.81379 26.3546H31.8999L33.7137 23.2395Z" fill="#0071CE"/>
<path d="M12.5377 8H8.91016L25.7557 36.8655L27.5695 33.7504L12.5377 8Z" fill="#0047BA"/>
<path d="M31.8998 26.3547L33.7136 23.2396L24.8033 8H21.1758L31.8998 26.3547Z" fill="#0047BA"/>
<path d="M18.6815 8H15.0312L28.8387 31.5989L30.6525 28.5062L18.6815 8Z" fill="#0047BA"/>
<path d="M24.8038 8H21.1763L6.14453 33.7504L7.95832 36.8655L24.8038 8Z" fill="#001B71"/>
<path d="M8.91022 8L0 23.2396L1.81378 26.3547L12.5378 8H8.91022Z" fill="#001B71"/>
<path d="M18.6818 8H15.0315L3.06055 28.5062L4.87433 31.5989L18.6818 8Z" fill="#001B71"/>
<path d="M148.119 16.8076C149.139 16.8076 150.001 17.6368 150.001 18.6677C150.001 19.6762 149.162 20.5055 148.119 20.5055C147.099 20.5055 146.26 19.6762 146.26 18.6677C146.26 17.6368 147.099 16.8076 148.119 16.8076ZM148.119 20.1693C148.958 20.1693 149.638 19.497 149.638 18.6453C149.638 17.7937 148.958 17.1214 148.119 17.1214C147.28 17.1214 146.623 17.8161 146.623 18.6453C146.623 19.497 147.303 20.1693 148.119 20.1693ZM147.257 17.6592H148.346C148.822 17.6592 149.094 17.8609 149.094 18.2868C149.094 18.5333 148.935 18.7574 148.754 18.8246L149.184 19.5642H148.55L148.187 18.9367H147.847V19.5642H147.257V17.6592ZM148.21 18.1075H147.847V18.5109H148.21C148.391 18.5109 148.504 18.4436 148.504 18.2868C148.482 18.1523 148.391 18.1075 148.21 18.1075Z" fill="#001B71"/>
<path d="M73.4815 36.126C74.1616 36.126 74.6378 35.7226 74.7511 35.1399H75.8394C75.7034 36.3277 74.7058 37 73.4815 37C71.9398 37 70.9648 35.9691 70.9648 34.4227C70.9648 32.8764 71.9398 31.8455 73.4815 31.8455C74.7058 31.8455 75.7034 32.4954 75.8394 33.7056H74.7511C74.6378 33.1229 74.1616 32.7195 73.4815 32.7195C72.6426 32.7195 72.0531 33.4142 72.0531 34.4227C72.0531 35.4312 72.6426 36.126 73.4815 36.126Z" fill="#0047BA"/>
<path d="M76.8145 31.9351H77.8574V36.9103H76.8145V31.9351Z" fill="#0047BA"/>
<path d="M79.0586 34.9157V31.9351H80.1015V34.9157C80.1015 35.7001 80.5323 36.1259 81.2125 36.1259C81.8926 36.1259 82.3234 35.7001 82.3234 34.9157V31.9351H83.3437V34.9157C83.3437 36.35 82.5275 37 81.1898 37C79.8748 37 79.0586 36.35 79.0586 34.9157Z" fill="#0047BA"/>
<path d="M86.5409 36.9103H84.5684V31.9351H86.5409C88.332 31.9351 89.1708 32.9884 89.1708 34.4227C89.1708 35.857 88.332 36.9103 86.5409 36.9103ZM86.5182 32.8091H85.6113V36.0363H86.5182C87.4704 36.0363 88.0826 35.476 88.0826 34.4227C88.0826 33.347 87.4704 32.8091 86.5182 32.8091Z" fill="#0047BA"/>
<path d="M93.0707 35.8345H90.9395L90.5314 36.8879H89.4658L91.3476 31.9126H92.6853L94.5444 36.9103H93.4788L93.0707 35.8345ZM91.2343 35.0053H92.8213L92.0278 32.7866L91.2343 35.0053Z" fill="#0047BA"/>
<path d="M97.3104 36.9103H95.3379V31.9351H97.3104C99.1015 31.9351 99.9404 32.9884 99.9404 34.4227C99.9404 35.857 99.1015 36.9103 97.3104 36.9103ZM97.2877 32.8091H96.3808V36.0363H97.2877C98.24 36.0363 98.8521 35.476 98.8521 34.4227C98.8521 33.347 98.24 32.8091 97.2877 32.8091Z" fill="#0047BA"/>
<path d="M104.61 36.9103H102.638V31.9351H104.61C106.401 31.9351 107.24 32.9884 107.24 34.4227C107.24 35.857 106.401 36.9103 104.61 36.9103ZM104.587 32.8091H103.681V36.0363H104.587C105.54 36.0363 106.152 35.476 106.152 34.4227C106.152 33.347 105.54 32.8091 104.587 32.8091Z" fill="#0047BA"/>
<path d="M108.216 31.9351H111.979V32.8315H109.259V33.9521H111.73V34.8261H109.259V36.0363H112.025V36.9327H108.216V31.9351Z" fill="#0047BA"/>
<path d="M115.811 33.1228V36.9103H114.836V31.9351H116.287L117.647 35.745L119.008 31.9351H120.459V36.9103H119.484V33.1228L118.123 36.9103H117.126L115.811 33.1228Z" fill="#0047BA"/>
<path d="M121.751 31.9351H125.515V32.8316H122.794V33.9522H125.265V34.8262H122.794V36.0364H125.56V36.9328H121.751V31.9351ZM124.698 30.5457L123.905 31.5766H123.157L123.633 30.5457H124.698Z" fill="#0047BA"/>
<path d="M126.24 36.9103L128.054 34.4227L126.263 31.9351H127.51L128.689 33.6383L129.89 31.9351H131.092L129.301 34.4003L131.137 36.9103H129.89L128.666 35.1847L127.442 36.9103H126.24Z" fill="#0047BA"/>
<path d="M131.908 31.9351H132.951V36.9103H131.908V31.9351Z" fill="#0047BA"/>
<path d="M136.465 36.126C137.145 36.126 137.621 35.7226 137.735 35.1399H138.823C138.687 36.3277 137.689 37 136.465 37C134.923 37 133.948 35.9691 133.948 34.4227C133.948 32.8764 134.923 31.8455 136.465 31.8455C137.689 31.8455 138.687 32.4954 138.823 33.7056H137.735C137.621 33.1229 137.145 32.7195 136.465 32.7195C135.626 32.7195 135.037 33.4142 135.037 34.4227C135.037 35.4312 135.626 36.126 136.465 36.126Z" fill="#0047BA"/>
<path d="M142.042 37C140.478 37 139.503 35.9691 139.503 34.4227C139.503 32.8764 140.478 31.8455 142.042 31.8455C143.607 31.8455 144.582 32.8764 144.582 34.4227C144.582 35.9691 143.607 37 142.042 37ZM142.042 32.7195C141.203 32.7195 140.591 33.3918 140.591 34.4227C140.591 35.4537 141.181 36.126 142.042 36.126C142.881 36.126 143.493 35.4537 143.493 34.4227C143.493 33.3918 142.904 32.7195 142.042 32.7195Z" fill="#0047BA"/>
</g>
<g clip-path="url(#clip1)">
<path d="M237.317 24.1508C237.007 24.3888 236.683 24.597 236.315 24.7755C235.946 24.9539 235.563 25.0878 235.121 25.177C234.693 25.2662 234.207 25.3108 233.676 25.3108C232.865 25.3108 232.114 25.1621 231.421 24.8647C230.728 24.5673 230.124 24.1657 229.622 23.6452C229.121 23.1247 228.723 22.5298 228.443 21.8308C228.163 21.1319 228.016 20.3883 228.016 19.5852V19.5555C228.016 18.7672 228.163 18.0237 228.443 17.3247C228.723 16.6257 229.121 16.016 229.622 15.4955C230.124 14.9749 230.728 14.5585 231.435 14.2611C232.143 13.9637 232.91 13.8149 233.764 13.8149C234.28 13.8149 234.752 13.8596 235.18 13.9488C235.607 14.038 235.99 14.157 236.344 14.3057C236.698 14.4544 237.007 14.6329 237.302 14.8411C237.597 15.0493 237.862 15.2872 238.128 15.5401L236.58 17.3396C236.152 16.9529 235.71 16.6406 235.268 16.4175C234.826 16.1944 234.325 16.0903 233.764 16.0903C233.308 16.0903 232.88 16.1796 232.482 16.358C232.084 16.5365 231.745 16.7893 231.465 17.1016C231.185 17.4139 230.964 17.7857 230.802 18.2021C230.639 18.6185 230.566 19.0647 230.566 19.5406V19.5703C230.566 20.0462 230.639 20.4924 230.802 20.9237C230.964 21.3401 231.17 21.7119 231.45 22.039C231.73 22.3514 232.069 22.6042 232.453 22.7975C232.851 22.976 233.278 23.0801 233.75 23.0801C234.384 23.0801 234.914 22.9611 235.342 22.7231C235.784 22.4852 236.211 22.1729 236.639 21.7714L238.187 23.3478C237.921 23.6303 237.627 23.9129 237.317 24.1508Z" fill="#001B71"/>
<path d="M250.922 21.7862C250.627 22.4852 250.215 23.0949 249.699 23.6155C249.183 24.136 248.564 24.5524 247.841 24.8498C247.119 25.1473 246.338 25.296 245.483 25.296C244.628 25.296 243.847 25.1473 243.139 24.8498C242.432 24.5524 241.812 24.136 241.282 23.6303C240.766 23.1098 240.353 22.5149 240.073 21.816C239.778 21.117 239.646 20.3734 239.646 19.5852V19.5555C239.646 18.7673 239.793 18.0237 240.088 17.3247C240.383 16.6257 240.795 16.016 241.311 15.4955C241.827 14.9749 242.446 14.5585 243.169 14.2611C243.891 13.9637 244.672 13.8149 245.527 13.8149C246.382 13.8149 247.163 13.9637 247.871 14.2611C248.578 14.5585 249.197 14.9749 249.728 15.4806C250.244 16.0011 250.657 16.596 250.937 17.2949C251.232 17.9939 251.364 18.7375 251.364 19.5257V19.5555C251.364 20.3585 251.217 21.1021 250.922 21.7862ZM248.829 19.5555C248.829 19.0796 248.741 18.6334 248.578 18.2021C248.416 17.7857 248.18 17.4139 247.886 17.0867C247.591 16.7744 247.237 16.5216 246.824 16.3283C246.411 16.1498 245.969 16.0457 245.483 16.0457C244.996 16.0457 244.539 16.1349 244.141 16.3134C243.743 16.4919 243.39 16.7447 243.11 17.057C242.815 17.3693 242.594 17.7411 242.431 18.1575C242.269 18.5739 242.181 19.0201 242.181 19.496V19.5257C242.181 20.0016 242.269 20.4478 242.431 20.879C242.594 21.2955 242.83 21.6673 243.124 21.9944C243.419 22.3067 243.773 22.5596 244.186 22.7529C244.584 22.9314 245.041 23.0355 245.527 23.0355C246.013 23.0355 246.456 22.9462 246.868 22.7678C247.281 22.5893 247.62 22.3365 247.915 22.0242C248.21 21.7119 248.431 21.3401 248.593 20.9237C248.755 20.5073 248.844 20.0611 248.844 19.5852V19.5555H248.829Z" fill="#001B71"/>
<path d="M261.256 25.1175L255.92 18.0534V25.1175H253.532V13.9934H255.773L260.932 20.8344V13.9934H263.32V25.1175H261.256Z" fill="#001B71"/>
<path d="M265.958 25.1175V13.9934H274.257V16.1796H268.346V18.4401H273.535V20.6114H268.346V22.9462H274.331V25.1175H265.958Z" fill="#001B71"/>
<path d="M285.313 24.1508C285.004 24.3888 284.679 24.597 284.311 24.7755C283.942 24.9539 283.559 25.0878 283.117 25.177C282.675 25.2662 282.203 25.3108 281.672 25.3108C280.861 25.3108 280.11 25.1621 279.417 24.8647C278.724 24.5673 278.12 24.1657 277.618 23.6452C277.117 23.1247 276.719 22.5298 276.439 21.8308C276.159 21.1319 276.012 20.3883 276.012 19.5852V19.5555C276.012 18.7672 276.159 18.0237 276.439 17.3247C276.719 16.6257 277.117 16.016 277.618 15.4955C278.12 14.9749 278.724 14.5585 279.432 14.2611C280.139 13.9637 280.906 13.8149 281.761 13.8149C282.277 13.8149 282.748 13.8596 283.176 13.9488C283.603 14.038 283.986 14.157 284.34 14.3057C284.679 14.4544 285.004 14.6329 285.298 14.8411C285.593 15.0493 285.859 15.2872 286.124 15.5401L284.576 17.3396C284.149 16.9529 283.706 16.6406 283.264 16.4175C282.822 16.1944 282.321 16.0903 281.761 16.0903C281.304 16.0903 280.876 16.1796 280.478 16.358C280.08 16.5365 279.741 16.7893 279.461 17.1016C279.181 17.4139 278.96 17.7857 278.798 18.2021C278.636 18.6185 278.562 19.0647 278.562 19.5406V19.5703C278.562 20.0462 278.636 20.4924 278.798 20.9237C278.96 21.3401 279.166 21.7119 279.446 22.039C279.726 22.3514 280.065 22.6042 280.449 22.7975C280.847 22.976 281.274 23.0801 281.746 23.0801C282.38 23.0801 282.91 22.9611 283.338 22.7231C283.78 22.4852 284.208 22.1729 284.635 21.7714L286.183 23.3478C285.903 23.6303 285.608 23.9129 285.313 24.1508Z" fill="#001B71"/>
<path d="M293.125 16.2539V25.1175H290.708V16.2539H287.347V13.9934H296.486V16.2539H293.125Z" fill="#001B71"/>
<path d="M306.54 25.1177L305.537 22.6192H300.879L299.877 25.1177H297.4L302.117 13.9192H304.358L309.075 25.1177H306.54ZM303.193 16.8638L301.734 20.4628H304.668L303.193 16.8638Z" fill="#001B71"/>
<path d="M219.083 31.0512C218.994 31.2297 218.862 31.3784 218.714 31.4974C218.552 31.6164 218.375 31.7056 218.169 31.7651C217.962 31.8246 217.741 31.8543 217.52 31.8543H216.341V33.4902H216.017V29.103H217.594C217.83 29.103 218.051 29.1328 218.242 29.1923C218.434 29.2517 218.611 29.341 218.758 29.46C218.906 29.5789 219.009 29.7128 219.097 29.8764C219.171 30.04 219.215 30.2333 219.215 30.4415V30.4564C219.215 30.6794 219.171 30.8728 219.083 31.0512ZM218.891 30.4564C218.891 30.2779 218.862 30.1292 218.788 29.9953C218.729 29.8615 218.64 29.7574 218.523 29.6682C218.405 29.5789 218.272 29.5194 218.11 29.46C217.948 29.4153 217.771 29.3856 217.579 29.3856H216.356V31.542H217.55C217.756 31.542 217.933 31.5123 218.11 31.4676C218.272 31.423 218.419 31.3487 218.537 31.2446C218.655 31.1553 218.744 31.0364 218.817 30.9025C218.862 30.7835 218.891 30.6348 218.891 30.4564Z" fill="#0047BA"/>
<path d="M220.174 33.4756V29.0884H220.498V33.1781H223.048V33.4756H220.174Z" fill="#0047BA"/>
<path d="M227.647 33.4755L227.087 32.2412H224.537L223.977 33.4755H223.638L225.657 29.0586H225.967L227.986 33.4755H227.647ZM225.819 29.4155L224.67 31.9586H226.969L225.819 29.4155Z" fill="#0047BA"/>
<path d="M229.902 29.3858V33.4756H229.578V29.3858H228.06V29.0884H231.42V29.3858H229.902Z" fill="#0047BA"/>
<path d="M235.474 33.4755L234.914 32.2412H232.349L231.789 33.4755H231.465L233.484 29.0586H233.794L235.813 33.4755H235.474ZM233.632 29.4155L232.482 31.9586H234.781L233.632 29.4155Z" fill="#0047BA"/>
<path d="M237.066 29.3856V31.1999H239.528V31.4974H237.066V33.4902H236.742V29.103H239.808V29.4005H237.066V29.3856Z" fill="#0047BA"/>
<path d="M244.717 32.1519C244.614 32.4196 244.466 32.6724 244.275 32.8806C244.083 33.0888 243.847 33.2524 243.582 33.3862C243.317 33.5052 243.007 33.5647 242.683 33.5647C242.358 33.5647 242.049 33.5052 241.784 33.3862C241.518 33.2673 241.282 33.1037 241.091 32.8955C240.899 32.6873 240.752 32.4493 240.648 32.1816C240.545 31.9139 240.486 31.6165 240.486 31.3191V31.3042C240.486 31.0068 240.545 30.7093 240.648 30.4416C240.752 30.1739 240.899 29.9211 241.091 29.7129C241.282 29.5047 241.518 29.3411 241.784 29.2073C242.049 29.0883 242.358 29.0288 242.683 29.0288C243.007 29.0288 243.302 29.0883 243.582 29.2073C243.847 29.3262 244.083 29.4898 244.275 29.698C244.466 29.9062 244.614 30.1442 244.717 30.4119C244.82 30.6796 244.879 30.977 244.879 31.2745V31.2893C244.879 31.5868 244.835 31.8693 244.717 32.1519ZM244.54 31.2893C244.54 31.0216 244.496 30.7688 244.407 30.516C244.319 30.278 244.186 30.0698 244.024 29.8914C243.862 29.7129 243.67 29.5791 243.434 29.475C243.213 29.3709 242.963 29.3114 242.683 29.3114C242.403 29.3114 242.167 29.356 241.946 29.4601C241.725 29.5642 241.518 29.698 241.356 29.8765C241.194 30.055 241.061 30.2632 240.973 30.5011C240.884 30.7391 240.84 30.9919 240.84 31.2596V31.2745C240.84 31.5421 240.884 31.795 240.973 32.0478C241.061 32.2857 241.194 32.4939 241.356 32.6724C241.518 32.8509 241.71 32.9847 241.946 33.0888C242.167 33.1929 242.417 33.2524 242.697 33.2524C242.963 33.2524 243.213 33.2078 243.434 33.1037C243.656 32.9996 243.862 32.8657 244.024 32.6873C244.186 32.5088 244.319 32.3006 244.407 32.0627C244.496 31.8247 244.54 31.5719 244.54 31.2893Z" fill="#0047BA"/>
<path d="M249.109 33.4756L247.724 31.6612H246.294V33.4756H245.97V29.0884H247.798C248.033 29.0884 248.24 29.1181 248.431 29.1776C248.623 29.2371 248.785 29.3263 248.918 29.4304C249.051 29.5345 249.154 29.6684 249.227 29.832C249.301 29.9807 249.345 30.1591 249.345 30.3376V30.3525C249.345 30.5309 249.316 30.6945 249.242 30.8433C249.183 30.992 249.095 31.1109 248.977 31.215C248.859 31.3191 248.726 31.4084 248.579 31.4679C248.417 31.5274 248.255 31.572 248.078 31.6017L249.507 33.4756H249.109ZM249.036 30.3525C249.036 30.055 248.933 29.8171 248.711 29.6535C248.49 29.475 248.181 29.4007 247.783 29.4007H246.294V31.3786H247.768C247.945 31.3786 248.122 31.3489 248.269 31.3043C248.431 31.2597 248.564 31.1853 248.667 31.1109C248.785 31.0217 248.874 30.9176 248.933 30.7986C249.006 30.6648 249.036 30.5161 249.036 30.3525Z" fill="#0047BA"/>
<path d="M254.254 33.4756V29.6684L252.529 32.1966H252.5L250.775 29.6684V33.4756H250.48V29.0884H250.79L252.529 31.6909L254.269 29.0884H254.578V33.4756H254.254Z" fill="#0047BA"/>
<path d="M259.502 33.4755L258.942 32.2412H256.377L255.816 33.4755H255.492L257.512 29.0586H257.821L259.841 33.4755H259.502ZM257.674 29.4155L256.524 31.9586H258.824L257.674 29.4155Z" fill="#0047BA"/>
<path d="M266.238 32.152C266.12 32.4197 265.973 32.6576 265.767 32.8509C265.56 33.0443 265.324 33.2079 265.03 33.312C264.735 33.4161 264.44 33.4756 264.101 33.4756H262.656V29.0884H264.101C264.44 29.0884 264.749 29.1479 265.03 29.252C265.31 29.3561 265.56 29.5197 265.767 29.713C265.973 29.9063 266.135 30.1443 266.238 30.412C266.356 30.6797 266.4 30.9622 266.4 31.2745V31.2894C266.4 31.6017 266.356 31.8843 266.238 32.152ZM266.076 31.2894C266.076 31.0366 266.032 30.7838 265.943 30.5607C265.855 30.3227 265.722 30.1294 265.545 29.9509C265.369 29.7725 265.162 29.6386 264.926 29.5494C264.676 29.4453 264.41 29.4007 264.101 29.4007H262.981V33.2079H264.101C264.41 33.2079 264.676 33.1632 264.926 33.0591C265.177 32.955 265.383 32.8212 265.545 32.6576C265.722 32.494 265.84 32.2858 265.943 32.0627C266.017 31.8099 266.076 31.5571 266.076 31.2894Z" fill="#0047BA"/>
<path d="M267.506 33.4756V29.0884H270.601V29.3858H267.83V31.1258H270.321V31.4233H267.83V33.193H270.631V33.4904H267.506V33.4756Z" fill="#0047BA"/>
<path d="M277.176 33.4755L276.615 32.2412H274.051L273.49 33.4755H273.151L275.171 29.0586H275.48L277.5 33.4755H277.176ZM275.333 29.4155L274.183 31.9586H276.483L275.333 29.4155Z" fill="#0047BA"/>
<path d="M279.505 31.7356V33.4756H279.181V31.7356L277.309 29.0884H277.707L279.328 31.453L280.964 29.0884H281.348L279.505 31.7356Z" fill="#0047BA"/>
<path d="M285.578 32.4494C285.49 32.6874 285.372 32.8956 285.21 33.0591C285.047 33.2227 284.871 33.3417 284.649 33.4309C284.428 33.5202 284.193 33.5499 283.927 33.5499C283.662 33.5499 283.426 33.5053 283.205 33.4309C282.984 33.3566 282.792 33.2227 282.645 33.074C282.497 32.9253 282.365 32.7171 282.276 32.4791C282.188 32.2412 282.144 31.9735 282.144 31.6612V29.1032H282.468V31.6315C282.468 32.152 282.601 32.5535 282.851 32.8361C283.102 33.1186 283.47 33.2525 283.942 33.2525C284.163 33.2525 284.355 33.2227 284.532 33.1484C284.708 33.0889 284.856 32.9848 284.988 32.8509C285.121 32.7171 285.21 32.5535 285.283 32.3453C285.357 32.152 285.386 31.914 285.386 31.6463V29.0884H285.711V31.6166C285.711 31.9289 285.667 32.2115 285.578 32.4494Z" fill="#0047BA"/>
<path d="M290.531 32.152C290.413 32.4197 290.266 32.6576 290.059 32.8509C289.853 33.0443 289.617 33.2079 289.322 33.312C289.028 33.4161 288.733 33.4756 288.394 33.4756H286.949V29.0884H288.394C288.733 29.0884 289.042 29.1479 289.322 29.252C289.603 29.3561 289.853 29.5197 290.059 29.713C290.266 29.9063 290.428 30.1443 290.531 30.412C290.649 30.6797 290.693 30.9622 290.693 31.2745V31.2894C290.693 31.6017 290.634 31.8843 290.531 32.152ZM290.354 31.2894C290.354 31.0366 290.31 30.7838 290.222 30.5607C290.133 30.3227 290.001 30.1294 289.824 29.9509C289.647 29.7725 289.44 29.6386 289.205 29.5494C288.954 29.4453 288.689 29.4007 288.379 29.4007H287.259V33.2079H288.379C288.689 33.2079 288.954 33.1632 289.205 33.0591C289.455 32.955 289.661 32.8212 289.824 32.6576C290.001 32.494 290.118 32.2858 290.222 32.0627C290.31 31.8099 290.354 31.5571 290.354 31.2894Z" fill="#0047BA"/>
<path d="M295.144 33.4755L294.584 32.2412H292.019L291.459 33.4755H291.12L293.14 29.0586H293.449L295.469 33.4755H295.144ZM293.316 29.4155L292.167 31.9586H294.466L293.316 29.4155Z" fill="#0047BA"/>
<path d="M302.073 33.4756V29.6684L300.348 32.1966H300.318L298.594 29.6684V33.4756H298.284V29.0884H298.594L300.333 31.6909L302.073 29.0884H302.382V33.4756H302.073Z" fill="#0047BA"/>
<path d="M307.056 32.4494C306.967 32.6874 306.849 32.8956 306.687 33.0591C306.525 33.2227 306.348 33.3417 306.127 33.4309C305.906 33.5202 305.67 33.5499 305.405 33.5499C305.139 33.5499 304.904 33.5053 304.682 33.4309C304.461 33.3566 304.27 33.2227 304.122 33.074C303.975 32.9253 303.842 32.7171 303.754 32.4791C303.665 32.2412 303.621 31.9735 303.621 31.6612V29.1032H303.945V31.6315C303.945 32.152 304.078 32.5535 304.329 32.8361C304.579 33.1186 304.948 33.2525 305.419 33.2525C305.641 33.2525 305.832 33.2227 306.009 33.1484C306.186 33.0889 306.333 32.9848 306.466 32.8509C306.599 32.7171 306.687 32.5535 306.761 32.3453C306.835 32.152 306.864 31.914 306.864 31.6463V29.0884H307.188V31.6166C307.188 31.9289 307.144 32.2115 307.056 32.4494Z" fill="#0047BA"/>
<path d="M309.944 29.3858V33.4756H309.62V29.3858H308.102V29.0884H311.462V29.3858H309.944Z" fill="#0047BA"/>
<path d="M315.811 32.4494C315.722 32.6874 315.604 32.8956 315.442 33.0591C315.28 33.2227 315.103 33.3417 314.882 33.4309C314.661 33.5202 314.425 33.5499 314.16 33.5499C313.894 33.5499 313.658 33.5053 313.437 33.4309C313.216 33.3566 313.025 33.2227 312.877 33.074C312.73 32.9253 312.597 32.7171 312.509 32.4791C312.42 32.2412 312.376 31.9735 312.376 31.6612V29.1032H312.7V31.6315C312.7 32.152 312.833 32.5535 313.084 32.8361C313.334 33.1186 313.703 33.2525 314.174 33.2525C314.395 33.2525 314.587 33.2227 314.764 33.1484C314.941 33.0889 315.088 32.9848 315.221 32.8509C315.354 32.7171 315.442 32.5535 315.516 32.3453C315.589 32.152 315.619 31.914 315.619 31.6463V29.0884H315.943V31.6166C315.928 31.9289 315.884 32.2115 315.811 32.4494Z" fill="#0047BA"/>
<path d="M320.646 33.4755L320.086 32.2412H317.521L316.961 33.4755H316.622L318.642 29.0586H318.951L320.971 33.4755H320.646ZM318.804 29.4155L317.654 31.9586H319.953L318.804 29.4155Z" fill="#0047BA"/>
<path d="M199.463 36.6282C199.61 36.6728 199.669 36.7025 199.728 36.7174C201.379 37.0297 203.015 36.9256 204.622 36.4051C208.307 35.2153 211.049 31.7651 211.329 27.8835C211.418 26.7087 211.388 25.5338 211.403 24.3441C211.418 22.262 211.403 20.1948 211.403 18.1128C211.403 16.7 211.182 15.3318 210.622 14.023C208.602 9.41278 203.856 7.07791 198.991 8.34201C195.011 9.36816 191.945 13.0712 191.768 17.2056C191.68 19.2133 191.783 21.2359 191.783 23.2435C191.783 24.582 191.724 25.9056 191.739 27.2441C191.754 28.4635 192.682 29.3707 193.847 29.341C195.041 29.3261 195.91 28.4189 195.91 27.1994C195.91 26.1435 195.91 25.0728 195.91 24.0169C195.91 22.0389 195.91 20.0759 195.91 18.0979C195.91 17.2948 196.058 16.5215 196.353 15.7779C197.355 13.2051 200.333 11.6882 202.942 12.4318C205.551 13.1753 207.172 15.3466 207.187 18.083C207.187 19.6743 207.187 21.2656 207.187 22.842C207.187 24.2548 207.216 25.6676 207.172 27.0656C207.099 29.3261 206.037 30.9769 204.077 32.0625C203.811 32.2112 203.546 32.4194 203.384 32.6723C202.544 33.9512 201.586 35.1261 200.333 36.0184C200.082 36.2118 199.802 36.3902 199.463 36.6282Z" fill="#0047BA"/>
<path d="M195.881 8.31223C195.734 8.26761 195.645 8.23787 195.542 8.20813C193.655 7.88095 191.813 8.05941 190.058 8.83274C186.757 10.305 184.737 12.8333 184.147 16.4322C184.015 17.2353 184.074 18.0681 184.059 18.8712C184.029 21.6522 184.015 24.4184 184 27.1994C184 28.5527 184.28 29.8466 184.84 31.081C187.125 36.1671 192.844 38.3979 197.886 36.0927C201.114 34.6056 203.045 32.0179 203.531 28.4784C203.723 27.1251 203.649 25.7271 203.664 24.344C203.679 23.4815 203.62 22.6338 203.62 21.7712C203.62 20.4327 203.664 19.1092 203.649 17.7707C203.649 17.4435 203.561 17.1015 203.428 16.804C203.03 15.9415 202.057 15.4656 201.188 15.644C200.185 15.8522 199.463 16.6702 199.448 17.6963C199.434 19.0497 199.478 20.4179 199.478 21.7712C199.478 22.9758 199.448 24.1953 199.434 25.3999C199.419 26.1435 199.448 26.8871 199.404 27.6307C199.227 30.1143 197.104 32.3599 194.658 32.6722C191.149 33.1184 188.216 30.5307 188.201 26.9615C188.201 25.0727 188.201 23.1692 188.201 21.2804C188.201 20.0461 188.157 18.8117 188.231 17.5922C188.363 15.4953 189.425 13.9635 191.252 12.9671C191.577 12.7886 191.842 12.5804 192.034 12.2681C192.992 10.7363 194.171 9.44248 195.719 8.49069C195.778 8.46095 195.793 8.41633 195.881 8.31223Z" fill="#001B71"/>
</g>
<rect x="166" width="1" height="42" fill="#C4C4C4"/>
<defs>
<clipPath id="clip0">
<rect width="150" height="29" fill="white" transform="translate(0 8)"/>
</clipPath>
<clipPath id="clip1">
<rect width="137" height="29" fill="white" transform="translate(184 8)"/>
</clipPath>
</defs>
</svg>
