<svg xmlns="http://www.w3.org/2000/svg" width="166" height="35" fill="none" viewBox="0 0 166 35">
    <g clip-path="url(#clip0)">
        <path fill="#000" d="M152.858 31.171c.532 0 .94.193 1.216.579.226.307.335.686.335 1.136 0 .135-.014.257-.029.35h-2.388c.007.357.138.643.357.821.145.171.378.25.713.25.372 0 .714-.05 1.012-.164l.124.564c-.349.15-.757.221-1.245.221-.502 0-.932-.164-1.252-.492-.328-.336-.495-.772-.495-1.329 0-.543.153-1 .451-1.357.328-.386.757-.579 1.201-.579zm-6.742 0c.532 0 .94.193 1.216.579.211.307.335.686.335 1.136 0 .135-.014.257-.036.35h-2.476c.008.357.124.643.357.821.211.171.473.25.808.25.379 0 .707-.05 1.005-.164l.124.564c-.35.15-.757.221-1.238.221-.575 0-1.027-.164-1.354-.492-.328-.336-.488-.772-.488-1.329 0-.543.146-1 .459-1.357.313-.386.75-.579 1.288-.579zm14.169 0c.531 0 .939.193 1.223.579.145.307.262.686.262 1.136 0 .135-.007.257-.022.35h-2.432c.015.357.131.643.357.821.204.171.488.25.816.25.371 0 .706-.05.997-.164l.102.564c-.313.15-.728.221-1.201.221-.576 0-1.034-.164-1.362-.492-.328-.336-.48-.772-.48-1.329 0-.543.145-1 .444-1.357.32-.386.75-.579 1.296-.579zm-10.71-.007c.364 0 .677.072.932.214l-.175.565c-.24-.129-.488-.2-.757-.2-.168 0-.313.043-.401.121-.094.079-.145.179-.145.3 0 .122.058.229.153.307.087.079.262.158.495.25.655.25.968.608.968 1.1 0 .329-.131.593-.371.8-.262.2-.612.3-1.056.3-.422 0-.779-.078-1.078-.242l.175-.593c.284.164.59.235.918.235.415 0 .633-.142.633-.442 0-.129-.058-.258-.146-.343-.094-.086-.254-.165-.487-.25-.656-.243-.991-.579-.991-1.036 0-.307.124-.564.357-.779.248-.2.575-.307.976-.307zM127.121.364V34.9h-1.012V.364h1.012zM164.5 31.207v.75h-.007c-.08-.014-.16-.029-.248-.029-.284 0-.509.1-.662.33-.139.185-.211.42-.211.706v1.893h-.83v-2.471c0-.408 0-.786-.022-1.129h.713l.037.686h.014c.088-.229.226-.429.415-.565.182-.12.386-.185.59-.185.095 0 .153 0 .211.014zm-6.771-1.614v5.264h-.866v-5.264h.866zm-1.733 0v5.264h-.83v-5.264h.83zm-14.051.235c.699 0 1.215.13 1.536.393.306.236.451.565.451.986 0 .3-.094.579-.313.814-.167.207-.393.35-.662.45v.022c.349.121.589.464.742.993.117.414.182.707.233.857.066.264.131.428.168.514h-.874c-.08-.143-.189-.543-.335-1.186-.065-.335-.175-.578-.32-.707-.139-.143-.35-.207-.626-.207h-.503v2.1h-.837V29.93c.379-.065.823-.1 1.34-.1zM114.263 2.186V33.02H0V2.186h114.263zm38.537 29.55c-.262 0-.386.114-.561.321-.138.171-.218.379-.247.621h1.631c0-.242-.058-.435-.168-.614-.145-.214-.356-.328-.655-.328zm-6.756 0c-.263 0-.488.114-.648.321-.139.171-.219.379-.241.621h1.719c.007-.242-.051-.435-.168-.614-.138-.214-.364-.328-.662-.328zm14.168 0c-.262 0-.488.114-.655.321-.139.171-.226.379-.248.621h1.726c0-.242-.051-.435-.161-.614-.145-.214-.356-.328-.662-.328zm-18.187-1.322c-.262 0-.459.022-.59.05v1.7h.575c.32 0 .575-.086.765-.25.203-.157.298-.364.298-.643 0-.571-.357-.85-1.048-.857zM113.186 3.23H1.07V31.97h112.116V3.23zm44.325 20.257v1.985c0 .693.247 1.029.728 1.029.364 0 .619-.172.764-.514.037-.086.051-.193.051-.3v-2.2h.823v2.571c-.007.336.014.679.029 1.029h-.735l-.044-.543h-.007c-.262.428-.656.628-1.18.628-.364 0-.684-.107-.903-.335-.254-.265-.385-.679-.385-1.229v-2.121h.859zm-10.929-.086c.532 0 .932.2 1.216.579.211.307.321.685.313 1.135 0 .107-.004.203-.015.285l-.014.08h-2.475c.007.357.131.635.364.814.204.164.473.25.808.25.303 0 .586-.035.849-.113l.156-.052.116.558c-.335.142-.757.214-1.23.214-.568 0-1.02-.157-1.354-.486-.328-.336-.488-.771-.488-1.328 0-.543.153-.993.458-1.357.321-.379.758-.579 1.296-.579zm6.131.014c.327 0 .604.114.815.336.262.257.393.664.393 1.207v2.129h-.793V25.07c0-.671-.233-1-.656-1-.167 0-.349.079-.487.243-.131.165-.204.357-.204.572v2.192h-.794V24.95c0-.271-.065-.479-.182-.65-.102-.157-.276-.236-.502-.236-.219 0-.408.079-.546.264-.146.18-.226.38-.226.6v2.15h-.794v-2.564c0-.314-.014-.664-.029-1.028h.692l.051.535h.022c.255-.4.626-.607 1.121-.607s.845.222 1.019.672h.008c.116-.193.262-.343.444-.457.204-.136.4-.215.648-.215zm-8.388-.007c.037 0 .102.007.161.021v.763l-.067-.013c-.047-.007-.089-.007-.137-.007-.292 0-.51.108-.692.322-.138.178-.211.414-.211.707v1.886h-.823v-2.472c0-.407-.007-.786-.029-1.128h.714l.029.685h.029c.073-.228.218-.428.422-.564.197-.128.393-.2.604-.2zm-4.281-1.35c.656 0 1.136.136 1.464.407.327.265.48.629.48 1.079 0 .457-.131.828-.415 1.1-.357.364-.873.543-1.572.543-.197 0-.35-.015-.466-.029v1.929h-.743v-4.922c.291-.078.743-.107 1.252-.107zm15.734 1.436v3.593h-.823v-3.593h.823zm9.021-.079c.32 0 .597.114.808.336.262.257.393.664.393 1.207v2.129h-.801V25.07c0-.671-.233-1-.706-1-.219 0-.401.079-.532.243-.138.165-.203.357-.203.572v2.192h-.794V24.95c0-.271-.066-.479-.182-.65-.109-.157-.284-.236-.502-.236-.226 0-.401.079-.546.264-.146.18-.19.38-.19.6v2.15h-.786v-2.564c0-.314-.007-.664-.029-1.028h.706l.044.535h.029c.204-.4.582-.607 1.07-.607.502 0 .845.222 1.019.672h.008c.116-.193.262-.343.436-.457.219-.136.474-.215.758-.215zM33.316 12.578c3.823 0 4.747 2.536 4.747 4.95v4.536h.015c0 1.05.051 2.079.182 2.915h-2.046l-.182-1.529h-.08c-.699.957-2.038 1.807-3.822 1.807-2.527 0-3.823-1.736-3.823-3.486 0-2.943 2.687-4.55 7.514-4.528v-.25c0-.979-.284-2.807-2.84-2.786-1.186 0-2.402.329-3.283.907l-.517-1.478c1.034-.629 2.556-1.057 4.135-1.057zm68.352-.014c4.106 0 5.162 3.465 5.162 5.707 0 .45-.029.779-.08 1.029h-8.774c.051 2.986 1.988 4.221 4.289 4.221 1.623 0 2.628-.278 3.458-.628l.408 1.578c-.801.35-2.192.779-4.179.779-3.852 0-6.145-2.486-6.145-6.157 0-3.665 2.22-6.529 5.861-6.529zM68.701 9.9v2.914h3.254v1.679h-3.254v6.557c0 1.507.437 2.364 1.703 2.364.62 0 .983-.05 1.318-.15l.102 1.686c-.437.15-1.136.3-2.01.3-1.055 0-1.907-.35-2.453-.929-.619-.678-.88-1.757-.88-3.185V14.5h-1.938v-1.679h1.937v-2.264L68.7 9.9zm10.943 2.657c3.589.007 6.02 2.543 6.02 6.236 0 4.493-3.225 6.457-6.224 6.457-3.357 0-5.992-2.407-5.992-6.257 0-4.043 2.766-6.436 6.196-6.436zm-32.101 0c1.34 0 2.526.329 3.153.657l-.517 1.686c-.54-.279-1.391-.579-2.636-.579-2.869 0-4.412 2.093-4.412 4.6 0 2.808 1.864 4.543 4.34 4.543 1.288 0 2.14-.3 2.788-.571l.386 1.657c-.59.271-1.908.7-3.59.7-3.771 0-6.225-2.486-6.225-6.207 0-3.743 2.636-6.486 6.713-6.486zM58.5 7.771c1.762 0 3.073.4 3.823.829l-.62 1.786c-.538-.329-1.703-.807-3.275-.807-2.374 0-3.277 1.385-3.277 2.535 0 1.586 1.063 2.357 3.459 3.264 2.941 1.1 4.419 2.486 4.419 4.972 0 2.614-1.959 4.9-6.065 4.9-1.682 0-3.51-.5-4.441-1.107l.582-1.829c1.005.622 2.454 1.107 3.998 1.107 2.293 0 3.64-1.178 3.64-2.885 0-1.558-.932-2.486-3.276-3.343-2.84-1.007-4.594-2.465-4.594-4.822 0-2.635 2.242-4.6 5.627-4.6zm-46.421.286l2.97 8.186c.721 2.085 1.289 3.943 1.755 5.707h.05c.467-1.707 1.086-3.572 1.857-5.707l3.102-8.186h2.861l1.085 16.929h-2.22l-.416-7.45c-.123-2.358-.283-5.222-.283-7.308h-.051c-.62 1.958-1.318 4.093-2.2 6.43l-3.072 8.22h-1.703l-2.84-8.064c-.83-2.414-1.5-4.571-1.987-6.578h-.044c-.051 2.114-.182 4.928-.342 7.485l-.466 7.265h-2.14L9.21 8.057h2.869zm81.995 4.507c.233 0 .415.029.619.05V14.7c-.233-.05-.466-.05-.772-.05-1.602 0-2.738 1.15-3.05 2.814-.051.3-.08.679-.08 1.029v6.478h-2.272v-8.357h.007c0-1.436-.022-2.664-.102-3.793h1.988l.102 2.408h.08c.568-1.629 1.966-2.665 3.48-2.665zm52.443 11.386c-.277 0-.495.114-.663.329-.109.136-.188.308-.224.502l-.016.119h1.718c.008-.236-.051-.443-.16-.614-.153-.215-.357-.336-.655-.336zm-6.436-1.271c-.226 0-.408.007-.546.042v1.8c.116.029.269.043.473.043.364 0 .648-.085.852-.264.218-.164.32-.407.32-.707s-.102-.522-.291-.679c-.189-.157-.459-.236-.808-.236zM30.594 21.506c0 1.457.975 2.107 2.11 2.107 1.654 0 2.71-1 3.073-2.036.08-.25.102-.5.102-.707v-2.107c-2.475-.05-5.285.379-5.285 2.743zm48.999-7.286c-2.658 0-3.823 2.415-3.823 4.7 0 2.665 1.551 4.672 3.764 4.672 2.17 0 3.8-1.986 3.8-4.722 0-2.057-1.062-4.65-3.741-4.65zm75.77 7.7c.138 0 .262.05.357.129.102.107.153.207.153.35s-.051.257-.146.343c-.102.093-.226.143-.379.143-.138 0-.254-.058-.342-.143-.095-.093-.138-.207-.138-.343 0-.136.043-.243.138-.35.102-.086.211-.129.357-.129zm-53.877-7.771c-2.323 0-3.306 2.036-3.48 3.564h6.632c.029-1.378-.597-3.564-3.152-3.564zm54.306-9.571c.547.021 2.207.228 3.226 1.714-.08.043-1.944 1.093-1.93 3.178.03 2.615 2.367 3.436 2.388 3.443-.014.065-.364 1.229-1.194 2.457-.757 1.072-1.55 2.093-2.723 2.122-1.208.007-1.594-.665-2.941-.665-1.259 0-1.682.636-2.796.672-1.157.05-2.031-1.1-2.795-2.171-1.515-2.15-2.665-5.993-1.122-8.543.787-1.307 2.163-2.136 3.67-2.15 1.143-.036 2.213.735 2.89.735.641 0 1.93-.928 3.327-.792zM155.8.414c.109.993-.299 2.029-.925 2.757-.626.736-1.624 1.293-2.534 1.215-.138-.979.263-2.007.86-2.657.604-.743 1.696-1.286 2.599-1.315z"/>
    </g>
    <defs>
        <clipPath id="clip0">
            <path fill="#fff" d="M0 0H166V35H0z"/>
        </clipPath>
    </defs>
</svg>
