<svg xmlns="http://www.w3.org/2000/svg" width="124" height="46" fill="none" viewBox="0 0 124 46">
    <path fill="#377C2B" d="M4.503 27.564h9.007l4.503 7.87-4.503 7.872H4.503L0 35.434l4.503-7.87z" opacity=".5"/>
    <path fill="#377C2B" d="M36.67 20.866v14.556h9.815L36.72 20.866h-.05z" opacity=".9"/>
    <path fill="#377C2B" d="M19.125 17.712l1.156-2.022-4.48-.045-6.87 11.74 6.64 11.872 13.508.135 2.323-3.97h-2.145l-10.132-17.71z" opacity=".7"/>
    <path fill="#377C2B" d="M34.289 35.422v-4.934l-2.887 4.934h2.887zM59.656 17.711L49.522 0H29.257l-8.975 15.69 9.026.09 4.981 8.906V17.71h3.126l9.676 14.572h.05V17.711h2.381v17.711l10.134-17.71z" opacity=".9"/>
    <path fill="#377C2B" d="M20.281 15.69l-1.156 2.022 10.132 17.71h2.145l2.887-4.934v-5.802l-4.98-8.907-9.028-.09z" opacity=".7"/>
    <path fill="#377C2B" d="M20.281 15.69l-1.156 2.022 10.132 17.71h2.145l2.887-4.934v-5.802l-4.98-8.907-9.028-.09z" opacity=".9"/>
    <path fill="#377C2B" fill-rule="evenodd" d="M76.378 33.184h3.003c4.019 0 7.442-2.228 7.442-6.61 0-2.252-1.165-6.61-6.872-6.61h-3.573v13.22zm-2.381-15.473h6.128c7.418 0 9.229 5.584 9.229 8.864 0 4.531-3.349 8.863-9.627 8.863h-5.73V17.711zM92.699 25.523h3.126c1.886 0 3.772-.451 3.772-2.854 0-2.404-1.886-2.854-3.772-2.854h-3.126v5.708zm-2.382-7.812h6.177c4.491 0 5.633 2.73 5.633 4.958 0 2.253-1.663 4.382-4.317 4.682l4.987 8.087H99.82l-4.467-7.812H92.7v7.812h-2.382V17.71zM119.344 26.575c0-3.881-2.605-7.061-6.625-7.061-4.019 0-6.624 3.18-6.624 7.06 0 3.881 2.605 7.061 6.624 7.061 4.02 0 6.625-3.18 6.625-7.06zm-15.78 0c0-5.258 3.796-9.314 9.155-9.314s9.156 4.056 9.156 9.314-3.797 9.314-9.156 9.314-9.155-4.056-9.155-9.315zM57.439 28.146l4.195-7.33 4.172 7.33h-8.367zm12.507 7.276h2.988L62.8 17.712h-2.159L50.51 35.421h2.763l2.57-4.488h11.55l2.554 4.488zM51.865 44.345c0 1.086-.749 1.629-2.246 1.629-.547 0-1.032-.064-1.457-.19l.153-.69c.489.17.952.254 1.391.254.988 0 1.483-.28 1.483-.844 0-.285-.128-.529-.384-.731-.171-.134-.509-.315-1.012-.542-.529-.237-.9-.456-1.112-.655-.293-.276-.44-.622-.44-1.039 0-.434.15-.788.449-1.06.334-.305.807-.458 1.418-.458.692 0 1.166.046 1.422.137l-.106.699c-.441-.14-.911-.211-1.408-.211-.747 0-1.121.253-1.121.757 0 .243.107.447.323.611.139.103.447.26.924.467.544.238.936.464 1.178.678.363.323.545.718.545 1.188zM55.376 44.974c-.015-.445-.022-.846-.022-1.201-.547 0-.962.041-1.247.123-.477.147-.716.427-.716.84 0 .4.28.599.837.599.48 0 .863-.12 1.148-.36zm.772.855l-.685.026c-.035-.144-.052-.28-.052-.41h-.044c-.358.329-.845.493-1.46.493-.335 0-.623-.099-.864-.297-.242-.198-.362-.48-.362-.847 0-.453.188-.816.566-1.09.379-.274 1.08-.418 2.107-.433.01-.07.013-.15.013-.242 0-.36-.095-.601-.285-.722-.19-.12-.48-.18-.866-.18-.457 0-.906.057-1.348.171l.074-.607c.436-.126.938-.189 1.505-.189.517 0 .917.108 1.199.323.282.216.423.583.423 1.103 0 .138-.006.388-.02.75-.012.363-.019.604-.019.724 0 .535.04 1.01.118 1.426zM58.097 45.829h-.837c.052-.969.078-2.063.078-3.284 0-1.185-.042-2.155-.127-2.909l.886-.044c-.055.798-.083 1.782-.083 2.953 0 1.206.028 2.3.083 3.284zM62.977 45.824l-.675.026c-.042-.164-.062-.3-.062-.405h-.043c-.387.328-.857.493-1.409.493-.503 0-.869-.123-1.097-.368-.228-.244-.342-.738-.342-1.48 0-.106.002-.263.008-.471.006-.209.01-.35.01-.428 0-.43-.026-.939-.075-1.522l.811-.031c-.035.567-.052 1.05-.052 1.453 0 .924.058 1.526.176 1.806s.384.42.797.42c.465 0 .848-.117 1.15-.352 0-1.63-.014-2.73-.042-3.296l.784-.031c-.023.552-.035 1.315-.035 2.289 0 .624.032 1.257.096 1.897zM67.142 44.957c0-.913-.025-1.79-.074-2.636-.235-.197-.529-.295-.88-.295-.492 0-.86.164-1.104.494-.244.33-.366.745-.366 1.244 0 .446.115.821.346 1.127.231.305.552.457.962.457.514 0 .886-.13 1.116-.391zm.703.867l-.65.022c-.024-.127-.035-.26-.035-.401h-.048c-.305.335-.76.502-1.361.502-.553 0-.992-.203-1.32-.608-.327-.404-.49-.892-.49-1.465 0-.649.182-1.207.545-1.677.364-.469.875-.704 1.536-.704.47 0 .808.097 1.011.29h.035c0-.727-.02-1.441-.06-2.143l.828-.03c-.056.745-.083 1.72-.083 2.927 0 1.226.03 2.321.091 3.287zM73.44 44.974c-.015-.445-.022-.846-.022-1.201-.547 0-.962.041-1.247.123-.477.147-.716.427-.716.84 0 .4.28.599.838.599.48 0 .862-.12 1.147-.36zm.772.855l-.685.026c-.035-.144-.052-.28-.052-.41h-.044c-.357.329-.844.493-1.461.493-.334 0-.622-.099-.863-.297-.242-.198-.362-.48-.362-.847 0-.453.189-.816.566-1.09.378-.274 1.08-.418 2.107-.433.009-.07.013-.15.013-.242 0-.36-.095-.601-.286-.722-.19-.12-.478-.18-.865-.18-.456 0-.906.057-1.347.171l.073-.607c.436-.126.939-.189 1.505-.189.518 0 .917.108 1.199.323.283.216.424.583.424 1.103 0 .138-.007.388-.02.75-.013.363-.02.604-.02.724 0 .535.04 1.01.118 1.426zM79.647 45.221l-.053.572c-.23.085-.446.128-.65.128-.523 0-.88-.134-1.073-.403-.192-.269-.288-.749-.288-1.441 0-.45.004-1.035.009-1.756-.163 0-.402.008-.72.026l.027-.639c.276.018.523.028.741.028 0-.177.015-.595.043-1.255l.685-.07c-.05.616-.073 1.057-.073 1.325.284 0 .703-.016 1.255-.045l-.03.656c-.523-.018-.944-.026-1.26-.026-.007.442-.01.941-.01 1.496 0 .604.064 1.004.19 1.199.126.195.362.293.705.293.113 0 .28-.03.502-.088zM83.689 43.764c0-.458-.114-.864-.342-1.221-.229-.357-.554-.535-.975-.535-.419 0-.741.169-.966.506-.225.338-.338.73-.338 1.175 0 .461.114.87.342 1.224.229.355.555.532.98.532.418 0 .74-.169.963-.508.224-.339.336-.73.336-1.172zm.755-.154c0 .751-.214 1.337-.641 1.758-.427.422-.931.632-1.51.632-.54 0-1.004-.186-1.393-.559-.388-.373-.582-.898-.582-1.576 0-.757.214-1.348.643-1.773.429-.426.933-.639 1.511-.639.541 0 1.005.19 1.392.566.386.377.58.907.58 1.591zM88.508 44.957c0-.913-.025-1.79-.074-2.636-.235-.197-.53-.295-.88-.295-.492 0-.86.164-1.104.494-.245.33-.367.745-.367 1.244 0 .446.116.821.347 1.127.231.305.552.457.962.457.514 0 .886-.13 1.116-.391zm.703.867l-.65.022c-.024-.127-.036-.26-.036-.401h-.047c-.305.335-.759.502-1.36.502-.553 0-.994-.203-1.32-.608-.328-.404-.49-.892-.49-1.465 0-.649.181-1.207.544-1.677.364-.469.875-.704 1.535-.704.472 0 .809.097 1.012.29h.035c0-.727-.02-1.441-.06-2.143l.828-.03c-.055.745-.083 1.72-.083 2.927 0 1.226.03 2.321.092 3.287zM93.594 43.764c0-.458-.115-.864-.343-1.221-.229-.357-.553-.535-.974-.535-.419 0-.742.169-.967.506-.225.338-.338.73-.338 1.175 0 .461.115.87.342 1.224.229.355.555.532.98.532.418 0 .74-.169.964-.508.223-.339.336-.73.336-1.172zm.754-.154c0 .751-.214 1.337-.641 1.758-.428.422-.93.632-1.51.632-.54 0-1.004-.186-1.392-.559-.389-.373-.583-.898-.583-1.576 0-.757.215-1.348.644-1.773.428-.426.932-.639 1.51-.639.542 0 1.005.19 1.392.566.387.377.58.907.58 1.591zM103.655 45.828h-.819c0-.654-.046-1.6-.136-2.839-.09-1.238-.138-1.98-.144-2.226h-.043c-.291.953-.66 1.988-1.106 3.105-.446 1.116-.669 1.77-.669 1.96h-.589c0-.205-.208-.87-.624-1.995-.416-1.126-.679-1.88-.79-2.26-.11-.382-.186-.652-.226-.81h-.045c-.007.401-.066 1.213-.17 2.433-.107 1.22-.16 2.098-.16 2.633h-.75c0-.03.098-.838.296-2.424.198-1.586.297-2.688.297-3.307h1.147c0 .322.232 1.13.698 2.42.464 1.291.697 2.073.697 2.346h.045c0-.273.261-1.057.784-2.352.523-1.296.785-2.1.785-2.414h1.121c0 .619.066 1.716.2 3.292.134 1.575.201 2.388.201 2.438zM108.343 39.623c0 .035-.2.27-.601.703-.401.435-.602.676-.602.722h-.524c0-.046.131-.288.394-.723.261-.436.392-.67.392-.702h.941zm-.54 3.63c0-.824-.342-1.237-1.025-1.237-.698 0-1.11.429-1.235 1.286l2.26-.049zm.728-.009c0 .124-.006.294-.018.511l-2.996.053c.029.428.194.787.493 1.076.3.289.697.434 1.191.434.442 0 .856-.054 1.243-.163l-.075.62c-.284.115-.696.172-1.233.172-.757 0-1.333-.208-1.73-.625-.397-.416-.595-.924-.595-1.523 0-.64.181-1.19.543-1.653.362-.462.848-.693 1.459-.693.561 0 .987.167 1.28.503.292.334.438.764.438 1.288zM113.224 45.828h-.947c0-.073-.139-.323-.418-.748-.279-.426-.525-.782-.737-1.07h-.035c-.148.206-.354.538-.615.997-.262.46-.392.733-.392.822h-.878c0-.086.209-.409.625-.969.415-.56.752-.977 1.006-1.25v-.036c-.191-.214-.479-.575-.863-1.084-.384-.51-.575-.79-.575-.843h.933c0 .07.117.296.352.678.233.381.429.673.585.876h.04c.142-.173.328-.457.556-.85.229-.393.342-.627.342-.704h.829c0 .05-.197.335-.591.856-.394.52-.676.868-.848 1.04v.05c.247.29.58.718 1.001 1.285.42.566.63.883.63.95zM115.011 40.327c0 .15-.047.28-.143.39-.096.11-.231.164-.406.164-.148 0-.264-.047-.346-.142-.083-.096-.125-.211-.125-.346 0-.146.05-.275.148-.383.099-.108.236-.163.411-.163.142 0 .255.048.338.143.083.096.123.208.123.337zm-.182 5.502h-.789c.041-.587.06-1.258.06-2.012 0-.848-.051-1.56-.152-2.135l.873-.118c-.036.613-.053 1.364-.053 2.253 0 .704.02 1.375.061 2.012zM119.155 45.155l-.044.59c-.235.134-.551.202-.946.202-.753 0-1.328-.21-1.727-.63-.398-.42-.598-.925-.598-1.517 0-.628.21-1.169.629-1.62.418-.452.973-.678 1.661-.678.347 0 .628.035.846.105l-.117.691c-.306-.114-.615-.171-.929-.171-.414 0-.742.145-.986.436-.244.29-.367.654-.367 1.091 0 .476.146.871.437 1.188.29.317.702.476 1.234.476.218 0 .52-.055.907-.163zM123.246 43.764c0-.458-.114-.864-.343-1.221-.228-.357-.553-.535-.974-.535-.419 0-.741.169-.966.506-.226.338-.338.73-.338 1.175 0 .461.113.87.342 1.224.228.355.555.532.979.532.419 0 .74-.169.964-.508.224-.339.336-.73.336-1.172zm.754-.154c0 .751-.213 1.337-.64 1.758-.428.422-.931.632-1.51.632-.54 0-1.005-.186-1.393-.559-.388-.373-.582-.898-.582-1.576 0-.757.214-1.348.643-1.773.429-.426.932-.639 1.511-.639.541 0 1.005.19 1.392.566.386.377.579.907.579 1.591z" clip-rule="evenodd"/>
</svg>
