<svg xmlns="http://www.w3.org/2000/svg" width="161" height="51" fill="none" viewBox="0 0 161 51">
    <path fill="url(#paint0_radial)" d="M25.742 44.282c1.227.561 3.132 1.856 8.43 1.856h.195c.275-.068 5.958-1.496 6.44-7.185-2.667.366-5.17-.849-5.695-1.123-3.54 3.229-6.733 5.219-9.37 6.452z"/>
    <path fill="url(#paint1_radial)" d="M17.114 1.942c-.275.061-5.96 1.49-6.442 7.181 2.632-.36 5.099.812 5.673 1.112 3.547-3.23 6.735-5.221 9.373-6.449-1.234-.568-3.139-1.85-8.409-1.85-.067 0-.128 0-.195.006z"/>
    <path fill="url(#paint2_linear)" d="M39.54 14.65c3.234 3.535 5.228 6.723 6.452 9.367.574-1.224 1.859-3.143 1.859-8.416 0-.06 0-.12-.015-.18-.06-.288-1.481-5.969-7.177-6.452.362 2.629-.816 5.106-1.118 5.68z"/>
    <path fill="url(#paint3_linear)" d="M3.655 32.469c.004.058.005.13-.004.185.064.283 1.492 5.965 7.196 6.442-.367-2.622.811-5.087 1.099-5.665-3.22-3.54-5.215-6.736-6.452-9.37-.56 1.23-1.838 3.135-1.84 8.408z"/>
    <path fill="url(#paint4_linear)" d="M17.012 1.936c-.813.033-1.517.161-2.135.38-1.908.521-4.774 1.756-7.309 4.689-4.367 5.03-4.043 8.34-4.046 9.5.015.634.03 3.41 1.971 7.561 1.225 2.637 3.212 5.813 6.446 9.359 1.334 1.446 2.855 2.975 4.65 4.527 0 0 .106-.032.298-.124.984-.431 1.961-.966 2.927-1.577 1.503-.946 3.517-2.356 5.954-4.448.005-.025.029-.02.033-.045 0 0-3.938-3.267-7.776-7.676l-.004.024c-4.395-5.113-5.787-8.233-6.102-9.02-.796-1.78-1.27-3.528-1.279-5.194-.005-.253.018-.527.036-.776.499-5.687 6.172-7.108 6.438-7.187l.024.004s-.048-.009-.126.003z"/>
    <path fill="url(#paint5_linear)" d="M33.267 1.82c-.612 0-3.384.036-7.525 1.98-2.665 1.224-5.833 3.205-9.398 6.445-1.44 1.297-2.953 2.845-4.501 4.61 0 0 .036.071.072.215 1.404 3.133 3.745 6.302 6.121 9.002.18-.216 3.385-4.032 7.67-7.741v-.036c5.725-5.005 9.218-6.194 9.218-6.194 1.692-.72 3.385-1.152 4.969-1.152.252 0 .504 0 .756.036 5.725.468 7.13 6.157 7.202 6.41v-.109c-.036-.792-.144-1.512-.36-2.124-.54-1.908-1.765-4.753-4.717-7.31-4.357-3.816-7.454-4.032-8.966-4.032h-.54z"/>
    <path fill="url(#paint6_linear)" d="M25.696 16.308l.003.006c2.789-2.425 6.036-4.822 9.222-6.199l-.004-.005s-3.477 1.176-9.221 6.198z"/>
    <path fill="url(#paint7_linear)" d="M18.014 24.094s.002-.008.01-.014c-2.375-2.72-4.718-5.889-6.109-9.005.313.802 1.702 3.925 6.1 9.019z"/>
    <path fill="url(#paint8_linear)" d="M3.672 32.776c-.012-.032-.023-.064-.003-.107l-.011-.032s-.02.043.014.139z"/>
    <path fill="url(#paint9_linear)" d="M25.805 31.746c-.032.012-.02.044-.052.055-1.825 1.572-3.854 3.183-5.935 4.449-1.487.904-2.479 1.374-2.948 1.58-1.781.794-3.592 1.308-5.266 1.3-.247.017-.507.003-.778-.044-5.692-.47-7.11-6.164-7.172-6.433-.02.044-.009.076.003.108.012.831.15 1.508.35 2.16.517 1.92 1.772 4.768 4.691 7.3 5.031 4.344 8.338 4.048 9.536 4.048.615-.006 3.356-.06 7.514-2.008 2.644-1.217 5.807-3.204 9.358-6.42 1.475-1.337 2.976-2.9 4.547-4.67-1.371-3.17-3.78-6.397-6.178-9.192-.199.253-3.4 4.033-7.67 7.767z"/>
    <path fill="url(#paint10_linear)" d="M25.696 16.311c.18.144 4.035 3.35 7.781 7.674 2.414 2.774 4.828 6.016 6.197 9.186.72 1.73 1.189 3.423 1.189 5.008 0 .252-.036.504-.036.756-.505 5.692-6.16 7.133-6.449 7.205h.108c.829-.036 1.513-.18 2.126-.36 1.945-.54 4.791-1.765 7.349-4.72 4.323-5.007 3.999-8.321 3.999-9.51 0-.613-.036-3.387-1.946-7.53-1.224-2.63-3.242-5.836-6.448-9.366-1.333-1.477-2.882-2.99-4.648-4.54-3.206 1.37-6.448 3.783-9.222 6.197z"/>
    <path fill="url(#paint11_linear)" d="M25.806 31.756l-.015.014.016-.014h-.001zm-.045.04c.011-.008.02-.018.03-.026l-.03.027z"/>
    <path fill="url(#paint12_linear)" d="M16.887 37.825c.472-.198 1.467-.663 2.924-1.57-.968.597-1.947 1.13-2.924 1.57z"/>
    <path fill="url(#paint13_linear)" d="M16.887 37.83c.47-.207 1.461-.677 2.948-1.581-.977.61-1.945 1.143-2.948 1.581z"/>
    <path fill="#fff" d="M153.733 9.323H58.157c-3.45 0-6.266 2.688-6.274 5.994v14.19h-.006l-.01 2.327.002 1.164c.008 3.303 2.823 5.991 6.275 5.991h95.592c3.458 0 6.272-2.692 6.272-6V15.321c-.007-3.31-2.822-5.998-6.275-5.998z"/>
    <path fill="#F3B32E" fill-rule="evenodd" d="M57.65 13.047c-1.365-.001-2.47 1.103-2.472 2.464h44.466c-.003-1.36-1.108-2.464-2.472-2.464H57.65zM57.628 35.26h39.538c1.362 0 2.47-1.102 2.47-2.465h-44.48c.003 1.363 1.107 2.465 2.472 2.465z" clip-rule="evenodd"/>
    <path fill="#E1251B" fill-rule="evenodd" d="M63.918 31.566h-8.742v-14.82h30.657c-.702.153-1.357 1.12-1.45 1.238l-3.35 4.26-1.367-1.763-1.534 2.045 1.334 1.722-2 2.56-1.192 1.528c-.15.187-.232.407-.256.63-.041.41.118.831.467 1.104.32.248.72.314 1.083.219.25-.068.48-.212.652-.431l.668-.86.018-.026 2.128-2.72 2.817 3.608c.42.536 1.198.63 1.734.21.537-.417.634-1.195.214-1.732l-3.198-4.09 3.914-5.122c1.876-2.195 3.76-2.37 4.677-2.38h8.45v14.82H68.885c.724-.103 1.422-1.123 1.515-1.245l3.353-4.26 1.383 1.773 1.536-2.046-1.354-1.731 2.005-2.56 1.188-1.528c.148-.188.232-.408.255-.631.043-.41-.12-.83-.465-1.104-.317-.247-.718-.317-1.079-.22-.25.07-.483.215-.652.433l-.672.857-.022.029-2.123 2.719-2.82-3.608c-.42-.535-1.195-.63-1.733-.21-.539.417-.633 1.195-.213 1.731l3.198 4.092-3.912 5.123c-1.68 1.961-3.366 2.326-4.355 2.386zm4.853-7.4c0 3.413-2.767 6.177-6.177 6.177-3.409 0-6.174-2.764-6.174-6.176 0-3.41 2.765-6.173 6.174-6.173 3.41 0 6.177 2.762 6.177 6.173zm27.154 0c0 2.049-1.66 3.705-3.706 3.705-2.047 0-3.707-1.656-3.707-3.704 0-2.046 1.66-3.705 3.707-3.705 2.046 0 3.706 1.659 3.706 3.705zm2.47 0c0 3.413-2.766 6.177-6.176 6.177-3.412 0-6.176-2.764-6.176-6.176 0-3.41 2.764-6.173 6.176-6.173 3.41 0 6.175 2.762 6.175 6.173zm-32.096 0c0 2.049-1.66 3.705-3.705 3.705-2.044 0-3.704-1.656-3.704-3.704 0-2.046 1.66-3.705 3.704-3.705 2.045 0 3.705 1.659 3.705 3.705z" clip-rule="evenodd"/>
    <path fill="#E1251B" d="M154.222 10.869H57.643c-2.558 0-4.643 2.081-4.65 4.64v15.109h-.017l.003 1.044.002 1.138c.006 2.558 2.092 4.638 4.649 4.638h96.595c2.562 0 4.646-2.083 4.646-4.643V15.51c-.006-2.56-2.091-4.64-4.649-4.64zm0 1.042c1.985 0 3.602 1.614 3.606 3.598v17.286c0 1.986-1.616 3.6-3.603 3.6H57.63c-1.984 0-3.602-1.614-3.607-3.597l-.002-1.138h.015V15.51c.005-1.986 1.623-3.6 3.607-3.6h96.579z"/>
    <path fill="#E1251B" d="M156.703 27.332c0-2.355-2.071-3.63-5.986-4.2l-3.94-.552c-2.421-.304-3.08-.805-3.165-1.733-.096-1.016.801-1.546 2.45-1.546h9.407v-2.555h-10.02c-2.954 0-5.854.981-5.931 4.189-.061 2.526 1.921 3.785 5.567 4.251l4.335.593c2.219.278 3.122.74 3.189 1.686.068.95-.69 1.546-2.583 1.546h-10.311v2.555h10.969c3.765 0 6.019-1.464 6.019-4.234zM101.018 24.134c0 5.209 2.13 7.432 7.123 7.432h8.041c.92 0 1.67-.749 1.67-1.67v-6.288l-8.854-.003v2.301h5.024v3.105h-4.739c-3.873 0-4.437-2.176-4.437-4.877 0-2.688.564-4.833 4.437-4.833h8.393v-2.555h-9.535c-4.993 0-7.123 2.21-7.123 7.388z"/>
    <path fill="url(#paint14_linear)" d="M128.68 19.013c.104.178.148.296.148.296l6.135 12.256h4.209l-6.076-12.137c-.37-.741-1.511-2.683-2.312-2.683-.518 0-1.304.845-2.104 2.268z"/>
    <path fill="url(#paint15_linear)" d="M126.577 16.748c-.814 0-1.952 1.937-2.322 2.676l-6.078 12.141h4.215l6.122-12.259c.029-.044.163-.296.163-.296.798-1.42 1.582-2.262 2.099-2.262h-4.199z"/>
    <defs>
        <linearGradient id="paint2_linear" x1="43.695" x2="43.695" y1="24.078" y2="8.969" gradientUnits="userSpaceOnUse">
            <stop stop-color="#D72629"/>
            <stop offset=".98" stop-color="#941318"/>
            <stop offset="1" stop-color="#941318"/>
        </linearGradient>
        <linearGradient id="paint3_linear" x1="9.071" x2="6.627" y1="24.62" y2="38.481" gradientUnits="userSpaceOnUse">
            <stop stop-color="#D72629"/>
            <stop offset=".98" stop-color="#941318"/>
            <stop offset="1" stop-color="#941318"/>
        </linearGradient>
        <linearGradient id="paint4_linear" x1="3.092" x2="27.552" y1="17.514" y2="21.827" gradientUnits="userSpaceOnUse">
            <stop stop-color="#E25C29"/>
            <stop offset="1" stop-color="#F0AC24"/>
        </linearGradient>
        <linearGradient id="paint5_linear" x1="47.851" x2="11.843" y1="12.946" y2="12.946" gradientUnits="userSpaceOnUse">
            <stop stop-color="#D72629"/>
            <stop offset=".54" stop-color="#D72629"/>
            <stop offset=".98" stop-color="#941318"/>
            <stop offset="1" stop-color="#941318"/>
        </linearGradient>
        <linearGradient id="paint6_linear" x1="30.306" x2="30.306" y1="16.315" y2="10.112" gradientUnits="userSpaceOnUse">
            <stop stop-color="#E25C29"/>
            <stop offset="1" stop-color="#F0AC24"/>
        </linearGradient>
        <linearGradient id="paint7_linear" x1="11.236" x2="18.701" y1="18.927" y2="20.243" gradientUnits="userSpaceOnUse">
            <stop stop-color="#E25C29"/>
            <stop offset="1" stop-color="#F0AC24"/>
        </linearGradient>
        <linearGradient id="paint8_linear" x1="3.236" x2="35.015" y1="32.862" y2="21.295" gradientUnits="userSpaceOnUse">
            <stop stop-color="#D72629"/>
            <stop offset=".54" stop-color="#D72629"/>
            <stop offset=".98" stop-color="#941318"/>
            <stop offset="1" stop-color="#941318"/>
        </linearGradient>
        <linearGradient id="paint9_linear" x1="6.383" x2="38.454" y1="41.548" y2="29.876" gradientUnits="userSpaceOnUse">
            <stop stop-color="#D72629"/>
            <stop offset=".54" stop-color="#D72629"/>
            <stop offset=".98" stop-color="#941318"/>
            <stop offset="1" stop-color="#941318"/>
        </linearGradient>
        <linearGradient id="paint10_linear" x1="36.841" x2="36.841" y1="46.14" y2="10.115" gradientUnits="userSpaceOnUse">
            <stop stop-color="#E25C29"/>
            <stop offset="1" stop-color="#F0AC24"/>
        </linearGradient>
        <linearGradient id="paint11_linear" x1="25.765" x2="25.803" y1="31.773" y2="31.78" gradientUnits="userSpaceOnUse">
            <stop stop-color="#E25C29"/>
            <stop offset="1" stop-color="#F0AC24"/>
        </linearGradient>
        <linearGradient id="paint12_linear" x1="17.066" x2="19.632" y1="36.814" y2="37.266" gradientUnits="userSpaceOnUse">
            <stop stop-color="#E25C29"/>
            <stop offset="1" stop-color="#F0AC24"/>
        </linearGradient>
        <linearGradient id="paint13_linear" x1="6.349" x2="38.425" y1="41.412" y2="29.737" gradientUnits="userSpaceOnUse">
            <stop stop-color="#D72629"/>
            <stop offset=".54" stop-color="#D72629"/>
            <stop offset=".98" stop-color="#941318"/>
            <stop offset="1" stop-color="#941318"/>
        </linearGradient>
        <linearGradient id="paint14_linear" x1="133.927" x2="133.927" y1="31.565" y2="16.745" gradientUnits="userSpaceOnUse">
            <stop stop-color="#E25C29"/>
            <stop offset="1" stop-color="#F0AC24"/>
        </linearGradient>
        <linearGradient id="paint15_linear" x1="124.477" x2="124.477" y1="31.565" y2="16.777" gradientUnits="userSpaceOnUse">
            <stop stop-color="#D12828"/>
            <stop offset=".54" stop-color="#D12828"/>
            <stop offset=".98" stop-color="#941318"/>
            <stop offset="1" stop-color="#941318"/>
        </linearGradient>
        <radialGradient id="paint0_radial" cx="0" cy="0" r="1" gradientTransform="translate(33.256 41.956) scale(6.10412)" gradientUnits="userSpaceOnUse">
            <stop stop-color="#F0E32C"/>
            <stop offset="1" stop-color="#F2BC23"/>
        </radialGradient>
        <radialGradient id="paint1_radial" cx="0" cy="0" r="1" gradientTransform="translate(18.225 6.12) scale(6.1064)" gradientUnits="userSpaceOnUse">
            <stop stop-color="#F0E32C"/>
            <stop offset="1" stop-color="#F2BC23"/>
        </radialGradient>
    </defs>
</svg>
