<svg xmlns="http://www.w3.org/2000/svg" width="174" height="25" fill="none" viewBox="0 0 174 25">
    <path fill="#231F20" d="M114.041 7.002c.465-.561.776-1.344.692-2.12-.668.026-1.477.445-1.955 1.006-.43.497-.806 1.291-.706 2.053.745.058 1.506-.379 1.969-.94zm3.455 7.619c-.017.047-.28.95-.92 1.886-.554.81-1.128 1.615-2.033 1.633-.89.017-1.175-.528-2.19-.528-1.017 0-1.336.51-2.177.545-.871.033-1.537-.875-2.096-1.681-1.139-1.649-2.009-4.658-.84-6.69.581-1.007 1.619-1.646 2.749-1.663.856-.015 1.665.578 2.189.578.525 0 1.507-.714 2.541-.61.432.019 1.647.175 2.427 1.317-.061.04-1.45.848-1.434 2.525.019 2.01 1.763 2.679 1.784 2.688zM124.504 10.634l-.279-.86c-.03-.088-.083-.294-.166-.621h-.009c-.035.142-.084.346-.158.621l-.273.86h.885zm.961 1.373h-.561l-.308-.967h-1.07l-.292.967h-.549l1.06-3.294h.655l1.065 3.294zM127.878 11.988h-.463l-.032-.362h-.009c-.165.272-.415.41-.752.41-.234 0-.419-.073-.562-.215-.167-.182-.249-.45-.249-.811V9.613h.527v1.309c0 .455.159.684.471.684.234 0 .394-.113.488-.341.024-.06.033-.128.033-.201v-1.45h.527v1.69c0 .223.007.454.021.684zM129.718 10.012h-.582v1.152c0 .294.102.44.309.44.093 0 .171-.009.233-.023l.015.4c-.102.033-.24.054-.409.054-.417 0-.665-.226-.665-.825v-1.198h-.347v-.395h.347V9.18l.517-.155v.59h.582v.396zM132.249 11.984h-.528V10.63c0-.425-.161-.64-.48-.64-.243 0-.408.121-.503.371-.016.054-.025.117-.025.19v1.433h-.526V8.52h.526v1.426h.009c.165-.259.407-.385.714-.385.22 0 .402.073.543.215.18.181.27.444.27.796v1.413zM134.466 10.805c0-.222-.047-.406-.142-.562-.112-.192-.268-.285-.473-.285-.211 0-.371.093-.485.285-.092.156-.14.346-.14.572 0 .219.048.404.14.56.114.192.274.284.481.284.2 0 .36-.098.473-.288.099-.162.146-.348.146-.566zm.546-.015c0 .366-.101.664-.312.898-.221.24-.507.357-.869.357-.347 0-.626-.112-.836-.341-.205-.23-.308-.525-.308-.876 0-.366.107-.67.319-.903.213-.236.504-.352.867-.352.344 0 .626.116.837.347.201.225.302.513.302.87zM136.752 10.086c-.052-.01-.107-.014-.165-.014-.186 0-.327.068-.431.21-.088.122-.132.278-.132.469v1.246h-.527l.006-1.628c0-.273-.006-.523-.022-.746h.461l.02.454h.013c.054-.157.142-.284.265-.378.117-.082.244-.126.38-.126.049 0 .094.005.132.01v.503zM137.728 11.992h-.53V9.618h.53v2.374zm.057-3.083c0 .19-.136.316-.332.316-.176 0-.311-.135-.311-.316 0-.182.138-.313.32-.313.181 0 .323.13.323.313zM140.131 11.988h-1.935v-.309l.947-1.247c.06-.077.167-.204.323-.385v-.009h-1.178v-.425h1.818v.327l-.929 1.226c-.103.133-.209.265-.323.386v.01h1.277v.426zM141.994 10.563c.004-.157-.031-.293-.104-.405-.092-.147-.229-.22-.42-.22-.171 0-.313.073-.419.214-.089.114-.144.25-.157.41h1.1zm.503.136c0 .093-.005.177-.019.24h-1.584c.005.235.083.415.229.537.135.114.308.168.52.168.232 0 .447-.04.639-.114l.083.367c-.224.093-.49.142-.796.142-.366 0-.662-.108-.87-.323-.21-.215-.315-.504-.315-.87 0-.357.1-.655.295-.894.206-.254.484-.38.831-.38.342 0 .601.126.777.38.141.2.21.45.21.747zM144.567 10.983v-.397c0-.069-.006-.121-.015-.166-.059-.255-.269-.45-.544-.45-.389 0-.629.347-.629.836 0 .235.054.425.162.572.111.157.268.235.458.235.17 0 .313-.064.416-.196.104-.122.152-.264.152-.434zm.547 1.001h-.469l-.024-.382h-.016c-.151.289-.406.43-.762.43-.289 0-.523-.112-.714-.331-.191-.225-.283-.52-.283-.876 0-.386.103-.693.309-.934.2-.218.443-.331.731-.331.319 0 .543.107.671.323h.01V8.52h.527v2.824c0 .23.005.446.02.641zM124.815 17.63h-1.896v-3.293h1.828v.434h-1.3v.929h1.226v.436h-1.226v1.06h1.368v.434zM126.867 16.608v-.395c0-.069-.005-.123-.014-.166-.058-.254-.269-.45-.542-.45-.393 0-.63.347-.63.837 0 .233.053.423.16.57.113.157.269.234.46.234.17 0 .313-.063.415-.195.103-.12.151-.263.151-.435zm.547 1.002h-.468l-.025-.38h-.014c-.152.287-.407.43-.762.43-.289 0-.523-.113-.714-.332-.19-.227-.285-.518-.285-.876 0-.387.104-.694.309-.933.201-.22.445-.332.733-.332.318 0 .543.108.671.322h.008v-1.363h.527v2.825c0 .23.007.445.02.639zM130.044 17.61h-.463l-.029-.36h-.011c-.166.273-.414.411-.751.411-.235 0-.422-.072-.562-.216-.166-.18-.249-.449-.249-.81v-1.397h.527v1.308c0 .456.156.685.47.685.234 0 .395-.113.488-.342.024-.059.034-.127.034-.2v-1.451h.528v1.69c0 .223.004.454.018.683zM132.312 15.31l-.103.401c-.131-.063-.287-.097-.459-.097-.464 0-.752.348-.752.821 0 .503.317.816.752.816.162 0 .324-.035.479-.098l.074.396c-.171.079-.391.117-.655.117-.362 0-.65-.107-.865-.327-.215-.22-.323-.513-.323-.88 0-.366.117-.668.347-.904.229-.24.543-.356.933-.356.22 0 .411.038.572.112zM134.07 16.807v-.367c-.587-.01-.88.152-.88.48 0 .248.152.371.361.371.237 0 .465-.162.509-.392.006-.024.01-.058.01-.092zm.547.815h-.473l-.041-.273h-.013c-.162.216-.395.323-.695.323-.225 0-.404-.069-.541-.21-.123-.133-.186-.294-.186-.485 0-.581.508-.894 1.388-.888v-.044c0-.314-.167-.469-.494-.469-.234 0-.439.057-.62.175l-.109-.347c.222-.136.495-.205.817-.205.621 0 .933.328.933.983v.873c0 .24.011.427.034.567zM136.322 15.638h-.583v1.153c0 .295.104.44.309.44.094 0 .171-.009.234-.023l.014.4c-.101.035-.239.054-.41.054-.416 0-.662-.226-.662-.826v-1.198h-.349v-.394h.349v-.436l.515-.156v.592h.583v.394zM137.338 17.619h-.528v-2.374h.528v2.374zm.058-3.084c0 .191-.137.32-.331.32-.177 0-.314-.138-.314-.32 0-.18.143-.313.323-.313.181 0 .322.133.322.313zM139.564 16.43c0-.22-.049-.406-.141-.562-.113-.19-.27-.284-.474-.284-.211 0-.372.093-.484.284-.093.156-.142.347-.142.571 0 .222.049.407.142.563.112.191.273.284.479.284.2 0 .361-.098.475-.29.096-.16.145-.346.145-.566zm.547-.014c0 .366-.102.665-.313.9-.218.237-.507.356-.869.356-.347 0-.626-.113-.836-.343-.206-.229-.307-.522-.307-.874 0-.366.106-.67.316-.905.216-.234.505-.351.866-.351.346 0 .63.117.841.347.2.224.302.513.302.87zM142.642 17.621h-.53v-1.36c0-.422-.159-.632-.477-.632-.314 0-.529.268-.529.58v1.412h-.526v-1.694c0-.21-.007-.436-.02-.679h.463l.026.367h.015c.062-.113.15-.212.271-.285.143-.087.306-.131.48-.131.22 0 .407.072.553.215.181.176.274.44.274.787v1.42zM146.046 15.267c0-.375-.225-.56-.675-.566-.171 0-.298.01-.383.033v1.11h.373c.415 0 .685-.23.685-.577zm.643 2.35h-.546c-.055-.096-.123-.355-.216-.78-.093-.445-.26-.6-.611-.6h-.328v1.38h-.521v-3.249c.239-.043.527-.068.854-.068.446 0 .771.088.977.265.181.155.275.37.275.65 0 .2-.059.382-.182.531-.107.138-.248.236-.42.299v.01c.225.082.381.303.464.655.063.273.113.464.142.566.044.172.084.288.112.342zM148.576 16.19c.005-.157-.029-.293-.103-.405-.093-.148-.23-.22-.421-.22-.169 0-.312.072-.419.215-.09.112-.142.248-.157.41h1.1zm.504.137c0 .093-.004.176-.019.24h-1.585c.006.234.083.414.23.538.132.111.309.166.517.166.235 0 .451-.04.641-.114l.084.367c-.226.093-.49.141-.797.141-.366 0-.66-.108-.87-.322-.21-.215-.313-.503-.313-.87 0-.357.097-.655.294-.893.203-.255.484-.381.829-.381.343 0 .603.126.778.38.142.2.211.448.211.748zM151.017 16.938c0 .445-.345.729-.917.729-.27 0-.499-.055-.69-.158l.112-.39c.181.113.378.167.581.167.271 0 .406-.098.406-.299 0-.175-.102-.273-.4-.387-.425-.154-.636-.385-.636-.683 0-.206.081-.376.236-.513.156-.137.361-.205.62-.205.234 0 .435.05.601.142l-.112.376c-.151-.092-.313-.136-.484-.136-.219 0-.352.115-.352.277 0 .084.034.146.098.2.054.05.162.102.322.162.41.155.615.396.615.718zM152.992 16.19c.004-.157-.03-.293-.104-.405-.092-.148-.228-.22-.419-.22-.172 0-.313.072-.421.215-.088.112-.14.248-.155.41h1.099zm.502.137c0 .093-.005.176-.018.24h-1.583c.004.234.082.414.229.538.13.111.307.166.518.166.235 0 .45-.04.639-.114l.084.367c-.224.093-.488.141-.797.141-.366 0-.658-.108-.871-.322-.208-.215-.312-.503-.312-.87 0-.357.098-.655.292-.893.207-.255.485-.381.833-.381.341 0 .601.126.777.38.142.2.209.448.209.748zM153.981 14.146h.529v3.464h-.529v-3.464zM155.134 14.146h.528v3.464h-.528v-3.464zM157.758 16.19c.006-.157-.029-.293-.101-.405-.093-.148-.231-.22-.422-.22-.17 0-.312.072-.419.215-.089.112-.143.248-.158.41h1.1zm.504.137c0 .093-.005.176-.02.24h-1.584c.006.234.084.414.231.538.132.111.306.166.518.166.234 0 .449-.04.641-.114l.082.367c-.225.093-.489.141-.797.141-.366 0-.66-.108-.87-.322-.21-.215-.313-.503-.313-.87 0-.357.099-.655.293-.893.206-.255.485-.381.831-.381.343 0 .603.126.777.38.143.2.211.448.211.748zM160 15.711c-.054-.009-.107-.015-.167-.015-.185 0-.325.07-.43.212-.088.121-.132.278-.132.467v1.246h-.527l.004-1.625c0-.274-.004-.524-.019-.748h.459l.021.454h.013c.054-.156.142-.283.265-.377.117-.082.244-.126.381-.126.049 0 .093.004.132.01v.502z"/>
    <path fill="#1A4295" d="M3.254 8.586c-.976-.157-1.817-.292-1.817-1.066 0-.62.582-.99 1.558-.99 1.078 0 1.73.493 1.743 1.318l.002.107h1.13l-.006-.114C5.79 6.384 4.742 5.546 2.98 5.546c-1.284 0-2.783.53-2.783 2.03 0 1.605 1.42 1.844 2.676 2.056 1.022.17 1.908.319 1.908 1.134 0 .679-.913 1.102-1.759 1.102-1.096 0-1.67-.472-1.799-1.487l-.013-.094H0l.012.119c.168 1.6 1.166 2.445 2.883 2.445 1.914 0 3.011-.796 3.011-2.186 0-1.654-1.408-1.88-2.652-2.08zM12.658 9.199c0 1.647-.87 2.669-2.272 2.669-1.399 0-2.269-1.022-2.269-2.67 0-1.645.87-2.667 2.27-2.667s2.27 1.022 2.27 2.668zm-2.272-3.653c-1.746 0-3.51 1.131-3.51 3.653 0 2.525 1.764 3.653 3.51 3.653 1.748 0 3.511-1.128 3.511-3.653 0-2.522-1.763-3.653-3.51-3.653zM16.382 2.19H15.14v10.38h1.242V2.19zM22.15 11.58v.996h1.238V5.784H22.15v4.404c-.026.628-.236 1.651-1.601 1.66-1.08.008-1.603-1.034-1.6-1.832V5.785h-1.241v3.903s-.283 3.284 2.687 3.184c0 0 1.34.003 1.755-1.29zM29.44 10.298c-.256 1.085-.804 1.57-1.776 1.57-1.243 0-1.984-.998-1.984-2.67 0-1.67.741-2.667 1.984-2.667.972 0 1.608.566 1.656 1.478l.009.102h1.242l-.009-.117c-.108-1.464-1.273-2.448-2.898-2.448-1.96 0-3.225 1.436-3.225 3.653 0 2.218 1.265 3.652 3.225 3.652 1.734 0 2.624-.75 2.983-2.506l.025-.128H29.46l-.02.081zM33.063 5.784h-1.24v6.792h1.24V5.784zM33.111 3.321h-1.326v1.327h1.326V3.321zM40.044 9.199c0 1.647-.869 2.669-2.268 2.669-1.4 0-2.271-1.022-2.271-2.67 0-1.645.87-2.641 2.271-2.641 1.4 0 2.268.996 2.268 2.642zm-2.268-3.653c-1.748 0-3.51 1.131-3.51 3.653 0 2.525 1.762 3.653 3.51 3.653 1.747 0 3.51-1.128 3.51-3.653 0-2.522-1.763-3.653-3.51-3.653zM45.71 5.546c-.924 0-1.63.379-2.155 1.153v-.896h-1.24v6.791h1.24V8.957c0-1.677.983-2.426 1.955-2.426.918 0 1.246.724 1.246 1.402v4.661h1.241V8.047c0-1.496-.92-2.5-2.287-2.5zM54.452 8.493h-4.145c.12-.995.837-1.961 2.216-1.961 1.185 0 1.75.57 1.93 1.96zm1.339.873c-.087-2.533-1.186-3.82-3.268-3.82-2.204 0-3.469 1.327-3.469 3.639 0 2.365 1.242 3.667 3.498 3.667 1.689 0 2.818-.74 3.179-2.088l.035-.136h-1.264l-.028.067c-.349.834-.931 1.173-2.008 1.173-1.299 0-2.102-.89-2.167-2.39h5.496l-.004-.112zM59.927 8.585c-.975-.156-1.818-.29-1.818-1.065 0-.62.585-.989 1.56-.989 1.078 0 1.73.493 1.742 1.318l.003.106h1.13l-.007-.114c-.072-1.46-1.122-2.295-2.883-2.295-1.285 0-2.785.531-2.785 2.03 0 1.605 1.422 1.844 2.675 2.054 1.025.173 1.91.32 1.91 1.135 0 .68-.913 1.103-1.757 1.103-1.097 0-1.669-.471-1.802-1.487l-.011-.093h-1.21l.012.119c.167 1.6 1.164 2.445 2.882 2.445 1.915 0 3.012-.797 3.012-2.186 0-1.655-1.408-1.88-2.653-2.08zM69.33 8.178c.13-.704.635-1.153 1.305-1.153.668 0 1.18.46 1.298 1.153h-2.604zm5.228 2.206h-2.716l-.02.058c-.154.453-.624.768-1.142.768-.796 0-1.251-.483-1.358-1.436h5.339l.005-.08c.088-1.211-.268-2.346-.983-3.112-.71-.765-1.72-1.153-3.003-1.153-2.53 0-4.102 1.468-4.102 3.83 0 2.49 2.047 3.603 4.072 3.603 1.474 0 3.263-.621 3.869-2.364l.039-.114z"/>
    <path fill="#1A4295" d="M80.356 9.01l2.146-3.17.091-.136h-2.95l-.022.047-.836 1.618-.849-1.618-.024-.047h-3.17l.084.134 2.02 3.168-2.415 3.426-.097.138h3.08l.026-.047.934-1.768.991 1.77.026.045h3.284l-.087-.136-2.232-3.424zM85.818 10.513c0-.626.574-.792 1.183-.968.316-.09.64-.184.88-.348l-.073 1.195c-.023.414-.509.874-1.168.874-.4 0-.822-.264-.822-.753zm5.214 1.92c-.309-.332-.447-.855-.447-1.694v-2.42c0-1.999-1.181-2.89-3.83-2.89-2.132 0-3.287.742-3.529 2.265l-.016.1h2.803l.003-.082c.028-.64.541-.774.967-.774.613 0 .925.25.925.742 0 .45-.618.71-1.694.71-2.244 0-3.245.708-3.245 2.292 0 2.074 2.218 2.18 2.661 2.18.532 0 1.656-.235 2.308-1.099.03.33.071.574.196.774l.025.042h3.007l-.134-.147z"/>
    <path fill="#231F20" d="M56.175 18.625c-.082-.755-.374-1.145-1.077-1.145-.749 0-1.182.54-1.227 1.145h2.304zm-2.304.405c.015.8.428 1.369 1.197 1.369.576 0 .912-.188 1.107-.653h.554c-.203.755-.853 1.056-1.616 1.056-1.061 0-1.78-.576-1.78-1.87 0-1.025.508-1.856 1.765-1.856 1.227 0 1.623.861 1.66 1.954h-2.887zM59.699 20.425c.777 0 1.099-.674 1.099-1.46 0-.785-.322-1.457-1.099-1.457-.779 0-1.1.672-1.1 1.458 0 .785.321 1.46 1.1 1.46zm1.638.269h-.539v-.508h-.015c-.307.425-.726.643-1.22.643-.987 0-1.503-.868-1.503-1.863s.516-1.863 1.503-1.863c.57 0 .928.217 1.22.628h.015v-2.378h.54v5.34zM63.58 17.23v2.394c0 .42.223.794.711.794.575 0 1.084-.45 1.084-1.332v-1.855h.539v3.455h-.539v-.59h-.015c-.255.456-.62.726-1.175.726-.696 0-1.143-.509-1.143-1.257V17.23h.537zM70.024 18.31c-.03-.532-.405-.83-.928-.83-.778 0-1.1.673-1.1 1.459 0 .785.322 1.46 1.1 1.46.613 0 .868-.361.988-.87h.524c-.18.884-.621 1.272-1.512 1.272-1.121 0-1.639-.867-1.639-1.862 0-.995.518-1.863 1.639-1.863.755 0 1.407.427 1.466 1.233h-.538zM74.436 18.631c-.335.212-.814.316-1.323.39-.345.053-.644.285-.644.66 0 .462.36.718.809.718.62 0 1.158-.487 1.158-1.07v-.698zm-2.354-.47c.171-.896.746-1.085 1.57-1.085.98 0 1.324.412 1.324 1.347v1.555c0 .24.037.502.159.69h-.577c-.053-.15-.091-.337-.122-.516-.335.419-.716.65-1.27.65-.644 0-1.235-.337-1.235-1.017 0-1.825 2.505-.733 2.505-1.744 0-.403-.507-.56-.881-.56-.47 0-.876.165-.935.68h-.538zM79.01 18.31c-.03-.532-.405-.83-.928-.83-.778 0-1.1.673-1.1 1.459 0 .785.322 1.46 1.1 1.46.613 0 .87-.361.988-.87h.524c-.18.884-.623 1.272-1.512 1.272-1.122 0-1.638-.867-1.638-1.862 0-.995.516-1.863 1.638-1.863.755 0 1.406.427 1.467 1.233h-.54zM81.135 17.243h.539v3.455h-.539v-3.455zm-.022-1.303h.583v.584h-.583v-.585zM84.616 16.618l.51-1.07h.739l-.785 1.07h-.464zm1.623 2.35c0-.9-.479-1.46-1.25-1.46-.767 0-1.247.56-1.247 1.46 0 .898.48 1.459 1.248 1.459.77 0 1.249-.561 1.249-1.46zm-3.036 0c0-1.235.823-1.863 1.787-1.863.965 0 1.788.628 1.788 1.862s-.824 1.863-1.788 1.863c-.964 0-1.787-.63-1.787-1.863zM90.655 20.667v-2.394c0-.418-.224-.793-.71-.793-.576 0-1.085.448-1.085 1.332v1.855h-.538V17.21h.538v.59h.015c.255-.456.622-.725 1.175-.725.695 0 1.145.51 1.145 1.257v2.334h-.54z"/>
    <path fill="#1A4295" d="M98.663 0h.52v23.021h-.52V0z"/>
</svg>
