<svg xmlns="http://www.w3.org/2000/svg" width="20" height="18" viewBox="0 0 20 18">
    <g fill="none" fill-rule="evenodd">
        <g>
            <g>
                <g>
                    <g>
                        <g>
                            <path fill="#FFF" d="M17.778 4C19.005 4 20 5.045 20 6.333v9.334C20 16.955 19.005 18 17.778 18H2.222C.995 18 0 16.955 0 15.667V6.333C0 5.045.995 4 2.222 4h15.556zm0 2.333H2.222v9.334h15.556V6.333zM17.182 0c.452 0 .818.366.818.818v.364c0 .452-.366.818-.818.818H2.818C2.366 2 2 1.634 2 1.182V.818C2 .366 2.366 0 2.818 0h14.364z" transform="translate(-771 -1308) translate(141 891) translate(591 285) translate(39 132) rotate(-180 10 9)"/>
                        </g>
                    </g>
                </g>
            </g>
        </g>
    </g>
</svg>
