<svg xmlns="http://www.w3.org/2000/svg" width="76" height="75" fill="none" viewBox="0 0 76 75">
    <path fill="#F3F5FC" d="M37.86 75c20.909 0 37.86-16.79 37.86-37.5S58.768 0 37.86 0C16.95 0 0 16.79 0 37.5S16.95 75 37.86 75z"/>
    <path fill="#8A79F7" d="M39.218 35.078H9.872c-1.177 0-2.173-1.031-2.173-2.287V12.56c0-1.257.95-2.288 2.173-2.288h29.346c1.178 0 2.174 1.031 2.174 2.287v20.186c0 1.3-.996 2.332-2.174 2.332z"/>
    <path fill="#8A79F7" d="M39.218 35.437H9.872c-1.404 0-2.536-1.211-2.536-2.692V12.56c0-1.48 1.132-2.691 2.536-2.691h29.346c1.404 0 2.536 1.211 2.536 2.691v20.185c0 1.48-1.132 2.692-2.536 2.692zM9.872 10.63c-.996 0-1.811.853-1.811 1.93v20.184c0 1.077.815 1.93 1.811 1.93h29.346c.996 0 1.811-.853 1.811-1.93V12.56c0-1.076-.815-1.929-1.811-1.929H9.872z"/>
    <path fill="#fff" d="M24.816 15.7H11.683v1.526h13.133V15.7zM37.406 19.917H11.683v1.525h25.723v-1.525zM37.406 24.133H11.683v1.525h25.723v-1.525zM37.406 28.395H11.683v1.525h25.723v-1.525zM66.752 63.697H36.23c-1.223 0-2.264-.987-2.264-2.243V41.897c0-1.211.996-2.243 2.264-2.243h30.523c1.223 0 2.265.987 2.265 2.243v19.557c-.045 1.256-1.042 2.243-2.265 2.243z"/>
    <path fill="#1F3040" d="M66.752 64.1H36.229c-1.45 0-2.627-1.166-2.627-2.601V41.896c0-1.435 1.177-2.601 2.627-2.601h30.523c1.45 0 2.627 1.166 2.627 2.601v19.558c0 1.48-1.178 2.646-2.627 2.646zM36.229 40.057c-1.042 0-1.857.852-1.857 1.84v19.557c0 1.032.86 1.839 1.857 1.839h30.523c1.041 0 1.857-.852 1.857-1.84V41.897c0-1.031-.86-1.839-1.857-1.839H36.229z"/>
    <path fill="#1F3040" d="M51.763 44.947H38.13v1.48h13.632v-1.48zM64.85 49.028H38.131v1.48h26.72v-1.48zM64.85 53.154H38.131v1.48h26.72v-1.48zM64.85 57.236H38.131v1.48h26.72v-1.48zM52.667 32.433v-1.795c-1.268-.045-2.49-.403-3.215-.807l.589-2.198c.815.448 1.902.807 3.124.807 1.087 0 1.812-.404 1.812-1.166 0-.718-.589-1.166-1.993-1.615-2.038-.673-3.396-1.615-3.396-3.41 0-1.659 1.177-2.96 3.215-3.319v-1.794h1.857v1.66c1.268.045 2.128.314 2.762.628l-.543 2.108c-.498-.224-1.359-.628-2.717-.628-1.223 0-1.63.538-1.63 1.032 0 .628.679 1.032 2.264 1.615 2.264.807 3.17 1.839 3.17 3.499 0 1.66-1.178 3.095-3.352 3.454v1.929h-1.947z"/>
    <path fill="#1F3040" d="M54.66 32.61h-2.173v-1.795c-1.178-.09-2.4-.403-3.125-.807l-.09-.045.633-2.512.181.09c.544.314 1.676.807 3.08.807 1.041 0 1.63-.358 1.63-.986 0-.583-.543-1.032-1.902-1.48-1.63-.539-3.532-1.436-3.532-3.589 0-1.704 1.222-3.05 3.215-3.453v-1.795h2.174v1.66c1.041.045 1.902.27 2.627.628l.135.045-.634 2.422-.317-.135c-.498-.224-1.313-.583-2.536-.583-.906 0-1.449.314-1.449.897 0 .494.544.852 2.174 1.436 2.31.807 3.26 1.883 3.26 3.678 0 1.794-1.313 3.184-3.35 3.588v1.928zm-1.856-.36h1.494v-1.883l.136-.045c1.992-.359 3.215-1.615 3.215-3.32 0-1.614-.86-2.6-3.034-3.363-1.63-.583-2.4-1.032-2.4-1.75 0-.269.136-1.21 1.811-1.21 1.223 0 2.083.358 2.627.583l.453-1.794c-.725-.314-1.54-.494-2.536-.539h-.181v-1.66h-1.495v1.75l-.136.045c-1.902.359-3.08 1.57-3.08 3.184 0 1.525.997 2.512 3.307 3.275 1.268.448 2.128.897 2.128 1.794 0 .807-.77 1.345-1.992 1.345-1.314 0-2.4-.448-3.035-.762l-.498 1.839c.77.403 1.902.673 3.034.717h.181v1.795z"/>
</svg>
