<svg width="181" height="143" viewBox="0 0 181 143" fill="none" xmlns="http://www.w3.org/2000/svg">
<path d="M167.03 139.238V97.582L155.667 86.9256L154.436 142.508H169.613L167.03 139.238Z" fill="#E3E3F1"/>
<path d="M164.103 59.8408L145.192 58.5492L141.761 82.7681V142.508H159.32L157.463 139.198L164.103 59.8408Z" fill="#E3E3F1"/>
<path d="M155.283 103.96C161.923 102.91 167.009 101.195 167.009 101.195L155.465 95.6848L155.283 103.96Z" fill="black"/>
<path d="M141.761 89.1255V104.565C148.341 105.231 155.485 104.081 160.491 102.95L160.874 98.2681L141.761 89.1255Z" fill="black"/>
<path d="M159.138 142.609L157.261 139.238V139.178L163.901 59.8409L164.305 59.861L157.665 139.138L159.502 142.427L159.138 142.609Z" fill="black"/>
<path d="M142.427 41.5354V60.2445L168.927 66.7634V45.9352C168.927 38.5484 163.881 32.1102 156.716 30.3544C149.431 28.5581 142.427 34.0679 142.427 41.5354Z" fill="#E3E3F1"/>
<path d="M147.675 20.142V23.129C147.675 25.4298 149.249 27.4481 151.489 27.993L156.232 29.1636V17.4981L152.276 16.5294C149.935 15.9441 147.675 17.7202 147.675 20.142Z" fill="#EDEEEF"/>
<path d="M156.192 29.3654L151.449 28.1948C149.108 27.6297 147.473 25.5308 147.473 23.129H147.877C147.877 25.3491 149.39 27.2664 151.53 27.7912L156.272 28.9618L156.192 29.3654Z" fill="black"/>
<path d="M152.498 22.5236C152.621 22.5236 152.72 22.4242 152.72 22.3016C152.72 22.179 152.621 22.0796 152.498 22.0796C152.376 22.0796 152.276 22.179 152.276 22.3016C152.276 22.4242 152.376 22.5236 152.498 22.5236Z" fill="black"/>
<path d="M148.987 22.5236C149.109 22.5236 149.209 22.4242 149.209 22.3016C149.209 22.179 149.109 22.0796 148.987 22.0796C148.864 22.0796 148.765 22.179 148.765 22.3016C148.765 22.4242 148.864 22.5236 148.987 22.5236Z" fill="black"/>
<path d="M150.218 23.674H149.814V20.3439H148.26V19.9402H150.218V23.674Z" fill="black"/>
<path d="M152.942 19.9402H151.166V20.3439H152.942V19.9402Z" fill="black"/>
<path d="M155.667 21.9585V23.1896C156.333 23.1896 156.858 22.6447 156.858 21.9988C156.858 21.9585 156.858 21.9181 156.858 21.8979C156.797 21.131 155.667 21.2117 155.667 21.9585Z" fill="#EDEEEF"/>
<path d="M155.667 23.3712V22.9676C156.212 22.9676 156.656 22.5236 156.656 21.9787H157.06C157.06 22.7456 156.434 23.3712 155.667 23.3712Z" fill="black"/>
<path d="M151.55 24.4611C151.308 24.4611 151.065 24.3602 150.884 24.1785L151.106 23.9565C151.348 24.1987 151.772 24.1987 152.014 23.9565L152.236 24.1785C152.034 24.3804 151.792 24.4611 151.55 24.4611Z" fill="#6E43B7"/>
<path d="M150.783 24.0776C150.763 24.0776 150.742 24.0776 150.742 24.0776L149.976 23.896C149.875 23.8758 149.794 23.7547 149.834 23.6538C149.854 23.5529 149.976 23.4721 150.076 23.5125L150.843 23.6941C150.944 23.7143 151.025 23.8354 150.985 23.9363C150.964 23.9969 150.884 24.0776 150.783 24.0776Z" fill="black"/>
<path d="M155.627 21.6759C154.718 21.4741 154.436 20.687 154.395 20.1421C153.427 20.2026 152.821 19.3146 152.619 18.9917H152.599C151.752 18.9917 151.106 18.3458 150.803 17.9825C149.955 19.0522 147.796 19.3549 147.695 19.3549L147.634 18.9513C147.655 18.9513 150.036 18.6284 150.601 17.5183L150.763 17.1954L150.944 17.4982C150.944 17.5183 151.671 18.6486 152.7 18.5678L152.841 18.5476L152.902 18.6687C152.902 18.6889 153.528 19.8999 154.537 19.698L154.799 19.6375L154.779 19.8999C154.779 19.9402 154.718 21.0301 155.707 21.2521L155.627 21.6759Z" fill="black"/>
<path d="M156.333 26.5601L156.212 26.1766C157.483 25.7729 158.371 25.1069 158.836 24.1583C159.623 22.5438 158.936 20.6668 158.916 20.6466L158.896 20.5861L158.916 20.5255C159.3 19.254 158.048 17.8413 158.048 17.8413L158.008 17.7807V17.7C157.968 16.1661 155.122 15.3386 155.082 15.3386L155.041 15.3185L155.001 15.2781C154.88 15.157 151.933 12.4727 147.453 15.5203C146.161 16.4083 145.515 17.3367 145.556 18.2853C145.616 20.0008 147.776 21.2924 147.796 21.3126L147.594 21.6557C147.493 21.5952 145.212 20.243 145.152 18.3054C145.112 17.1954 145.818 16.1459 147.231 15.1772C149.713 13.502 151.772 13.5222 153.043 13.8451C154.295 14.1681 155.061 14.7937 155.243 14.935C155.647 15.0561 158.27 15.9037 158.412 17.5789C158.654 17.8614 159.703 19.2137 159.34 20.5457C159.461 20.909 160.006 22.7052 159.219 24.3198C158.694 25.3895 157.726 26.1362 156.333 26.5601Z" fill="black"/>
<path d="M156.272 27.1655L156.252 26.8628C156.252 26.8628 157.039 26.8022 157.826 26.2371L158.008 26.4793C157.16 27.105 156.313 27.1655 156.272 27.1655Z" fill="#6E43B7"/>
<path d="M159.118 35.2587C158.997 35.2587 158.856 35.2385 158.715 35.2183C157.181 34.9761 156.03 33.6037 156.03 32.0295V28.0737H156.434V32.0295C156.434 33.4221 157.443 34.633 158.775 34.8348C159.34 34.9156 159.804 34.7945 160.127 34.4716C160.672 33.9468 160.935 33.0386 160.834 31.9891C160.733 30.8791 160.228 29.8296 159.643 29.4663L159.542 29.4058L159.562 29.2847C159.562 29.2241 159.683 27.993 158.412 27.3673L158.593 27.0041C159.865 27.6297 159.986 28.8205 159.966 29.2039C160.612 29.6883 161.136 30.7782 161.237 31.9689C161.358 33.1597 161.056 34.189 160.41 34.7945C160.067 35.077 159.623 35.2587 159.118 35.2587Z" fill="black"/>
<path d="M142.427 60.2445L121.498 95.8059C121.498 95.8059 146.928 105.271 168.927 101.195V62.5453" fill="#6E43B7"/>
<path d="M157.08 102.406C149.572 102.406 142.387 101.336 136.917 100.226C127.896 98.3893 121.498 96.0077 121.417 95.9876L121.559 95.6041C121.821 95.705 147.19 105.009 168.866 100.973L168.947 101.376C165.032 102.103 161.015 102.406 157.08 102.406Z" fill="black"/>
<path d="M168.947 65.0075L168.886 64.6039C173.024 64.0186 176.092 62.1618 178.029 59.0739C183.155 50.8799 178.655 36.5907 178.614 36.4494L178.574 36.3485L178.635 36.2678C179.422 35.1578 179.644 34.1285 179.341 33.1799C178.695 31.202 175.849 30.2131 175.829 30.2131L175.708 30.1727L175.688 30.0516C175.426 28.5783 175.022 26.9032 174.759 26.5197C174.396 27.549 173.448 40.8492 172.862 49.6689H172.459C171.51 41.2932 164.022 34.6936 163.942 34.633L164.204 34.3303C164.285 34.3908 170.884 40.2034 172.56 47.8929C172.923 42.4032 173.972 27.1453 174.396 26.2977C174.517 26.0555 174.679 26.0353 174.759 26.0555C175.163 26.116 175.607 27.4077 176.031 29.87C176.596 30.0718 179.038 31.1011 179.684 33.0588C180.027 34.1083 179.785 35.2385 178.978 36.4293C179.361 37.7007 183.317 51.2835 178.312 59.2959C176.374 62.4646 173.205 64.4021 168.947 65.0075Z" fill="black"/>
<path d="M134.112 63.1104C133.063 63.1104 132.054 62.9489 131.065 62.626C127.089 61.3545 124.142 56.7933 122.305 49.0634C121.074 43.8967 120.792 38.9722 120.751 38.0438C119.359 37.7411 118.35 37.0751 117.744 36.066C116.796 34.4514 117.219 32.4937 117.361 31.9488C114.091 29.547 114.313 29.2241 114.414 29.0627C114.697 28.6187 115.423 28.659 121.962 30.9194C124.465 31.7671 127.634 34.6734 131.428 39.5575C133.749 42.5243 135.585 45.3701 136.171 46.2984C138.754 40.4657 141.66 36.8329 143.679 34.8147C145.899 32.5542 147.473 31.7469 147.554 31.7066L147.735 32.0698C147.675 32.1102 141.358 35.3999 136.393 46.803L136.231 47.1663L136.029 46.8434C135.949 46.7021 127.613 33.301 121.821 31.3029C119.682 30.5763 115.322 29.0627 114.777 29.2443C114.999 29.6076 116.412 30.7782 117.704 31.7066L117.825 31.7873L117.785 31.9286C117.785 31.9488 117.078 34.1688 118.087 35.8641C118.632 36.7925 119.601 37.4182 120.973 37.6806L121.135 37.7209V37.8824C121.135 38.1044 122.003 59.3161 131.165 62.2627C140.328 65.1892 148.704 53.0999 148.805 52.9788L149.148 53.2008C149.128 53.2412 146.989 56.3493 143.719 59.0537C140.47 61.738 137.2 63.1104 134.112 63.1104Z" fill="black"/>
<path d="M20.142 41.1923C21.5242 41.1923 22.6447 40.0718 22.6447 38.6897C22.6447 37.3075 21.5242 36.1871 20.142 36.1871C18.7599 36.1871 17.6394 37.3075 17.6394 38.6897C17.6394 40.0718 18.7599 41.1923 20.142 41.1923Z" fill="#6E43B7"/>
<path d="M20.3439 0H19.9402V31.5653H20.3439V0Z" fill="black"/>
<path d="M20.142 24.6427L6.72074 38.064H33.5633L20.142 24.6427Z" fill="#E3E3F1"/>
<path d="M34.0477 38.2658H6.72074V37.8622H33.079L20.0008 24.784L20.2833 24.5014L34.0477 38.2658Z" fill="black"/>
<path d="M100.952 135.666C101.275 103.697 87.7531 65.7745 87.7531 65.7745L78.0252 60.2647L75.7648 96.4316L87.7531 142.125L104.989 137.281L100.952 135.666Z" fill="#6E43B7"/>
<path d="M89.1053 104.182C89.1053 93.2024 84.0396 83.757 76.8143 79.6801L75.7648 96.4315L82.8488 123.415C86.7036 118.572 89.1053 111.75 89.1053 104.182Z" fill="black"/>
<path d="M83.4341 60.305C83.4341 60.305 86.6835 113.506 77.4803 138.694L79.3976 141.519H63.0297C63.0297 141.519 61.2334 73.8474 61.2334 59.2556L83.4341 60.305Z" fill="#6E43B7"/>
<path d="M78.005 19.1531V26.0757L69.4477 28.1746V16.5092L78.005 14.4102V19.1531Z" fill="#EDEEEF"/>
<path d="M73.1612 21.5346C73.2838 21.5346 73.3832 21.4352 73.3832 21.3126C73.3832 21.19 73.2838 21.0906 73.1612 21.0906C73.0386 21.0906 72.9392 21.19 72.9392 21.3126C72.9392 21.4352 73.0386 21.5346 73.1612 21.5346Z" fill="black"/>
<path d="M76.6932 21.5346C76.8158 21.5346 76.9152 21.4352 76.9152 21.3126C76.9152 21.19 76.8158 21.0906 76.6932 21.0906C76.5706 21.0906 76.4712 21.19 76.4712 21.3126C76.4712 21.4352 76.5706 21.5346 76.6932 21.5346Z" fill="black"/>
<path d="M75.8455 22.685H75.4418V18.9513H77.4197V19.3549H75.8455V22.685Z" fill="black"/>
<path d="M74.5134 18.9513H72.7374V19.3549H74.5134V18.9513Z" fill="black"/>
<path d="M70.0128 20.9695V22.2007C69.3468 22.2007 68.822 21.6557 68.822 21.0099C68.822 20.9695 68.822 20.9292 68.822 20.909C68.8826 20.142 70.0128 20.2228 70.0128 20.9695Z" fill="#EDEEEF"/>
<path d="M70.0128 22.3823C69.2458 22.3823 68.6202 21.7566 68.6202 20.9897H69.0238C69.0238 21.5346 69.4679 21.9786 70.0128 21.9786V22.3823Z" fill="black"/>
<path d="M74.8768 23.7143C74.13 23.7143 73.5043 23.1089 73.5043 22.3419H73.8071C73.8071 22.9272 74.2915 23.4116 74.8768 23.4116V23.7143Z" fill="#6E43B7"/>
<path d="M77.9507 25.883L69.3858 27.9882L69.4822 28.3802L78.047 26.2749L77.9507 25.883Z" fill="black"/>
<path d="M74.8767 23.0685C74.796 23.0685 74.6951 23.0079 74.6749 22.907C74.6547 22.8061 74.7153 22.685 74.8162 22.6648L75.5831 22.4832C75.684 22.463 75.8051 22.5236 75.8253 22.6245C75.8455 22.7254 75.785 22.8465 75.684 22.8667L74.9171 23.0483C74.9171 23.0685 74.8969 23.0685 74.8767 23.0685Z" fill="black"/>
<path d="M61.2536 40.5465V59.2556L87.7531 65.7745V44.9462C87.7531 37.5595 82.7075 31.1213 75.5427 29.3654C68.2771 27.5692 61.2536 33.079 61.2536 40.5465Z" fill="#E3E3F1"/>
<path d="M77.6821 138.774L77.2986 138.633C86.3807 113.768 83.2726 60.85 83.2323 60.3252L83.6359 60.3051C83.6359 60.4463 84.4432 73.8071 84.1203 90.0741C83.8175 105.09 82.4451 125.736 77.6821 138.774Z" fill="black"/>
<path d="M70.0733 21.1512L69.932 20.7677C70.033 20.7273 72.3337 19.8393 71.8897 17.0945L71.8494 16.8523H78.227V17.256H72.3338C72.6567 20.1622 70.0935 21.1512 70.0733 21.1512Z" fill="black"/>
<path d="M68.7211 20.6668C68.6606 20.5255 67.3487 17.1752 68.7615 15.1772C69.4679 14.1681 70.7192 13.7039 72.4952 13.7644C78.9132 14.0066 79.3774 14.1075 79.6196 15.379C79.8618 16.5899 78.1867 17.8413 78.1059 17.9018L77.8637 17.5789C78.2876 17.256 79.3774 16.267 79.216 15.4597C79.0343 14.5313 78.772 14.4102 72.4549 14.1681C70.8201 14.1075 69.6899 14.5313 69.0642 15.3992C67.7725 17.2156 69.044 20.465 69.0642 20.5053L68.7211 20.6668Z" fill="black"/>
<path d="M67.0863 79.7609L66.9249 79.66C66.8845 79.6196 61.8389 76.4711 57.1969 71.4255C52.8981 66.7432 48.0543 59.4574 49.3863 51.2028C50.7386 42.9683 55.9254 37.5191 60.0427 34.3908C64.503 31.0204 68.7009 29.5672 68.7413 29.547L68.8624 29.9305C68.822 29.9507 64.6846 31.3836 60.2647 34.7137C56.208 37.7815 51.1018 43.15 49.7698 51.2633C48.4579 59.3565 53.221 66.5414 57.4593 71.1632C61.5967 75.6638 66.057 78.6508 66.945 79.216L72.3539 71.5668L63.3526 55.2392L72.4347 45.2893L72.7374 45.5517L63.8571 55.2998L72.8383 71.587L67.0863 79.7609Z" fill="black"/>
<path d="M74.4178 68.6994L66.8794 79.3625L67.209 79.5956L74.7474 68.9324L74.4178 68.6994Z" fill="black"/>
<path d="M90.9218 69.7908C90.2961 69.7908 89.6301 69.7504 88.9641 69.6697L89.0044 69.266C92.6978 69.6899 95.9068 68.9229 98.4902 66.9249C100.771 65.1892 102.607 62.5251 103.939 59.0134C105.857 53.9476 106.684 47.025 106.24 40.0015C105.857 34.1688 104.605 29.2645 103.253 28.3361C102.204 27.6095 101.356 27.4077 100.73 27.7508C99.2975 28.5177 99.358 31.8075 99.358 31.8478V32.0093L99.1965 32.0497C98.9745 32.09 98.8333 32.2111 98.7324 32.3726C98.3892 33.0991 99.0351 34.7339 99.3378 35.299L99.3782 35.3596L99.358 35.4403L95.2206 51.1019L95.0793 50.1129C93.5051 39.0328 82.2433 33.0588 82.1222 32.9982L82.3039 32.6349C82.425 32.6955 93.2427 38.4475 95.3215 49.124L98.9342 35.3999C98.7525 35.0165 97.9049 33.1395 98.3691 32.1708C98.4902 31.9286 98.692 31.7469 98.9342 31.6662C98.9342 30.9598 99.0553 28.1544 100.508 27.3673C101.275 26.9637 102.264 27.1655 103.435 27.993C106.422 30.0718 108.642 47.6103 104.283 59.1546C101.679 66.1579 97.0774 69.7908 90.9218 69.7908Z" fill="black"/>
<path d="M0 96.9765V142.125H8.57753V137.543H54.6742V142.125H63.2719V96.9765H0Z" fill="#8E8DC9"/>
<path d="M63.4737 96.9765H63.07V142.125H63.4737V96.9765Z" fill="black"/>
<path d="M54.876 142.125H54.4723V137.745H8.57752V137.341H54.876V142.125Z" fill="black"/>
<path d="M54.6742 104.908H8.57752V115.322H54.6742V104.908Z" fill="#EDEEEF"/>
<path d="M54.876 115.544H8.57752V115.141H54.4723V104.908H54.876V115.544Z" fill="black"/>
<path d="M32.6148 109.147H30.6571V111.104H32.6148V109.147Z" fill="black"/>
<path d="M54.6742 117.845H8.57752V128.259H54.6742V117.845Z" fill="#EDEEEF"/>
<path d="M54.876 128.461H8.57752V128.057H54.4723V117.845H54.876V128.461Z" fill="black"/>
<path d="M32.6148 122.063H30.6571V124.021H32.6148V122.063Z" fill="black"/>
<path d="M4.86397 70.7999H1.00912V96.9563H4.86397V70.7999Z" fill="#EDEEEF"/>
<path d="M4.86396 97.1581H0.807297V70.7999H1.21094V96.7545H4.86396V97.1581Z" fill="black"/>
<path d="M4.86397 75.5024H2.01825V75.9061H4.86397V75.5024Z" fill="black"/>
<path d="M4.86397 76.5519H2.01825V76.9556H4.86397V76.5519Z" fill="black"/>
<path d="M4.86397 77.6014H2.01825V78.005H4.86397V77.6014Z" fill="black"/>
<path d="M9.60681 70.7999H5.75197V96.9563H9.60681V70.7999Z" fill="#E3E3F1"/>
<path d="M9.60684 97.1581H5.55017V70.7999H5.95382V96.7545H9.60684V97.1581Z" fill="black"/>
<path d="M9.60682 75.5024H6.7611V75.906H9.60682V75.5024Z" fill="black"/>
<path d="M9.60682 76.5519H6.7611V76.9555H9.60682V76.5519Z" fill="black"/>
<path d="M9.60682 77.6014H6.7611V78.005H9.60682V77.6014Z" fill="black"/>
<path d="M14.3497 70.7999H10.4949V96.9563H14.3497V70.7999Z" fill="#EDEEEF"/>
<path d="M14.3497 97.1581H10.293V70.7999H10.6967V96.7545H14.3497V97.1581Z" fill="black"/>
<path d="M14.3497 75.5024H11.504V75.9061H14.3497V75.5024Z" fill="black"/>
<path d="M14.3497 76.5519H11.504V76.9556H14.3497V76.5519Z" fill="black"/>
<path d="M14.3497 77.6014H11.504V78.005H14.3497V77.6014Z" fill="black"/>
<path d="M19.0926 70.7999H15.2377V96.9563H19.0926V70.7999Z" fill="#E3E3F1"/>
<path d="M19.0926 97.1581H15.0359V70.7999H15.4395V96.7545H19.0926V97.1581Z" fill="black"/>
<path d="M19.0926 75.5024H16.2468V75.906H19.0926V75.5024Z" fill="black"/>
<path d="M19.0926 76.5519H16.2468V76.9555H19.0926V76.5519Z" fill="black"/>
<path d="M19.0926 77.6014H16.2468V78.005H19.0926V77.6014Z" fill="black"/>
<path d="M23.8354 70.7999H19.9806V96.9563H23.8354V70.7999Z" fill="#EDEEEF"/>
<path d="M23.8354 97.1581H19.7788V70.7999H20.1824V96.7545H23.8354V97.1581Z" fill="black"/>
<path d="M23.8354 75.5024H20.9897V75.9061H23.8354V75.5024Z" fill="black"/>
<path d="M23.8354 76.5519H20.9897V76.9556H23.8354V76.5519Z" fill="black"/>
<path d="M23.8354 77.6014H20.9897V78.005H23.8354V77.6014Z" fill="black"/>
<path d="M28.5783 70.7999H24.7235V96.9563H28.5783V70.7999Z" fill="#E3E3F1"/>
<path d="M28.5783 97.1581H24.5216V70.7999H24.9253V96.7545H28.5783V97.1581Z" fill="black"/>
<path d="M28.5783 75.5024H25.7326V75.906H28.5783V75.5024Z" fill="black"/>
<path d="M28.5783 76.5519H25.7326V76.9555H28.5783V76.5519Z" fill="black"/>
<path d="M28.5783 77.6014H25.7326V78.005H28.5783V77.6014Z" fill="black"/>
<path d="M33.3212 70.7999H29.4663V96.9563H33.3212V70.7999Z" fill="#EDEEEF"/>
<path d="M33.3212 97.1581H29.2645V70.7999H29.6682V96.7545H33.3212V97.1581Z" fill="black"/>
<path d="M33.3212 75.5024H30.4754V75.9061H33.3212V75.5024Z" fill="black"/>
<path d="M33.3212 76.5519H30.4754V76.9556H33.3212V76.5519Z" fill="black"/>
<path d="M33.3212 77.6014H30.4754V78.005H33.3212V77.6014Z" fill="black"/>
<path d="M38.064 70.7999H34.2092V96.9563H38.064V70.7999Z" fill="#E3E3F1"/>
<path d="M38.064 97.1581H34.0074V70.7999H34.411V96.7545H38.064V97.1581Z" fill="black"/>
<path d="M38.064 75.5024H35.2183V75.906H38.064V75.5024Z" fill="black"/>
<path d="M38.064 76.5519H35.2183V76.9555H38.064V76.5519Z" fill="black"/>
<path d="M38.064 77.6014H35.2183V78.005H38.064V77.6014Z" fill="black"/>
<path d="M42.2626 70.7771L38.56 71.8495L45.8367 96.9728L49.5393 95.9004L42.2626 70.7771Z" fill="#EDEEEF"/>
<path d="M45.7132 97.2389L38.3668 71.9099L38.7704 71.7888L45.9755 96.7343L49.4873 95.705L49.6084 96.1086L45.7132 97.2389Z" fill="black"/>
<path d="M43.5832 75.2912L40.8499 76.0828L40.9622 76.4705L43.6955 75.6789L43.5832 75.2912Z" fill="black"/>
<path d="M43.8654 76.3033L41.1321 77.095L41.2444 77.4827L43.9777 76.691L43.8654 76.3033Z" fill="black"/>
<path d="M44.167 77.3098L41.4337 78.1015L41.546 78.4892L44.2793 77.6975L44.167 77.3098Z" fill="black"/>
</svg>
