<svg xmlns="http://www.w3.org/2000/svg" xmlns:xlink="http://www.w3.org/1999/xlink" viewBox="0 0 52 52">
    <defs>
        <path id="ksqwyyafga" d="M0 0.089L51.86 0.089 51.86 51.948 0 51.948z"/>
        <path id="e54yr7pujc" d="M25.945.089C11.665.137.105 11.728.105 26.019c0 14.32 11.61 25.93 25.93 25.93s25.93-11.61 25.93-25.93c0-14.291-11.56-25.882-25.84-25.93"/>
        <path id="mnn289wl5e" d="M25.945.089C11.665.137.105 11.728.105 26.019c0 14.32 11.61 25.93 25.93 25.93s25.93-11.61 25.93-25.93c0-14.291-11.56-25.882-25.84-25.93h-.18z"/>
        <path id="q588orazcg" d="M25.945.089C11.665.137.105 11.728.105 26.019c0 14.32 11.61 25.93 25.93 25.93s25.93-11.61 25.93-25.93c0-14.291-11.56-25.882-25.84-25.93"/>
        <path id="wioxv1ezdi" d="M25.945.089C11.665.137.105 11.728.105 26.019c0 14.32 11.61 25.93 25.93 25.93s25.93-11.61 25.93-25.93c0-14.291-11.56-25.882-25.84-25.93"/>
        <path id="zl5mgg9ykk" d="M25.945.089C11.665.137.105 11.728.105 26.019c0 14.32 11.61 25.93 25.93 25.93s25.93-11.61 25.93-25.93c0-14.291-11.56-25.882-25.84-25.93h-.18z"/>
        <path id="yvn91t6jpm" d="M25.945.089C11.665.137.105 11.728.105 26.019c0 14.32 11.61 24.93 25.93 24.93v1c14.32 0 25.93-11.61 25.93-25.93 0-14.291-11.56-25.882-25.84-25.93h-.18z"/>
    </defs>
    <g fill="none" fill-rule="evenodd">
        <g>
            <g>
                <g>
                    <g>
                        <g>
                            <g transform="translate(-29 -3806) translate(16 3797) translate(13 9)">
                                <mask id="ctnxi4xo2b" fill="#fff">
                                    <use xlink:href="#ksqwyyafga"/>
                                </mask>
                                <path fill="#F3F5FC" d="M25.93.089c14.32 0 25.93 11.609 25.93 25.93 0 14.32-11.61 25.93-25.93 25.93S0 40.338 0 26.018C0 11.697 11.61.088 25.93.088" mask="url(#ctnxi4xo2b)"/>
                            </g>
                            <g transform="translate(-29 -3806) translate(16 3797) translate(13 9)">
                                <g>
                                    <mask id="5s4qg6l14d" fill="#fff">
                                        <use xlink:href="#e54yr7pujc"/>
                                    </mask>
                                    <path fill="#FFF" d="M13.832 67.354H36.35c1.653 0 3.008-1.335 3.008-3.009v-51.01c0-1.653-1.334-3.008-3.008-3.008H13.832c-1.653 0-3.008 1.334-3.008 3.008v51.01c0 1.674 1.355 3.009 3.008 3.009" mask="url(#5s4qg6l14d)"/>
                                </g>
                                <g>
                                    <mask id="ax6tagadyf" fill="#fff">
                                        <use xlink:href="#mnn289wl5e"/>
                                    </mask>
                                    <path fill="#000" d="M13.832 10.433c-1.61 0-2.902 1.292-2.902 2.902v51.01c0 1.61 1.292 2.903 2.902 2.903H36.35c1.61 0 2.903-1.293 2.903-2.903v-51.01c0-1.61-1.293-2.902-2.903-2.902H13.832zM36.329 67.46H13.832c-1.716 0-3.093-1.399-3.093-3.093V13.356c0-1.716 1.398-3.093 3.093-3.093H36.35c1.716 0 3.093 1.398 3.093 3.093v51.01c-.021 1.695-1.398 3.094-3.114 3.094z" mask="url(#ax6tagadyf)"/>
                                </g>
                                <g>
                                    <mask id="hgi7t7xeeh" fill="#fff">
                                        <use xlink:href="#q588orazcg"/>
                                    </mask>
                                    <path fill="#000" d="M14.616 65.998h20.908c1.42 0 2.585-1.165 2.585-2.585V14.31c0-1.42-1.166-2.584-2.585-2.584H14.616c-1.42 0-2.585 1.165-2.585 2.584v49.104c0 1.42 1.165 2.585 2.585 2.585" mask="url(#hgi7t7xeeh)"/>
                                </g>
                                <g>
                                    <mask id="vhr9ardchj" fill="#fff">
                                        <use xlink:href="#wioxv1ezdi"/>
                                    </mask>
                                    <path fill="#FEFEFE" d="M34.952 12.72h-3.114c-.042.975-.868 1.759-1.864 1.759h-9.956c-.996 0-1.801-.784-1.865-1.759H15.04c-1.165 0-2.097.933-2.097 2.098V63.01c0 1.165.932 2.097 2.097 2.097h19.892c1.165 0 2.097-.932 2.097-2.097V14.818c.021-1.144-.91-2.098-2.076-2.098" mask="url(#vhr9ardchj)"/>
                                </g>
                                <g>
                                    <mask id="5ym7pv7b5l" fill="#fff">
                                        <use xlink:href="#zl5mgg9ykk"/>
                                    </mask>
                                    <path fill="#000" d="M15.06 12.763c-1.143 0-2.075.932-2.075 2.076v48.193c0 1.144.932 2.076 2.076 2.076h19.891c1.144 0 2.076-.932 2.076-2.076V14.839c0-1.144-.932-2.076-2.076-2.076H31.88c-.063.995-.89 1.758-1.885 1.758H20.04c-.996 0-1.822-.763-1.886-1.758h-3.092zM34.953 65.15H15.061c-1.166 0-2.14-.953-2.14-2.14V14.819c0-1.166.953-2.14 2.14-2.14h3.135v.021c.042.975.847 1.737 1.822 1.737h9.956c.974 0 1.78-.762 1.822-1.737v-.02h3.135c1.165 0 2.14.952 2.14 2.139V63.01c.02 1.165-.933 2.14-2.119 2.14z" mask="url(#5ym7pv7b5l)"/>
                                </g>
                                <mask id="e9q82okhvn" fill="#fff">
                                    <use xlink:href="#yvn91t6jpm"/>
                                </mask>
                                <path fill="#FFF" d="M22.496 13.441L26.203 13.441 26.203 12.932 22.496 12.932zM27.178 12.784c.222 0 .402.18.402.402 0 .223-.18.403-.402.403-.223 0-.403-.18-.403-.403 0-.222.18-.402.403-.402" mask="url(#e9q82okhvn)"/>
                            </g>
                            <g>
                                <path fill="#FFF" d="M.292.92L.205 6.564c-.006.387.282.724.661.731l18.239.324c.362.006.677-.302.684-.708l.087-5.643c.006-.388-.282-.725-.661-.732L.975.213C.598.206.3.533.293.92" transform="translate(-29 -3806) translate(16 3797) translate(13 9) translate(15 19)"/>
                                <path fill="#1F3040" d="M.974.342C.664.336.4.608.396.94L.308 6.584c-.005.332.25.613.56.619l18.238.324c.31.005.574-.267.579-.599l.087-5.644c.006-.332-.249-.613-.56-.619L.975.342zm18.112 7.387L.864 7.406c-.43-.008-.77-.383-.763-.844L.19.918C.196.457.547.094.977.102l18.24.324c.43.007.77.382.763.843l-.088 5.644c-.024.461-.375.824-.806.816z" transform="translate(-29 -3806) translate(16 3797) translate(13 9) translate(15 19)"/>
                                <path fill="#8A79F7" d="M4.829 1.96c.961.017 1.728.865 1.712 1.894-.016 1.029-.808 1.849-1.77 1.832-.962-.017-1.728-.865-1.712-1.894.016-1.029.808-1.85 1.77-1.832" transform="translate(-29 -3806) translate(16 3797) translate(13 9) translate(15 19)"/>
                                <path fill="#1F3040" d="M4.827 2.07c-.896-.015-1.65.765-1.665 1.724-.015.959.714 1.765 1.61 1.781.897.016 1.65-.764 1.666-1.723.014-.96-.715-1.766-1.611-1.781m-.058 3.725c-1.017-.018-1.83-.918-1.814-2.006.017-1.088.858-1.959 1.876-1.94 1.017.017 1.83.917 1.813 2.005-.017 1.089-.858 1.96-1.875 1.941" transform="translate(-29 -3806) translate(16 3797) translate(13 9) translate(15 19)"/>
                                <path fill="#F3F5FC" d="M8.117 2.277L12.358 2.352 12.35 2.887 8.109 2.811z" transform="translate(-29 -3806) translate(16 3797) translate(13 9) translate(15 19)"/>
                                <path fill="#1F3040" d="M8.18 2.892l4.102.093.006-.497-4.103-.094-.006.498zm4.237.31l-4.378-.1.01-.9 4.38.1-.012.9z" transform="translate(-29 -3806) translate(16 3797) translate(13 9) translate(15 19)"/>
                                <path fill="#FFF" d="M8.129 3.771L18.11 3.948 18.102 4.483 8.12 4.306z" transform="translate(-29 -3806) translate(16 3797) translate(13 9) translate(15 19)"/>
                                <path fill="#1F3040" d="M8.19 4.327l9.826.198.006-.44-9.826-.198-.006.44zm9.98.37L8.05 4.491l.01-.796 10.12.204-.01.796z" transform="translate(-29 -3806) translate(16 3797) translate(13 9) translate(15 19)"/>
                                <path fill="#FFF" d="M8.106 5.247L18.087 5.424 18.079 5.959 8.098 5.781z" transform="translate(-29 -3806) translate(16 3797) translate(13 9) translate(15 19)"/>
                                <path fill="#1F3040" d="M8.168 5.784l9.826.198.006-.44-9.826-.198-.006.44zm9.979.37l-10.12-.205.011-.796 10.12.204-.011.796z" transform="translate(-29 -3806) translate(16 3797) translate(13 9) translate(15 19)"/>
                                <path fill="#8A79F7" d="M16.921 18.888H3.517c-1.1 0-1.992-.954-1.992-2.131 0-1.177.892-2.131 1.992-2.131H16.92c1.1 0 1.992.954 1.992 2.13 0 1.178-.892 2.132-1.992 2.132" transform="translate(-29 -3806) translate(16 3797) translate(13 9) translate(15 19)"/>
                            </g>
                        </g>
                    </g>
                </g>
            </g>
        </g>
    </g>
</svg>
