<svg xmlns="http://www.w3.org/2000/svg" xmlns:xlink="http://www.w3.org/1999/xlink" viewBox="0 0 52 52">
    <defs>
        <path id="6urruopusa" d="M0 0.127L51.872 0.127 51.872 51.713 0 51.713z"/>
        <path id="lgu7utfa9c" d="M0 52L52 52 52 0 0 0z"/>
    </defs>
    <g fill="none" fill-rule="evenodd">
        <g>
            <g>
                <g>
                    <g>
                        <g transform="translate(-27 -3958) translate(16 3797) translate(0 152) translate(11 9)">
                            <g>
                                <mask id="gu5l16h86b" fill="#fff">
                                    <use xlink:href="#6urruopusa"/>
                                </mask>
                                <path fill="#F3F5FC" d="M0 25.92C0 11.675 11.612.127 25.936.127S51.872 11.675 51.872 25.92 40.26 51.713 25.936 51.713 0 40.165 0 25.92" mask="url(#gu5l16h86b)"/>
                            </g>
                            <path fill="#FFF" d="M39 13.461V37.54c0 .807-.638 1.461-1.426 1.461H12.426C11.638 39 11 38.346 11 37.539V13.46c0-.807.638-1.461 1.426-1.461h25.148c.788 0 1.426.654 1.426 1.461"/>
                            <path fill="#1F3040" d="M12.628 12.332c-.713 0-1.292.573-1.292 1.277v23.782c0 .704.58 1.277 1.292 1.277h25.744c.713 0 1.292-.573 1.292-1.277V13.609c0-.704-.58-1.277-1.292-1.277H12.628zM38.372 39H12.628C11.73 39 11 38.278 11 37.39V13.61c0-.888.73-1.61 1.628-1.61h25.744c.898 0 1.628.722 1.628 1.61v23.78c0 .888-.73 1.61-1.628 1.61z"/>
                            <path fill="#1F3040" d="M39 14.462V20H11v-5.538c0-.808.638-1.462 1.426-1.462h25.148c.788 0 1.426.654 1.426 1.462"/>
                            <path fill="#1F3040" d="M11.336 19.679h28.328v-5.123c0-.681-.58-1.235-1.292-1.235H12.628c-.712 0-1.292.554-1.292 1.235v5.123zM40 20H11v-5.444c0-.858.73-1.556 1.628-1.556h25.744c.898 0 1.628.698 1.628 1.556V20z"/>
                            <mask id="47i5nbvw2d" fill="#fff">
                                <use xlink:href="#lgu7utfa9c"/>
                            </mask>
                            <path fill="#1F3040" d="M15 16L17 16 17 11 15 11z" mask="url(#47i5nbvw2d)"/>
                            <path fill="#1F3040" d="M15.238 14.766h1.524v-4.532h-1.524v4.532zM15 15h2v-5h-2v5zM34 16L36 16 36 11 34 11z" mask="url(#47i5nbvw2d)"/>
                            <path fill="#1F3040" d="M34.238 14.766h1.524v-4.532h-1.524v4.532zM34 15h2v-5h-2v5z" mask="url(#47i5nbvw2d)"/>
                            <path fill="#F3F5FC" d="M14 26L17 26 17 23 14 23z" mask="url(#47i5nbvw2d)"/>
                            <path fill="#1F3040" d="M14.173 26.827h3.654v-3.654h-3.654v3.654zM14 27h4v-4h-4v4z" mask="url(#47i5nbvw2d)"/>
                            <path fill="#F3F5FC" d="M19 26L22 26 22 23 19 23z" mask="url(#47i5nbvw2d)"/>
                            <path fill="#1F3040" d="M19.173 26.827h3.654v-3.654h-3.654v3.654zM19 27h4v-4h-4v4z" mask="url(#47i5nbvw2d)"/>
                            <path fill="#F3F5FC" d="M24 26L27 26 27 23 24 23z" mask="url(#47i5nbvw2d)"/>
                            <path fill="#1F3040" d="M24.173 26.827h3.654v-3.654h-3.654v3.654zM24 27h4v-4h-4v4z" mask="url(#47i5nbvw2d)"/>
                            <path fill="#F3F5FC" d="M29 26L32 26 32 23 29 23z" mask="url(#47i5nbvw2d)"/>
                            <path fill="#1F3040" d="M28.173 26.827h3.654v-3.654h-3.654v3.654zM28 27h4v-4h-4v4z" mask="url(#47i5nbvw2d)"/>
                            <path fill="#F3F5FC" d="M33 26L36 26 36 23 33 23z" mask="url(#47i5nbvw2d)"/>
                            <path fill="#1F3040" d="M33.173 26.827h3.654v-3.654h-3.654v3.654zM33 27h4v-4h-4v4z" mask="url(#47i5nbvw2d)"/>
                            <path fill="#F3F5FC" d="M14 32L17 32 17 29 14 29z" mask="url(#47i5nbvw2d)"/>
                            <path fill="#1F3040" d="M14.173 31.827h3.654v-3.654h-3.654v3.654zM14 32h4v-4h-4v4z" mask="url(#47i5nbvw2d)"/>
                            <path fill="#F3F5FC" d="M19 32L22 32 22 29 19 29z" mask="url(#47i5nbvw2d)"/>
                            <path fill="#1F3040" d="M19.173 31.827h3.654v-3.654h-3.654v3.654zM19 32h4v-4h-4v4z" mask="url(#47i5nbvw2d)"/>
                            <path fill="#F3F5FC" d="M24 32L27 32 27 29 24 29z" mask="url(#47i5nbvw2d)"/>
                            <path fill="#1F3040" d="M24.173 31.827h3.654v-3.654h-3.654v3.654zM24 32h4v-4h-4v4z" mask="url(#47i5nbvw2d)"/>
                            <path fill="#F3F5FC" d="M29 32L32 32 32 29 29 29z" mask="url(#47i5nbvw2d)"/>
                            <path fill="#1F3040" d="M28.173 31.827h3.654v-3.654h-3.654v3.654zM28 32h4v-4h-4v4z" mask="url(#47i5nbvw2d)"/>
                            <path fill="#F3F5FC" d="M33 32L36 32 36 29 33 29z" mask="url(#47i5nbvw2d)"/>
                            <path fill="#1F3040" d="M33.173 31.827h3.654v-3.654h-3.654v3.654zM33 32h4v-4h-4v4z" mask="url(#47i5nbvw2d)"/>
                            <path fill="#F3F5FC" d="M14 37L17 37 17 34 14 34z" mask="url(#47i5nbvw2d)"/>
                            <path fill="#1F3040" d="M14.173 36.827h3.654v-3.654h-3.654v3.654zM14 37h4v-4h-4v4z" mask="url(#47i5nbvw2d)"/>
                            <path fill="#F3F5FC" d="M19 37L22 37 22 34 19 34z" mask="url(#47i5nbvw2d)"/>
                            <path fill="#1F3040" d="M19.173 36.827h3.654v-3.654h-3.654v3.654zM19 37h4v-4h-4v4z" mask="url(#47i5nbvw2d)"/>
                            <path fill="#F3F5FC" d="M24 37L27 37 27 34 24 34z" mask="url(#47i5nbvw2d)"/>
                            <path fill="#1F3040" d="M24.173 36.827h3.654v-3.654h-3.654v3.654zM24 37h4v-4h-4v4z" mask="url(#47i5nbvw2d)"/>
                            <path fill="#F3F5FC" d="M29 37L32 37 32 34 29 34z" mask="url(#47i5nbvw2d)"/>
                            <path fill="#1F3040" d="M28.173 36.827h3.654v-3.654h-3.654v3.654zM28 37h4v-4h-4v4z" mask="url(#47i5nbvw2d)"/>
                            <path fill="#8A79F7" d="M33 37L36 37 36 34 33 34z" mask="url(#47i5nbvw2d)"/>
                            <path fill="#1F3040" d="M33.173 36.827h3.654v-3.654h-3.654v3.654zM33 37h4v-4h-4v4z" mask="url(#47i5nbvw2d)"/>
                        </g>
                    </g>
                </g>
            </g>
        </g>
    </g>
</svg>
