<svg xmlns="http://www.w3.org/2000/svg" xmlns:xlink="http://www.w3.org/1999/xlink" viewBox="0 0 52 52">
    <defs>
        <path id="2a4rjzk6fa" d="M0 0.128L51.872 0.128 51.872 52 0 52z"/>
        <path id="yd0gcfttbc" d="M0 52L52 52 52 0 0 0z"/>
    </defs>
    <g fill="none" fill-rule="evenodd">
        <g>
            <g>
                <g>
                    <g>
                        <g transform="translate(-28 -3881) translate(16 3797) translate(0 76) translate(12 8)">
                            <g>
                                <mask id="8g18o9xxrb" fill="#fff">
                                    <use xlink:href="#2a4rjzk6fa"/>
                                </mask>
                                <path fill="#F3F5FC" d="M0 26.064C0 11.74 11.612.128 25.936.128S51.872 11.74 51.872 26.064 40.26 52 25.936 52 0 40.388 0 26.064" mask="url(#8g18o9xxrb)"/>
                            </g>
                            <path fill="#FFF" d="M40 14.407v23.186c0 .778-.66 1.407-1.477 1.407H12.477C11.66 39 11 38.37 11 37.593V14.407c0-.778.66-1.407 1.477-1.407h26.046c.816 0 1.477.63 1.477 1.407"/>
                            <path fill="#1F3040" d="M12.628 12.332c-.713 0-1.292.573-1.292 1.277v23.782c0 .704.58 1.277 1.292 1.277h25.744c.713 0 1.292-.573 1.292-1.277V13.609c0-.704-.58-1.277-1.292-1.277H12.628zM38.372 39H12.628C11.73 39 11 38.278 11 37.39V13.61c0-.888.73-1.61 1.628-1.61h25.744c.898 0 1.628.722 1.628 1.61v23.78c0 .888-.73 1.61-1.628 1.61z"/>
                            <path fill="#8A79F7" d="M40 14.462V20H11v-5.538c0-.808.66-1.462 1.477-1.462h26.046c.816 0 1.477.654 1.477 1.462"/>
                            <path fill="#1F3040" d="M11.336 19.679h28.328v-5.124c0-.68-.58-1.234-1.292-1.234H12.628c-.712 0-1.292.554-1.292 1.234v5.124zM40 20H11v-5.445c0-.857.73-1.555 1.628-1.555h25.744c.898 0 1.628.698 1.628 1.555V20z"/>
                            <mask id="1et4mcspid" fill="#fff">
                                <use xlink:href="#yd0gcfttbc"/>
                            </mask>
                            <path fill="#1F3040" d="M16 15L17 15 17 11 16 11z" mask="url(#1et4mcspid)"/>
                            <path fill="#1F3040" d="M16.238 14.766h1.524v-4.532h-1.524v4.532zM16 15h2v-5h-2v5zM35 15L36 15 36 11 35 11z" mask="url(#1et4mcspid)"/>
                            <path fill="#1F3040" d="M35.238 14.766h1.524v-4.532h-1.524v4.532zM35 15h2v-5h-2v5zM24.668 35v-1.397c-1.051-.044-2.072-.309-2.668-.632l.47-1.721c.66.338 1.586.647 2.606.647.895 0 1.507-.323 1.507-.912 0-.559-.502-.911-1.664-1.279-1.679-.53-2.825-1.265-2.825-2.691 0-1.294.973-2.31 2.653-2.618V23h1.538v1.294c1.051.044 1.758.25 2.276.485l-.455 1.662c-.409-.162-1.13-.5-2.26-.5-1.02 0-1.35.412-1.35.824 0 .485.549.794 1.883 1.265 1.868.617 2.621 1.426 2.621 2.75 0 1.308-.989 2.426-2.794 2.72V35h-1.538z" mask="url(#1et4mcspid)"/>
                            <path fill="#1F3040" d="M24.85 34.74h1.202v-1.446l.112-.019c1.582-.263 2.565-1.234 2.565-2.534 0-1.244-.701-1.988-2.421-2.569-1.285-.462-1.895-.783-1.895-1.359 0-.22.103-.935 1.429-.935.986 0 1.66.268 2.074.44l.368-1.376c-.57-.247-1.236-.383-2.027-.417l-.13-.005v-1.26h-1.203v1.343l-.109.02c-1.523.287-2.432 1.196-2.432 2.435 0 1.17.782 1.92 2.615 2.51 1.012.327 1.686.686 1.686 1.374 0 .63-.605 1.022-1.58 1.022-1.035 0-1.906-.33-2.407-.571l-.383 1.427c.595.301 1.524.516 2.406.554l.13.006v1.36zm1.473.26h-1.745v-1.374c-.929-.057-1.894-.3-2.489-.629l-.089-.05.52-1.94.153.08c.44.231 1.34.618 2.432.618.819 0 1.308-.285 1.308-.763 0-.463-.421-.78-1.502-1.129-1.303-.419-2.8-1.111-2.8-2.755 0-1.321.971-2.335 2.542-2.667V23h1.745v1.273c.82.047 1.509.204 2.105.48l.1.047-.503 1.874-.257-.104c-.39-.162-1.042-.433-2.001-.433-.736 0-1.158.246-1.158.676 0 .372.433.654 1.717 1.116 1.82.615 2.599 1.456 2.599 2.812 0 1.381-1.047 2.458-2.677 2.77V35z" mask="url(#1et4mcspid)"/>
                        </g>
                    </g>
                </g>
            </g>
        </g>
    </g>
</svg>
