<svg xmlns="http://www.w3.org/2000/svg" viewBox="0 0 501.39 176.35"><defs><style>.cls-1{fill:#222;}.cls-2{fill:#6e43b7;}</style></defs><g id="Capa_2" data-name="Capa 2"><g id="Capa_1-2" data-name="Capa 1"><path class="cls-1" d="M58.1,23.87v54.3h-14V71.76c-3.91,4.89-9.77,7.93-17.7,7.93C12,79.69,0,67.2,0,51S12,22.35,26.39,22.35c7.93,0,13.79,3,17.7,7.93V23.87ZM44.09,51c0-9.12-6.41-15.31-15.09-15.31S14,41.9,14,51s6.41,15.31,15,15.31S44.09,60.14,44.09,51Z"/><path class="cls-1" d="M68,51c0-16.18,12.16-28.67,28.67-28.67,10.65,0,19.88,5.65,24.33,14l-12.06,7.06a13.41,13.41,0,0,0-12.38-7.28C88.18,36.14,82,42.33,82,51s6.19,14.77,14.55,14.77c5.65,0,10.32-2.72,12.49-7.17l12.17,6.95A27.82,27.82,0,0,1,96.65,79.69C80.14,79.69,68,67.2,68,51Z"/><path class="cls-1" d="M183,23.87v54.3H169V71.76c-3.91,4.89-9.78,7.93-17.7,7.93-14.45,0-26.39-12.49-26.39-28.67s11.94-28.67,26.39-28.67c7.92,0,13.79,3,17.7,7.93V23.87ZM169,51c0-9.12-6.41-15.31-15.1-15.31s-15,6.19-15,15.31,6.41,15.31,15,15.31S169,60.14,169,51Z"/><path class="cls-1" d="M250.86,2.15v76h-14V71.76c-3.91,5-9.67,7.93-17.59,7.93-14.56,0-26.5-12.49-26.5-28.67s11.94-28.67,26.5-28.67c7.92,0,13.68,2.93,17.59,7.93V2.15ZM236.85,51c0-9.12-6.41-15.31-15-15.31S206.77,41.9,206.77,51s6.4,15.31,15.09,15.31S236.85,60.14,236.85,51Z"/><path class="cls-1" d="M290.82,67c5.43,0,9.78-2.28,12.16-5.43l11.3,6.52c-5.1,7.38-13.25,11.62-23.68,11.62-18.24,0-29.75-12.49-29.75-28.67s11.62-28.67,28.67-28.67C305.59,22.35,317,35.05,317,51a31.89,31.89,0,0,1-.54,5.75H275.51C277.46,63.94,283.44,67,290.82,67ZM303,45.91c-1.73-7.81-7.6-11-13.46-11-7.5,0-12.6,4-14.23,11Z"/><path class="cls-1" d="M407.35,44.72V78.17h-14V45.7c0-6.41-3.26-10.32-9.12-10.32-6.2,0-10.1,4.13-10.1,12.27V78.17h-14V45.7c0-6.41-3.26-10.32-9.13-10.32s-10.21,4.13-10.21,12.27V78.17h-14V23.87h14v5.75c3-4.56,8.15-7.27,15.1-7.27,6.73,0,11.73,2.82,14.77,7.82,3.37-4.89,8.8-7.82,16.18-7.82C399.2,22.35,407.35,31.14,407.35,44.72Z"/><path class="cls-1" d="M417.66,8.77a8.64,8.64,0,1,1,17.27,0,8.64,8.64,0,0,1-17.27,0Zm1.63,15.1h14v54.3h-14Z"/><path class="cls-1" d="M501.39,23.87v54.3h-14V71.76c-3.91,4.89-9.77,7.93-17.7,7.93-14.45,0-26.39-12.49-26.39-28.67s11.94-28.67,26.39-28.67c7.93,0,13.79,3,17.7,7.93V23.87ZM487.38,51c0-9.12-6.41-15.31-15.1-15.31s-15,6.19-15,15.31,6.4,15.31,15,15.31S487.38,60.14,487.38,51Z"/><path class="cls-1" d="M38.34,175.05,11.19,148.88v26.17H4V99h7.17v45.72l25.84-24h9.78l-28,26.06,29.1,28.24Z"/><path class="cls-1" d="M49,147.9a28.56,28.56,0,1,1,28.56,28.45A28.23,28.23,0,0,1,49,147.9Zm50,0a21.39,21.39,0,1,0-21.39,21.5A21.18,21.18,0,0,0,98.93,147.9Z"/><path class="cls-1" d="M164.74,141.71v33.34h-7.16V141.71c0-9.67-5.33-15.31-14.78-15.31s-17.59,5.64-17.59,20.2v28.45H118v-54.3h7.17v8.47c4.24-6.84,10.54-9.78,18.25-9.78C156.71,119.44,164.74,128.13,164.74,141.71Z"/><path class="cls-1" d="M190.15,118.58v2.17h15.64v7H190.15v47.35H183V127.7h-9.23v-7H183v-2.17c0-14.12,8.15-21.94,22.81-20.86v7C195.26,103.81,190.15,108.15,190.15,118.58Z"/><path class="cls-1" d="M213.39,120.75h7.17v54.3h-7.17Zm7.28-7.6L227.83,99h-8.68l-5.43,14.12Z"/><path class="cls-1" d="M232.5,147.9a28.57,28.57,0,1,1,28.56,28.45A28.24,28.24,0,0,1,232.5,147.9Zm50,0a21.4,21.4,0,1,0-21.4,21.5A21.18,21.18,0,0,0,282.46,147.9Z"/><circle class="cls-2" cx="426.03" cy="8.8" r="8.8"/><polygon class="cls-2" points="220.67 113.14 227.83 99.03 219.15 99.03 213.72 113.14 220.67 113.14"/></g></g></svg>