<svg width="204" height="64" xmlns="http://www.w3.org/2000/svg" viewBox="0 0 448.64 133.03"><defs><style>.cls-1{fill:#fff;}.cls-2{fill:#6e43b7;}</style></defs><g id="Capa_2" data-name="Capa 2"><g id="Layer_1" data-name="Layer 1"><path class="cls-1" d="M39.06,16.79V53.3H29.64V49c-2.62,3.29-6.57,5.33-11.9,5.33C8,54.32,0,45.92,0,35.05S8,15.77,17.74,15.77c5.33,0,9.28,2.05,11.9,5.33V16.79ZM29.64,35.05c0-6.14-4.3-10.3-10.14-10.3S9.42,28.91,9.42,35.05,13.73,45.34,19.5,45.34,29.64,41.18,29.64,35.05Z"/><path class="cls-1" d="M47.6,0H57V53.3H47.6Z"/><path class="cls-1" d="M64.54,6.64a5.81,5.81,0,1,1,11.61,0,5.81,5.81,0,0,1-11.61,0Zm1.09,10.15h9.42V53.3H65.63Z"/><path class="cls-1" d="M120.83,16.79V53.3h-9.42V49c-2.62,3.29-6.57,5.33-11.9,5.33-9.71,0-17.74-8.4-17.74-19.27s8-19.28,17.74-19.28c5.33,0,9.28,2.05,11.9,5.33V16.79Zm-9.42,18.26c0-6.14-4.3-10.3-10.15-10.3s-10.07,4.16-10.07,10.3,4.31,10.29,10.07,10.29S111.41,41.18,111.41,35.05Z"/><path class="cls-1" d="M163.47,30.88V53.3h-9.42V32.05c0-5-3-7.52-7.23-7.52-4.6,0-8,2.7-8,9.06V53.3h-9.42V16.79h9.42v4.09c2.19-3.28,6-5.11,10.88-5.11C157.41,15.77,163.47,21.17,163.47,30.88Z"/><path class="cls-1" d="M198.8,44.46V53.3H170V47l15.41-21.39H170.7V16.79h27.38v6.28L182.6,44.46Z"/><path class="cls-1" d="M240.64,16.79V53.3h-9.42V49c-2.63,3.29-6.57,5.33-11.9,5.33-9.71,0-17.74-8.4-17.74-19.27s8-19.28,17.74-19.28c5.33,0,9.27,2.05,11.9,5.33V16.79Zm-9.42,18.26c0-6.14-4.31-10.3-10.15-10.3S211,28.91,211,35.05s4.3,10.29,10.07,10.29S231.22,41.18,231.22,35.05Z"/><path class="cls-1" d="M276.41,42.64c0,7.89-6.86,11.68-14.67,11.68-7.3,0-12.71-3.07-15.33-8.69l8.17-4.6c1,3,3.51,4.75,7.16,4.75,3,0,5-1,5-3.14,0-5.33-18.84-2.41-18.84-15.26,0-7.45,6.35-11.61,13.87-11.61,5.92,0,11,2.7,13.87,7.74l-8,4.38a6.16,6.16,0,0,0-5.84-3.72c-2.34,0-4.23,1-4.23,3C257.58,32.56,276.41,29.21,276.41,42.64Z"/><path class="cls-1" d="M38.92,81.92V133H34.1V111.28a16.94,16.94,0,0,1-14.75,8,19.13,19.13,0,0,1,0-38.26,16.94,16.94,0,0,1,14.75,8V81.92ZM34.1,100.18A14.25,14.25,0,0,0,19.71,85.72a14.46,14.46,0,0,0,0,28.91A14.24,14.24,0,0,0,34.1,100.18Z"/><path class="cls-1" d="M79.66,81.92v36.51H74.84v-5.69c-2.85,4.6-7.09,6.57-12.27,6.57-8.91,0-14.31-5.84-14.31-15V81.92h4.82v22.42c0,6.5,3.58,10.29,9.93,10.29s11.83-3.79,11.83-13.58V81.92Z"/><path class="cls-1" d="M124.85,100.32a21.63,21.63,0,0,1-.15,2.27h-32c1,7.45,6.79,12,14.53,12,5.77,0,9.78-2.7,11.75-6.2l4.24,2.48c-3.07,5-8.69,8.4-16.06,8.4-11.54,0-19.43-8.11-19.43-19.13,0-10.73,7.74-19.13,19.06-19.13S124.85,90.32,124.85,100.32Zm-32.2-2.4h27.23c-1-8-6.86-12.2-13.14-12.2C99.07,85.72,93.6,90.76,92.65,97.92Z"/><path class="cls-1" d="M148.87,71.78a5.8,5.8,0,1,1,5.76,5.76A5.81,5.81,0,0,1,148.87,71.78ZM150,81.92h9.42v36.51H150Z"/><path class="cls-1" d="M222.17,95.94v22.49h-9.42V96.6c0-4.31-2.19-6.93-6.13-6.93-4.16,0-6.79,2.77-6.79,8.25v20.51h-9.42V96.6c0-4.31-2.19-6.93-6.13-6.93s-6.87,2.77-6.87,8.25v20.51H168V81.92h9.42v3.87c2.05-3.06,5.48-4.89,10.15-4.89s7.89,1.9,9.93,5.26c2.26-3.29,5.92-5.26,10.88-5.26C216.69,80.9,222.17,86.82,222.17,95.94Z"/><path class="cls-1" d="M269.26,100.18c0,10.88-8,19.27-17.82,19.27-5.33,0-9.2-2-11.82-5.33V133H230.2V81.92h9.42v4.31c2.62-3.36,6.49-5.33,11.82-5.33C261.23,80.9,269.26,89.3,269.26,100.18Zm-9.42,0c0-6.13-4.31-10.3-10.15-10.3s-10.07,4.17-10.07,10.3,4.3,10.29,10.07,10.29S259.84,106.31,259.84,100.18Z"/><path class="cls-1" d="M309.41,81.92v36.51H300v-4.09c-2.2,3.29-6,5.11-10.88,5.11-7.74,0-13.8-5.4-13.8-15.11V81.92h9.42v21.25c0,5,3,7.52,7.22,7.52,4.6,0,8-2.7,8-9V81.92Z"/><path class="cls-1" d="M318,65.13h9.42v53.3H318Z"/><path class="cls-1" d="M363.29,107.77c0,7.89-6.86,11.68-14.67,11.68-7.3,0-12.71-3.06-15.33-8.68l8.17-4.6c1,3,3.51,4.74,7.16,4.74,3,0,5-1,5-3.14,0-5.33-18.84-2.41-18.84-15.26,0-7.45,6.35-11.61,13.87-11.61,5.92,0,11,2.7,13.87,7.74l-8,4.38a6.18,6.18,0,0,0-5.84-3.72c-2.34,0-4.23,1-4.23,3C344.46,97.7,363.29,94.34,363.29,107.77Z"/><path class="cls-1" d="M406,81.92v36.51h-9.41v-4.31c-2.63,3.29-6.58,5.33-11.91,5.33-9.71,0-17.74-8.39-17.74-19.27s8-19.28,17.74-19.28c5.33,0,9.28,2,11.91,5.33V81.92Zm-9.41,18.26c0-6.13-4.31-10.3-10.15-10.3s-10.08,4.17-10.08,10.3,4.31,10.29,10.08,10.29S396.59,106.31,396.59,100.18Z"/><path class="cls-1" d="M448.64,96v22.41h-9.42V97.18c0-5-3-7.51-7.23-7.51-4.6,0-8,2.7-8,9v19.71h-9.42V81.92H424V86c2.19-3.28,6-5.11,10.88-5.11C442.58,80.9,448.64,86.31,448.64,96Z"/><circle class="cls-2" cx="154.56" cy="71.72" r="5.92"/><circle class="cls-2" cx="70.27" cy="6.66" r="5.92"/></g></g></svg>