<svg width="73" height="73" viewBox="0 0 73 73" fill="none" xmlns="http://www.w3.org/2000/svg">
<path d="M36.3 72.6C56.3479 72.6 72.6 56.3479 72.6 36.3C72.6 16.2521 56.3479 0 36.3 0C16.2521 0 0 16.2521 0 36.3C0 56.3479 16.2521 72.6 36.3 72.6Z" fill="#F0ECF8"/>
<path d="M53.4881 59.7909H18.9398C17.9075 59.7909 17.063 58.9464 17.063 57.9141V14.7795C17.063 13.7473 17.9075 12.9028 18.9398 12.9028H53.4881C54.5203 12.9028 55.3649 13.7473 55.3649 14.7795V57.9141C55.3649 58.9464 54.5203 59.7909 53.4881 59.7909Z" fill="white"/>
<path d="M53.4881 59.9473H18.9398C17.8137 59.9473 16.9066 59.0402 16.9066 57.9142V14.7796C16.9066 13.6535 17.8137 12.7464 18.9398 12.7464H53.4881C54.6142 12.7464 55.5213 13.6535 55.5213 14.7796V57.9142C55.5213 59.0402 54.6142 59.9473 53.4881 59.9473ZM18.9398 13.0592C17.9858 13.0592 17.2194 13.8255 17.2194 14.7796V57.9142C17.2194 58.8682 17.9858 59.6345 18.9398 59.6345H53.4881C54.4421 59.6345 55.2085 58.8682 55.2085 57.9142V14.7796C55.2085 13.8255 54.4421 13.0592 53.4881 13.0592H18.9398Z" fill="black"/>
<path d="M24.7682 32.5365C26.2971 32.5365 27.5365 31.2971 27.5365 29.7682C27.5365 28.2394 26.2971 27 24.7682 27C23.2394 27 22 28.2394 22 29.7682C22 31.2971 23.2394 32.5365 24.7682 32.5365Z" fill="#9594D2"/>
<path d="M24.8777 42.8118C26.4066 42.8118 27.646 41.5724 27.646 40.0435C27.646 38.5147 26.4066 37.2753 24.8777 37.2753C23.3489 37.2753 22.1095 38.5147 22.1095 40.0435C22.1095 41.5724 23.3489 42.8118 24.8777 42.8118Z" fill="#9594D2"/>
<path d="M43.1137 28.8298H29.1943V29.1426H43.1137V28.8298Z" fill="black"/>
<path d="M49.8388 30.8162H29.1943V31.129H49.8388V30.8162Z" fill="black"/>
<path d="M43.1137 39.3554H29.1943V39.6682H43.1137V39.3554Z" fill="black"/>
<path d="M49.8388 41.3417H29.1943V41.6545H49.8388V41.3417Z" fill="black"/>
</svg>
