<svg width="73" height="73" viewBox="0 0 73 73" fill="none" xmlns="http://www.w3.org/2000/svg">
    <path d="M36.3 72.9202C56.3479 72.9202 72.6 56.5964 72.6 36.4601C72.6 16.3237 56.3479 0 36.3 0C16.2521 0 0 16.3237 0 36.4601C0 56.5964 16.2521 72.9202 36.3 72.9202Z" fill="#F0ECF8"/>
    <path d="M13 23.5979V47.9249C13 48.809 13.713 49.522 14.5971 49.522H58.2031C59.0872 49.522 59.8002 48.809 59.8002 47.9249V23.5979C59.8002 22.7138 59.0872 22.0008 58.2031 22.0008H14.6256C13.713 21.9723 13 22.6853 13 23.5979Z" fill="white"/>
    <path d="M23.8662 45.7574C26.1815 45.7574 28.0585 43.8804 28.0585 41.565C28.0585 39.2497 26.1815 37.3727 23.8662 37.3727C21.5508 37.3727 19.6738 39.2497 19.6738 41.565C19.6738 43.8804 21.5508 45.7574 23.8662 45.7574Z" fill="#9594D2"/>
    <path d="M59.7996 27.3054H13.2275V33.1519H59.7996V27.3054Z" fill="black"/>
</svg>
    