<svg width="46" height="46" viewBox="0 0 46 46" fill="none" xmlns="http://www.w3.org/2000/svg">
<circle cx="23" cy="22.75" r="22.5" fill="#E4E4F3"/>
<path d="M34.8011 31.6619H7.97188C7.19378 31.6619 6.57129 31.0386 6.57129 30.2595V11.9346C6.57129 11.1555 7.19378 10.5322 7.97188 10.5322H34.8011C35.5792 10.5322 36.2017 11.1555 36.2017 11.9346V30.2595C36.2017 31.0386 35.5792 31.6619 34.8011 31.6619Z" fill="white"/>
<path d="M35.5158 33.1578H7.2238C6.85031 33.1578 6.53906 32.8462 6.53906 32.4722V21.0971V11.2178C6.53906 10.8439 6.85031 10.5322 7.2238 10.5322H23.5018H35.4847C35.8582 10.5322 36.1694 10.8439 36.1694 11.2178V32.5034C36.2006 32.8773 35.8893 33.1578 35.5158 33.1578Z" fill="white"/>
<path d="M35.5159 33.3754H7.22389C6.7259 33.3754 6.32129 32.9702 6.32129 32.4716V11.2173C6.32129 10.7186 6.7259 10.3135 7.22389 10.3135H35.5159C36.0139 10.3135 36.4185 10.7186 36.4185 11.2173V32.5028C36.4185 33.0014 36.0139 33.3754 35.5159 33.3754ZM7.22389 10.7809C6.9749 10.7809 6.78815 10.9679 6.78815 11.2173V32.5028C6.78815 32.7521 6.9749 32.9391 7.22389 32.9391H35.5159C35.7649 32.9391 35.9516 32.7521 35.9516 32.5028V11.2173C35.9516 10.9679 35.7649 10.7809 35.5159 10.7809H7.22389Z" fill="#222222"/>
<path d="M36.0776 13.96H6.44727V14.3963H36.0776V13.96Z" fill="#222222"/>
<path d="M8.65706 12.9315C8.94928 12.9315 9.18617 12.6804 9.18617 12.3705C9.18617 12.0607 8.94928 11.8096 8.65706 11.8096C8.36483 11.8096 8.12793 12.0607 8.12793 12.3705C8.12793 12.6804 8.36483 12.9315 8.65706 12.9315Z" fill="#9595CE"/>
<path d="M10.3367 12.9315C10.629 12.9315 10.8659 12.6804 10.8659 12.3705C10.8659 12.0607 10.629 11.8096 10.3367 11.8096C10.0445 11.8096 9.80762 12.0607 9.80762 12.3705C9.80762 12.6804 10.0445 12.9315 10.3367 12.9315Z" fill="#9595CE"/>
<path d="M12.0496 12.9315C12.3419 12.9315 12.5787 12.6804 12.5787 12.3705C12.5787 12.0607 12.3419 11.8096 12.0496 11.8096C11.7574 11.8096 11.5205 12.0607 11.5205 12.3705C11.5205 12.6804 11.7574 12.9315 12.0496 12.9315Z" fill="#9595CE"/>
<path d="M21.1367 28.6382H9.0293V16.5151H21.1367V28.6382ZM9.49616 28.1707H20.7009V16.9514H9.49616V28.1707Z" fill="#222222"/>
<path d="M20.8883 19.2266H9.18555V19.6629H20.8883V19.2266Z" fill="#222222"/>
<path d="M10.5853 18.448C10.8088 18.448 10.9899 18.2666 10.9899 18.0428C10.9899 17.8191 10.8088 17.6377 10.5853 17.6377C10.3618 17.6377 10.1807 17.8191 10.1807 18.0428C10.1807 18.2666 10.3618 18.448 10.5853 18.448Z" fill="#AFAFDD"/>
<path d="M11.7992 18.448C12.0226 18.448 12.2038 18.2666 12.2038 18.0428C12.2038 17.8191 12.0226 17.6377 11.7992 17.6377C11.5757 17.6377 11.3945 17.8191 11.3945 18.0428C11.3945 18.2666 11.5757 18.448 11.7992 18.448Z" fill="#AFAFDD"/>
<path d="M12.9828 18.4792C13.2062 18.4792 13.3874 18.2978 13.3874 18.0741C13.3874 17.8503 13.2062 17.6689 12.9828 17.6689C12.7593 17.6689 12.5781 17.8503 12.5781 18.0741C12.5781 18.2978 12.7593 18.4792 12.9828 18.4792Z" fill="#AFAFDD"/>
<path d="M10.8335 25.4284L10.46 25.2103C10.46 25.1791 11.6427 23.3404 13.8836 24.026C14.0081 24.0572 14.1326 24.0884 14.2571 24.1507C14.6306 24.2753 15.0041 24.4 15.4087 24.4C16.1557 24.4 16.6226 23.9637 17.1828 23.3092C17.9609 22.4366 18.7391 22.0003 19.6105 21.938L19.6417 22.3743C18.8636 22.4366 18.1788 22.8418 17.4941 23.5897C16.8716 24.2753 16.3425 24.8051 15.3776 24.8051C14.8796 24.8051 14.475 24.6805 14.0704 24.5247C13.9459 24.4935 13.8525 24.4623 13.728 24.4C11.8294 23.839 10.8335 25.3973 10.8335 25.4284Z" fill="#222222"/>
<path d="M18.0258 23.3711C18.3696 23.3711 18.6483 23.092 18.6483 22.7478C18.6483 22.4036 18.3696 22.1245 18.0258 22.1245C17.682 22.1245 17.4033 22.4036 17.4033 22.7478C17.4033 23.092 17.682 23.3711 18.0258 23.3711Z" fill="#6E43B7"/>
<path d="M12.3901 24.7734C12.7339 24.7734 13.0126 24.4944 13.0126 24.1502C13.0126 23.8059 12.7339 23.5269 12.3901 23.5269C12.0463 23.5269 11.7676 23.8059 11.7676 24.1502C11.7676 24.4944 12.0463 24.7734 12.3901 24.7734Z" fill="#6E43B7"/>
<path d="M23.2227 19.8821V29.4185C23.2227 29.7613 23.5028 30.0418 23.8451 30.0418H40.9324C41.2748 30.0418 41.5549 29.7613 41.5549 29.4185V19.8821C41.5549 19.5393 41.2748 19.2588 40.9324 19.2588H23.8451C23.5028 19.2588 23.2227 19.5393 23.2227 19.8821Z" fill="#6E43B7"/>
<path d="M40.9322 30.29H25.8369V29.8537H40.9322C41.1501 29.8537 41.3368 29.6667 41.3368 29.4485V24.5557H41.7726V29.4485C41.8037 29.916 41.3991 30.29 40.9322 30.29Z" fill="#222222"/>
<path d="M26.4914 27.798C27.2649 27.798 27.892 27.1701 27.892 26.3956C27.892 25.621 27.2649 24.9932 26.4914 24.9932C25.7179 24.9932 25.0908 25.621 25.0908 26.3956C25.0908 27.1701 25.7179 27.798 26.4914 27.798Z" fill="white"/>
<path d="M41.586 21.3462H23.2227V23.6524H41.586V21.3462Z" fill="black"/>
</svg>
