<svg width="52" height="53" viewBox="0 0 52 53" fill="none" xmlns="http://www.w3.org/2000/svg">
<g clip-path="url(#clip0)">
<path d="M26 52.5352C40.3594 52.5352 52 40.9986 52 26.7676C52 12.5365 40.3594 1 26 1C11.6406 1 0 12.5365 0 26.7676C0 40.9986 11.6406 52.5352 26 52.5352Z" fill="#F3F5FC"/>
<path d="M26.935 25.103H6.78189C5.97327 25.103 5.28906 24.3941 5.28906 23.5311V9.6305C5.28906 8.76749 5.94217 8.05859 6.78189 8.05859H26.935C27.7436 8.05859 28.4278 8.76749 28.4278 9.6305V23.5003C28.4278 24.3941 27.7436 25.103 26.935 25.103Z" fill="#8A79F7"/>
<path d="M26.9338 25.3496H6.78069C5.81657 25.3496 5.03906 24.5174 5.03906 23.5003V9.63011C5.03906 8.61297 5.81657 7.78076 6.78069 7.78076H26.9338C27.8979 7.78076 28.6754 8.61297 28.6754 9.63011V23.5003C28.6754 24.5174 27.8979 25.3496 26.9338 25.3496ZM6.78069 8.30475C6.09648 8.30475 5.53667 8.89037 5.53667 9.63011V23.5003C5.53667 24.24 6.09648 24.8256 6.78069 24.8256H26.9338C27.618 24.8256 28.1778 24.24 28.1778 23.5003V9.63011C28.1778 8.89037 27.618 8.30475 26.9338 8.30475H6.78069Z" fill="#8A79F7"/>
<path d="M17.0426 11.7876H8.02344V12.8354H17.0426V11.7876Z" fill="white"/>
<path d="M25.6885 14.6846H8.02344V15.7329H25.6885V14.6846Z" fill="white"/>
<path d="M25.6885 17.582H8.02344V18.6304H25.6885V17.582Z" fill="white"/>
<path d="M25.6885 20.5107H8.02344V21.5586H25.6885V20.5107Z" fill="white"/>
<path d="M45.8449 44.7681H24.8831C24.0434 44.7681 23.3281 44.0899 23.3281 43.2269V29.7878C23.3281 28.9555 24.0123 28.2466 24.8831 28.2466H45.8449C46.6846 28.2466 47.3999 28.9247 47.3999 29.7878V43.2269C47.3688 44.0899 46.6846 44.7681 45.8449 44.7681Z" fill="white"/>
<path d="M45.8437 45.0454H24.882C23.8867 45.0454 23.0781 44.244 23.0781 43.2577V29.7882C23.0781 28.8019 23.8867 28.0005 24.882 28.0005H45.8437C46.8389 28.0005 47.6475 28.8019 47.6475 29.7882V43.2269C47.6475 44.244 46.8389 45.0454 45.8437 45.0454ZM24.882 28.5245C24.1666 28.5245 23.6068 29.1101 23.6068 29.7882V43.2269C23.6068 43.9358 24.1977 44.4906 24.882 44.4906H45.8437C46.559 44.4906 47.1188 43.905 47.1188 43.2269V29.7882C47.1188 29.0793 46.5279 28.5245 45.8437 28.5245H24.882Z" fill="#1F3040"/>
<path d="M35.5488 31.8843H26.1875V32.9009H35.5488V31.8843Z" fill="#1F3040"/>
<path d="M44.5368 34.6885H26.1875V35.7061H44.5368V34.6885Z" fill="#1F3040"/>
<path d="M44.5368 37.5244H26.1875V38.542H44.5368V37.5244Z" fill="#1F3040"/>
<path d="M44.5368 40.3296H26.1875V41.3467H44.5368V40.3296Z" fill="#1F3040"/>
<path d="M36.1691 23.2847V22.0517C35.2983 22.0209 34.4585 21.7743 33.9609 21.4969L34.3652 19.9866C34.9251 20.2948 35.6715 20.5414 36.5112 20.5414C37.2576 20.5414 37.7552 20.264 37.7552 19.74C37.7552 19.2468 37.3509 18.9386 36.3868 18.6304C34.9873 18.168 34.0542 17.5207 34.0542 16.2878C34.0542 15.1473 34.8629 14.2534 36.2624 14.0069V12.7739H37.5375V13.9144C38.4083 13.9452 38.9992 14.1301 39.4346 14.3459L39.0614 15.7946C38.7193 15.6405 38.1284 15.3631 37.1954 15.3631C36.3557 15.3631 36.0758 15.733 36.0758 16.072C36.0758 16.5035 36.5423 16.781 37.6308 17.1817C39.1858 17.7365 39.8078 18.4454 39.8078 19.5859C39.8078 20.7263 38.9992 21.7127 37.5064 21.9593V23.2847H36.1691Z" fill="#1F3040"/>
<path d="M37.5369 23.4077H36.0441V22.1749C35.2355 22.1132 34.3957 21.8975 33.8981 21.6201L33.8359 21.5893L34.2713 19.8633L34.3957 19.925C34.769 20.1407 35.5465 20.4797 36.5106 20.4797C37.2259 20.4797 37.6302 20.2332 37.6302 19.8017C37.6302 19.401 37.257 19.0928 36.324 18.7846C35.2044 18.4147 33.8981 17.7983 33.8981 16.3189C33.8981 15.1477 34.7379 14.2231 36.1063 13.9457V12.7129H37.5991V13.8533C38.3144 13.8841 38.9053 14.0382 39.4029 14.2848L39.4962 14.3156L39.0608 15.9799L38.8431 15.8874C38.501 15.7333 37.9412 15.4868 37.1015 15.4868C36.4795 15.4868 36.1063 15.7025 36.1063 16.1032C36.1063 16.4422 36.4795 16.6888 37.5991 17.0894C39.1852 17.6442 39.8383 18.3839 39.8383 19.6168C39.8383 20.8496 38.9364 21.805 37.5369 22.0824V23.4077ZM36.2618 23.1611H37.2881V21.8667L37.3814 21.8359C38.7498 21.5893 39.5895 20.7263 39.5895 19.5551C39.5895 18.4456 38.9986 17.7675 37.5058 17.2436C36.3862 16.8429 35.8575 16.5347 35.8575 16.0415C35.8575 15.8566 35.9508 15.2094 37.1015 15.2094C37.9412 15.2094 38.5321 15.4559 38.9053 15.61L39.2163 14.3772C38.7187 14.1615 38.1589 14.0382 37.4747 14.0074H37.3503V12.867H36.324V14.069L36.2307 14.0998C34.9245 14.3464 34.1158 15.1786 34.1158 16.2881C34.1158 17.336 34.8001 18.0141 36.3862 18.538C37.257 18.8462 37.8479 19.1544 37.8479 19.7709C37.8479 20.3256 37.3192 20.6955 36.4795 20.6955C35.5776 20.6955 34.8312 20.3873 34.3957 20.1715L34.0536 21.4352C34.5823 21.7126 35.3599 21.8975 36.1374 21.9283H36.2618V23.1611Z" fill="#1F3040"/>
</g>
<defs>
<clipPath id="clip0">
<rect width="52" height="52" fill="white" transform="translate(0 0.363525)"/>
</clipPath>
</defs>
</svg>
