<svg width="52" height="53" viewBox="0 0 52 53" fill="none" xmlns="http://www.w3.org/2000/svg">
<g id="Group 19">
<g id="Group 3">
<mask id="mask0" mask-type="alpha" maskUnits="userSpaceOnUse" x="-1" y="0" width="53" height="53">
<path id="Clip 2" fill-rule="evenodd" clip-rule="evenodd" d="M-0.0625 0.525146H51.8094V52.3972H-0.0625V0.525146Z" fill="white"/>
</mask>
<g mask="url(#mask0)">
<path id="Fill 1" fill-rule="evenodd" clip-rule="evenodd" d="M-0.0625 26.4612C-0.0625 12.1371 11.5495 0.525146 25.8736 0.525146C40.1976 0.525146 51.8094 12.1371 51.8094 26.4612C51.8094 40.7853 40.1976 52.3973 25.8736 52.3973C11.5495 52.3973 -0.0625 40.7853 -0.0625 26.4612Z" fill="#F3F5FC"/>
</g>
</g>
<path id="Fill 4" fill-rule="evenodd" clip-rule="evenodd" d="M39.9375 14.8042V37.9902C39.9375 38.7679 39.2769 39.3972 38.4607 39.3972H12.4143C11.5981 39.3972 10.9375 38.7679 10.9375 37.9902V14.8042C10.9375 14.0266 11.5981 13.3972 12.4143 13.3972H38.4607C39.2769 13.3972 39.9375 14.0266 39.9375 14.8042Z" fill="white"/>
<path id="Fill 6" fill-rule="evenodd" clip-rule="evenodd" d="M12.5652 12.7295C11.8529 12.7295 11.2734 13.3024 11.2734 14.0066V37.788C11.2734 38.4922 11.8529 39.0652 12.5652 39.0652H38.3097C39.0221 39.0652 39.6014 38.4922 39.6014 37.788V14.0066C39.6014 13.3024 39.0221 12.7295 38.3097 12.7295H12.5652ZM38.3097 39.3972H12.5652C11.6675 39.3972 10.9375 38.6753 10.9375 37.788V14.0066C10.9375 13.1191 11.6675 12.3972 12.5652 12.3972H38.3097C39.2073 12.3972 39.9375 13.1191 39.9375 14.0066V37.788C39.9375 38.6753 39.2073 39.3972 38.3097 39.3972Z" fill="#1F3040"/>
<path id="Fill 8" fill-rule="evenodd" clip-rule="evenodd" d="M39.9375 14.8592V20.3972H10.9375V14.8592C10.9375 14.0512 11.5981 13.3972 12.4143 13.3972H38.4607C39.2769 13.3972 39.9375 14.0512 39.9375 14.8592Z" fill="#8A79F7"/>
<path id="Fill 10" fill-rule="evenodd" clip-rule="evenodd" d="M11.2736 20.0761H39.6013V14.9526C39.6013 14.272 39.0221 13.7182 38.3097 13.7182H12.5653C11.8531 13.7182 11.2736 14.272 11.2736 14.9526V20.0761ZM39.9375 20.3972H10.9375V14.9526C10.9375 14.095 11.6677 13.3972 12.5653 13.3972H38.3097C39.2073 13.3972 39.9375 14.095 39.9375 14.9526V20.3972Z" fill="#1F3040"/>
<mask id="mask1" mask-type="alpha" maskUnits="userSpaceOnUse" x="-1" y="0" width="53" height="53">
<path id="Clip 13" fill-rule="evenodd" clip-rule="evenodd" d="M-0.0625 52.3972H51.9375V0.397217H-0.0625V52.3972Z" fill="white"/>
</mask>
<g mask="url(#mask1)">
<path id="Fill 12" fill-rule="evenodd" clip-rule="evenodd" d="M15.9375 15.3972H16.9375V11.3972H15.9375V15.3972Z" fill="#1F3040"/>
<path id="Fill 14" fill-rule="evenodd" clip-rule="evenodd" d="M16.1752 15.1636H17.6998V10.6312H16.1752V15.1636ZM15.9375 15.3972H17.9375V10.3972H15.9375V15.3972Z" fill="#1F3040"/>
<path id="Fill 15" fill-rule="evenodd" clip-rule="evenodd" d="M34.9375 15.3972H35.9375V11.3972H34.9375V15.3972Z" fill="#1F3040"/>
<path id="Fill 16" fill-rule="evenodd" clip-rule="evenodd" d="M35.1752 15.1636H36.6998V10.6312H35.1752V15.1636ZM34.9375 15.3972H36.9375V10.3972H34.9375V15.3972Z" fill="#1F3040"/>
<path id="Fill 17" fill-rule="evenodd" clip-rule="evenodd" d="M24.6057 35.3972V34.0001C23.5541 33.9561 22.5338 33.6915 21.9375 33.3679L22.4083 31.6472C23.0676 31.9855 23.9937 32.2943 25.0138 32.2943C25.9084 32.2943 26.5206 31.9708 26.5206 31.3824C26.5206 30.8235 26.0184 30.4708 24.8568 30.1032C23.1775 29.5737 22.0317 28.8382 22.0317 27.4118C22.0317 26.1179 23.0048 25.1032 24.6842 24.7941V23.3972H26.2223V24.6913C27.2739 24.7354 27.9803 24.9414 28.4981 25.1765L28.043 26.8384C27.6348 26.6766 26.913 26.3385 25.7829 26.3385C24.7626 26.3385 24.433 26.7501 24.433 27.162C24.433 27.6471 24.9823 27.956 26.3165 28.4268C28.1843 29.0444 28.9375 29.8532 28.9375 31.1766C28.9375 32.4854 27.9488 33.603 26.1438 33.8973V35.3972H24.6057Z" fill="#1F3040"/>
<path id="Fill 18" fill-rule="evenodd" clip-rule="evenodd" d="M24.7866 35.138H25.9895V33.6909L26.1018 33.6722C27.6837 33.4089 28.6665 32.4378 28.6665 31.138C28.6665 29.8946 27.9651 29.1506 26.2453 28.5697C24.9605 28.1068 24.3502 27.7857 24.3502 27.2103C24.3502 26.9908 24.4532 26.2749 25.7792 26.2749C26.7658 26.2749 27.4402 26.5434 27.8532 26.7145L28.2217 25.3394C27.6507 25.0927 26.9859 24.9561 26.1942 24.9224L26.0647 24.9169V23.6565H24.8618V25.0001L24.7525 25.0208C23.2296 25.3068 22.3202 26.2166 22.3202 27.4547C22.3202 28.6243 23.1023 29.3751 24.935 29.9651C25.9474 30.2921 26.6216 30.6511 26.6216 31.3395C26.6216 31.9697 26.0164 32.3612 25.0422 32.3612C24.0064 32.3612 23.1353 32.0321 22.6342 31.7897L22.2517 33.2171C22.8462 33.5182 23.7752 33.7333 24.6571 33.771L24.7866 33.7768V35.138ZM26.2605 35.3972H24.5157V34.0233C23.5867 33.9662 22.6217 33.7238 22.0265 33.3942L21.9375 33.345L22.4577 31.4047L22.6108 31.485C23.0503 31.7154 23.951 32.102 25.0422 32.102C25.8615 32.102 26.3506 31.817 26.3506 31.3395C26.3506 30.8765 25.9294 30.5601 24.8484 30.2106C23.5451 29.7912 22.0492 29.0988 22.0492 27.4547C22.0492 26.134 23.0196 25.12 24.5909 24.7883V23.3972H26.3357V24.6698C27.1547 24.7169 27.8441 24.8747 28.44 25.1509L28.5397 25.1971L28.037 27.0716L27.7809 26.9672C27.3911 26.8052 26.7388 26.534 25.7792 26.534C25.0431 26.534 24.621 26.7806 24.621 27.2103C24.621 27.5821 25.0544 27.8637 26.3383 28.3263C28.1594 28.9412 28.9375 29.7823 28.9375 31.138C28.9375 32.5193 27.891 33.5966 26.2605 33.9076V35.3972Z" fill="#1F3040"/>
</g>
</g>
</svg>
