<svg xmlns="http://www.w3.org/2000/svg" width="24" height="18" viewBox="0 0 24 18">
    <g fill="none" fill-rule="evenodd">
        <g>
            <g>
                <g>
                    <g>
                        <g>
                            <g>
                                <g>
                                   <g fill="#FFF">
                                        <path d="M23.423 6.5H21.18v1.125c0 .206-.201.375-.448.375h-.898c-.246 0-.448-.169-.448-.375V6.5H8.615v1.125c0 .206-.202.375-.448.375h-.898c-.247 0-.448-.169-.448-.375V6.5H4.577c-1.234 0-2.244.844-2.244 1.875v12.75c0 1.031 1.01 1.875 2.244 1.875h18.846c1.234 0 2.244-.844 2.244-1.875V8.375c0-1.031-1.01-1.875-2.244-1.875zm.449 14.063c0 .515-.505.937-1.122.937H5.25c-.617 0-1.122-.422-1.122-.938v-8.437c0-.206.202-.375.449-.375h18.846c.247 0 .449.169.449.375v8.438zM8.615 5.374c0-.206-.202-.375-.448-.375h-.898c-.247 0-.448.169-.448.375V6.5h1.794V5.375zm12.564 0c0-.206-.201-.375-.448-.375h-.898c-.246 0-.448.169-.448.375V6.5h1.794V5.375z" transform="translate(-769 -1539) translate(157 915) translate(94 165) translate(480) translate(36 204) translate(0 250)"/>
                                    </g>
                                </g>
                            </g>
                        </g>
                    </g>
                </g>
            </g>
        </g>
    </g>
</svg>
