<svg width="81" height="81" viewBox="0 0 81 81" fill="none" xmlns="http://www.w3.org/2000/svg">
<path d="M40.1948 76.6C60.2427 76.6 76.4947 60.3479 76.4947 40.3C76.4947 20.2521 60.2427 4 40.1948 4C20.1468 4 3.89478 20.2521 3.89478 40.3C3.89478 60.3479 20.1468 76.6 40.1948 76.6Z" fill="#F0ECF8"/>
<path d="M17.307 32.778V57.672C17.307 58.59 18.036 59.292 18.927 59.292H63.558C64.476 59.292 65.178 58.563 65.178 57.672V32.778C65.178 31.86 64.449 31.158 63.558 31.158H18.981C18.063 31.131 17.307 31.86 17.307 32.778Z" fill="#9595CE"/>
<path d="M63.585 59.724H24.165V58.914H63.558C64.233 58.914 64.773 58.374 64.773 57.699V44.901H65.583V57.699C65.61 58.806 64.692 59.724 63.585 59.724Z" fill="black"/>
<path d="M24.813 54.054C26.7813 54.054 28.377 52.4584 28.377 50.49C28.377 48.5217 26.7813 46.926 24.813 46.926C22.8446 46.926 21.249 48.5217 21.249 50.49C21.249 52.4584 22.8446 54.054 24.813 54.054Z" fill="white"/>
<path d="M65.232 36.585H17.307V42.579H65.232V36.585Z" fill="black"/>
<path d="M17.361 39.852C22.1029 39.852 25.947 36.0079 25.947 31.266C25.947 26.5241 22.1029 22.68 17.361 22.68C12.6191 22.68 8.77502 26.5241 8.77502 31.266C8.77502 36.0079 12.6191 39.852 17.361 39.852Z" fill="#00BF6F"/>
<path d="M17.361 40.257C15.039 40.257 12.825 39.366 11.124 37.746L11.691 37.152C13.23 38.61 15.228 39.42 17.361 39.42C21.87 39.42 25.542 35.748 25.542 31.239C25.542 28.512 24.192 25.974 21.924 24.462L22.383 23.787C24.867 25.461 26.352 28.242 26.352 31.239C26.352 36.234 22.329 40.257 17.361 40.257Z" fill="black"/>
<path d="M13.5 33.75V34.317H13.068V33.75C12.339 33.696 11.826 33.318 11.583 32.724L12.339 32.292C12.474 32.616 12.69 32.832 13.041 32.886V31.779C13.041 31.779 13.041 31.779 13.014 31.779C12.42 31.536 11.745 31.266 11.745 30.402C11.745 29.592 12.339 29.16 13.014 29.106V28.539H13.5V29.106C14.04 29.16 14.499 29.457 14.742 30.024L13.986 30.456C13.878 30.186 13.716 30.051 13.5 29.997V31.077C14.094 31.32 14.796 31.536 14.796 32.454C14.796 33.183 14.256 33.669 13.5 33.75ZM13.068 30.861V29.97C12.798 30.024 12.663 30.186 12.663 30.402C12.663 30.564 12.771 30.699 13.068 30.861ZM13.905 32.427C13.905 32.211 13.77 32.076 13.5 31.941V32.859C13.797 32.805 13.905 32.616 13.905 32.427Z" fill="white"/>
<path d="M16.983 29.16V33.669H16.092V30.105L15.255 30.348L15.039 29.592L16.227 29.187H16.983V29.16Z" fill="white"/>
<path d="M17.766 33.21C17.766 32.913 18.009 32.67 18.306 32.67C18.603 32.67 18.846 32.913 18.846 33.21C18.846 33.507 18.603 33.75 18.306 33.75C18.009 33.75 17.766 33.507 17.766 33.21Z" fill="white"/>
<path d="M19.305 30.213C19.305 29.403 19.683 28.836 20.358 28.836C21.033 28.836 21.411 29.403 21.411 30.213C21.411 31.023 21.033 31.59 20.358 31.59C19.683 31.59 19.305 31.023 19.305 30.213ZM20.898 30.213C20.898 29.646 20.709 29.349 20.358 29.349C20.007 29.349 19.818 29.646 19.818 30.213C19.818 30.78 20.007 31.077 20.358 31.077C20.709 31.077 20.898 30.78 20.898 30.213Z" fill="white"/>
<path d="M21.681 30.213C21.681 29.403 22.059 28.836 22.734 28.836C23.409 28.836 23.787 29.403 23.787 30.213C23.787 31.023 23.409 31.59 22.734 31.59C22.059 31.59 21.681 31.023 21.681 30.213ZM23.274 30.213C23.274 29.646 23.085 29.349 22.734 29.349C22.383 29.349 22.194 29.646 22.194 30.213C22.194 30.78 22.383 31.077 22.734 31.077C23.085 31.077 23.274 30.78 23.274 30.213Z" fill="white"/>
</svg>
