<svg width="74" height="74" viewBox="0 0 74 74" fill="none" xmlns="http://www.w3.org/2000/svg">
<path d="M37.1948 73.6C57.2427 73.6 73.4947 57.3479 73.4947 37.3C73.4947 17.2521 57.2427 1 37.1948 1C17.1468 1 0.894775 17.2521 0.894775 37.3C0.894775 57.3479 17.1468 73.6 37.1948 73.6Z" fill="#F0ECF8"/>
<path d="M12.9007 24.42V49.2347C12.9007 50.1473 13.6407 50.8627 14.5287 50.8627H58.978C59.8907 50.8627 60.606 50.1227 60.606 49.2347V24.42C60.606 23.5073 59.866 22.792 58.978 22.792H14.5533C13.6407 22.7673 12.9007 23.5073 12.9007 24.42Z" fill="#9595CE"/>
<path d="M58.978 51.208H19.7333V50.468H58.978C59.6687 50.468 60.236 49.9007 60.236 49.21V36.4573H60.976V49.21C60.976 50.32 60.088 51.208 58.978 51.208Z" fill="black"/>
<path d="M21.4353 45.0167C23.4515 45.0167 25.086 43.3822 25.086 41.366C25.086 39.3498 23.4515 37.7153 21.4353 37.7153C19.4191 37.7153 17.7847 39.3498 17.7847 41.366C17.7847 43.3822 19.4191 45.0167 21.4353 45.0167Z" fill="white"/>
<path d="M60.6307 28.194H12.9007V34.1634H60.6307V28.194Z" fill="black"/>
</svg>