<svg xmlns="http://www.w3.org/2000/svg" width="19" height="25" viewBox="0 0 19 25">
    <g fill="none" fill-rule="evenodd">
        <g>
            <g>
                <g>
                    <g>
                        <g>
                            <g>
                                <g>
                                    <path fill="#FFF" d="M17.02.5c1.21 0 1.65.129 2.091.371.443.242.79.597 1.026 1.05.237.453.363.902.363 2.14v17.878c0 1.238-.126 1.687-.363 2.14-.236.453-.583.808-1.026 1.05-.442.242-.88.371-2.09.371H4.98c-1.21 0-1.65-.129-2.091-.371-.443-.242-.79-.597-1.026-1.05-.219-.418-.343-.833-.36-1.868L1.5 4.061c0-1.238.126-1.687.363-2.14.236-.453.583-.808 1.026-1.05.408-.223.813-.35 1.825-.369L17.02.5zm.175 2.779H4.805l-.288.008c-.083.004-.154.01-.213.015l-.06.006-.006.062c-.011.12-.02.289-.023.512v18.236l.008.294c.004.086.01.158.015.218l.006.06.06.008c.118.012.282.02.501.023l12.215.001c.309 0 .528-.01.676-.024l.058-.008.008-.06c.011-.12.02-.289.023-.512V4.06c0-.315-.009-.54-.023-.691l-.008-.062-.156-.014-.403-.015zM11 15.778c1.124 0 2.036.933 2.036 2.083 0 1.15-.912 2.083-2.036 2.083s-2.036-.932-2.036-2.083c0-1.15.912-2.083 2.036-2.083zm2.86-9.722c.361 0 .537.046.7.133.163.087.29.215.378.378.087.163.133.339.133.7v.355c0 .361-.046.537-.133.7-.087.163-.215.29-.378.378-.163.087-.339.133-.7.133H8.14c-.361 0-.537-.046-.7-.133-.163-.087-.29-.215-.378-.378-.087-.163-.133-.339-.133-.7v-.355c0-.361.046-.537.133-.7.087-.163.215-.29.378-.378.163-.087.339-.133.7-.133h5.72z" transform="translate(-771 -1624) translate(157 915) translate(94 165) translate(480) translate(36 204) translate(2.5 339.5)"/>
                                </g>
                            </g>
                        </g>
                    </g>
                </g>
            </g>
        </g>
    </g>
</svg>
