<svg width="74" height="73" viewBox="0 0 74 73" fill="none" xmlns="http://www.w3.org/2000/svg">
<path d="M37.1948 72.6C57.2427 72.6 73.4947 56.3479 73.4947 36.3C73.4947 16.2521 57.2427 0 37.1948 0C17.1468 0 0.894775 16.2521 0.894775 36.3C0.894775 56.3479 17.1468 72.6 37.1948 72.6Z" fill="#F0ECF8"/>
<path d="M47.9147 62.3176H20.0287C17.6683 62.3176 15.746 60.3953 15.746 58.035V16.6926C15.746 14.3323 17.6683 12.41 20.0287 12.41H47.9147C50.275 12.41 52.1973 14.3323 52.1973 16.6926V58.035C52.1973 60.4196 50.275 62.3176 47.9147 62.3176Z" fill="#00BF6A"/>
<path d="M44.9947 33.8233H22.7053C21.6103 33.8233 20.71 32.923 20.71 31.828V24.9173C20.71 23.8223 21.6103 22.922 22.7053 22.922H44.9703C46.0653 22.922 46.9657 23.8223 46.9657 24.9173V31.828C46.99 32.923 46.0897 33.8233 44.9947 33.8233Z" fill="white"/>
<path d="M62.685 30.441H31.9277V40.9773H62.685V30.441Z" fill="white"/>
<path d="M63.0013 41.2936H31.6113V30.149H62.977V41.2936H63.0013ZM32.2197 40.6853H62.3687V30.7573H32.2197V40.6853Z" fill="black"/>
<path d="M58.232 34.2856H44.0213V35.0156H58.232V34.2856Z" fill="black"/>
<path d="M58.232 36.5H44.0213V37.23H58.232V36.5Z" fill="black"/>
<path d="M39.617 38.2033C41.0415 38.2033 42.1963 37.0485 42.1963 35.6239C42.1963 34.1994 41.0415 33.0446 39.617 33.0446C38.1925 33.0446 37.0377 34.1994 37.0377 35.6239C37.0377 37.0485 38.1925 38.2033 39.617 38.2033Z" fill="#6E43B7"/>
<path d="M39.617 38.5926C38.8626 38.5926 38.1326 38.3006 37.573 37.7653L38.084 37.2299C38.4976 37.6193 39.0573 37.8383 39.617 37.8383C40.8336 37.8383 41.8313 36.8406 41.8313 35.6239C41.8313 34.8939 41.4663 34.1883 40.858 33.7746L41.2716 33.1663C42.099 33.7259 42.5856 34.6263 42.5856 35.6239C42.5856 37.2543 41.2473 38.5926 39.617 38.5926Z" fill="black"/>
<path d="M62.685 44.019H31.9277V54.5553H62.685V44.019Z" fill="white"/>
<path d="M63.0013 54.8717H31.6113V43.727H62.977V54.8717H63.0013ZM32.2197 54.2633H62.3687V44.3353H32.2197V54.2633Z" fill="black"/>
<path d="M58.232 47.8636H44.0213V48.5936H58.232V47.8636Z" fill="black"/>
<path d="M58.232 50.0779H44.0213V50.8079H58.232V50.0779Z" fill="black"/>
<path d="M39.617 51.8056C41.0415 51.8056 42.1963 50.6508 42.1963 49.2263C42.1963 47.8018 41.0415 46.647 39.617 46.647C38.1925 46.647 37.0377 47.8018 37.0377 49.2263C37.0377 50.6508 38.1925 51.8056 39.617 51.8056Z" fill="#6E43B7"/>
<path d="M39.617 52.1707C38.8626 52.1707 38.1326 51.8787 37.573 51.3433L38.084 50.808C38.4976 51.1973 39.0573 51.4163 39.617 51.4163C40.8336 51.4163 41.8313 50.4187 41.8313 49.202C41.8313 48.472 41.4663 47.7663 40.858 47.3527L41.2716 46.7443C42.099 47.304 42.5856 48.2043 42.5856 49.202C42.5856 50.8323 41.2473 52.1707 39.617 52.1707Z" fill="black"/>
<path d="M39.4953 35.624C39.1303 35.624 38.814 35.3077 38.814 34.9427C38.814 34.5777 39.1303 34.2614 39.4953 34.2614C39.8603 34.2614 40.1767 34.5777 40.1767 34.9427H39.9333C39.9333 34.6994 39.7387 34.529 39.5197 34.529C39.2763 34.529 39.106 34.7237 39.106 34.9427C39.106 35.1617 39.3007 35.3564 39.5197 35.3564V35.624H39.4953Z" fill="white"/>
<path d="M39.4953 36.7434C39.1303 36.7434 38.814 36.427 38.814 36.062H39.0573C39.0573 36.3054 39.252 36.4757 39.471 36.4757C39.7143 36.4757 39.8847 36.281 39.8847 36.062C39.8847 35.843 39.69 35.6484 39.471 35.6484V35.405C39.836 35.405 40.1523 35.7214 40.1523 36.0864C40.1523 36.4514 39.8847 36.7434 39.4953 36.7434Z" fill="white"/>
<path d="M39.617 34.0667H39.3737V36.9137H39.617V34.0667Z" fill="white"/>
<path d="M39.398 49.3723C39.033 49.3723 38.7167 49.056 38.7167 48.691C38.7167 48.326 39.033 48.0096 39.398 48.0096C39.763 48.0096 40.0793 48.326 40.0793 48.691H39.836C39.836 48.4476 39.6413 48.2773 39.4223 48.2773C39.179 48.2773 39.0087 48.472 39.0087 48.691C39.0087 48.91 39.2033 49.1046 39.4223 49.1046V49.3723H39.398Z" fill="white"/>
<path d="M39.398 50.4673C39.033 50.4673 38.7167 50.151 38.7167 49.786H38.96C38.96 50.0293 39.1547 50.1996 39.3737 50.1996C39.617 50.1996 39.7873 50.005 39.7873 49.786C39.7873 49.567 39.5927 49.3723 39.3737 49.3723V49.129C39.7387 49.129 40.055 49.4453 40.055 49.8103C40.055 50.1753 39.7873 50.4673 39.398 50.4673Z" fill="white"/>
<path d="M39.5197 47.815H39.2763V50.662H39.5197V47.815Z" fill="white"/>
</svg>