<svg xmlns="http://www.w3.org/2000/svg" width="20" height="24" viewBox="0 0 20 24">
    <g fill="none" fill-rule="evenodd">
        <g>
            <g>
                <g>
                    <g>
                        <g>
                            <g>
                                <g fill="#FFF">
                                    <path d="M23.333 22.167c0 1.933-1.567 3.5-3.5 3.5H8.167c-1.933 0-3.5-1.567-3.5-3.5V5.833c0-1.933 1.567-3.5 3.5-3.5h8.13c.563 0 1.1.238 1.48.655l5.036 5.54c.335.368.52.848.52 1.345v12.294zM14 4.667H8.167c-.599 0-1.092.45-1.16 1.03L7 5.833v16.334c0 .598.45 1.091 1.03 1.158l.137.008h11.666c.599 0 1.092-.45 1.16-1.03l.007-.136v-10.5h-4c-1.657 0-3-1.343-3-3v-4zm2.333.202v3.464c0 .553.448 1 1 1h3.06l-4.06-4.465z" transform="translate(-773 -1382) translate(141 891) translate(591 285) translate(37 204)"/>
                                </g>
                            </g>
                        </g>
                    </g>
                </g>
            </g>
        </g>
    </g>
</svg>
