<svg width="52" height="53" viewBox="0 0 52 53" fill="none" xmlns="http://www.w3.org/2000/svg">
<path d="M26 52.0657C40.3594 52.0657 52 40.5291 52 26.2981C52 12.0671 40.3594 0.530518 26 0.530518C11.6406 0.530518 0 12.0671 0 26.2981C0 40.5291 11.6406 52.0657 26 52.0657Z" fill="#F3F5FC"/>
<path d="M26.933 24.6335H6.77993C5.97132 24.6335 5.28711 23.9246 5.28711 23.0616V9.16102C5.28711 8.29801 5.94022 7.58911 6.77993 7.58911H26.933C27.7417 7.58911 28.4259 8.29801 28.4259 9.16102V23.0308C28.4259 23.9246 27.7417 24.6335 26.933 24.6335Z" fill="#8A79F7"/>
<path d="M26.9338 24.8801H6.78069C5.81657 24.8801 5.03906 24.0479 5.03906 23.0308V9.16063C5.03906 8.14349 5.81657 7.31128 6.78069 7.31128H26.9338C27.8979 7.31128 28.6754 8.14349 28.6754 9.16063V23.0308C28.6754 24.0479 27.8979 24.8801 26.9338 24.8801ZM6.78069 7.83526C6.09648 7.83526 5.53667 8.42089 5.53667 9.16063V23.0308C5.53667 23.7705 6.09648 24.3561 6.78069 24.3561H26.9338C27.618 24.3561 28.1778 23.7705 28.1778 23.0308V9.16063C28.1778 8.42089 27.618 7.83526 26.9338 7.83526H6.78069Z" fill="#8A79F7"/>
<path d="M17.0445 11.3181H8.02539V12.366H17.0445V11.3181Z" fill="white"/>
<path d="M25.6905 14.2151H8.02539V15.2634H25.6905V14.2151Z" fill="white"/>
<path d="M25.6905 17.1125H8.02539V18.1609H25.6905V17.1125Z" fill="white"/>
<path d="M25.6905 20.0413H8.02539V21.0891H25.6905V20.0413Z" fill="white"/>
<path d="M45.841 44.2986H24.8792C24.0395 44.2986 23.3242 43.6205 23.3242 42.7574V29.3183C23.3242 28.486 24.0084 27.7771 24.8792 27.7771H45.841C46.6807 27.7771 47.396 28.4552 47.396 29.3183V42.7574C47.3649 43.6205 46.6807 44.2986 45.841 44.2986Z" fill="white"/>
<path d="M45.8417 44.5759H24.88C23.8848 44.5759 23.0762 43.7745 23.0762 42.7882V29.3187C23.0762 28.3324 23.8848 27.531 24.88 27.531H45.8417C46.8369 27.531 47.6456 28.3324 47.6456 29.3187V42.7574C47.6456 43.7745 46.8369 44.5759 45.8417 44.5759ZM24.88 28.055C24.1647 28.055 23.6049 28.6406 23.6049 29.3187V42.7574C23.6049 43.4663 24.1958 44.0211 24.88 44.0211H45.8417C46.557 44.0211 47.1168 43.4355 47.1168 42.7574V29.3187C47.1168 28.6098 46.5259 28.055 45.8417 28.055H24.88Z" fill="#1F3040"/>
<path d="M35.5468 31.4148H26.1855V32.4314H35.5468V31.4148Z" fill="#1F3040"/>
<path d="M44.5348 34.219H26.1855V35.2366H44.5348V34.219Z" fill="#1F3040"/>
<path d="M44.5348 37.0549H26.1855V38.0725H44.5348V37.0549Z" fill="#1F3040"/>
<path d="M44.5348 39.8601H26.1855V40.8772H44.5348V39.8601Z" fill="#1F3040"/>
<path d="M36.171 22.8152V21.5823C35.3002 21.5514 34.4605 21.3048 33.9629 21.0274L34.3672 19.5171C34.927 19.8253 35.6734 20.0719 36.5131 20.0719C37.2595 20.0719 37.7571 19.7945 37.7571 19.2705C37.7571 18.7773 37.3528 18.4691 36.3887 18.1609C34.9892 17.6985 34.0562 17.0512 34.0562 15.8183C34.0562 14.6778 34.8648 13.784 36.2643 13.5374V12.3044H37.5394V13.4449C38.4103 13.4757 39.0012 13.6607 39.4366 13.8764L39.0634 15.3251C38.7213 15.171 38.1304 14.8936 37.1973 14.8936C36.3576 14.8936 36.0777 15.2635 36.0777 15.6025C36.0777 16.0341 36.5442 16.3115 37.6327 16.7122C39.1878 17.267 39.8098 17.9759 39.8098 19.1164C39.8098 20.2569 39.0012 21.2432 37.5083 21.4898V22.8152H36.171Z" fill="#1F3040"/>
<path d="M37.5388 22.9382H36.046V21.7054C35.2374 21.6438 34.3977 21.428 33.9001 21.1506L33.8379 21.1198L34.2733 19.3938L34.3977 19.4555C34.7709 19.6712 35.5484 20.0103 36.5125 20.0103C37.2278 20.0103 37.6322 19.7637 37.6322 19.3322C37.6322 18.9315 37.2589 18.6233 36.3259 18.3151C35.2063 17.9453 33.9001 17.3288 33.9001 15.8494C33.9001 14.6783 34.7398 13.7536 36.1082 13.4762V12.2434H37.6011V13.3838C38.3164 13.4146 38.9073 13.5687 39.4049 13.8153L39.4982 13.8461L39.0628 15.5104L38.8451 15.418C38.503 15.2638 37.9432 15.0173 37.1034 15.0173C36.4814 15.0173 36.1082 15.233 36.1082 15.6337C36.1082 15.9727 36.4814 16.2193 37.6011 16.62C39.1872 17.1747 39.8403 17.9144 39.8403 19.1473C39.8403 20.3801 38.9384 21.3356 37.5388 21.6129V22.9382ZM36.2637 22.6917H37.29V21.3972L37.3833 21.3664C38.7518 21.1198 39.5915 20.2568 39.5915 19.0856C39.5915 17.9761 39.0006 17.298 37.5077 16.7741C36.3881 16.3734 35.8594 16.0652 35.8594 15.5721C35.8594 15.3871 35.9527 14.7399 37.1034 14.7399C37.9432 14.7399 38.5341 14.9865 38.9073 15.1406L39.2183 13.9077C38.7207 13.692 38.1609 13.5687 37.4766 13.5379H37.3522V12.3975H36.3259V13.5995L36.2326 13.6303C34.9264 13.8769 34.1178 14.7091 34.1178 15.8186C34.1178 16.8665 34.802 17.5446 36.3881 18.0685C37.2589 18.3768 37.8499 18.685 37.8499 19.3014C37.8499 19.8562 37.3211 20.226 36.4814 20.226C35.5795 20.226 34.8331 19.9178 34.3977 19.702L34.0556 20.9657C34.5843 21.2431 35.3618 21.428 36.1393 21.4588H36.2637V22.6917Z" fill="#1F3040"/>
</svg>
