<svg width="52" height="53" viewBox="0 0 52 53" fill="none" xmlns="http://www.w3.org/2000/svg">
<path d="M26 52.3635C40.3594 52.3635 52 40.7229 52 26.3635C52 12.0041 40.3594 0.363525 26 0.363525C11.6406 0.363525 0 12.0041 0 26.3635C0 40.7229 11.6406 52.3635 26 52.3635Z" fill="#F3F5FC"/>
<path d="M40.1837 11.6219V40.9807C40.1837 41.7893 39.5305 42.4425 38.7219 42.4425H13.2195C12.4109 42.4425 11.7578 41.7893 11.7578 40.9807V11.6219C11.7578 10.8133 12.4109 10.1602 13.2195 10.1602H38.7219C39.5616 10.1602 40.1837 10.8133 40.1837 11.6219Z" fill="white"/>
<path d="M38.7524 42.5979H13.25C12.3481 42.5979 11.6328 41.8826 11.6328 40.9807V11.6219C11.6328 10.7199 12.3481 10.0046 13.25 10.0046H38.7524C39.6543 10.0046 40.3697 10.7199 40.3697 11.6219V40.9807C40.3697 41.8826 39.6543 42.5979 38.7524 42.5979ZM13.25 10.3467C12.5347 10.3467 11.9749 10.9066 11.9749 11.6219V40.9807C11.9749 41.696 12.5347 42.2558 13.25 42.2558H38.7524C39.4677 42.2558 40.0275 41.696 40.0275 40.9807V11.6219C40.0275 10.9066 39.4677 10.3467 38.7524 10.3467H13.25Z" fill="#1F3040"/>
<path d="M40.1838 11.6219V17.0956H11.7891V11.6219C11.7891 10.8133 12.4422 10.1602 13.2508 10.1602H38.7532C39.5618 10.1602 40.1838 10.8133 40.1838 11.6219Z" fill="white"/>
<path d="M40.3697 17.251H11.6328V11.6219C11.6328 10.7199 12.3481 10.0046 13.25 10.0046H38.7524C39.6543 10.0046 40.3697 10.7199 40.3697 11.6219V17.251ZM11.9749 16.94H40.0275V11.6219C40.0275 10.9066 39.4677 10.3467 38.7524 10.3467H13.25C12.5347 10.3467 11.9749 10.9066 11.9749 11.6219V16.94Z" fill="#1F3040"/>
<path d="M14.1839 32.7701L13.4375 32.2725C13.4686 32.2103 17.0141 27.0165 22.0523 29.1314C23.8873 29.9089 27.3394 31.3395 29.9519 28.385C30.2007 28.1051 30.4495 27.7318 30.7294 27.3586C31.7868 25.8036 33.2485 23.6888 36.9806 23.8443L36.9495 24.7462C33.715 24.6218 32.5332 26.3323 31.4758 27.8562C31.1959 28.2606 30.9471 28.6338 30.6361 28.9759C27.5882 32.428 23.6074 30.7486 21.7102 29.9711C17.3562 28.1362 14.215 32.739 14.1839 32.7701Z" fill="#1F3040"/>
<path d="M18.8477 31.0286C19.7409 31.0286 20.4649 30.3046 20.4649 29.4114C20.4649 28.5182 19.7409 27.7942 18.8477 27.7942C17.9545 27.7942 17.2305 28.5182 17.2305 29.4114C17.2305 30.3046 17.9545 31.0286 18.8477 31.0286Z" fill="#8A79F7"/>
<path d="M18.8469 31.1841C17.8517 31.1841 17.0742 30.3755 17.0742 29.4114C17.0742 28.4162 17.8828 27.6387 18.8469 27.6387C19.8422 27.6387 20.6197 28.4473 20.6197 29.4114C20.6508 30.4066 19.8422 31.1841 18.8469 31.1841ZM18.8469 27.9497C18.0383 27.9497 17.3852 28.6028 17.3852 29.4114C17.3852 30.22 18.0383 30.8731 18.8469 30.8731C19.6556 30.8731 20.3087 30.22 20.3087 29.4114C20.3087 28.6028 19.6556 27.9497 18.8469 27.9497Z" fill="#1F3040"/>
<path d="M33.0625 26.9854C33.9557 26.9854 34.6798 26.2614 34.6798 25.3682C34.6798 24.475 33.9557 23.751 33.0625 23.751C32.1694 23.751 31.4453 24.475 31.4453 25.3682C31.4453 26.2614 32.1694 26.9854 33.0625 26.9854Z" fill="#8A79F7"/>
<path d="M33.0618 27.1722C32.0666 27.1722 31.2891 26.3635 31.2891 25.3994C31.2891 24.4042 32.0977 23.6267 33.0618 23.6267C34.057 23.6267 34.8345 24.4353 34.8345 25.3994C34.8345 26.3635 34.0259 27.1722 33.0618 27.1722ZM33.0618 23.9377C32.2532 23.9377 31.6001 24.5908 31.6001 25.3994C31.6001 26.208 32.2532 26.8612 33.0618 26.8612C33.8704 26.8612 34.5235 26.208 34.5235 25.3994C34.5235 24.5908 33.8704 23.9377 33.0618 23.9377Z" fill="#1F3040"/>
<path d="M15.8637 14.2966C16.2588 14.2966 16.5791 13.9763 16.5791 13.5813C16.5791 13.1862 16.2588 12.866 15.8637 12.866C15.4687 12.866 15.1484 13.1862 15.1484 13.5813C15.1484 13.9763 15.4687 14.2966 15.8637 14.2966Z" fill="white"/>
<path d="M15.8629 14.452C15.3652 14.452 14.9609 14.0477 14.9609 13.5501C14.9609 13.0525 15.3652 12.6482 15.8629 12.6482C16.3605 12.6482 16.7648 13.0525 16.7648 13.5501C16.7337 14.0788 16.3294 14.452 15.8629 14.452ZM15.8629 13.0214C15.5518 13.0214 15.303 13.2702 15.303 13.5812C15.303 13.8922 15.5518 14.141 15.8629 14.141C16.1739 14.141 16.4227 13.8922 16.4227 13.5812C16.3916 13.2702 16.1428 13.0214 15.8629 13.0214Z" fill="#1F3040"/>
<path d="M18.7231 14.2966C19.1182 14.2966 19.4384 13.9763 19.4384 13.5813C19.4384 13.1862 19.1182 12.866 18.7231 12.866C18.3281 12.866 18.0078 13.1862 18.0078 13.5813C18.0078 13.9763 18.3281 14.2966 18.7231 14.2966Z" fill="white"/>
<path d="M18.7222 14.452C18.2246 14.452 17.8203 14.0477 17.8203 13.5501C17.8203 13.0525 18.2246 12.6482 18.7222 12.6482C19.2198 12.6482 19.6241 13.0525 19.6241 13.5501C19.6241 14.0788 19.2198 14.452 18.7222 14.452ZM18.7222 13.0214C18.4112 13.0214 18.1624 13.2702 18.1624 13.5812C18.1624 13.8922 18.4112 14.141 18.7222 14.141C19.0332 14.141 19.282 13.8922 19.282 13.5812C19.282 13.2702 19.0332 13.0214 18.7222 13.0214Z" fill="#1F3040"/>
<path d="M21.6177 14.2966C22.0127 14.2966 22.333 13.9763 22.333 13.5813C22.333 13.1862 22.0127 12.866 21.6177 12.866C21.2226 12.866 20.9023 13.1862 20.9023 13.5813C20.9023 13.9763 21.2226 14.2966 21.6177 14.2966Z" fill="white"/>
<path d="M21.6168 14.452C21.1192 14.452 20.7148 14.0477 20.7148 13.5501C20.7148 13.0525 21.1192 12.6482 21.6168 12.6482C22.1144 12.6482 22.5187 13.0525 22.5187 13.5501C22.5187 14.0788 22.1144 14.452 21.6168 14.452ZM21.6168 13.0214C21.3058 13.0214 21.0569 13.2702 21.0569 13.5812C21.0569 13.8922 21.3058 14.141 21.6168 14.141C21.9278 14.141 22.1766 13.8922 22.1766 13.5812C22.1766 13.2702 21.9278 13.0214 21.6168 13.0214Z" fill="#1F3040"/>
</svg>
