<svg width="77" height="78" viewBox="0 0 77 78" fill="none" xmlns="http://www.w3.org/2000/svg">
<g clip-path="url(#clip0)">
<mask id="mask0" style="mask-type:alpha" maskUnits="userSpaceOnUse" x="0" y="0" width="76" height="77">
<path d="M0.318237 0.871582H75.9114V76.1837H0.318237V0.871582Z" fill="white"/>
</mask>
<g mask="url(#mask0)">
<path fill-rule="evenodd" clip-rule="evenodd" d="M0.318237 38.5277C0.318237 17.7308 17.2404 0.871582 38.115 0.871582C58.9895 0.871582 75.9114 17.7308 75.9114 38.5277C75.9114 59.3245 58.9895 76.1838 38.115 76.1838C17.2404 76.1838 0.318237 59.3245 0.318237 38.5277Z" fill="#F3F5FC"/>
</g>
<path fill-rule="evenodd" clip-rule="evenodd" d="M61.7618 15.3136V61.4371C61.7618 62.6923 60.6828 63.7232 59.3692 63.7232H17.4281C16.1142 63.7232 15.0354 62.6923 15.0354 61.4371V15.3136C15.0354 14.0587 16.1145 13.0277 17.4281 13.0277H59.3692C60.6828 13.0277 61.7618 14.0587 61.7618 15.3136Z" fill="white"/>
<path fill-rule="evenodd" clip-rule="evenodd" d="M17.4748 13.2964C16.302 13.2964 15.3637 14.193 15.3637 15.3135V61.437C15.3637 62.5578 16.302 63.4541 17.4748 63.4541H59.4159C60.5887 63.4541 61.527 62.5578 61.527 61.437V15.3135C61.527 14.193 60.5887 13.2964 59.4159 13.2964H17.4748ZM59.3693 63.9471H17.428C15.9738 63.9471 14.7539 62.8266 14.7539 61.3922V15.2686C14.7539 13.8792 15.9267 12.7136 17.428 12.7136H59.3693C60.8234 12.7136 62.0431 13.8344 62.0431 15.2686V61.3922C62.0431 62.8266 60.8703 63.9471 59.3693 63.9471Z" fill="black"/>
<path fill-rule="evenodd" clip-rule="evenodd" d="M61.7618 15.3136V23.9198H15.0822V15.3136C15.0822 14.0587 16.1612 13.0277 17.4748 13.0277H59.4159C60.6827 13.0277 61.7618 14.0587 61.7618 15.3136Z" fill="white"/>
<path fill-rule="evenodd" clip-rule="evenodd" d="M15.3638 23.6507H61.4804V15.3133C61.4804 14.1928 60.5421 13.2963 59.3693 13.2963H17.428C16.2549 13.2963 15.3169 14.1928 15.3169 15.3133V23.6507H15.3638ZM62.0431 24.1438H14.8008V15.2687C14.8008 13.8791 15.9738 12.7137 17.4748 12.7137H59.4159C60.8703 12.7137 62.0902 13.8342 62.0902 15.2687V24.1438H62.0431Z" fill="black"/>
<path fill-rule="evenodd" clip-rule="evenodd" d="M19.0231 48.528L17.8032 47.7213C17.8501 47.6315 23.6677 39.4736 31.9712 42.7907C35.0206 44.0007 40.6506 46.2422 44.9664 41.5804C45.3886 41.132 45.811 40.5495 46.2329 39.9667C47.9687 37.5461 50.3614 34.2293 56.5073 34.4533L56.4601 35.8877C51.1589 35.6635 49.1886 38.3978 47.4528 40.7737C46.9838 41.4011 46.5614 42.0286 46.0924 42.5216C41.0727 47.9455 34.5516 45.3456 31.4083 44.0905C24.1836 41.2218 19.07 48.4382 19.0231 48.528Z" fill="black"/>
<path fill-rule="evenodd" clip-rule="evenodd" d="M26.67 40.6838C28.147 40.6838 29.3441 41.8278 29.3441 43.2388C29.3441 44.6498 28.147 45.7937 26.67 45.7937C25.1931 45.7937 23.996 44.6498 23.996 43.2388C23.996 41.8278 25.1931 40.6838 26.67 40.6838Z" fill="#8A79F7"/>
<path fill-rule="evenodd" clip-rule="evenodd" d="M26.6701 40.9527C25.3565 40.9527 24.2774 41.9837 24.2774 43.2386C24.2774 44.4937 25.3565 45.5247 26.6701 45.5247C27.9837 45.5247 29.0628 44.4937 29.0628 43.2386C29.0628 41.9837 27.9837 40.9527 26.6701 40.9527ZM26.6701 46.0626C25.0281 46.0626 23.7145 44.8077 23.7145 43.2388C23.7145 41.6699 25.0281 40.4148 26.6701 40.4148C28.3122 40.4148 29.6258 41.6699 29.6258 43.2388C29.6258 44.8077 28.3122 46.0626 26.6701 46.0626Z" fill="black"/>
<path fill-rule="evenodd" clip-rule="evenodd" d="M50.0332 34.3636C51.5101 34.3636 52.7072 35.5076 52.7072 36.9186C52.7072 38.3296 51.5101 39.4735 50.0332 39.4735C48.5562 39.4735 47.3591 38.3296 47.3591 36.9186C47.3591 35.5076 48.5562 34.3636 50.0332 34.3636Z" fill="#8A79F7"/>
<path fill-rule="evenodd" clip-rule="evenodd" d="M50.0332 34.6325C48.7196 34.6325 47.6405 35.6634 47.6405 36.9183C47.6405 38.1735 48.7196 39.2044 50.0332 39.2044C51.3468 39.2044 52.4259 38.1735 52.4259 36.9183C52.4259 35.6634 51.3468 34.6325 50.0332 34.6325ZM50.0332 39.6975C48.3911 39.6975 47.0775 38.4426 47.0775 36.8737C47.0775 35.3048 48.3911 34.0497 50.0332 34.0497C51.6753 34.0497 52.9889 35.3048 52.9889 36.8737C52.9418 38.4426 51.6281 39.6975 50.0332 39.6975Z" fill="black"/>
<path fill-rule="evenodd" clip-rule="evenodd" d="M21.7442 17.241C22.3919 17.241 22.917 17.7427 22.917 18.3617C22.917 18.9805 22.3919 19.4822 21.7442 19.4822C21.0965 19.4822 20.5714 18.9805 20.5714 18.3617C20.5714 17.7427 21.0965 17.241 21.7442 17.241Z" fill="white"/>
<path fill-rule="evenodd" clip-rule="evenodd" d="M21.7441 17.5098C21.228 17.5098 20.8529 17.9134 20.8529 18.3615C20.8529 18.8096 21.2751 19.2131 21.7441 19.2131C22.2134 19.2131 22.6355 18.8096 22.6355 18.3615C22.6355 17.9134 22.2602 17.5098 21.7441 17.5098ZM21.7441 19.7511C20.9466 19.7511 20.2897 19.1234 20.2897 18.3615C20.2897 17.5996 20.9466 16.9719 21.7441 16.9719C22.5416 16.9719 23.1985 17.5996 23.1985 18.3615C23.1985 19.1234 22.5416 19.7511 21.7441 19.7511Z" fill="black"/>
<path fill-rule="evenodd" clip-rule="evenodd" d="M26.4822 17.241C27.13 17.241 27.6553 17.7427 27.6553 18.3617C27.6553 18.9805 27.13 19.4822 26.4822 19.4822C25.8348 19.4822 25.3094 18.9805 25.3094 18.3617C25.3094 17.7427 25.8348 17.241 26.4822 17.241Z" fill="white"/>
<path fill-rule="evenodd" clip-rule="evenodd" d="M26.4824 17.5098C25.9662 17.5098 25.5912 17.9134 25.5912 18.3615C25.5912 18.8096 26.0133 19.2131 26.4824 19.2131C26.9516 19.2131 27.3738 18.8096 27.3738 18.3615C27.3738 17.9134 26.9987 17.5098 26.4824 17.5098ZM26.4824 19.7511C25.6851 19.7511 25.028 19.1234 25.028 18.3615C25.028 17.5996 25.6851 16.9719 26.4824 16.9719C27.2798 16.9719 27.9368 17.5996 27.9368 18.3615C27.9368 19.1234 27.2798 19.7511 26.4824 19.7511Z" fill="black"/>
<path fill-rule="evenodd" clip-rule="evenodd" d="M31.2208 17.241C31.8685 17.241 32.3936 17.7427 32.3936 18.3617C32.3936 18.9805 31.8685 19.4822 31.2208 19.4822C30.5731 19.4822 30.048 18.9805 30.048 18.3617C30.048 17.7427 30.5731 17.241 31.2208 17.241Z" fill="white"/>
<path fill-rule="evenodd" clip-rule="evenodd" d="M31.2209 17.5098C30.7048 17.5098 30.3295 17.9134 30.3295 18.3615C30.3295 18.8096 30.7516 19.2131 31.2209 19.2131C31.6899 19.2131 32.1121 18.8096 32.1121 18.3615C32.1121 17.9134 31.737 17.5098 31.2209 17.5098ZM31.2209 19.7511C30.4234 19.7511 29.7665 19.1234 29.7665 18.3615C29.7665 17.5996 30.4234 16.9719 31.2209 16.9719C32.0184 16.9719 32.6753 17.5996 32.6753 18.3615C32.6753 19.1234 32.0184 19.7511 31.2209 19.7511Z" fill="black"/>
<path d="M37.9992 77.2681C58.9855 77.2681 75.9984 60.1949 75.9984 39.134C75.9984 18.0732 58.9855 1 37.9992 1C17.0128 1 0 18.0732 0 39.134C0 60.1949 17.0128 77.2681 37.9992 77.2681Z" fill="#F0ECF8"/>
<path d="M54.2341 14.623H12.9153C12.1017 14.623 11.4404 15.2867 11.4404 16.1031V43.5119C11.4404 44.1673 11.8677 44.7226 12.4553 44.918C12.4962 44.8113 12.5453 44.7127 12.5994 44.6191C12.1197 44.4811 11.7678 44.0375 11.7678 43.5135V16.1031C11.7678 15.469 12.2818 14.9516 12.9153 14.9516H54.2341C54.866 14.9516 55.3816 15.4674 55.3816 16.1031V43.5119C55.3816 44.146 54.8676 44.6634 54.2341 44.6634H32.6237C32.6924 44.7669 32.7497 44.8786 32.8004 44.992H54.2358C55.0493 44.992 55.7106 44.3283 55.7106 43.5119V16.1031C55.709 15.2883 55.0477 14.623 54.2341 14.623Z" fill="black"/>
<path d="M31.229 57.2959L22.2931 57.8708L32.5991 76.2331L24.8663 97.6575L34.7876 104L34.691 100.828C34.691 100.828 41.422 93.5047 46.5422 77.0003C51.6625 60.4959 31.229 57.2959 31.229 57.2959Z" fill="#773DBD"/>
<path d="M38.7719 74.0483L32.6728 72.9559L31.1341 73.6229L32.6008 76.2364L31.0081 80.6504C31.0081 80.6504 37.5279 83.31 41.1864 90.5297C41.4892 89.9219 41.7936 89.2878 42.103 88.6242C41.116 83.241 38.7719 74.0483 38.7719 74.0483Z" fill="black"/>
<path d="M67.2279 54.252H38.7899L40.7411 37.1316H69.1791L67.2279 54.252Z" fill="#9594D2"/>
<path d="M66.2441 52.9559H37.4771L39.4659 35.507H68.2329L66.2441 52.9559ZM37.8437 52.6274H65.9527L67.8662 35.8355H39.7573L37.8437 52.6274Z" fill="black"/>
<path d="M53.8249 59.2836L54.5648 52.7916H50.0158L49.2776 59.2836H53.8249Z" fill="black"/>
<path d="M54.3831 97.2205C54.3831 97.2205 52.3893 58.4819 25.9206 58.6052L13.3573 61.705C13.3573 61.705 10.2341 78.896 36.3722 77.912L45.8466 102.503L56.1395 98.8961L54.3831 97.2205Z" fill="#773DBD"/>
<path d="M54.2194 97.2287C54.2145 97.1318 53.6776 87.4529 49.9225 77.9202C47.7209 72.3317 44.8612 67.8848 41.4204 64.7062C37.1595 60.7669 31.9869 58.771 26.0466 58.771C26.0056 58.771 25.9631 58.771 25.9222 58.771L25.9205 58.4425C25.9631 58.4425 26.0056 58.4425 26.0466 58.4425C32.0737 58.4425 37.3216 60.4696 41.6463 64.468C45.1231 67.6828 48.0106 72.1707 50.2302 77.8085C54.0033 87.3921 54.5419 97.117 54.5468 97.2139L54.2194 97.2287Z" fill="black"/>
<path d="M45.6944 102.563L36.2609 78.0796C35.5734 78.1042 34.8989 78.1157 34.2409 78.1157C25.7503 78.1157 19.6904 76.0771 16.2071 72.0442C12.2081 67.4118 13.1837 61.7313 13.1936 61.6754L13.516 61.7346C13.5062 61.7904 12.5601 67.3231 16.4575 71.834C20.1586 76.1165 26.8568 78.1059 36.364 77.7478L36.4802 77.7428L45.9972 102.444L45.6944 102.563Z" fill="black"/>
<path d="M25.1822 30.1484V34.8302L19.4039 36.2544V28.3562L25.1822 26.932V30.1484Z" fill="white"/>
<path d="M21.9183 31.7681C22.0033 31.7681 22.0721 31.6989 22.0721 31.6136C22.0721 31.5284 22.0033 31.4592 21.9183 31.4592C21.8333 31.4592 21.7644 31.5284 21.7644 31.6136C21.7644 31.6989 21.8333 31.7681 21.9183 31.7681Z" fill="black"/>
<path d="M24.2918 31.7681C24.3768 31.7681 24.4457 31.6989 24.4457 31.6136C24.4457 31.5284 24.3768 31.4592 24.2918 31.4592C24.2068 31.4592 24.1379 31.5284 24.1379 31.6136C24.1379 31.6989 24.2068 31.7681 24.2918 31.7681Z" fill="black"/>
<path d="M23.7582 32.5385H23.4308V29.9857H24.7878V30.3143H23.7582V32.5385Z" fill="black"/>
<path d="M22.8201 29.9857H21.6268V30.3143H22.8201V29.9857Z" fill="black"/>
<path d="M19.7854 31.3738V32.2034C19.3402 32.2034 18.9784 31.8403 18.9784 31.3935C18.9784 31.3689 18.98 31.3442 18.9817 31.3196C19.0259 30.8153 19.7854 30.8679 19.7854 31.3738Z" fill="white"/>
<path d="M19.7854 32.2034C19.3402 32.2034 18.9784 31.8404 18.9784 31.3936L19.7854 32.2034Z" fill="white"/>
<path d="M23.074 33.2367C22.5632 33.2367 22.1475 32.8194 22.1475 32.3069H22.3652C22.3652 32.6995 22.6827 33.0182 23.074 33.0182V33.2367Z" fill="#773DBD"/>
<path d="M25.1427 34.6706L19.3645 36.0959L19.4426 36.415L25.2208 34.9896L25.1427 34.6706Z" fill="black"/>
<path d="M23.0739 32.8326C23.0003 32.8326 22.9332 32.7817 22.9152 32.7078C22.8939 32.6191 22.9479 32.5304 23.0347 32.509L23.5568 32.3809C23.6452 32.3595 23.7336 32.4137 23.7549 32.5008C23.7762 32.5895 23.7222 32.6782 23.6354 32.6996L23.1132 32.8277C23.1001 32.831 23.087 32.8326 23.0739 32.8326Z" fill="black"/>
<path d="M31.2289 44.6355V57.2959L13.3572 61.705V47.6039C13.3572 42.6035 16.7587 38.2503 21.5974 37.056C26.4983 35.8486 31.2289 39.571 31.2289 44.6355Z" fill="white"/>
<path d="M19.9065 31.0781L19.6642 30.858C19.6708 30.8514 20.2666 30.1795 20.5514 29.0592L20.594 28.8884L20.761 28.9426C20.7937 28.9541 24.0937 30.0169 25.4114 28.2362C25.9794 27.4691 25.7421 26.7167 25.4442 26.2222C25.4212 26.1845 25.377 26.173 25.3525 26.1713C25.3312 26.1713 25.3017 26.1779 25.2837 26.2091C25.12 26.4982 24.737 26.7709 23.8498 26.4374C22.997 26.1171 21.5319 26.0892 20.5547 26.5968C20.0718 26.8465 19.7706 27.198 19.6544 27.6366L19.6299 27.7286L19.5398 27.7533C19.5202 27.7582 19.0406 27.9027 18.8278 28.4317C18.5921 29.0181 18.7787 29.8756 19.3696 30.9073L19.0864 31.0715C18.4316 29.9282 18.245 28.9951 18.5282 28.3019C18.7459 27.7697 19.1764 27.5446 19.363 27.4691C19.5169 26.9812 19.8754 26.5804 20.4041 26.3044C21.4632 25.7541 23.0461 25.7836 23.9644 26.1302C24.3343 26.2699 24.8156 26.3684 24.9989 26.0465C25.0709 25.92 25.2003 25.8444 25.3476 25.8428C25.4998 25.8444 25.6439 25.9216 25.7224 26.0514C26.0089 26.5278 26.3837 27.4691 25.6717 28.4317C25.0628 29.2547 23.9988 29.6572 22.5894 29.5931C21.802 29.5586 21.1227 29.391 20.8215 29.3056C20.5056 30.4062 19.931 31.0485 19.9065 31.0781Z" fill="black"/>
<path d="M68.4604 59.1193H29.5446V59.4478H68.4604V59.1193Z" fill="black"/>
<path d="M16.2349 62.0795C13.642 62.0795 11.3258 61.6015 9.84114 60.3875C8.327 59.1489 7.79337 57.2713 8.25989 54.8055C10.1014 45.0462 17.461 38.886 17.5346 38.8252L17.7425 39.0782C17.6688 39.139 10.3993 45.2285 8.58072 54.8663C8.1404 57.2039 8.63311 58.9764 10.0474 60.1329C12.1541 61.8561 15.8453 61.9004 18.5708 61.6343C21.7185 61.3271 25.3116 60.4351 28.1794 59.2507L28.3038 59.5546C25.0267 60.9082 20.2928 62.0795 16.2349 62.0795Z" fill="black"/>
<path d="M33.7989 58.6315C33.614 57.452 32.9903 56.4762 31.946 55.7272C27.4134 52.4795 16.3462 54.3949 16.2349 54.4146L16.1776 54.091C16.2054 54.0861 19.0258 53.5916 22.3782 53.5111C26.8961 53.4043 30.1797 54.0581 32.1342 55.4594C33.2538 56.261 33.9217 57.3107 34.1198 58.5806L33.7989 58.6315Z" fill="black"/>
<path d="M40.7034 58.6134C40.62 56.9542 39.7033 55.7452 37.9829 55.0191C36.6767 54.4688 35.3753 54.4162 35.3622 54.4162L35.2247 54.4113L35.2051 54.2749C33.853 44.5369 28.7147 39.1192 28.6624 39.065L28.8981 38.8367C28.9504 38.8909 34.1165 44.3381 35.5112 54.0975C36.3591 54.1665 40.8328 54.7119 41.0292 58.5969L40.7034 58.6134Z" fill="black"/>
<path d="M55.4437 18.8892H11.5222V19.2177H55.4437V18.8892Z" fill="black"/>
<path d="M14.7765 18.035C14.2445 18.035 13.8124 17.6013 13.8124 17.0674C13.8124 16.5335 14.2445 16.0999 14.7765 16.0999C15.3085 16.0999 15.7407 16.5335 15.7407 17.0674C15.7407 17.6013 15.3085 18.035 14.7765 18.035ZM14.7765 16.4268C14.4246 16.4268 14.1398 16.7142 14.1398 17.0658C14.1398 17.4173 14.4262 17.7048 14.7765 17.7048C15.1268 17.7048 15.4133 17.4173 15.4133 17.0658C15.4133 16.7142 15.1285 16.4268 14.7765 16.4268Z" fill="black"/>
<path d="M17.7884 18.0349C17.2924 18.0349 16.8701 17.6522 16.8275 17.1479C16.8062 16.89 16.8848 16.6386 17.0518 16.4415C17.2187 16.2444 17.4512 16.1228 17.7082 16.1014C17.9652 16.0801 18.2156 16.1589 18.412 16.3265C18.6085 16.4941 18.7296 16.7273 18.7509 16.9852C18.7722 17.2431 18.6936 17.4928 18.5266 17.6916C18.3597 17.8887 18.1272 18.0103 17.8702 18.0316C17.8424 18.0333 17.8146 18.0349 17.7884 18.0349ZM17.79 16.4267C17.772 16.4267 17.754 16.4267 17.736 16.4284C17.3857 16.4579 17.1254 16.7684 17.1549 17.1199C17.1844 17.4715 17.4921 17.7343 17.844 17.7031C18.0143 17.6883 18.1681 17.6095 18.2778 17.478C18.3875 17.3483 18.4399 17.1824 18.4251 17.0115C18.4104 16.8407 18.3318 16.6863 18.2009 16.5762C18.0847 16.4793 17.9406 16.4267 17.79 16.4267Z" fill="black"/>
<path d="M20.7937 18.0349C20.5662 18.0349 20.3485 17.956 20.1733 17.8066C19.9769 17.639 19.8557 17.4057 19.8345 17.1478C19.8132 16.8899 19.8918 16.6386 20.0587 16.4415C20.2257 16.2443 20.4581 16.1228 20.7151 16.1014C21.2438 16.0571 21.7136 16.453 21.7578 16.9852C21.7791 17.2431 21.7005 17.4928 21.5336 17.6916C21.3666 17.8887 21.1342 18.0102 20.8772 18.0316C20.8494 18.0332 20.8215 18.0349 20.7937 18.0349ZM20.797 16.4267C20.779 16.4267 20.761 16.4267 20.743 16.4283C20.3927 16.4579 20.1324 16.7684 20.1619 17.1199C20.1766 17.2907 20.2552 17.4452 20.3861 17.5552C20.5154 17.6653 20.6791 17.7178 20.851 17.7031C21.0212 17.6883 21.1751 17.6094 21.2848 17.478C21.3944 17.3482 21.4468 17.1823 21.4321 17.0115C21.4026 16.6796 21.1244 16.4267 20.797 16.4267Z" fill="black"/>
<path d="M48.0662 24.2904C46.6716 24.2904 45.5421 25.4239 45.5421 26.8235C45.5421 28.2231 46.6716 29.3565 48.0662 29.3565C49.4609 29.3565 50.5903 28.2231 50.5903 26.8235C50.5903 25.4239 49.4609 24.2904 48.0662 24.2904ZM49.1515 26.219L47.9975 27.7385C47.95 27.8009 47.8763 27.837 47.7978 27.837C47.7208 27.837 47.6472 27.8025 47.5981 27.7401L46.9826 26.9516C46.8975 26.8415 46.9171 26.6822 47.0268 26.5951C47.1365 26.5097 47.2952 26.5294 47.382 26.6395L47.7929 27.1668L48.7472 25.9003C48.8323 25.7886 48.9911 25.7672 49.1024 25.8526C49.2137 25.938 49.235 26.0974 49.1499 26.2091V26.219H49.1515Z" fill="#773DBD"/>
</g>
<defs>
<clipPath id="clip0">
<rect width="75.7798" height="76.9498" fill="white" transform="translate(0.318115 0.616455)"/>
</clipPath>
</defs>
</svg>
