<svg width="21" height="21" viewBox="0 0 21 21" fill="none" xmlns="http://www.w3.org/2000/svg">
<path d="M16.625 4.375H4.375C2.8875 4.375 1.75 5.5125 1.75 7V14C1.75 15.4875 2.8875 16.625 4.375 16.625H16.625C18.1125 16.625 19.25 15.4875 19.25 14V7C19.25 5.5125 18.1125 4.375 16.625 4.375ZM9.625 13.125H6.125C5.6 13.125 5.25 12.775 5.25 12.25C5.25 11.725 5.6 11.375 6.125 11.375H9.625C10.15 11.375 10.5 11.725 10.5 12.25C10.5 12.775 10.15 13.125 9.625 13.125ZM14.875 13.125H13.125C12.6 13.125 12.25 12.775 12.25 12.25C12.25 11.725 12.6 11.375 13.125 11.375H14.875C15.4 11.375 15.75 11.725 15.75 12.25C15.75 12.775 15.4 13.125 14.875 13.125ZM17.5 7.875H3.5V7C3.5 6.475 3.85 6.125 4.375 6.125H16.625C17.15 6.125 17.5 6.475 17.5 7V7.875Z" fill="#7172BB"/>
</svg>
