<svg width="75" height="75" viewBox="0 0 75 75" fill="none" xmlns="http://www.w3.org/2000/svg">
<path d="M37.1948 73.6C57.2427 73.6 73.4947 57.3479 73.4947 37.3C73.4947 17.2521 57.2427 1 37.1948 1C17.1468 1 0.894775 17.2521 0.894775 37.3C0.894775 57.3479 17.1468 73.6 37.1948 73.6Z" fill="#F0ECF8"/>
<path d="M52.95 34.8V36H52.075V34.8C50.575 34.7 49.475 33.95 49 32.725L50.35 31.95C50.65 32.7 51.2 33.175 52.075 33.275V30.45C50.75 29.975 49.425 29.375 49.425 27.65C49.425 26.05 50.65 25.125 52.075 25V23.8H52.95V25C54.05 25.15 54.975 25.75 55.475 26.85L54.15 27.6C53.9 27 53.5 26.65 52.95 26.525V29.25C54.225 29.725 55.625 30.25 55.625 32.05C55.625 33.625 54.5 34.6 52.95 34.8ZM52.075 28.9V26.55C51.4 26.65 51 27.075 51 27.675C51 28.225 51.325 28.55 52.075 28.9ZM54.075 32.075C54.075 31.45 53.65 31.125 52.975 30.825V33.3C53.7 33.125 54.075 32.65 54.075 32.075Z" fill="#773DBD"/>
<path d="M39.075 37.35H12.55C11.025 37.35 9.77502 36.1 9.77502 34.575V18.4C9.77502 16.875 11.025 15.625 12.55 15.625H39.075C40.6 15.625 41.85 16.875 41.85 18.4V34.575C41.85 36.1 40.6 37.35 39.075 37.35Z" fill="#9594D2"/>
<path d="M65.4 62.1H40.4C38.45 62.1 36.875 60.525 36.875 58.575V43.925C36.875 41.975 38.45 40.4 40.4 40.4H65.4C67.35 40.4 68.925 41.975 68.925 43.925V58.575C68.925 60.525 67.35 62.1 65.4 62.1Z" fill="white"/>
<path d="M66.975 62.25H38.8C37.65 62.25 36.725 61.325 36.725 60.175V42.325C36.725 41.175 37.65 40.25 38.8 40.25H67C68.15 40.25 69.075 41.175 69.075 42.325V60.175C69.05 61.325 68.125 62.25 66.975 62.25ZM38.8 40.525C37.8 40.525 37 41.325 37 42.325V60.175C37 61.175 37.8 61.975 38.8 61.975H67C68 61.975 68.8 61.175 68.8 60.175V42.325C68.8 41.325 68 40.525 67 40.525H38.8Z" fill="black"/>
<path d="M63.825 45.875H41.85V46.475H63.825V45.875Z" fill="#773DBD"/>
<path d="M63.825 49.45H41.85V50.05H63.825V49.45Z" fill="#773DBD"/>
<path d="M63.825 53.025H41.85V53.625H63.825V53.025Z" fill="#773DBD"/>
<path d="M63.825 56.625H41.85V57.225H63.825V56.625Z" fill="#773DBD"/>
<path d="M36.875 20.675H14.9V21.275H36.875V20.675Z" fill="white"/>
<path d="M36.925 21.35H14.825V20.625H36.925V21.35ZM14.975 21.2H36.8V20.75H14.975V21.2Z" fill="white"/>
<path d="M36.875 24.25H14.9V24.85H36.875V24.25Z" fill="white"/>
<path d="M36.925 24.925H14.825V24.2H36.925V24.925ZM14.975 24.775H36.8V24.325H14.975V24.775Z" fill="white"/>
<path d="M36.875 27.85H14.9V28.45H36.875V27.85Z" fill="white"/>
<path d="M36.925 28.5H14.825V27.775H36.925V28.5ZM14.975 28.375H36.8V27.925H14.975V28.375Z" fill="white"/>
<path d="M36.875 31.425H14.9V32.025H36.875V31.425Z" fill="white"/>
<path d="M36.925 32.075H14.825V31.35H36.925V32.075ZM14.975 31.95H36.8V31.5H14.975V31.95Z" fill="white"/>
</svg>