<svg width="85" height="90" viewBox="0 0 85 90" fill="none" xmlns="http://www.w3.org/2000/svg">
<g clip-path="url(#clip0_1578:28703)">
<path d="M42.7624 88.8458C65.7106 88.8458 84.3138 70.2426 84.3138 47.2944C84.3138 24.3461 65.7106 5.74292 42.7624 5.74292C19.8142 5.74292 1.21094 24.3461 1.21094 47.2944C1.21094 70.2426 19.8142 88.8458 42.7624 88.8458Z" fill="#E4E4F3"/>
<path d="M41.8894 47.4633H12.3867V76.9659H41.8894V47.4633Z" fill="#6E43B7"/>
<path d="M42.1427 77.2193H12.3867V76.6562H41.5797V47.4633H42.1427V77.2193Z" fill="black"/>
<path d="M35.2144 70.6882H19.0273V65.7617C19.0273 64.0163 20.4349 62.6088 22.1803 62.6088H32.0333C33.7787 62.6088 35.1862 64.0163 35.1862 65.7617V70.6882H35.2144Z" fill="white"/>
<path d="M31.1036 60.6381H23.1367V56.1339C23.1367 54.7826 24.2346 53.6847 25.5859 53.6847H28.6825C30.0338 53.6847 31.1317 54.7826 31.1317 56.1339V60.6381H31.1036Z" fill="white"/>
<path d="M49.068 38.3422L43.1562 44.3666V38.3422H49.068Z" fill="#9595CE"/>
<path d="M33.4711 39.3044L72.6016 39.3044L72.6016 13.0392L33.4711 13.0392L33.4711 39.3044Z" fill="#9595CE"/>
<path d="M33.4453 13.0341V39.2993H43.1575" fill="#9595CE"/>
<path d="M59.5485 27.3682L61.9414 27.3682L61.9414 24.9753L59.5485 24.9753L59.5485 27.3682Z" fill="#9595CE"/>
<path d="M51.8298 27.3682L54.2227 27.3682L54.2227 24.9753L51.8298 24.9753L51.8298 27.3682Z" fill="#9595CE"/>
<path d="M44.1149 27.3682L46.5078 27.3682L46.5078 24.9753L44.1149 24.9753L44.1149 27.3682Z" fill="#9595CE"/>
<path d="M67.6211 26.406L73.5329 32.4304V26.406H67.6211Z" fill="#EDEEEF"/>
<path d="M83.2437 1.0979H44.1133V27.3631H83.2437V1.0979Z" fill="#EDEEEF"/>
<path d="M73.9539 32.4304H73.1094V26.9409H82.8216V1.0979H83.6661V27.7854H73.9539V32.4304Z" fill="black"/>
<path d="M57.1468 13.0341H54.7539V15.4269H57.1468V13.0341Z" fill="#6E43B7"/>
<path d="M64.8616 13.0341H62.4688V15.4269H64.8616V13.0341Z" fill="#6E43B7"/>
<path d="M72.5725 13.0341H70.1797V15.4269H72.5725V13.0341Z" fill="#6E43B7"/>
</g>
<defs>
<clipPath id="clip0_1578:28703">
<rect width="84.5386" height="90" fill="white"/>
</clipPath>
</defs>
</svg>
