<svg width="46" height="46" viewBox="0 0 46 46" fill="none" xmlns="http://www.w3.org/2000/svg">
<circle cx="23" cy="22.9463" r="22.5" fill="#E4E4F3"/>
<path d="M37.9876 35.75H9.65696C9.15574 35.75 8.75 35.3437 8.75 34.8419V12.3774C8.75 11.8755 9.15574 11.4692 9.65696 11.4692H38.0115C38.5127 11.4692 38.9184 11.8755 38.9184 12.3774V34.8419C38.8945 35.3437 38.4888 35.75 37.9876 35.75ZM9.65696 11.8038C9.34668 11.8038 9.10801 12.0428 9.10801 12.3535V34.818C9.10801 35.1286 9.34668 35.3676 9.65696 35.3676H38.0115C38.3217 35.3676 38.5604 35.1286 38.5604 34.818V12.3535C38.5604 12.0428 38.3217 11.8038 38.0115 11.8038H9.65696V11.8038Z" fill="#222222"/>
<path d="M38.8248 15.5317H8.91895V15.8663H38.8248V15.5317Z" fill="#222222"/>
<path d="M24.0739 18.6147H11.5674V25.9516H24.0739V18.6147Z" fill="#6E43B7"/>
<path d="M21.4962 20.2632H14.1689V20.5978H21.4962V20.2632Z" fill="white"/>
<path d="M21.4962 21.5059H14.1689V21.8404H21.4962V21.5059Z" fill="white"/>
<path d="M21.4962 22.7485H14.1689V23.0831H21.4962V22.7485Z" fill="white"/>
<path d="M17.8206 23.9683H14.1689V24.3028H17.8206V23.9683Z" fill="white"/>
<path d="M24.0748 27.5527H11.5205V31.7111H24.0748V27.5527Z" fill="#9494D2"/>
<path d="M13.9297 30.8264C14.5888 30.8264 15.1231 30.2914 15.1231 29.6314C15.1231 28.9715 14.5888 28.4365 13.9297 28.4365C13.2706 28.4365 12.7363 28.9715 12.7363 29.6314C12.7363 30.2914 13.2706 30.8264 13.9297 30.8264Z" fill="#E4E4F3"/>
<path d="M21.7822 28.8433H15.9824V29.1778H21.7822V28.8433Z" fill="white"/>
<path d="M21.7822 30.0859H15.9824V30.4205H21.7822V30.0859Z" fill="white"/>
<path d="M31.6169 30.2294C34.3323 30.2294 36.5336 28.0253 36.5336 25.3064C36.5336 22.5874 34.3323 20.3833 31.6169 20.3833C28.9015 20.3833 26.7002 22.5874 26.7002 25.3064C26.7002 28.0253 28.9015 30.2294 31.6169 30.2294Z" fill="#9494D2"/>
<path d="M31.6169 25.3064H36.5336C36.5336 28.0069 34.3139 30.2294 31.6169 30.2294C28.9199 30.2294 26.7002 28.0069 26.7002 25.3064C26.7002 22.6059 28.9199 20.3833 31.6169 20.3833C32.6432 20.3833 33.6456 20.7179 34.481 21.3153L31.6169 25.3064Z" fill="#E4E4F3"/>
<path d="M31.6169 25.3057H36.5336C36.5336 28.0062 34.3139 30.2288 31.6169 30.2288C28.9199 30.2288 26.7002 28.0062 26.7002 25.3057C26.7002 23.2266 28.0129 21.3625 29.97 20.6694L31.6169 25.3057Z" fill="#CACAE6"/>
<path d="M31.6169 25.3062H36.5336C36.5336 28.0067 34.3139 30.2292 31.6169 30.2292C28.9437 30.2292 26.7241 28.0306 26.7002 25.3301L31.6169 25.3062Z" fill="#6E43B7"/>
<path d="M31.6154 30.3961C30.5413 30.3961 29.5389 30.0615 28.6797 29.464L28.8706 29.1772C29.6821 29.7508 30.6368 30.0615 31.6154 30.0615C34.2408 30.0615 36.365 27.9345 36.365 25.3057C36.365 23.7284 35.5774 22.2467 34.2647 21.3625L34.4556 21.0757C35.8638 22.0316 36.6991 23.6089 36.6991 25.3057C36.6991 28.1018 34.4079 30.3961 31.6154 30.3961Z" fill="#222222"/>
<path d="M31.6159 27.6251C32.8945 27.6251 33.931 26.5872 33.931 25.3069C33.931 24.0266 32.8945 22.9888 31.6159 22.9888C30.3373 22.9888 29.3008 24.0266 29.3008 25.3069C29.3008 26.5872 30.3373 27.6251 31.6159 27.6251Z" fill="white"/>
<path d="M31.5453 25.4019C31.0918 25.4019 30.71 25.0195 30.71 24.5654C30.71 24.1114 31.0918 23.729 31.5453 23.729C31.9988 23.729 32.3807 24.1114 32.3807 24.5654H32.0465C32.0465 24.3026 31.8317 24.0636 31.5453 24.0636C31.2828 24.0636 31.0441 24.2787 31.0441 24.5654C31.0441 24.8522 31.2589 25.0673 31.5453 25.0673V25.4019Z" fill="#222222"/>
<path d="M31.5453 26.7408C31.0918 26.7408 30.71 26.3584 30.71 25.9043H31.0441C31.0441 26.1672 31.2589 26.4062 31.5453 26.4062C31.8079 26.4062 32.0465 26.1911 32.0465 25.9043C32.0465 25.6414 31.8317 25.4024 31.5453 25.4024V25.0679C31.9988 25.0679 32.3807 25.4502 32.3807 25.9043C32.4045 26.3823 32.0227 26.7408 31.5453 26.7408Z" fill="#222222"/>
<path d="M31.713 23.5142H31.3789V26.9555H31.713V23.5142Z" fill="#222222"/>
</svg>
