<svg width="71" height="70" viewBox="0 0 71 70" fill="none" xmlns="http://www.w3.org/2000/svg">
<path d="M35.5674 69.895C54.8241 69.895 70.4347 54.2844 70.4347 35.0277C70.4347 15.771 54.8241 0.1604 35.5674 0.1604C16.3107 0.1604 0.700073 15.771 0.700073 35.0277C0.700073 54.2844 16.3107 69.895 35.5674 69.895Z" fill="#F0ECF8"/>
<path d="M28.5611 39.1772C28.5611 39.1772 22.0329 45.3504 21.8143 59.5404C21.8007 60.4418 22.9069 60.8788 23.5078 60.2233C25.6111 57.9425 29.1757 54.2413 31.1833 53.0395L28.5611 39.1772Z" fill="#F0ECF8"/>
<path d="M22.7975 60.7559C22.6473 60.7559 22.4971 60.7286 22.3468 60.674C21.8825 60.4828 21.582 60.0458 21.582 59.5404C21.6913 52.1654 23.535 46.9893 25.0647 43.9437C26.7172 40.625 28.3424 39.0817 28.4107 39.027L28.7112 38.7402L31.4427 53.1624L31.3061 53.2444C29.2985 54.4462 25.6656 58.243 23.6853 60.3872C23.4531 60.6194 23.1253 60.7559 22.7975 60.7559ZM28.4244 39.6553C27.8781 40.2562 26.6762 41.7449 25.4607 44.1622C23.9584 47.1668 22.1556 52.261 22.0327 59.5404C22.0327 59.9228 22.2786 60.155 22.5107 60.2506C22.7429 60.3462 23.0843 60.3462 23.3438 60.0594C25.2968 57.9425 28.8478 54.2277 30.9373 52.9166L28.4244 39.6553Z" fill="#1F3040"/>
<path d="M42.5597 39.1771C42.5597 39.1771 49.0879 45.3503 49.3065 59.5403C49.3201 60.4417 48.2139 60.8787 47.6129 60.2232C45.5097 57.9424 41.9451 54.2412 39.9375 53.0394L42.5597 39.1771Z" fill="#F0ECF8"/>
<path d="M48.3368 60.7559C48.009 60.7559 47.6812 60.6193 47.449 60.3598C45.4687 58.202 41.8359 54.4189 39.8282 53.217L39.6917 53.1351L42.4231 38.7129L42.7236 38.9997C42.7919 39.068 44.4035 40.6113 46.0697 43.9164C47.5993 46.9619 49.443 52.1381 49.5523 59.5131C49.5659 60.0184 49.2655 60.4691 48.7875 60.6467C48.6372 60.7286 48.487 60.7559 48.3368 60.7559ZM40.197 52.9166C42.2866 54.2277 45.8375 57.9425 47.7905 60.0594C48.05 60.3462 48.3914 60.3462 48.6236 60.2506C48.8558 60.155 49.1016 59.9228 49.1016 59.5404C48.9923 52.2747 47.1759 47.1668 45.6736 44.1622C44.4717 41.7448 43.2562 40.2698 42.7099 39.6552L40.197 52.9166Z" fill="#1F3040"/>
<path d="M42.0408 49.9937H29.0799C24.8871 31.3377 27.2498 20.3435 30.2135 14.2386H40.8526C43.8436 20.3435 46.22 31.3377 42.0408 49.9937Z" fill="white"/>
<path d="M42.2184 50.226H28.8888L28.8478 50.0484C24.6004 31.092 27.127 20.0568 29.9951 14.1432L30.0633 14.0203H40.9892L41.0575 14.1432C43.9529 20.0568 46.5068 31.092 42.2594 50.0484L42.2184 50.226ZM29.2576 49.7616H41.8497C45.9879 31.1739 43.5295 20.33 40.7024 14.4573H30.3501C27.5504 20.33 25.1194 31.1876 29.2576 49.7616Z" fill="#1F3040"/>
<path d="M35.54 30.136C37.9838 30.136 39.965 28.1549 39.965 25.711C39.965 23.2671 37.9838 21.286 35.54 21.286C33.0961 21.286 31.115 23.2671 31.115 25.711C31.115 28.1549 33.0961 30.136 35.54 30.136Z" fill="white"/>
<path d="M35.54 30.3682C32.9724 30.3682 30.8828 28.2786 30.8828 25.711C30.8828 23.1434 32.9724 21.0538 35.54 21.0538C38.1076 21.0538 40.1972 23.1434 40.1972 25.711C40.1972 28.2786 38.1076 30.3682 35.54 30.3682ZM35.54 21.5045C33.2182 21.5045 31.3335 23.3892 31.3335 25.711C31.3335 28.0328 33.2182 29.9175 35.54 29.9175C37.8617 29.9175 39.7465 28.0328 39.7465 25.711C39.7465 23.3892 37.8481 21.5045 35.54 21.5045Z" fill="#1F3040"/>
<path d="M40.8526 14.2387H30.2135C32.6309 9.24012 35.4716 7.51929 35.4716 7.51929H35.5672C35.5535 7.51929 38.4079 9.24012 40.8526 14.2387Z" fill="white"/>
<path d="M41.2213 14.471H29.8447L30.0086 14.1433C32.4396 9.14465 35.2257 7.39651 35.3487 7.32822L35.4033 7.3009H35.6218L35.6764 7.32822C35.7993 7.39651 38.6128 9.15831 41.0574 14.1433L41.2213 14.471ZM30.5822 14.0067H40.4838C38.3533 9.81386 35.9632 8.06572 35.5125 7.7516C35.0618 8.06572 32.6855 9.82752 30.5822 14.0067Z" fill="#1F3040"/>
<path d="M42.0407 49.9938C41.7675 51.2229 41.4671 52.4794 41.1256 53.7769H29.9949C29.6671 52.4794 29.353 51.2229 29.0798 49.9938H42.0407Z" fill="white"/>
<path d="M41.3033 54.0092H29.8174L29.7764 53.8316C29.4486 52.5615 29.1345 51.2777 28.8614 50.0349L28.7931 49.7617H42.3276L42.2593 50.0349C41.9861 51.2777 41.672 52.5615 41.3442 53.8316L41.3033 54.0092ZM30.1725 53.5585H40.9482C41.235 52.4522 41.5081 51.3323 41.7539 50.2261H29.3667C29.6125 51.3187 29.8857 52.4386 30.1725 53.5585Z" fill="#1F3040"/>
<path d="M35.3079 39.4913C35.9224 39.4913 36.4414 39.9557 36.496 40.5839L37.1653 47.795C37.3018 49.2837 37.3018 50.7723 37.1653 52.261L36.496 59.4721C36.4414 60.0867 35.9224 60.5647 35.3079 60.5647C34.6933 60.5647 34.1743 60.1003 34.1197 59.4721L33.4505 52.261C33.3139 50.7723 33.3139 49.2837 33.4505 47.795L34.1197 40.5839C34.1743 39.9557 34.6933 39.4913 35.3079 39.4913Z" fill="#F0ECF8"/>
<path d="M35.3077 60.7831C34.5702 60.7831 33.9557 60.2231 33.8874 59.4856L33.2182 52.2745C33.0816 50.7859 33.0816 49.2699 33.2182 47.7676L33.8874 40.5565C33.9557 39.819 34.5702 39.259 35.3077 39.259C36.0452 39.259 36.6598 39.819 36.7281 40.5565L37.3973 47.7676C37.5339 49.2562 37.5339 50.7722 37.3973 52.2745L36.7281 59.4856C36.6598 60.2231 36.0589 60.7831 35.3077 60.7831ZM35.3077 39.7234C34.8024 39.7234 34.3927 40.1058 34.3381 40.5975L33.6688 47.8086C33.5323 49.2699 33.5323 50.7586 33.6688 52.2335L34.3381 59.4446C34.379 59.95 34.8024 60.3187 35.3077 60.3187C35.8131 60.3187 36.2228 59.9363 36.2774 59.4446L36.9466 52.2335C37.0832 50.7722 37.0832 49.2836 36.9466 47.8086L36.2774 40.5975C36.2228 40.0921 35.8131 39.7234 35.3077 39.7234Z" fill="#1F3040"/>
<path d="M35.6081 29.3166C37.5616 29.3166 39.1453 27.7329 39.1453 25.7793C39.1453 23.8258 37.5616 22.2421 35.6081 22.2421C33.6545 22.2421 32.0708 23.8258 32.0708 25.7793C32.0708 27.7329 33.6545 29.3166 35.6081 29.3166Z" fill="#773DBD"/>
</svg>
