<svg width="52" height="53" viewBox="0 0 52 53" fill="none" xmlns="http://www.w3.org/2000/svg">
<path d="M26 52.3635C40.3594 52.3635 52 40.7229 52 26.3635C52 12.0041 40.3594 0.363525 26 0.363525C11.6406 0.363525 0 12.0041 0 26.3635C0 40.7229 11.6406 52.3635 26 52.3635Z" fill="#F3F5FC"/>
<path d="M12.1875 11.2929V41.7052C12.1875 42.3177 12.6917 42.8142 13.3139 42.8142H37.6877C38.31 42.8142 38.8142 42.3177 38.8142 41.7052V11.2929C38.8142 10.6803 38.31 10.1838 37.6877 10.1838H13.3139C12.6917 10.1838 12.1875 10.6803 12.1875 11.2929Z" fill="white"/>
<path d="M37.6869 43H13.3131C12.5879 43 12 42.4191 12 41.7072V11.2928C12 10.5809 12.59 10 13.3131 10H37.6869C38.4121 10 39 10.5809 39 11.2928V41.7051C39 42.4191 38.4121 43 37.6869 43ZM13.3131 10.3697C12.796 10.3697 12.3755 10.7837 12.3755 11.2928V41.7051C12.3755 42.2142 12.796 42.6282 13.3131 42.6282H37.6869C38.204 42.6282 38.6245 42.2142 38.6245 41.7051V11.2928C38.6245 10.7837 38.204 10.3697 37.6869 10.3697H13.3131Z" fill="#1F3040"/>
<path d="M18.8414 20.3276C20.7753 20.3276 22.343 18.7842 22.343 16.8802C22.343 14.9762 20.7753 13.4327 18.8414 13.4327C16.9076 13.4327 15.3398 14.9762 15.3398 16.8802C15.3398 18.7842 16.9076 20.3276 18.8414 20.3276Z" fill="white"/>
<path d="M18.841 20.5135C18.8388 20.5135 18.8388 20.5135 18.8367 20.5135C17.8519 20.5135 16.925 20.1333 16.2277 19.4467C15.5304 18.7602 15.1484 17.8476 15.1484 16.8781C15.1484 15.9085 15.5346 14.9959 16.232 14.3094C16.9293 13.6249 17.854 13.2468 18.8388 13.2468C18.841 13.2468 18.841 13.2468 18.8431 13.2468C20.8771 13.2489 22.5314 14.8797 22.5292 16.8823C22.5292 18.8848 20.8728 20.5135 18.841 20.5135ZM18.841 13.6165C17.0151 13.6165 15.5282 15.0783 15.5261 16.8759C15.5261 17.7484 15.8694 18.568 16.4937 19.1848C17.1202 19.8016 17.9506 20.1417 18.8367 20.1417H18.8388C20.6647 20.1417 22.1516 18.6799 22.1538 16.8823H22.3404H22.1538C22.1559 15.0825 20.669 13.6186 18.8431 13.6165H18.841Z" fill="#1F3040"/>
<path d="M18.3978 18.2448L16.9495 16.8168C16.8293 16.6985 16.8293 16.5063 16.9495 16.388C17.0696 16.2697 17.2649 16.2697 17.385 16.388L18.4063 17.3935L20.303 15.6001C20.4253 15.4839 20.6206 15.4881 20.7386 15.6085C20.8566 15.7289 20.8523 15.9211 20.73 16.0373L18.3978 18.2448Z" fill="white"/>
<path d="M18.3956 18.4159L16.8615 16.9013C16.692 16.7344 16.692 16.464 16.8615 16.2972C17.031 16.1303 17.3056 16.1303 17.4751 16.2972L18.4085 17.2182L20.2172 15.5092C20.3009 15.4311 20.4103 15.3888 20.5262 15.3909C20.642 15.3931 20.7493 15.4395 20.8308 15.5219C20.9102 15.6043 20.9531 15.712 20.951 15.8261C20.9488 15.9402 20.9016 16.0458 20.818 16.1261L18.3956 18.4159ZM17.1683 16.4218C17.1211 16.4218 17.0739 16.4387 17.0396 16.4746C17.0053 16.5084 16.9859 16.5549 16.9859 16.6014C16.9859 16.6499 17.0053 16.6943 17.0396 16.7281L18.402 18.0716L20.6463 15.9486C20.7193 15.8789 20.7214 15.7648 20.6506 15.693C20.6163 15.6592 20.5712 15.6381 20.5219 15.6381C20.4747 15.6381 20.4275 15.655 20.391 15.6888L18.4063 17.5667L17.2992 16.4746C17.2606 16.4387 17.2134 16.4218 17.1683 16.4218Z" fill="#1F3040"/>
<path d="M29.3554 15.5663H23.8906V16.257H29.3554V15.5663Z" fill="white"/>
<path d="M29.4815 16.3795H23.7656V15.4437H29.4815V16.3795ZM24.0145 16.1324H29.2304V15.6888H24.0145V16.1324Z" fill="#1F3040"/>
<path d="M35.451 17.6343H23.8906V18.325H35.451V17.6343Z" fill="white"/>
<path d="M35.5771 18.4475H23.7656V17.5117H35.5771V18.4475ZM24.0145 18.2025H35.326V17.7589H24.0145V18.2025Z" fill="#1F3040"/>
<path d="M18.8414 29.9856C20.7753 29.9856 22.343 28.4421 22.343 26.5381C22.343 24.6342 20.7753 23.0907 18.8414 23.0907C16.9076 23.0907 15.3398 24.6342 15.3398 26.5381C15.3398 28.4421 16.9076 29.9856 18.8414 29.9856Z" fill="white"/>
<path d="M18.841 30.1714C18.8388 30.1714 18.8388 30.1714 18.8367 30.1714C17.8519 30.1714 16.925 29.7912 16.2277 29.1047C15.5304 28.4181 15.1484 27.5056 15.1484 26.536C15.1506 24.5334 16.8048 22.9069 18.8388 22.9069C18.841 22.9069 18.841 22.9069 18.8431 22.9069C20.8771 22.909 22.5314 24.5397 22.5292 26.5423C22.5292 27.5119 22.143 28.4245 21.4457 29.111C20.7506 29.7933 19.8258 30.1714 18.841 30.1714ZM18.841 23.2744C17.0151 23.2744 15.5282 24.7362 15.5261 26.5339C15.5239 28.3336 17.0108 29.7975 18.8367 29.7996H18.8388C19.7228 29.7996 20.5553 29.4617 21.1797 28.8469C21.8062 28.2301 22.1516 27.4126 22.1516 26.5402C22.1538 24.7404 20.6669 23.2765 18.841 23.2744C18.841 23.2744 18.8431 23.2744 18.841 23.2744Z" fill="#1F3040"/>
<path d="M29.3554 25.2241H23.8906V25.9149H29.3554V25.2241Z" fill="white"/>
<path d="M29.4815 26.0353H23.7656V25.0995H29.4815V26.0353ZM24.0145 25.7902H29.2304V25.3466H24.0145V25.7902Z" fill="#1F3040"/>
<path d="M35.451 27.2922H23.8906V27.983H35.451V27.2922Z" fill="white"/>
<path d="M35.5771 28.1055H23.7656V27.1697H35.5771V28.1055ZM24.0145 27.8604H35.326V27.4168H24.0145V27.8604Z" fill="#1F3040"/>
<path d="M18.8803 29.9264C20.717 29.9264 22.206 28.4132 22.206 26.5466C22.206 24.68 20.717 23.1667 18.8803 23.1667C17.0436 23.1667 15.5547 24.68 15.5547 26.5466C15.5547 28.4132 17.0436 29.9264 18.8803 29.9264Z" fill="#8A79F7"/>
<path d="M18.3978 27.9026L16.9495 26.4746C16.8293 26.3563 16.8293 26.1641 16.9495 26.0458C17.0696 25.9275 17.2649 25.9275 17.385 26.0458L18.4063 27.0534L20.303 25.26C20.4253 25.1438 20.6206 25.148 20.7386 25.2684C20.8566 25.3888 20.8523 25.5811 20.73 25.6972L18.3978 27.9026Z" fill="white"/>
<path d="M18.3956 28.0737L16.8615 26.5592C16.692 26.3923 16.692 26.1219 16.8615 25.955C17.031 25.7881 17.3056 25.7881 17.4751 25.955L18.4085 26.876L20.2172 25.1671C20.3009 25.0889 20.4103 25.0467 20.5262 25.0488C20.642 25.0509 20.7493 25.0974 20.8308 25.1798C20.9102 25.2621 20.9531 25.3699 20.951 25.4839C20.9488 25.598 20.9016 25.7036 20.818 25.7839L18.3956 28.0737ZM17.1683 26.0796C17.119 26.0796 17.0739 26.0986 17.0396 26.1324C16.9688 26.2022 16.9688 26.3162 17.0396 26.388L18.402 27.7315L20.6463 25.6086C20.7193 25.5389 20.7214 25.4248 20.6506 25.353C20.6163 25.3192 20.5712 25.298 20.5219 25.298C20.4682 25.2938 20.4275 25.3149 20.391 25.3487L18.4063 27.2267L17.2992 26.1346C17.2627 26.0965 17.2155 26.0796 17.1683 26.0796Z" fill="#1F3040"/>
<path d="M18.8414 39.6434C20.7753 39.6434 22.343 38.0999 22.343 36.196C22.343 34.292 20.7753 32.7485 18.8414 32.7485C16.9076 32.7485 15.3398 34.292 15.3398 36.196C15.3398 38.0999 16.9076 39.6434 18.8414 39.6434Z" fill="white"/>
<path d="M18.841 39.8272C18.8388 39.8272 18.8388 39.8272 18.8367 39.8272C17.8519 39.8272 16.925 39.447 16.2277 38.7604C15.5304 38.0739 15.1484 37.1613 15.1484 36.1917C15.1506 34.1892 16.8048 32.5626 18.8388 32.5626C18.841 32.5626 18.841 32.5626 18.8431 32.5626C19.828 32.5626 20.7548 32.9429 21.4522 33.6294C22.1495 34.3159 22.5314 35.2285 22.5314 36.1981H22.3447H22.5314C22.5314 37.1677 22.1452 38.0802 21.4479 38.7668C20.7506 39.4512 19.8258 39.8272 18.841 39.8272ZM18.841 32.9323C17.0151 32.9323 15.5282 34.3941 15.5261 36.1917C15.5261 37.0642 15.8694 37.8838 16.4937 38.5006C17.1181 39.1174 17.9506 39.4575 18.8367 39.4575H18.8388C19.7228 39.4575 20.5553 39.1195 21.1797 38.5048C21.8062 37.888 22.1516 37.0705 22.1516 36.1981C22.1516 35.3256 21.8083 34.506 21.1818 33.8892C20.5553 33.2724 19.725 32.9323 18.8388 32.9323C18.8431 32.9323 18.841 32.9323 18.841 32.9323Z" fill="#1F3040"/>
<path d="M18.3978 37.5606L16.9495 36.1326C16.8293 36.0143 16.8293 35.822 16.9495 35.7038C17.0696 35.5855 17.2649 35.5855 17.385 35.7038L18.4063 36.7114L20.303 34.9179C20.4253 34.8018 20.6206 34.806 20.7386 34.9264C20.8566 35.0468 20.8523 35.239 20.73 35.3552L18.3978 37.5606Z" fill="white"/>
<path d="M18.3956 37.7317L16.8615 36.2171C16.692 36.0502 16.692 35.7798 16.8615 35.6129C17.031 35.446 17.3056 35.446 17.4751 35.6129L18.4085 36.5339L20.2172 34.825C20.3009 34.7468 20.4081 34.7025 20.5262 34.7067C20.642 34.7088 20.7493 34.7553 20.8308 34.8377C20.996 35.0067 20.9917 35.277 20.818 35.4418L18.3956 37.7317ZM17.1683 35.7354C17.1211 35.7354 17.0739 35.7523 17.0396 35.7883C16.9688 35.858 16.9688 35.972 17.0396 36.0439L18.402 37.3873L20.6463 35.2644C20.7193 35.1947 20.7214 35.0806 20.6506 35.0088C20.5798 34.937 20.4639 34.9348 20.391 35.0045L18.4063 36.8825L17.2992 35.7904C17.2606 35.7545 17.2134 35.7354 17.1683 35.7354Z" fill="#1F3040"/>
<path d="M29.3554 34.8821H23.8906V35.5728H29.3554V34.8821Z" fill="white"/>
<path d="M29.4815 35.6932H23.7656V34.7574H29.4815V35.6932ZM24.0145 35.4482H29.2304V35.0046H24.0145V35.4482Z" fill="#1F3040"/>
<path d="M35.451 36.9502H23.8906V37.641H35.451V36.9502Z" fill="white"/>
<path d="M35.5771 37.7634H23.7656V36.8276H35.5771V37.7634ZM24.0145 37.5184H35.326V37.0748H24.0145V37.5184Z" fill="#1F3040"/>
</svg>
