<svg width="73" height="73" viewBox="0 0 73 73" fill="none" xmlns="http://www.w3.org/2000/svg">
<path d="M36.5 72.794C56.6584 72.794 73 56.5984 73 36.6203C73 16.6421 56.6584 0.446533 36.5 0.446533C16.3416 0.446533 0 16.6421 0 36.6203C0 56.5984 16.3416 72.794 36.5 72.794Z" fill="#F3F5FC"/>
<path d="M37.809 34.2835H9.51708C8.38191 34.2835 7.42139 33.2883 7.42139 32.0768V12.5624C7.42139 11.3509 8.33825 10.3557 9.51708 10.3557H37.809C38.9441 10.3557 39.9047 11.3509 39.9047 12.5624V32.0335C39.9047 33.2883 38.9441 34.2835 37.809 34.2835Z" fill="#8A79F7"/>
<path d="M37.8096 34.6297H9.51773C8.16426 34.6297 7.07275 33.4614 7.07275 32.0335V12.5619C7.07275 11.134 8.16426 9.9657 9.51773 9.9657H37.8096C39.1631 9.9657 40.2546 11.134 40.2546 12.5619V32.0335C40.2546 33.4614 39.1631 34.6297 37.8096 34.6297ZM9.51773 10.7013C8.5572 10.7013 7.77132 11.5234 7.77132 12.5619V32.0335C7.77132 33.0719 8.5572 33.8941 9.51773 33.8941H37.8096C38.7701 33.8941 39.556 33.0719 39.556 32.0335V12.5619C39.556 11.5234 38.7701 10.7013 37.8096 10.7013H9.51773Z" fill="#8A79F7"/>
<path d="M23.9256 15.5906H11.2642V17.0616H23.9256V15.5906Z" fill="white"/>
<path d="M36.0632 19.6576H11.2642V21.1293H36.0632V19.6576Z" fill="white"/>
<path d="M36.0632 23.7251H11.2642V25.1968H36.0632V23.7251Z" fill="white"/>
<path d="M36.0632 27.8365H11.2642V29.3076H36.0632V27.8365Z" fill="white"/>
<path d="M64.3547 61.8902H34.9276C33.7488 61.8902 32.7446 60.9382 32.7446 59.7266V40.8601C32.7446 39.6918 33.7052 38.6965 34.9276 38.6965H64.3547C65.5335 38.6965 66.5377 39.6485 66.5377 40.8601V59.7266C66.494 60.9382 65.5335 61.8902 64.3547 61.8902Z" fill="white"/>
<path d="M64.3553 62.2795H34.9283C33.5312 62.2795 32.396 61.1545 32.396 59.7699V40.8608C32.396 39.4761 33.5312 38.3511 34.9283 38.3511H64.3553C65.7525 38.3511 66.8876 39.4761 66.8876 40.8608V59.7266C66.8876 61.1545 65.7525 62.2795 64.3553 62.2795ZM34.9283 39.0867C33.9241 39.0867 33.1382 39.9088 33.1382 40.8608V59.7266C33.1382 60.7218 33.9678 61.5007 34.9283 61.5007H64.3553C65.3595 61.5007 66.1454 60.6785 66.1454 59.7266V40.8608C66.1454 39.8655 65.3159 39.0867 64.3553 39.0867H34.9283Z" fill="#1F3040"/>
<path d="M49.904 43.8033H36.7622V45.2305H49.904V43.8033Z" fill="#1F3040"/>
<path d="M62.5218 47.74H36.7622V49.1685H62.5218V47.74Z" fill="#1F3040"/>
<path d="M62.5218 51.7212H36.7622V53.1497H62.5218V51.7212Z" fill="#1F3040"/>
<path d="M62.5218 55.6593H36.7622V57.0871H62.5218V55.6593Z" fill="#1F3040"/>
<path d="M50.7771 31.7308V30C49.5546 29.9567 48.3758 29.6105 47.6772 29.2211L48.2448 27.1008C49.0307 27.5335 50.0786 27.8797 51.2574 27.8797C52.3052 27.8797 53.0038 27.4902 53.0038 26.7546C53.0038 26.0623 52.4362 25.6296 51.0827 25.1969C49.118 24.5478 47.8082 23.6391 47.8082 21.9083C47.8082 20.3072 48.9434 19.0524 50.9081 18.7062V16.9753H52.6982V18.5764C53.9207 18.6196 54.7502 18.8793 55.3615 19.1822L54.8375 21.2159C54.3573 20.9996 53.5277 20.6101 52.2179 20.6101C51.0391 20.6101 50.6461 21.1294 50.6461 21.6054C50.6461 22.2112 51.301 22.6006 52.8292 23.1631C55.0122 23.942 55.8854 24.9372 55.8854 26.5383C55.8854 28.1393 54.7502 29.524 52.6545 29.8701V31.7308H50.7771Z" fill="#1F3040"/>
<path d="M52.698 31.9035H50.6023V30.1728C49.4672 30.0863 48.2883 29.7834 47.5898 29.394L47.5024 29.3507L48.1137 26.9278L48.2883 27.0143C48.8122 27.3172 49.9038 27.7931 51.2572 27.7931C52.2614 27.7931 52.829 27.447 52.829 26.8412C52.829 26.2787 52.3051 25.8461 50.9953 25.4134C49.4235 24.8942 47.5898 24.0288 47.5898 21.952C47.5898 20.3078 48.7686 19.0098 50.6896 18.6204V16.8896H52.7853V18.4906C53.7895 18.5338 54.6191 18.7502 55.3176 19.0963L55.4486 19.1396L54.8374 21.476L54.5318 21.3462C54.0515 21.1299 53.2656 20.7837 52.0868 20.7837C51.2136 20.7837 50.6896 21.0866 50.6896 21.6491C50.6896 22.125 51.2136 22.4712 52.7853 23.0337C55.012 23.8125 55.9289 24.8509 55.9289 26.5816C55.9289 28.3123 54.6627 29.6536 52.698 30.043V31.9035ZM50.9079 31.5574H52.3487V29.7402L52.4797 29.6969C54.4008 29.3507 55.5796 28.1392 55.5796 26.4951C55.5796 24.9374 54.7501 23.9856 52.6544 23.25C51.0826 22.6875 50.3404 22.2548 50.3404 21.5626C50.3404 21.303 50.4713 20.3943 52.0868 20.3943C53.2656 20.3943 54.0951 20.7405 54.6191 20.9568L55.0557 19.2261C54.3571 18.9232 53.5712 18.7502 52.6107 18.7069H52.4361V17.106H50.9953V18.7934L50.8643 18.8367C49.0306 19.1828 47.8954 20.3511 47.8954 21.9087C47.8954 23.3798 48.8559 24.3317 51.0826 25.0672C52.3051 25.4999 53.1346 25.9326 53.1346 26.798C53.1346 27.5768 52.3924 28.096 51.2136 28.096C49.9474 28.096 48.8996 27.6633 48.2883 27.3604L47.8081 29.1344C48.5503 29.5238 49.6418 29.7834 50.7333 29.8267H50.9079V31.5574Z" fill="#1F3040"/>
</svg>
