<svg width="76" height="76" viewBox="0 0 76 76" fill="none" xmlns="http://www.w3.org/2000/svg">
<mask id="mask0" style="mask-type:alpha" maskUnits="userSpaceOnUse" x="2" y="2" width="72" height="71">
<path d="M37.848 72.8536C57.3322 72.8536 73.1272 57.0586 73.1272 37.5744C73.1272 18.0903 57.3322 2.29523 37.848 2.29523C18.3639 2.29523 2.56882 18.0903 2.56882 37.5744C2.56882 57.0586 18.3639 72.8536 37.848 72.8536Z" fill="#F0ECF8"/>
</mask>
<g mask="url(#mask0)">
<path d="M37.848 72.8536C57.3322 72.8536 73.1272 57.0586 73.1272 37.5744C73.1272 18.0903 57.3322 2.29523 37.848 2.29523C18.3638 2.29523 2.5688 18.0903 2.5688 37.5744C2.5688 57.0586 18.3638 72.8536 37.848 72.8536Z" fill="#F0ECF8"/>
<path d="M52.9112 14.896H14.5464C13.7864 14.896 13.1784 15.504 13.1784 16.264V41.6176C13.1784 42.2256 13.5736 42.7424 14.1208 42.9248C14.1664 42.8336 14.212 42.7424 14.2576 42.6512C13.8168 42.5296 13.4824 42.1192 13.4824 41.6328V16.264C13.4824 15.6712 13.9536 15.2 14.5464 15.2H52.9112C53.504 15.2 53.9752 15.6712 53.9752 16.264V41.6176C53.9752 42.2104 53.504 42.6816 52.9112 42.6816H32.8472C32.908 42.7728 32.9688 42.8792 33.0144 42.9856H52.9112C53.6712 42.9856 54.2792 42.3776 54.2792 41.6176V16.264C54.2792 15.504 53.6712 14.896 52.9112 14.896Z" fill="black"/>
<path d="M31.5553 54.3704L23.2561 54.9024L32.8321 71.896L25.6577 91.7168L34.8689 97.584L34.7777 94.6504C34.7777 94.6504 41.0249 87.8712 45.7825 72.5952C50.5401 57.3192 31.5553 54.3704 31.5553 54.3704Z" fill="#773DBD"/>
<path d="M38.5624 69.8744L32.8928 68.856L31.464 69.4792L32.832 71.896L31.3576 75.9848C31.3576 75.9848 37.4072 78.4472 40.812 85.12C41.0856 84.5576 41.3744 83.9648 41.6632 83.3568C40.736 78.3864 38.5624 69.8744 38.5624 69.8744Z" fill="black"/>
<path d="M64.98 51.5584H38.5776L40.3864 35.72H66.7888L64.98 51.5584Z" fill="#9594D2"/>
<path d="M64.068 50.3576H37.3616L39.2008 34.2152H65.9072L65.892 34.3824L64.068 50.3576ZM37.696 50.0536H63.7944L65.5728 34.5192H39.4744L37.696 50.0536Z" fill="black"/>
<path d="M52.5312 56.2096L53.2152 50.2056H49.0048L48.3056 56.2096H52.5312Z" fill="black"/>
<path d="M53.048 91.3216C53.048 91.3216 51.1936 55.48 26.6152 55.5864L14.9568 58.4592C14.9568 58.4592 12.0536 74.3584 36.328 73.4616L45.1288 96.216L54.6896 92.872L53.048 91.3216Z" fill="#773DBD"/>
<path d="M52.896 91.3216C52.896 91.2304 52.3944 82.2776 48.8984 73.4616C46.8616 68.2936 44.2016 64.1744 41.0096 61.2408C37.0576 57.5928 32.2544 55.7536 26.7368 55.7536C26.6912 55.7536 26.6608 55.7536 26.6152 55.7536V55.4496C26.6608 55.4496 26.6912 55.4496 26.7368 55.4496C32.3304 55.4496 37.2096 57.3192 41.2224 61.028C44.4448 64.0072 47.1352 68.1568 49.1872 73.3704C52.6984 82.232 53.1848 91.2304 53.2 91.3216H52.896Z" fill="black"/>
<path d="M44.9921 96.2616L36.2369 73.6136C35.5985 73.6288 34.9753 73.644 34.3673 73.644C26.4785 73.644 20.8545 71.7592 17.6169 68.02C13.9081 63.7336 14.8049 58.4744 14.8201 58.4288L15.1241 58.4896C15.1089 58.5352 14.2425 63.6576 17.8601 67.8376C21.2953 71.8048 27.5121 73.644 36.3433 73.3096H36.4497L45.2809 96.1704L44.9921 96.2616Z" fill="black"/>
<path d="M25.9313 29.26V33.592L20.5809 34.8992V27.6032L25.9313 26.2808V29.26Z" fill="white"/>
<path d="M22.9064 30.7496C22.982 30.7496 23.0432 30.6884 23.0432 30.6128C23.0432 30.5373 22.982 30.476 22.9064 30.476C22.8309 30.476 22.7696 30.5373 22.7696 30.6128C22.7696 30.6884 22.8309 30.7496 22.9064 30.7496Z" fill="black"/>
<path d="M25.1104 30.7496C25.186 30.7496 25.2472 30.6884 25.2472 30.6128C25.2472 30.5373 25.186 30.476 25.1104 30.476C25.0349 30.476 24.9736 30.5373 24.9736 30.6128C24.9736 30.6884 25.0349 30.7496 25.1104 30.7496Z" fill="black"/>
<path d="M24.6241 31.464H24.3201V29.108H25.5665V29.412H24.6241V31.464Z" fill="black"/>
<path d="M23.7425 29.108H22.6329V29.412H23.7425V29.108Z" fill="black"/>
<path d="M20.9304 30.3848V31.16C20.52 31.16 20.1856 30.8256 20.1856 30.4152C20.1856 30.3848 20.1856 30.3696 20.1856 30.3544C20.216 29.868 20.9304 29.9136 20.9304 30.3848Z" fill="white"/>
<path d="M20.9304 31.1599C20.52 31.1599 20.1856 30.8255 20.1856 30.4151L20.9304 31.1599Z" fill="white"/>
<path d="M23.9857 32.1176C23.5145 32.1176 23.1193 31.7376 23.1193 31.2512H23.3169C23.3169 31.616 23.6057 31.9048 23.9705 31.9048V32.1176H23.9857Z" fill="#773DBD"/>
<path d="M25.8905 33.4428L20.5323 34.7598L20.6049 35.055L25.963 33.738L25.8905 33.4428Z" fill="black"/>
<path d="M23.9856 31.7376C23.9248 31.7376 23.8488 31.692 23.8336 31.616C23.8184 31.54 23.864 31.4488 23.94 31.4336L24.4264 31.312C24.5024 31.2968 24.5936 31.3424 24.6088 31.4184C24.624 31.4944 24.5784 31.5856 24.5024 31.6008L24.016 31.7224C24.0008 31.7376 23.9856 31.7376 23.9856 31.7376Z" fill="black"/>
<path d="M31.5552 42.6665V54.3857L14.9568 58.4593V45.4177C14.9568 40.7968 18.1184 36.7689 22.6024 35.6593C27.1624 34.5344 31.5552 37.9697 31.5552 42.6665Z" fill="white"/>
<path d="M21.0369 30.1112L20.8089 29.9136C20.8089 29.9136 21.3713 29.2905 21.6297 28.2417L21.6753 28.0897L21.8273 28.1353C21.8577 28.1505 24.9281 29.1233 26.1441 27.4817C26.6761 26.7673 26.4481 26.0833 26.1745 25.6121C26.1593 25.5817 26.1137 25.5665 26.0833 25.5665C26.0681 25.5665 26.0377 25.5665 26.0225 25.5969C25.8705 25.8705 25.5209 26.1137 24.6849 25.8097C23.8945 25.5057 22.5265 25.4905 21.6297 25.9617C21.1889 26.1897 20.9001 26.5241 20.7937 26.9193L20.7785 27.0105L20.6873 27.0408C20.6721 27.0408 20.2161 27.1777 20.0185 27.6641C19.8057 28.2113 19.9729 29.0017 20.5201 29.9592L20.2617 30.1112C19.6537 29.0473 19.4865 28.196 19.7449 27.5424C19.9425 27.0561 20.3529 26.8433 20.5201 26.7673C20.6569 26.3113 20.9913 25.9465 21.4929 25.6881C22.4809 25.1865 23.9401 25.2017 24.8065 25.5209C25.1561 25.6425 25.5969 25.7337 25.7641 25.4449C25.8249 25.3233 25.9465 25.2625 26.0833 25.2625C26.2353 25.2625 26.3569 25.3385 26.4329 25.4601C26.7065 25.9009 27.0409 26.7673 26.3873 27.6641C25.8249 28.4241 24.8369 28.8041 23.5297 28.7433C22.8001 28.7129 22.1617 28.5609 21.8881 28.4697C21.5993 29.488 21.0673 30.0809 21.0369 30.1112Z" fill="black"/>
<path d="M66.1201 56.0576H29.9897V56.3616H66.1201V56.0576Z" fill="black"/>
<path d="M17.632 58.7936C15.2304 58.7936 13.072 58.3528 11.6888 57.228C10.2752 56.088 9.78883 54.34 10.2144 52.06C11.9168 43.0312 18.7568 37.3312 18.8328 37.2704L19.0304 37.4984C18.9696 37.5592 12.2056 43.1832 10.5184 52.1056C10.108 54.264 10.564 55.9056 11.8864 56.9848C13.8472 58.5808 17.2672 58.6264 19.8056 58.368C22.724 58.0792 26.068 57.2584 28.728 56.164L28.8496 56.4376C25.7944 57.7144 21.4016 58.7936 17.632 58.7936Z" fill="black"/>
<path d="M33.9416 55.6168C33.7744 54.5224 33.1968 53.6256 32.224 52.9264C28.0136 49.9168 17.7384 51.6952 17.632 51.7104L17.5864 51.4064C17.6168 51.4064 20.2312 50.9504 23.3472 50.8744C27.5424 50.768 30.5976 51.376 32.4064 52.6832C33.44 53.428 34.0632 54.4008 34.2456 55.5712L33.9416 55.6168Z" fill="black"/>
<path d="M40.356 55.5864C40.28 54.0512 39.4288 52.9264 37.8328 52.2576C36.6168 51.7408 35.416 51.6952 35.4008 51.6952H35.2792L35.264 51.5736C34.0024 42.5752 29.2296 37.544 29.184 37.4984L29.3968 37.2856C29.4424 37.3312 34.2456 42.3776 35.5376 51.4064C36.328 51.4672 40.4776 51.9688 40.66 55.5712L40.356 55.5864Z" fill="black"/>
<path d="M54.036 18.8328H13.2544V19.1368H54.036V18.8328Z" fill="black"/>
<path d="M16.2792 18.0424C15.7928 18.0424 15.3824 17.6472 15.3824 17.1456C15.3824 16.644 15.7776 16.2488 16.2792 16.2488C16.7808 16.2488 17.176 16.644 17.176 17.1456C17.176 17.6472 16.7656 18.0424 16.2792 18.0424ZM16.2792 16.5528C15.96 16.5528 15.6864 16.8112 15.6864 17.1456C15.6864 17.48 15.9448 17.7384 16.2792 17.7384C16.6136 17.7384 16.872 17.48 16.872 17.1456C16.872 16.8112 16.5984 16.5528 16.2792 16.5528Z" fill="black"/>
<path d="M19.0761 18.0424C18.8633 18.0424 18.6657 17.9664 18.4985 17.8296C18.3161 17.6776 18.2097 17.4648 18.1793 17.2216C18.1337 16.7352 18.4985 16.2944 19.0001 16.2488C19.4865 16.2032 19.9273 16.568 19.9729 17.0696C19.9881 17.3128 19.9121 17.5408 19.7601 17.7232C19.6081 17.9056 19.3953 18.012 19.1521 18.0424C19.1217 18.0424 19.0913 18.0424 19.0761 18.0424ZM19.0761 16.5528C19.0609 16.5528 19.0457 16.5528 19.0305 16.5528C18.7113 16.5832 18.4681 16.872 18.4833 17.1912C18.4985 17.3432 18.5745 17.4952 18.6961 17.5864C18.8177 17.6928 18.9697 17.7384 19.1217 17.7232C19.2737 17.708 19.4257 17.632 19.5169 17.5104C19.6233 17.3888 19.6689 17.2368 19.6537 17.0848C19.6385 16.796 19.3801 16.5528 19.0761 16.5528Z" fill="black"/>
<path d="M21.8576 18.0424C21.6448 18.0424 21.4472 17.9664 21.28 17.8296C21.0976 17.6776 20.9912 17.4648 20.9608 17.2216C20.9152 16.7352 21.28 16.2944 21.7816 16.2488C22.268 16.2032 22.7088 16.568 22.7544 17.0696C22.7696 17.3128 22.6936 17.5408 22.5416 17.7232C22.3896 17.9056 22.1768 18.012 21.9336 18.0424C21.9184 18.0424 21.888 18.0424 21.8576 18.0424ZM21.8728 16.5528C21.8576 16.5528 21.8424 16.5528 21.8272 16.5528C21.508 16.5832 21.2648 16.872 21.28 17.1912C21.2952 17.3432 21.3712 17.4952 21.4928 17.5864C21.6144 17.6928 21.7664 17.7384 21.9184 17.7232C22.0704 17.708 22.2224 17.632 22.3136 17.5104C22.42 17.3888 22.4656 17.2368 22.4504 17.0848C22.4352 16.796 22.1768 16.5528 21.8728 16.5528Z" fill="black"/>
<path d="M47.1809 23.8336C45.8889 23.8336 44.8401 24.8824 44.8401 26.1744C44.8401 27.4664 45.8889 28.5152 47.1809 28.5152C48.4729 28.5152 49.5216 27.4664 49.5216 26.1744C49.5368 24.8824 48.4881 23.8336 47.1809 23.8336ZM48.1993 25.612L47.1353 27.0256C47.0897 27.0864 47.0289 27.1168 46.9529 27.1168C46.8769 27.1168 46.8161 27.0864 46.7705 27.0256L46.1929 26.296C46.1169 26.1896 46.1321 26.0528 46.2385 25.9616C46.3449 25.8856 46.4817 25.9008 46.5729 26.0072L46.9529 26.4936L47.8345 25.3232C47.9105 25.2168 48.0625 25.2016 48.1689 25.2776C48.2601 25.3536 48.2753 25.5056 48.1993 25.612Z" fill="#773DBD"/>
</g>
</svg>
