<svg width="207" height="41" viewBox="0 0 207 41" fill="none" xmlns="http://www.w3.org/2000/svg">
<path d="M20.8218 21.0702C20.8183 19.2072 21.3588 17.385 22.375 15.8345C23.3912 14.284 24.8373 13.0749 26.5301 12.3603C28.223 11.6457 30.0864 11.4578 31.8844 11.8203C33.6824 12.1829 35.334 13.0797 36.6302 14.397C37.9263 15.7143 38.8087 17.393 39.1654 19.2204C39.5222 21.0478 39.3373 22.9416 38.6342 24.6621C37.9311 26.3826 36.7414 27.8523 35.2158 28.8851C33.6902 29.9179 31.8973 30.4673 30.0643 30.4637C28.847 30.4768 27.6393 30.2428 26.5122 29.7754C25.385 29.308 24.361 28.6165 23.5001 27.7416C22.6393 26.8667 21.959 25.826 21.4991 24.6804C21.0392 23.5348 20.8089 22.3074 20.8218 21.0702V21.0702ZM34.8265 21.0702C34.8265 18.1894 32.7631 16.1612 30.0643 16.1612C27.3654 16.1612 25.3413 18.1676 25.3413 21.0702C25.3413 23.9728 27.4047 25.9828 30.0643 25.9828C32.7239 25.9828 34.8265 23.9474 34.8265 21.0702Z" fill="white"/>
<path d="M58.5412 19.0347V29.9594H54.0252V19.6189C54.0252 17.1988 52.5973 15.9543 50.5589 15.9543C48.3563 15.9543 46.7105 17.2714 46.7105 20.3663V29.9594H42.1946V12.181H46.7105V14.1765C47.7601 12.5728 49.5664 11.6839 51.9261 11.6839C55.6353 11.6694 58.5412 14.3035 58.5412 19.0347Z" fill="white"/>
<path d="M68.1019 11.9994V12.1808H71.811V16.5928H68.1019V29.9593H63.5859V16.5819H61.0656V12.17H63.5859V11.9994C63.5859 7.09041 66.2455 4.20958 71.7967 4.56515V8.9771C69.4656 8.78843 68.1019 9.57213 68.1019 11.9994Z" fill="white"/>
<path d="M79.4 12.1699H74.884V29.9592H79.4V12.1699Z" fill="white"/>
<path d="M79.2613 10.2143L81.571 5.05493H76.3911L74.9203 10.2143H79.2613Z" fill="white"/>
<path d="M82.6345 21.0702C82.631 19.2072 83.1716 17.385 84.1878 15.8345C85.2039 14.284 86.65 13.0749 88.3429 12.3603C90.0357 11.6457 91.8991 11.4578 93.6971 11.8203C95.4951 12.1829 97.1468 13.0797 98.4429 14.397C99.7391 15.7143 100.621 17.393 100.978 19.2204C101.335 21.0478 101.15 22.9416 100.447 24.6621C99.7438 26.3826 98.5541 27.8523 97.0285 28.8851C95.5029 29.9179 93.7101 30.4673 91.877 30.4637C90.6597 30.4768 89.452 30.2428 88.3249 29.7754C87.1977 29.308 86.1737 28.6165 85.3128 27.7416C84.452 26.8667 83.7717 25.826 83.3118 24.6804C82.8519 23.5348 82.6216 22.3074 82.6345 21.0702ZM96.6393 21.0702C96.6393 18.1894 94.5723 16.1612 91.877 16.1612C89.1818 16.1612 87.1398 18.1676 87.1398 21.0702C87.1398 23.9728 89.2032 25.9828 91.8663 25.9828C94.5295 25.9828 96.6285 23.9474 96.6285 21.0702H96.6393Z" fill="white"/>
<path d="M5.52468 4.55371H0.780273V29.9587H5.52468V4.55371Z" fill="white"/>
<path d="M19.3937 4.55396C19.1295 7.55089 18.5012 9.87296 17.4802 11.756C16.4237 13.6762 14.8852 15.2775 13.0214 16.3966C12.6395 16.6396 12.4503 16.8682 12.4503 17.0859C12.4503 17.3036 12.6395 17.4487 13.0214 17.7027C14.8704 18.8102 16.4254 20.3595 17.5516 22.2163C18.694 24.0909 19.4663 26.6718 19.8685 29.959H14.7171C14.6219 27.3466 14.146 25.3221 13.2892 23.8853C12.4324 22.4485 11.0889 21.2463 9.25876 20.2788C7.78558 19.5072 7.0478 18.5517 7.04542 17.4125C7.04304 16.2732 7.75702 15.1376 9.18736 14.0055C11.1151 12.5083 12.4348 11.1126 13.1464 9.81854C13.8604 8.52325 14.2173 6.85064 14.253 4.55396H19.3937Z" fill="white"/>
<path d="M99.5454 7.69992C99.5454 7.10431 99.7192 6.52208 100.045 6.02685C100.37 5.53162 100.833 5.14564 101.375 4.91771C101.916 4.68978 102.512 4.63014 103.087 4.74634C103.661 4.86254 104.189 5.14935 104.604 5.5705C105.018 5.99166 105.3 6.52826 105.415 7.11242C105.529 7.69658 105.47 8.30208 105.246 8.85235C105.022 9.40262 104.642 9.87295 104.155 10.2039C103.667 10.5348 103.094 10.7114 102.508 10.7114C102.119 10.7118 101.734 10.6343 101.374 10.4831C101.014 10.3319 100.687 10.1101 100.412 9.8304C100.137 9.55066 99.9188 9.21849 99.77 8.85291C99.6213 8.48733 99.5449 8.09552 99.5454 7.69992V7.69992Z" fill="#58C179"/>
<path opacity="0.3" d="M126.78 1V34" stroke="white" stroke-width="1.48397" stroke-miterlimit="10" stroke-linecap="round"/>
<path d="M152.651 5.818C151.559 5.818 150.733 6.266 150.201 7.008V6H148.689V15.8H150.201V12.006C150.733 12.734 151.559 13.182 152.651 13.182C154.555 13.182 156.137 11.586 156.137 9.5C156.137 7.428 154.555 5.818 152.651 5.818ZM152.413 11.74C151.153 11.74 150.201 10.802 150.201 9.5C150.201 8.198 151.153 7.26 152.413 7.26C153.673 7.26 154.625 8.198 154.625 9.5C154.625 10.802 153.673 11.74 152.413 11.74ZM163.051 6V6.994C162.519 6.266 161.693 5.818 160.601 5.818C158.697 5.818 157.115 7.414 157.115 9.5C157.115 11.572 158.697 13.182 160.601 13.182C161.693 13.182 162.519 12.734 163.051 11.992V13H164.563V6H163.051ZM160.839 11.74C159.579 11.74 158.627 10.802 158.627 9.5C158.627 8.198 159.579 7.26 160.839 7.26C162.099 7.26 163.051 8.198 163.051 9.5C163.051 10.802 162.099 11.74 160.839 11.74ZM171.897 6V7.036C171.365 6.28 170.539 5.818 169.461 5.818C167.487 5.818 165.933 7.428 165.933 9.43C165.933 11.432 167.487 13.042 169.461 13.042C170.539 13.042 171.365 12.58 171.897 11.824V12.678C171.897 13.896 171.113 14.61 169.811 14.61C168.593 14.61 168.075 14.134 167.767 13.532L166.465 14.288C167.053 15.408 168.243 15.982 169.783 15.982C171.617 15.982 173.381 14.932 173.381 12.678V6H171.897ZM169.671 11.628C168.397 11.628 167.445 10.69 167.445 9.43C167.445 8.17 168.397 7.232 169.671 7.232C170.945 7.232 171.897 8.17 171.897 9.43C171.897 10.69 170.945 11.628 169.671 11.628ZM178.448 13.182C180.506 13.182 182.144 11.572 182.144 9.5C182.144 7.414 180.506 5.818 178.448 5.818C176.404 5.818 174.752 7.414 174.752 9.5C174.752 11.572 176.404 13.182 178.448 13.182ZM178.448 11.712C177.216 11.712 176.264 10.774 176.264 9.5C176.264 8.226 177.216 7.288 178.448 7.288C179.68 7.288 180.632 8.226 180.632 9.5C180.632 10.774 179.68 11.712 178.448 11.712ZM184.732 7.932C184.732 7.428 185.208 7.19 185.754 7.19C186.328 7.19 186.818 7.442 187.07 7.988L188.344 7.274C187.854 6.35 186.902 5.818 185.754 5.818C184.326 5.818 183.192 6.644 183.192 7.96C183.192 10.466 186.958 9.766 186.958 11.012C186.958 11.572 186.44 11.796 185.768 11.796C184.998 11.796 184.438 11.418 184.214 10.788L182.912 11.544C183.36 12.552 184.368 13.182 185.768 13.182C187.28 13.182 188.498 12.426 188.498 11.026C188.498 8.436 184.732 9.206 184.732 7.932Z" fill="#58C179"/>
<path d="M149.781 24.9718C149.781 24.3418 150.397 24.0338 151.027 24.0338C151.643 24.0338 152.259 24.2998 152.525 24.9298L153.547 24.3558C153.099 23.4458 152.175 22.8998 151.027 22.8998C149.613 22.8998 148.549 23.7538 148.549 24.9858C148.549 27.5198 152.469 26.6658 152.469 28.1638C152.469 28.8498 151.825 29.1158 151.083 29.1158C150.215 29.1158 149.571 28.6958 149.347 28.0238L148.297 28.6258C148.703 29.5918 149.683 30.2638 151.083 30.2638C152.581 30.2638 153.701 29.4658 153.701 28.1638C153.701 25.5878 149.781 26.4698 149.781 24.9718ZM156.361 24.2578V23.0818H155.143V30.0818H156.361V26.3718C156.361 24.7198 157.495 24.1878 158.545 24.2298V22.9558C157.663 22.9558 156.809 23.2778 156.361 24.2578ZM159.508 30.2358C160.026 30.2358 160.418 29.8298 160.418 29.3258C160.418 28.8218 160.026 28.4158 159.508 28.4158C159.004 28.4158 158.598 28.8218 158.598 29.3258C158.598 29.8298 159.004 30.2358 159.508 30.2358ZM166.007 22.8998C164.817 22.8998 163.921 23.4318 163.361 24.2858V23.0818H162.143V32.8818H163.361V28.8778C163.921 29.7318 164.817 30.2638 166.007 30.2638C167.953 30.2638 169.549 28.6538 169.549 26.5818C169.549 24.5098 167.953 22.8998 166.007 22.8998ZM165.853 29.0878C164.439 29.0878 163.361 28.0098 163.361 26.5818C163.361 25.1538 164.439 24.0758 165.853 24.0758C167.253 24.0758 168.331 25.1538 168.331 26.5818C168.331 28.0098 167.253 29.0878 165.853 29.0878ZM176.798 23.0818V24.2858C176.238 23.4318 175.342 22.8998 174.152 22.8998C172.206 22.8998 170.61 24.5098 170.61 26.5818C170.61 28.6538 172.206 30.2638 174.152 30.2638C175.342 30.2638 176.238 29.7318 176.798 28.8778V30.0818H178.016V23.0818H176.798ZM174.306 29.0878C172.906 29.0878 171.828 28.0098 171.828 26.5818C171.828 25.1538 172.906 24.0758 174.306 24.0758C175.72 24.0758 176.798 25.1538 176.798 26.5818C176.798 28.0098 175.72 29.0878 174.306 29.0878ZM185.672 23.0818V24.2858C185.112 23.4318 184.216 22.8998 183.04 22.8998C181.052 22.8998 179.47 24.5098 179.47 26.5398C179.47 28.5838 181.052 30.1938 183.04 30.1938C184.216 30.1938 185.112 29.6478 185.672 28.7938V29.7878C185.672 31.1038 184.79 31.9298 183.334 31.9298C181.962 31.9298 181.374 31.4118 181.052 30.7538L179.988 31.3558C180.562 32.4618 181.738 33.0638 183.306 33.0638C185.126 33.0638 186.876 31.9718 186.876 29.7878V23.0818H185.672ZM183.18 29.0318C181.766 29.0318 180.688 27.9538 180.688 26.5398C180.688 25.1398 181.766 24.0618 183.18 24.0618C184.594 24.0618 185.672 25.1398 185.672 26.5398C185.672 27.9538 184.594 29.0318 183.18 29.0318ZM192.011 30.2638C194.055 30.2638 195.707 28.6538 195.707 26.5818C195.707 24.5098 194.055 22.8998 192.011 22.8998C189.967 22.8998 188.329 24.5098 188.329 26.5818C188.329 28.6538 189.967 30.2638 192.011 30.2638ZM192.011 29.0738C190.625 29.0738 189.547 27.9958 189.547 26.5818C189.547 25.1678 190.625 24.0898 192.011 24.0898C193.411 24.0898 194.489 25.1678 194.489 26.5818C194.489 27.9958 193.411 29.0738 192.011 29.0738Z" fill="white"/>
</svg>
