<svg width="279" height="35" viewBox="0 0 279 35" fill="none" xmlns="http://www.w3.org/2000/svg">
<path d="M20.5415 21.0697C20.538 19.2067 21.0786 17.3846 22.0947 15.834C23.1109 14.2835 24.557 13.0744 26.2498 12.3598C27.9427 11.6452 29.8061 11.4573 31.6041 11.8199C33.4021 12.1824 35.0538 13.0792 36.3499 14.3965C37.6461 15.7139 38.5284 17.3925 38.8851 19.2199C39.2419 21.0473 39.057 22.9411 38.3539 24.6616C37.6508 26.3821 36.4611 27.8519 34.9355 28.8846C33.4099 29.9174 31.6171 30.4668 29.784 30.4632C28.5667 30.4764 27.3591 30.2423 26.2319 29.7749C25.1047 29.3075 24.0807 28.616 23.2199 27.7412C22.359 26.8663 21.6787 25.8255 21.2188 24.6799C20.7589 23.5343 20.5286 22.3069 20.5415 21.0697V21.0697ZM34.5463 21.0697C34.5463 18.1889 32.4829 16.1607 29.784 16.1607C27.0852 16.1607 25.061 18.1671 25.061 21.0697C25.061 23.9723 27.1244 25.9824 29.784 25.9824C32.4436 25.9824 34.5463 23.9469 34.5463 21.0697Z" fill="white"/>
<path d="M58.2609 19.0342V29.9588H53.745V19.6183C53.745 17.1983 52.317 15.9538 50.2786 15.9538C48.076 15.9538 46.4302 17.2708 46.4302 20.3657V29.9588H41.9143V12.1804H46.4302V14.176C47.4798 12.5723 49.2862 11.6833 51.6459 11.6833C55.355 11.6688 58.2609 14.3029 58.2609 19.0342Z" fill="white"/>
<path d="M67.8215 11.999V12.1804H71.5306V16.5924H67.8215V29.9588H63.3055V16.5815H60.7852V12.1695H63.3055V11.999C63.3055 7.08998 65.9651 4.20915 71.5163 4.56472V8.97667C69.1852 8.788 67.8215 9.5717 67.8215 11.999Z" fill="white"/>
<path d="M79.1197 12.1694H74.6038V29.9587H79.1197V12.1694Z" fill="white"/>
<path d="M78.9809 10.2138L81.2906 5.05438H76.1107L74.6399 10.2138H78.9809Z" fill="white"/>
<path d="M82.3543 21.0697C82.3507 19.2067 82.8913 17.3846 83.9075 15.834C84.9237 14.2835 86.3698 13.0744 88.0626 12.3598C89.7554 11.6452 91.6188 11.4573 93.4168 11.8199C95.2148 12.1824 96.8665 13.0792 98.1626 14.3965C99.4588 15.7139 100.341 17.3925 100.698 19.2199C101.055 21.0473 100.87 22.9411 100.167 24.6616C99.4635 26.3821 98.2738 27.8519 96.7482 28.8846C95.2227 29.9174 93.4298 30.4668 91.5968 30.4632C90.3794 30.4764 89.1718 30.2423 88.0446 29.7749C86.9174 29.3075 85.8934 28.616 85.0326 27.7412C84.1717 26.8663 83.4915 25.8255 83.0316 24.6799C82.5717 23.5343 82.3414 22.3069 82.3543 21.0697ZM96.359 21.0697C96.359 18.1889 94.292 16.1607 91.5968 16.1607C88.9015 16.1607 86.8595 18.1671 86.8595 21.0697C86.8595 23.9723 88.9229 25.9824 91.586 25.9824C94.2492 25.9824 96.3483 23.9469 96.3483 21.0697H96.359Z" fill="white"/>
<path d="M5.2444 4.55383H0.5V29.9588H5.2444V4.55383Z" fill="white"/>
<path d="M19.1134 4.55365C18.8493 7.55058 18.221 9.87266 17.2 11.7557C16.1434 13.6759 14.6049 15.2772 12.7412 16.3963C12.3592 16.6393 12.17 16.8679 12.17 17.0856C12.17 17.3033 12.3592 17.4484 12.7412 17.7024C14.5901 18.8099 16.1451 20.3592 17.2714 22.216C18.4137 24.0906 19.186 26.6715 19.5883 29.9587H14.4369C14.3417 27.3463 13.8657 25.3218 13.0089 23.885C12.1521 22.4482 10.8087 21.246 8.97849 20.2785C7.50531 19.5069 6.76752 18.5514 6.76514 17.4122C6.76276 16.2729 7.47674 15.1372 8.90709 14.0052C10.8348 12.508 12.1545 11.1123 12.8661 9.81823C13.5801 8.52295 13.9371 6.85033 13.9728 4.55365H19.1134Z" fill="white"/>
<path d="M99.2651 7.69937C99.2651 7.10376 99.4389 6.52153 99.7645 6.0263C100.09 5.53107 100.553 5.14509 101.094 4.91716C101.636 4.68923 102.231 4.6296 102.806 4.74579C103.381 4.86199 103.909 5.1488 104.323 5.56995C104.738 5.99111 105.02 6.52771 105.134 7.11187C105.249 7.69604 105.19 8.30153 104.966 8.8518C104.741 9.40207 104.362 9.8724 103.874 10.2033C103.387 10.5342 102.814 10.7108 102.228 10.7108C101.839 10.7113 101.453 10.6337 101.094 10.4826C100.734 10.3314 100.407 10.1096 100.132 9.82985C99.8567 9.55011 99.6385 9.21795 99.4897 8.85236C99.341 8.48678 99.2647 8.09497 99.2651 7.69937V7.69937Z" fill="#F8A276"/>
<path opacity="0.3" d="M126.5 0.999512V33.9995" stroke="white" stroke-width="1.48397" stroke-miterlimit="10" stroke-linecap="round"/>
<path d="M152.759 7.456V6H151.023V4.04L149.511 4.488V6H148.223V7.456H149.511V10.816C149.511 12.636 150.435 13.28 152.759 13V11.642C151.611 11.698 151.023 11.712 151.023 10.816V7.456H152.759ZM159.388 6V6.994C158.856 6.266 158.03 5.818 156.938 5.818C155.034 5.818 153.452 7.414 153.452 9.5C153.452 11.572 155.034 13.182 156.938 13.182C158.03 13.182 158.856 12.734 159.388 11.992V13H160.9V6H159.388ZM157.176 11.74C155.916 11.74 154.964 10.802 154.964 9.5C154.964 8.198 155.916 7.26 157.176 7.26C158.436 7.26 159.388 8.198 159.388 9.5C159.388 10.802 158.436 11.74 157.176 11.74ZM164.174 7.176V6H162.662V13H164.174V9.472C164.174 7.904 165.336 7.442 166.33 7.512V5.874C165.448 5.874 164.594 6.224 164.174 7.176ZM168.469 4.95C169.001 4.95 169.435 4.502 169.435 3.984C169.435 3.452 169.001 3.018 168.469 3.018C167.937 3.018 167.503 3.452 167.503 3.984C167.503 4.502 167.937 4.95 168.469 4.95ZM167.713 13.28C167.713 14.26 167.279 14.61 166.355 14.526V15.982C168.273 16.122 169.225 15.212 169.225 13.28V6H167.713V13.28ZM172.178 10.144H177.75C177.778 9.948 177.806 9.724 177.806 9.514C177.806 7.498 176.378 5.818 174.292 5.818C172.094 5.818 170.596 7.428 170.596 9.5C170.596 11.6 172.094 13.182 174.404 13.182C175.776 13.182 176.826 12.608 177.47 11.656L176.224 10.928C175.888 11.418 175.258 11.796 174.418 11.796C173.298 11.796 172.416 11.236 172.178 10.144ZM172.164 8.912C172.374 7.862 173.144 7.19 174.278 7.19C175.188 7.19 176.07 7.708 176.28 8.912H172.164ZM182.824 7.456V6H181.088V4.04L179.576 4.488V6H178.288V7.456H179.576V10.816C179.576 12.636 180.5 13.28 182.824 13V11.642C181.676 11.698 181.088 11.712 181.088 10.816V7.456H182.824ZM189.452 6V6.994C188.92 6.266 188.094 5.818 187.002 5.818C185.098 5.818 183.516 7.414 183.516 9.5C183.516 11.572 185.098 13.182 187.002 13.182C188.094 13.182 188.92 12.734 189.452 11.992V13H190.964V6H189.452ZM187.24 11.74C185.98 11.74 185.028 10.802 185.028 9.5C185.028 8.198 185.98 7.26 187.24 7.26C188.5 7.26 189.452 8.198 189.452 9.5C189.452 10.802 188.5 11.74 187.24 11.74ZM201.77 3.2V6.994C201.238 6.266 200.412 5.818 199.32 5.818C197.416 5.818 195.834 7.414 195.834 9.5C195.834 11.572 197.416 13.182 199.32 13.182C200.412 13.182 201.238 12.734 201.77 11.992V13H203.282V3.2H201.77ZM199.558 11.74C198.298 11.74 197.346 10.802 197.346 9.5C197.346 8.198 198.298 7.26 199.558 7.26C200.818 7.26 201.77 8.198 201.77 9.5C201.77 10.802 200.818 11.74 199.558 11.74ZM206.235 10.144H211.807C211.835 9.948 211.863 9.724 211.863 9.514C211.863 7.498 210.435 5.818 208.349 5.818C206.151 5.818 204.653 7.428 204.653 9.5C204.653 11.6 206.151 13.182 208.461 13.182C209.833 13.182 210.883 12.608 211.527 11.656L210.281 10.928C209.945 11.418 209.315 11.796 208.475 11.796C207.355 11.796 206.473 11.236 206.235 10.144ZM206.221 8.912C206.431 7.862 207.201 7.19 208.335 7.19C209.245 7.19 210.127 7.708 210.337 8.912H206.221ZM219.997 13.182C221.369 13.182 222.559 12.468 223.147 11.362L221.845 10.62C221.509 11.264 220.823 11.698 219.983 11.698C218.751 11.698 217.813 10.76 217.813 9.5C217.813 8.24 218.751 7.302 219.983 7.302C220.823 7.302 221.509 7.722 221.817 8.38L223.119 7.624C222.559 6.532 221.369 5.818 219.997 5.818C217.883 5.818 216.301 7.414 216.301 9.5C216.301 11.572 217.883 13.182 219.997 13.182ZM225.793 7.176V6H224.281V13H225.793V9.472C225.793 7.904 226.955 7.442 227.949 7.512V5.874C227.067 5.874 226.213 6.224 225.793 7.176ZM233.918 3.158H232.098L230.978 5.048H232.434L233.918 3.158ZM229.928 10.144H235.5C235.528 9.948 235.556 9.724 235.556 9.514C235.556 7.498 234.128 5.818 232.042 5.818C229.844 5.818 228.346 7.428 228.346 9.5C228.346 11.6 229.844 13.182 232.154 13.182C233.526 13.182 234.576 12.608 235.22 11.656L233.974 10.928C233.638 11.418 233.008 11.796 232.168 11.796C231.048 11.796 230.166 11.236 229.928 10.144ZM229.914 8.912C230.124 7.862 230.894 7.19 232.028 7.19C232.938 7.19 233.82 7.708 234.03 8.912H229.914ZM242.39 3.2V6.994C241.858 6.266 241.032 5.818 239.94 5.818C238.036 5.818 236.454 7.414 236.454 9.5C236.454 11.572 238.036 13.182 239.94 13.182C241.032 13.182 241.858 12.734 242.39 11.992V13H243.902V3.2H242.39ZM240.178 11.74C238.918 11.74 237.966 10.802 237.966 9.5C237.966 8.198 238.918 7.26 240.178 7.26C241.438 7.26 242.39 8.198 242.39 9.5C242.39 10.802 241.438 11.74 240.178 11.74ZM246.42 4.95C246.952 4.95 247.386 4.502 247.386 3.984C247.386 3.452 246.952 3.018 246.42 3.018C245.888 3.018 245.454 3.452 245.454 3.984C245.454 4.502 245.888 4.95 246.42 4.95ZM245.664 13H247.176V6H245.664V13ZM252.838 7.456V6H251.102V4.04L249.59 4.488V6H248.302V7.456H249.59V10.816C249.59 12.636 250.514 13.28 252.838 13V11.642C251.69 11.698 251.102 11.712 251.102 10.816V7.456H252.838ZM257.226 13.182C259.284 13.182 260.922 11.572 260.922 9.5C260.922 7.414 259.284 5.818 257.226 5.818C255.182 5.818 253.53 7.414 253.53 9.5C253.53 11.572 255.182 13.182 257.226 13.182ZM257.226 11.712C255.994 11.712 255.042 10.774 255.042 9.5C255.042 8.226 255.994 7.288 257.226 7.288C258.458 7.288 259.41 8.226 259.41 9.5C259.41 10.774 258.458 11.712 257.226 11.712Z" fill="#F8A276"/>
<path d="M152.703 24.3346V23.1586H150.841V21.1986L149.623 21.5626V23.1586H148.237V24.3346H149.623V28.1286C149.623 29.8786 150.603 30.4386 152.703 30.1586V29.0666C151.457 29.1226 150.841 29.1926 150.841 28.1286V24.3346H152.703ZM159.586 23.1586V24.3626C159.026 23.5086 158.13 22.9766 156.94 22.9766C154.994 22.9766 153.398 24.5866 153.398 26.6586C153.398 28.7306 154.994 30.3406 156.94 30.3406C158.13 30.3406 159.026 29.8086 159.586 28.9546V30.1586H160.804V23.1586H159.586ZM157.094 29.1646C155.694 29.1646 154.616 28.0866 154.616 26.6586C154.616 25.2306 155.694 24.1526 157.094 24.1526C158.508 24.1526 159.586 25.2306 159.586 26.6586C159.586 28.0866 158.508 29.1646 157.094 29.1646ZM163.867 24.3346V23.1586H162.649V30.1586H163.867V26.4486C163.867 24.7966 165.001 24.2646 166.051 24.3066V23.0326C165.169 23.0326 164.315 23.3546 163.867 24.3346ZM168.167 21.8846C168.615 21.8846 168.979 21.5206 168.979 21.0726C168.979 20.6246 168.615 20.2466 168.167 20.2466C167.705 20.2466 167.341 20.6246 167.341 21.0726C167.341 21.5206 167.705 21.8846 168.167 21.8846ZM167.551 30.5786C167.551 31.6706 167.075 32.0486 166.067 31.9646V33.1406C167.831 33.2666 168.769 32.3846 168.769 30.5786V23.1586H167.551V30.5786ZM171.474 27.2186H177.34C177.368 27.0366 177.382 26.8546 177.382 26.6726C177.382 24.7126 176.01 22.9766 173.896 22.9766C171.712 22.9766 170.228 24.5866 170.228 26.6586C170.228 28.7586 171.726 30.3406 173.98 30.3406C175.38 30.3406 176.444 29.7106 177.06 28.7586L176.024 28.1706C175.674 28.7446 174.974 29.1926 174.008 29.1926C172.706 29.1926 171.712 28.4786 171.474 27.2186ZM173.896 24.1246C174.946 24.1246 175.94 24.7686 176.15 26.1546H171.474C171.67 24.9366 172.58 24.1246 173.896 24.1246ZM182.385 24.3346V23.1586H180.523V21.1986L179.305 21.5626V23.1586H177.919V24.3346H179.305V28.1286C179.305 29.8786 180.285 30.4386 182.385 30.1586V29.0666C181.139 29.1226 180.523 29.1926 180.523 28.1286V24.3346H182.385ZM189.268 23.1586V24.3626C188.708 23.5086 187.812 22.9766 186.622 22.9766C184.676 22.9766 183.08 24.5866 183.08 26.6586C183.08 28.7306 184.676 30.3406 186.622 30.3406C187.812 30.3406 188.708 29.8086 189.268 28.9546V30.1586H190.486V23.1586H189.268ZM186.776 29.1646C185.376 29.1646 184.298 28.0866 184.298 26.6586C184.298 25.2306 185.376 24.1526 186.776 24.1526C188.19 24.1526 189.268 25.2306 189.268 26.6586C189.268 28.0866 188.19 29.1646 186.776 29.1646ZM196.685 27.2186H202.551C202.579 27.0366 202.593 26.8546 202.593 26.6726C202.593 24.7126 201.221 22.9766 199.107 22.9766C196.923 22.9766 195.439 24.5866 195.439 26.6586C195.439 28.7586 196.937 30.3406 199.191 30.3406C200.591 30.3406 201.655 29.7106 202.271 28.7586L201.235 28.1706C200.885 28.7446 200.185 29.1926 199.219 29.1926C197.917 29.1926 196.923 28.4786 196.685 27.2186ZM199.107 24.1246C200.157 24.1246 201.151 24.7686 201.361 26.1546H196.685C196.881 24.9366 197.791 24.1246 199.107 24.1246ZM211.553 22.9766C210.643 22.9766 209.845 23.3686 209.355 24.1666C208.949 23.4106 208.249 22.9766 207.297 22.9766C206.443 22.9766 205.715 23.3126 205.211 24.0966V23.1586H203.993V30.1586H205.211V26.2666C205.211 24.7546 206.065 24.1386 207.003 24.1386C207.913 24.1386 208.487 24.7406 208.487 25.8466V30.1586H209.705V26.2666C209.705 24.7546 210.447 24.1386 211.427 24.1386C212.351 24.1386 212.967 24.7406 212.967 25.8466V30.1586H214.185V25.8046C214.185 24.0546 213.107 22.9766 211.553 22.9766ZM219.738 22.9766C218.548 22.9766 217.652 23.5086 217.092 24.3626V23.1586H215.874V32.9586H217.092V28.9546C217.652 29.8086 218.548 30.3406 219.738 30.3406C221.684 30.3406 223.28 28.7306 223.28 26.6586C223.28 24.5866 221.684 22.9766 219.738 22.9766ZM219.584 29.1646C218.17 29.1646 217.092 28.0866 217.092 26.6586C217.092 25.2306 218.17 24.1526 219.584 24.1526C220.984 24.1526 222.062 25.2306 222.062 26.6586C222.062 28.0866 220.984 29.1646 219.584 29.1646ZM225.951 24.3346V23.1586H224.733V30.1586H225.951V26.4486C225.951 24.7966 227.085 24.2646 228.135 24.3066V23.0326C227.253 23.0326 226.399 23.3546 225.951 24.3346ZM229.798 27.2186H235.664C235.692 27.0366 235.706 26.8546 235.706 26.6726C235.706 24.7126 234.334 22.9766 232.22 22.9766C230.036 22.9766 228.552 24.5866 228.552 26.6586C228.552 28.7586 230.05 30.3406 232.304 30.3406C233.704 30.3406 234.768 29.7106 235.384 28.7586L234.348 28.1706C233.998 28.7446 233.298 29.1926 232.332 29.1926C231.03 29.1926 230.036 28.4786 229.798 27.2186ZM232.22 24.1246C233.27 24.1246 234.264 24.7686 234.474 26.1546H229.798C229.994 24.9366 230.904 24.1246 232.22 24.1246ZM237.883 25.0486C237.883 24.4186 238.499 24.1106 239.129 24.1106C239.745 24.1106 240.361 24.3766 240.627 25.0066L241.649 24.4326C241.201 23.5226 240.277 22.9766 239.129 22.9766C237.715 22.9766 236.651 23.8306 236.651 25.0626C236.651 27.5966 240.571 26.7426 240.571 28.2406C240.571 28.9266 239.927 29.1926 239.185 29.1926C238.317 29.1926 237.673 28.7726 237.449 28.1006L236.399 28.7026C236.805 29.6686 237.785 30.3406 239.185 30.3406C240.683 30.3406 241.803 29.5426 241.803 28.2406C241.803 25.6646 237.883 26.5466 237.883 25.0486ZM248.85 23.1586V24.3626C248.29 23.5086 247.394 22.9766 246.204 22.9766C244.258 22.9766 242.662 24.5866 242.662 26.6586C242.662 28.7306 244.258 30.3406 246.204 30.3406C247.394 30.3406 248.29 29.8086 248.85 28.9546V30.1586H250.068V23.1586H248.85ZM246.358 29.1646C244.958 29.1646 243.88 28.0866 243.88 26.6586C243.88 25.2306 244.958 24.1526 246.358 24.1526C247.772 24.1526 248.85 25.2306 248.85 26.6586C248.85 28.0866 247.772 29.1646 246.358 29.1646ZM253.131 24.3346V23.1586H251.913V30.1586H253.131V26.4486C253.131 24.7966 254.265 24.2646 255.315 24.3066V23.0326C254.433 23.0326 253.579 23.3546 253.131 24.3346ZM257.123 21.8846C257.571 21.8846 257.935 21.5206 257.935 21.0726C257.935 20.6246 257.571 20.2466 257.123 20.2466C256.661 20.2466 256.297 20.6246 256.297 21.0726C256.297 21.5206 256.661 21.8846 257.123 21.8846ZM256.507 30.1586H257.725V23.1586H256.507V30.1586ZM265.379 23.1586V24.3626C264.819 23.5086 263.923 22.9766 262.733 22.9766C260.787 22.9766 259.191 24.5866 259.191 26.6586C259.191 28.7306 260.787 30.3406 262.733 30.3406C263.923 30.3406 264.819 29.8086 265.379 28.9546V30.1586H266.597V23.1586H265.379ZM262.887 29.1646C261.487 29.1646 260.409 28.0866 260.409 26.6586C260.409 25.2306 261.487 24.1526 262.887 24.1526C264.301 24.1526 265.379 25.2306 265.379 26.6586C265.379 28.0866 264.301 29.1646 262.887 29.1646ZM268.442 30.1586H269.66V19.9386H268.442V30.1586Z" fill="white"/>
</svg>