<svg width="107" height="71" viewBox="0 0 107 71" fill="none" xmlns="http://www.w3.org/2000/svg">
<path d="M20.0355 17.8924C20.0332 16.7068 20.385 15.5473 21.0463 14.5606C21.7076 13.5739 22.6487 12.8045 23.7504 12.3497C24.8521 11.895 26.0648 11.7754 27.2349 12.0061C28.4051 12.2369 29.48 12.8075 30.3235 13.6458C31.167 14.4841 31.7412 15.5524 31.9734 16.7152C32.2056 17.8781 32.0852 19.0833 31.6277 20.1782C31.1701 21.273 30.3958 22.2083 29.403 22.8655C28.4102 23.5228 27.2434 23.8724 26.0504 23.8701C25.2582 23.8784 24.4723 23.7295 23.7387 23.4321C23.0052 23.1346 22.3388 22.6946 21.7785 22.1379C21.2183 21.5811 20.7756 20.9188 20.4763 20.1898C20.177 19.4608 20.0271 18.6797 20.0355 17.8924V17.8924ZM29.1497 17.8924C29.1497 16.0591 27.8068 14.7685 26.0504 14.7685C24.2941 14.7685 22.9768 16.0453 22.9768 17.8924C22.9768 19.7395 24.3196 21.0186 26.0504 21.0186C27.7813 21.0186 29.1497 19.7233 29.1497 17.8924Z" fill="white"/>
<path d="M44.5836 16.5973V23.5493H41.6446V16.969C41.6446 15.429 40.7153 14.637 39.3887 14.637C37.9553 14.637 36.8843 15.4752 36.8843 17.4446V23.5493H33.9453V12.2358H36.8843V13.5057C37.5673 12.4851 38.7429 11.9195 40.2785 11.9195C42.6924 11.9102 44.5836 13.5865 44.5836 16.5973Z" fill="white"/>
<path d="M50.8058 12.1203V12.2357H53.2196V15.0433H50.8058V23.5493H47.8668V15.0364H46.2266V12.2288H47.8668V12.1203C47.8668 8.99636 49.5976 7.16311 53.2103 7.38938V10.197C51.6932 10.0769 50.8058 10.5756 50.8058 12.1203Z" fill="white"/>
<path d="M58.1577 12.2285H55.2188V23.549H58.1577V12.2285Z" fill="white"/>
<path d="M58.0673 10.9844L59.5704 7.70117H56.1994L55.2422 10.9844H58.0673Z" fill="white"/>
<path d="M60.2621 17.8924C60.2598 16.7068 60.6115 15.5473 61.2729 14.5606C61.9342 13.5739 62.8753 12.8045 63.977 12.3497C65.0787 11.895 66.2914 11.7754 67.4615 12.0061C68.6316 12.2369 69.7065 12.8075 70.55 13.6458C71.3936 14.4841 71.9678 15.5524 72.1999 16.7152C72.4321 17.8781 72.3118 19.0833 71.8542 20.1782C71.3966 21.273 70.6224 22.2083 69.6296 22.8655C68.6367 23.5228 67.4699 23.8724 66.277 23.8701C65.4848 23.8784 64.6988 23.7295 63.9653 23.4321C63.2317 23.1346 62.5653 22.6946 62.0051 22.1379C61.4449 21.5811 61.0021 20.9188 60.7028 20.1898C60.4035 19.4608 60.2537 18.6797 60.2621 17.8924ZM69.3762 17.8924C69.3762 16.0591 68.0311 14.7685 66.277 14.7685C64.5229 14.7685 63.194 16.0453 63.194 17.8924C63.194 19.7395 64.5369 21.0186 66.27 21.0186C68.0032 21.0186 69.3693 19.7233 69.3693 17.8924H69.3762Z" fill="white"/>
<path d="M10.0798 7.38232H6.99219V23.5491H10.0798V7.38232Z" fill="white"/>
<path d="M19.1065 7.38232C18.9346 9.28946 18.5257 10.7671 17.8612 11.9655C17.1736 13.1874 16.1724 14.2064 14.9595 14.9185C14.7109 15.0732 14.5878 15.2187 14.5878 15.3572C14.5878 15.4957 14.7109 15.5881 14.9595 15.7497C16.1628 16.4545 17.1748 17.4404 17.9077 18.622C18.6511 19.8149 19.1538 21.4573 19.4155 23.5491H16.063C16.0011 21.8867 15.6913 20.5984 15.1337 19.6841C14.5761 18.7698 13.7018 18.0047 12.5107 17.389C11.552 16.898 11.0719 16.29 11.0703 15.565C11.0688 14.84 11.5334 14.1173 12.4643 13.397C13.7188 12.4442 14.5777 11.556 15.0408 10.7325C15.5054 9.90824 15.7378 8.84385 15.761 7.38232H19.1065Z" fill="white"/>
<path d="M71.2695 9.38415C71.2695 9.00512 71.3826 8.63461 71.5945 8.31946C71.8064 8.00432 72.1076 7.7587 72.4599 7.61365C72.8123 7.4686 73.2 7.43065 73.5741 7.5046C73.9481 7.57854 74.2917 7.76105 74.5614 8.02906C74.831 8.29707 75.0147 8.63854 75.0891 9.01028C75.1635 9.38202 75.1253 9.76734 74.9794 10.1175C74.8334 10.4677 74.5863 10.767 74.2692 10.9776C73.9521 11.1881 73.5792 11.3005 73.1979 11.3005C72.9445 11.3008 72.6936 11.2515 72.4596 11.1553C72.2255 11.0591 72.0128 10.9179 71.8336 10.7399C71.6545 10.5619 71.5125 10.3505 71.4157 10.1179C71.3189 9.88523 71.2692 9.63589 71.2695 9.38415V9.38415Z" fill="#F8A276"/>
<path opacity="0.3" d="M6.99219 42.8706L93.0198 42.3344" stroke="white" stroke-miterlimit="10" stroke-linecap="round"/>
<path d="M9.91609 30.3447V29.3047H8.67609V27.9047L7.59609 28.2247V29.3047H6.67609V30.3447H7.59609V32.7447C7.59609 34.0447 8.25609 34.5047 9.91609 34.3047V33.3347C9.09609 33.3747 8.67609 33.3847 8.67609 32.7447V30.3447H9.91609ZM14.6505 29.3047V30.0147C14.2705 29.4947 13.6805 29.1747 12.9005 29.1747C11.5405 29.1747 10.4105 30.3147 10.4105 31.8047C10.4105 33.2847 11.5405 34.4347 12.9005 34.4347C13.6805 34.4347 14.2705 34.1147 14.6505 33.5847V34.3047H15.7305V29.3047H14.6505ZM13.0705 33.4047C12.1705 33.4047 11.4905 32.7347 11.4905 31.8047C11.4905 30.8747 12.1705 30.2047 13.0705 30.2047C13.9705 30.2047 14.6505 30.8747 14.6505 31.8047C14.6505 32.7347 13.9705 33.4047 13.0705 33.4047ZM18.0694 30.1447V29.3047H16.9894V34.3047H18.0694V31.7847C18.0694 30.6647 18.8994 30.3347 19.6094 30.3847V29.2147C18.9794 29.2147 18.3694 29.4647 18.0694 30.1447ZM21.1373 28.5547C21.5173 28.5547 21.8273 28.2347 21.8273 27.8647C21.8273 27.4847 21.5173 27.1747 21.1373 27.1747C20.7573 27.1747 20.4473 27.4847 20.4473 27.8647C20.4473 28.2347 20.7573 28.5547 21.1373 28.5547ZM20.5973 34.5047C20.5973 35.2047 20.2873 35.4547 19.6273 35.3947V36.4347C20.9973 36.5347 21.6773 35.8847 21.6773 34.5047V29.3047H20.5973V34.5047ZM23.7866 32.2647H27.7666C27.7866 32.1247 27.8066 31.9647 27.8066 31.8147C27.8066 30.3747 26.7866 29.1747 25.2966 29.1747C23.7266 29.1747 22.6566 30.3247 22.6566 31.8047C22.6566 33.3047 23.7266 34.4347 25.3766 34.4347C26.3566 34.4347 27.1066 34.0247 27.5666 33.3447L26.6766 32.8247C26.4366 33.1747 25.9866 33.4447 25.3866 33.4447C24.5866 33.4447 23.9566 33.0447 23.7866 32.2647ZM23.7766 31.3847C23.9266 30.6347 24.4766 30.1547 25.2866 30.1547C25.9366 30.1547 26.5666 30.5247 26.7166 31.3847H23.7766ZM31.3907 30.3447V29.3047H30.1507V27.9047L29.0707 28.2247V29.3047H28.1507V30.3447H29.0707V32.7447C29.0707 34.0447 29.7307 34.5047 31.3907 34.3047V33.3347C30.5707 33.3747 30.1507 33.3847 30.1507 32.7447V30.3447H31.3907ZM36.1252 29.3047V30.0147C35.7452 29.4947 35.1552 29.1747 34.3752 29.1747C33.0152 29.1747 31.8852 30.3147 31.8852 31.8047C31.8852 33.2847 33.0152 34.4347 34.3752 34.4347C35.1552 34.4347 35.7452 34.1147 36.1252 33.5847V34.3047H37.2052V29.3047H36.1252ZM34.5452 33.4047C33.6452 33.4047 32.9652 32.7347 32.9652 31.8047C32.9652 30.8747 33.6452 30.2047 34.5452 30.2047C35.4452 30.2047 36.1252 30.8747 36.1252 31.8047C36.1252 32.7347 35.4452 33.4047 34.5452 33.4047ZM44.924 27.3047V30.0147C44.544 29.4947 43.954 29.1747 43.174 29.1747C41.814 29.1747 40.684 30.3147 40.684 31.8047C40.684 33.2847 41.814 34.4347 43.174 34.4347C43.954 34.4347 44.544 34.1147 44.924 33.5847V34.3047H46.004V27.3047H44.924ZM43.344 33.4047C42.444 33.4047 41.764 32.7347 41.764 31.8047C41.764 30.8747 42.444 30.2047 43.344 30.2047C44.244 30.2047 44.924 30.8747 44.924 31.8047C44.924 32.7347 44.244 33.4047 43.344 33.4047ZM48.1128 32.2647H52.0928C52.1128 32.1247 52.1328 31.9647 52.1328 31.8147C52.1328 30.3747 51.1128 29.1747 49.6228 29.1747C48.0528 29.1747 46.9828 30.3247 46.9828 31.8047C46.9828 33.3047 48.0528 34.4347 49.7028 34.4347C50.6828 34.4347 51.4328 34.0247 51.8928 33.3447L51.0028 32.8247C50.7628 33.1747 50.3128 33.4447 49.7128 33.4447C48.9128 33.4447 48.2828 33.0447 48.1128 32.2647ZM48.1028 31.3847C48.2528 30.6347 48.8028 30.1547 49.6128 30.1547C50.2628 30.1547 50.8928 30.5247 51.0428 31.3847H48.1028ZM57.9431 34.4347C58.9231 34.4347 59.7731 33.9247 60.1931 33.1347L59.2631 32.6047C59.0231 33.0647 58.5331 33.3747 57.9331 33.3747C57.0531 33.3747 56.3831 32.7047 56.3831 31.8047C56.3831 30.9047 57.0531 30.2347 57.9331 30.2347C58.5331 30.2347 59.0231 30.5347 59.2431 31.0047L60.1731 30.4647C59.7731 29.6847 58.9231 29.1747 57.9431 29.1747C56.4331 29.1747 55.3031 30.3147 55.3031 31.8047C55.3031 33.2847 56.4331 34.4347 57.9431 34.4347ZM62.083 30.1447V29.3047H61.003V34.3047H62.083V31.7847C62.083 30.6647 62.913 30.3347 63.623 30.3847V29.2147C62.993 29.2147 62.383 29.4647 62.083 30.1447ZM67.8866 27.2747H66.5866L65.7866 28.6247H66.8266L67.8866 27.2747ZM65.0366 32.2647H69.0166C69.0366 32.1247 69.0566 31.9647 69.0566 31.8147C69.0566 30.3747 68.0366 29.1747 66.5466 29.1747C64.9766 29.1747 63.9066 30.3247 63.9066 31.8047C63.9066 33.3047 64.9766 34.4347 66.6266 34.4347C67.6066 34.4347 68.3566 34.0247 68.8166 33.3447L67.9266 32.8247C67.6866 33.1747 67.2366 33.4447 66.6366 33.4447C65.8366 33.4447 65.2066 33.0447 65.0366 32.2647ZM65.0266 31.3847C65.1766 30.6347 65.7266 30.1547 66.5366 30.1547C67.1866 30.1547 67.8166 30.5247 67.9666 31.3847H65.0266ZM73.9377 27.3047V30.0147C73.5577 29.4947 72.9677 29.1747 72.1877 29.1747C70.8277 29.1747 69.6977 30.3147 69.6977 31.8047C69.6977 33.2847 70.8277 34.4347 72.1877 34.4347C72.9677 34.4347 73.5577 34.1147 73.9377 33.5847V34.3047H75.0177V27.3047H73.9377ZM72.3577 33.4047C71.4577 33.4047 70.7777 32.7347 70.7777 31.8047C70.7777 30.8747 71.4577 30.2047 72.3577 30.2047C73.2577 30.2047 73.9377 30.8747 73.9377 31.8047C73.9377 32.7347 73.2577 33.4047 72.3577 33.4047ZM76.8165 28.5547C77.1965 28.5547 77.5065 28.2347 77.5065 27.8647C77.5065 27.4847 77.1965 27.1747 76.8165 27.1747C76.4365 27.1747 76.1265 27.4847 76.1265 27.8647C76.1265 28.2347 76.4365 28.5547 76.8165 28.5547ZM76.2765 34.3047H77.3565V29.3047H76.2765V34.3047ZM81.4005 30.3447V29.3047H80.1605V27.9047L79.0805 28.2247V29.3047H78.1605V30.3447H79.0805V32.7447C79.0805 34.0447 79.7405 34.5047 81.4005 34.3047V33.3347C80.5805 33.3747 80.1605 33.3847 80.1605 32.7447V30.3447H81.4005ZM84.5349 34.4347C86.0049 34.4347 87.1749 33.2847 87.1749 31.8047C87.1749 30.3147 86.0049 29.1747 84.5349 29.1747C83.0749 29.1747 81.8949 30.3147 81.8949 31.8047C81.8949 33.2847 83.0749 34.4347 84.5349 34.4347ZM84.5349 33.3847C83.6549 33.3847 82.9749 32.7147 82.9749 31.8047C82.9749 30.8947 83.6549 30.2247 84.5349 30.2247C85.4149 30.2247 86.0949 30.8947 86.0949 31.8047C86.0949 32.7147 85.4149 33.3847 84.5349 33.3847Z" fill="#F8A276"/>
<path d="M9.53809 51.7926V51.0366H8.34109V49.7766L7.55809 50.0106V51.0366H6.66709V51.7926H7.55809V54.2316C7.55809 55.3566 8.18809 55.7166 9.53809 55.5366V54.8346C8.73709 54.8706 8.34109 54.9156 8.34109 54.2316V51.7926H9.53809ZM13.9626 51.0366V51.8106C13.6026 51.2616 13.0266 50.9196 12.2616 50.9196C11.0106 50.9196 9.98458 51.9546 9.98458 53.2866C9.98458 54.6186 11.0106 55.6536 12.2616 55.6536C13.0266 55.6536 13.6026 55.3116 13.9626 54.7626V55.5366H14.7456V51.0366H13.9626ZM12.3606 54.8976C11.4606 54.8976 10.7676 54.2046 10.7676 53.2866C10.7676 52.3686 11.4606 51.6756 12.3606 51.6756C13.2696 51.6756 13.9626 52.3686 13.9626 53.2866C13.9626 54.2046 13.2696 54.8976 12.3606 54.8976ZM16.7149 51.7926V51.0366H15.9319V55.5366H16.7149V53.1516C16.7149 52.0896 17.4439 51.7476 18.1189 51.7746V50.9556C17.5519 50.9556 17.0029 51.1626 16.7149 51.7926ZM19.479 50.2176C19.767 50.2176 20.001 49.9836 20.001 49.6956C20.001 49.4076 19.767 49.1646 19.479 49.1646C19.182 49.1646 18.948 49.4076 18.948 49.6956C18.948 49.9836 19.182 50.2176 19.479 50.2176ZM19.083 55.8066C19.083 56.5086 18.777 56.7516 18.129 56.6976V57.4536C19.263 57.5346 19.866 56.9676 19.866 55.8066V51.0366H19.083V55.8066ZM21.6049 53.6466H25.3759C25.3939 53.5296 25.4029 53.4126 25.4029 53.2956C25.4029 52.0356 24.5209 50.9196 23.1619 50.9196C21.7579 50.9196 20.8039 51.9546 20.8039 53.2866C20.8039 54.6366 21.7669 55.6536 23.2159 55.6536C24.1159 55.6536 24.7999 55.2486 25.1959 54.6366L24.5299 54.2586C24.3049 54.6276 23.8549 54.9156 23.2339 54.9156C22.3969 54.9156 21.7579 54.4566 21.6049 53.6466ZM23.1619 51.6576C23.8369 51.6576 24.4759 52.0716 24.6109 52.9626H21.6049C21.7309 52.1796 22.3159 51.6576 23.1619 51.6576ZM28.6191 51.7926V51.0366H27.4221V49.7766L26.6391 50.0106V51.0366H25.7481V51.7926H26.6391V54.2316C26.6391 55.3566 27.2691 55.7166 28.6191 55.5366V54.8346C27.8181 54.8706 27.4221 54.9156 27.4221 54.2316V51.7926H28.6191ZM33.0436 51.0366V51.8106C32.6836 51.2616 32.1076 50.9196 31.3426 50.9196C30.0916 50.9196 29.0656 51.9546 29.0656 53.2866C29.0656 54.6186 30.0916 55.6536 31.3426 55.6536C32.1076 55.6536 32.6836 55.3116 33.0436 54.7626V55.5366H33.8266V51.0366H33.0436ZM31.4416 54.8976C30.5416 54.8976 29.8486 54.2046 29.8486 53.2866C29.8486 52.3686 30.5416 51.6756 31.4416 51.6756C32.3506 51.6756 33.0436 52.3686 33.0436 53.2866C33.0436 54.2046 32.3506 54.8976 31.4416 54.8976ZM37.8119 53.6466H41.5829C41.6009 53.5296 41.6099 53.4126 41.6099 53.2956C41.6099 52.0356 40.7279 50.9196 39.3689 50.9196C37.9649 50.9196 37.0109 51.9546 37.0109 53.2866C37.0109 54.6366 37.9739 55.6536 39.4229 55.6536C40.3229 55.6536 41.0069 55.2486 41.4029 54.6366L40.7369 54.2586C40.5119 54.6276 40.0619 54.9156 39.4409 54.9156C38.6039 54.9156 37.9649 54.4566 37.8119 53.6466ZM39.3689 51.6576C40.0439 51.6576 40.6829 52.0716 40.8179 52.9626H37.8119C37.9379 52.1796 38.5229 51.6576 39.3689 51.6576ZM47.37 50.9196C46.785 50.9196 46.272 51.1716 45.957 51.6846C45.696 51.1986 45.246 50.9196 44.634 50.9196C44.085 50.9196 43.617 51.1356 43.293 51.6396V51.0366H42.51V55.5366H43.293V53.0346C43.293 52.0626 43.842 51.6666 44.445 51.6666C45.03 51.6666 45.399 52.0536 45.399 52.7646V55.5366H46.182V53.0346C46.182 52.0626 46.659 51.6666 47.289 51.6666C47.883 51.6666 48.279 52.0536 48.279 52.7646V55.5366H49.062V52.7376C49.062 51.6126 48.369 50.9196 47.37 50.9196ZM52.6317 50.9196C51.8667 50.9196 51.2907 51.2616 50.9307 51.8106V51.0366H50.1477V57.3366H50.9307V54.7626C51.2907 55.3116 51.8667 55.6536 52.6317 55.6536C53.8827 55.6536 54.9087 54.6186 54.9087 53.2866C54.9087 51.9546 53.8827 50.9196 52.6317 50.9196ZM52.5327 54.8976C51.6237 54.8976 50.9307 54.2046 50.9307 53.2866C50.9307 52.3686 51.6237 51.6756 52.5327 51.6756C53.4327 51.6756 54.1257 52.3686 54.1257 53.2866C54.1257 54.2046 53.4327 54.8976 52.5327 54.8976ZM56.626 51.7926V51.0366H55.843V55.5366H56.626V53.1516C56.626 52.0896 57.355 51.7476 58.03 51.7746V50.9556C57.463 50.9556 56.914 51.1626 56.626 51.7926ZM59.0991 53.6466H62.8701C62.8881 53.5296 62.8971 53.4126 62.8971 53.2956C62.8971 52.0356 62.0151 50.9196 60.6561 50.9196C59.2521 50.9196 58.2981 51.9546 58.2981 53.2866C58.2981 54.6366 59.2611 55.6536 60.7101 55.6536C61.6101 55.6536 62.2941 55.2486 62.6901 54.6366L62.0241 54.2586C61.7991 54.6276 61.3491 54.9156 60.7281 54.9156C59.8911 54.9156 59.2521 54.4566 59.0991 53.6466ZM60.6561 51.6576C61.3311 51.6576 61.9701 52.0716 62.1051 52.9626H59.0991C59.2251 52.1796 59.8101 51.6576 60.6561 51.6576ZM64.2963 52.2516C64.2963 51.8466 64.6923 51.6486 65.0973 51.6486C65.4933 51.6486 65.8893 51.8196 66.0603 52.2246L66.7173 51.8556C66.4293 51.2706 65.8353 50.9196 65.0973 50.9196C64.1883 50.9196 63.5043 51.4686 63.5043 52.2606C63.5043 53.8896 66.0243 53.3406 66.0243 54.3036C66.0243 54.7446 65.6103 54.9156 65.1333 54.9156C64.5753 54.9156 64.1613 54.6456 64.0173 54.2136L63.3423 54.6006C63.6033 55.2216 64.2333 55.6536 65.1333 55.6536C66.0963 55.6536 66.8163 55.1406 66.8163 54.3036C66.8163 52.6476 64.2963 53.2146 64.2963 52.2516ZM71.3464 51.0366V51.8106C70.9864 51.2616 70.4104 50.9196 69.6454 50.9196C68.3944 50.9196 67.3684 51.9546 67.3684 53.2866C67.3684 54.6186 68.3944 55.6536 69.6454 55.6536C70.4104 55.6536 70.9864 55.3116 71.3464 54.7626V55.5366H72.1294V51.0366H71.3464ZM69.7444 54.8976C68.8444 54.8976 68.1514 54.2046 68.1514 53.2866C68.1514 52.3686 68.8444 51.6756 69.7444 51.6756C70.6534 51.6756 71.3464 52.3686 71.3464 53.2866C71.3464 54.2046 70.6534 54.8976 69.7444 54.8976ZM74.0987 51.7926V51.0366H73.3157V55.5366H74.0987V53.1516C74.0987 52.0896 74.8277 51.7476 75.5027 51.7746V50.9556C74.9357 50.9556 74.3867 51.1626 74.0987 51.7926ZM76.6648 50.2176C76.9528 50.2176 77.1868 49.9836 77.1868 49.6956C77.1868 49.4076 76.9528 49.1646 76.6648 49.1646C76.3678 49.1646 76.1338 49.4076 76.1338 49.6956C76.1338 49.9836 76.3678 50.2176 76.6648 50.2176ZM76.2688 55.5366H77.0518V51.0366H76.2688V55.5366ZM81.9723 51.0366V51.8106C81.6123 51.2616 81.0363 50.9196 80.2713 50.9196C79.0203 50.9196 77.9943 51.9546 77.9943 53.2866C77.9943 54.6186 79.0203 55.6536 80.2713 55.6536C81.0363 55.6536 81.6123 55.3116 81.9723 54.7626V55.5366H82.7553V51.0366H81.9723ZM80.3703 54.8976C79.4703 54.8976 78.7773 54.2046 78.7773 53.2866C78.7773 52.3686 79.4703 51.6756 80.3703 51.6756C81.2793 51.6756 81.9723 52.3686 81.9723 53.2866C81.9723 54.2046 81.2793 54.8976 80.3703 54.8976ZM83.9417 55.5366H84.7247V48.9666H83.9417V55.5366Z" fill="white"/>
</svg>
