<svg width="348" height="217" viewBox="0 0 348 217" fill="none" xmlns="http://www.w3.org/2000/svg">
<g clip-path="url(#clip0)">
<path d="M52.5624 1.49292L33.6122 51.2681H18.9501L0 1.49292H14.1609L26.2295 36.3387L38.4015 1.49292H52.5624Z" fill="#9595CE"/>
<path d="M55.1559 26.3806C55.1321 11.8403 66.9222 0.0238596 81.4888 3.61055e-05C96.0554 -0.0237874 107.893 11.745 107.917 26.2853C107.941 40.8255 96.1509 52.642 81.5843 52.6658C81.5525 52.6658 81.5127 52.6658 81.4809 52.6658C67.0893 52.8167 55.3071 41.294 55.1559 26.9285C55.1559 26.7458 55.1559 26.5632 55.1559 26.3806ZM95.0451 26.3806C95.0451 18.3203 89.1659 12.6424 81.4809 12.6424C73.7958 12.6424 68.0201 18.3203 68.0201 26.3806C68.0201 34.4408 73.8992 40.1188 81.4809 40.1188C89.0625 40.1188 95.0451 34.4726 95.0451 26.3806Z" fill="#9595CE"/>
<path d="M115.387 26.3804C115.387 11.5464 126.525 0.0952148 141.72 0.0952148C151.49 0.0952148 159.97 5.27285 164.06 12.944L152.985 19.3843C150.997 15.3105 146.708 12.7217 141.617 12.7217C133.94 12.7217 128.252 18.3916 128.252 26.3566C128.252 34.3216 133.94 39.8963 141.617 39.8963C146.804 39.8963 151.092 37.4107 153.089 33.3289L164.227 39.6819C159.644 47.7739 151.005 52.7371 141.689 52.6259C126.557 52.6657 115.387 41.2145 115.387 26.3804Z" fill="#9595CE"/>
<path d="M196.176 41.016C201.164 41.016 205.15 38.9275 207.314 36.0369L217.656 42.0086C212.962 48.7824 205.484 52.6657 195.906 52.6657C179.151 52.6657 168.578 41.2145 168.578 26.3804C168.578 11.5464 179.255 0.0952148 194.911 0.0952148C209.677 0.0952148 220.146 11.7449 220.146 26.3804C220.138 28.1513 219.971 29.9142 219.645 31.6534H182.111C183.909 38.2286 189.39 41.016 196.176 41.016ZM207.314 21.7031C205.723 14.5561 200.329 11.6496 194.943 11.6496C188.061 11.6496 183.376 15.3343 181.88 21.7031H207.314Z" fill="#9595CE"/>
<path d="M265.787 36.7357C265.787 47.488 256.408 52.6657 245.739 52.6657C235.763 52.6657 228.388 48.4807 224.792 40.8175L235.93 34.5439C237.33 38.6257 240.703 41.016 245.707 41.016C249.797 41.016 252.589 39.6183 252.589 36.7357C252.589 29.4695 226.861 33.4481 226.861 15.9299C226.861 5.77314 235.532 0.0952148 245.803 0.0952148C253.886 0.0952148 260.863 3.77991 264.753 10.649L253.782 16.6208C252.414 13.4681 249.271 11.459 245.827 11.5464C242.644 11.5464 240.043 12.944 240.043 15.6281C240.059 22.9975 265.787 18.4155 265.787 36.7357Z" fill="#9595CE"/>
<path d="M47.3753 149.437L14.6621 115.687V149.437H7.68506V79.7371H14.6621V111.597L46.3809 79.7371H55.5537L22.0767 113.598L56.5879 149.437H47.3753Z" fill="#222222"/>
<path d="M58.0438 124.549C57.9722 110.072 69.6669 98.2876 84.1698 98.2161C98.6728 98.1447 110.479 109.818 110.55 124.295C110.622 138.772 98.9274 150.556 84.4244 150.628C84.3846 150.628 84.3369 150.628 84.2971 150.628C69.9771 150.81 58.2268 139.367 58.0438 125.073C58.0438 124.898 58.0438 124.724 58.0438 124.549ZM103.923 124.549C103.868 113.717 95.0292 104.974 84.1778 105.03C73.3264 105.085 64.5673 113.908 64.623 124.74C64.6787 135.532 73.4537 144.259 84.2733 144.259C95.0133 144.37 103.812 135.77 103.923 125.041C103.923 124.883 103.923 124.716 103.923 124.549Z" fill="#222222"/>
<path d="M165.356 118.871V149.437H158.769V118.871C158.769 110.009 153.884 104.839 145.205 104.839C136.525 104.839 129.055 110.009 129.055 123.35V149.437H122.468V99.6615H129.055V107.428C132.937 101.154 138.729 98.4624 145.81 98.4624C157.974 98.4624 165.356 106.427 165.356 118.871Z" fill="#222222"/>
<path d="M189.684 97.6681V99.6614H204.052V106.014H189.684V149.421H183.105V106.03H174.625V99.6772H183.105V97.684C183.105 84.7399 190.583 77.577 204.052 78.5697V84.9226C194.378 84.1285 189.684 88.1149 189.684 97.6681Z" fill="#222222"/>
<path d="M212.024 99.6614H218.579V149.437H211.992L212.024 99.6614Z" fill="#222222"/>
<path d="M230.576 124.549C230.504 110.072 242.199 98.2876 256.702 98.2161C271.205 98.1447 283.011 109.818 283.083 124.295C283.154 138.772 271.46 150.556 256.957 150.628C256.917 150.628 256.869 150.628 256.829 150.628C242.517 150.81 230.759 139.383 230.576 125.089C230.576 124.914 230.576 124.732 230.576 124.549ZM276.456 124.549C276.4 113.717 267.561 104.974 256.71 105.03C245.859 105.085 237.1 113.908 237.155 124.74C237.211 135.532 245.986 144.259 256.805 144.259C267.553 144.362 276.352 135.754 276.456 125.025C276.456 124.867 276.456 124.708 276.456 124.549Z" fill="#222222"/>
<path d="M346.21 84.6129L329.002 67.4282L311.659 84.7082L309.75 82.7944L327.053 65.5223L309.845 48.3377L311.564 46.6224L328.771 63.8071L346.083 46.5271L348 48.433L330.752 65.7129L347.936 82.9135L346.21 84.6129Z" fill="#9595CE"/>
<path d="M20.3185 186.784H123.303C131.657 186.784 138.435 193.55 138.435 201.888V201.896C138.435 210.234 131.657 217 123.303 217H20.3185C11.9651 217 5.18701 210.234 5.18701 201.896V201.888C5.18701 193.55 11.9651 186.784 20.3185 186.784Z" fill="#9595CE"/>
<path d="M27.8524 199.688C27.908 202.182 25.9271 204.254 23.4291 204.31C23.3654 204.31 23.2938 204.31 23.2302 204.31H19.4433V209.766H17.9716V195.066H23.2302C25.7203 195.003 27.7887 196.972 27.8524 199.458C27.8524 199.529 27.8524 199.609 27.8524 199.688ZM26.3806 199.688C26.4681 197.997 25.1634 196.543 23.4688 196.456C23.3813 196.448 23.2859 196.448 23.1984 196.456H19.4115V202.92H23.1984C24.9088 202.968 26.3328 201.626 26.3806 199.926C26.3885 199.847 26.3806 199.768 26.3806 199.688Z" fill="white"/>
<path d="M32.1007 202.412C32.1087 198.211 35.5136 194.812 39.7221 194.82C43.9306 194.828 47.3356 198.227 47.3277 202.428C47.3197 206.621 43.9147 210.02 39.7142 210.02C35.5375 210.051 32.1325 206.7 32.1007 202.531C32.1007 202.491 32.1007 202.452 32.1007 202.412ZM45.8559 202.412C45.832 199.029 43.0555 196.305 39.6664 196.329C36.2774 196.353 33.5486 199.124 33.5725 202.507C33.5964 205.874 36.341 208.59 39.7142 208.59C43.0794 208.614 45.832 205.914 45.8559 202.555C45.8559 202.507 45.8559 202.46 45.8559 202.412Z" fill="white"/>
<path d="M65.1401 202.412C65.1401 206.47 62.2602 209.766 58.1949 209.766H52.5226V195.067H58.1949C62.2602 195.067 65.1401 198.362 65.1401 202.412ZM63.7081 202.412C63.7081 199.125 61.4805 196.456 58.1949 196.456H53.9944V208.368H58.1949C61.4805 208.384 63.7081 205.716 63.7081 202.412Z" fill="white"/>
<path d="M69.4918 202.412C69.4361 198.275 72.7456 194.876 76.8905 194.82C76.9939 194.82 77.1053 194.82 77.2087 194.82C79.8261 194.789 82.2605 196.162 83.5731 198.426L82.2684 199.18C81.2581 197.338 79.3089 196.202 77.2007 196.242C73.7878 196.123 70.9158 198.783 70.7965 202.198C70.6772 205.612 73.3423 208.471 76.7632 208.59C76.9143 208.598 77.0575 208.598 77.2087 208.59C79.3169 208.63 81.266 207.494 82.2764 205.652L83.5811 206.383C82.2764 208.662 79.842 210.052 77.2166 210.02C73.0718 210.131 69.6191 206.875 69.4997 202.73C69.4918 202.627 69.4918 202.515 69.4918 202.412Z" fill="white"/>
<path d="M96.859 206.153H89.882L88.5136 209.766H86.9225L92.5789 195.067H94.0904L99.7548 209.766H98.1637L96.859 206.153ZM96.3339 204.771L93.3665 196.893L90.407 204.771H96.3339Z" fill="white"/>
<path d="M103.112 206.422L104.377 205.692C104.902 207.455 106.294 208.59 108.601 208.59C110.909 208.59 112.07 207.518 112.07 205.946C112.07 204.239 110.622 203.699 108.458 202.984C106.072 202.19 103.749 201.555 103.749 198.847C103.749 196.266 105.825 194.82 108.267 194.82C110.383 194.789 112.317 196.043 113.128 197.997L111.887 198.688C111.33 197.179 109.874 196.202 108.267 196.25C106.501 196.25 105.22 197.179 105.22 198.791C105.22 200.403 106.477 200.895 108.482 201.547C111.147 202.42 113.55 203.182 113.55 205.906C113.55 208.432 111.529 210.028 108.585 210.028C105.873 210.02 103.876 208.654 103.112 206.422Z" fill="white"/>
<path d="M127.464 196.472H122.945V209.782H121.473V196.472H116.955V195.083H127.464V196.472Z" fill="white"/>
<path d="M218.706 92.6892L225.286 79.7451H217.314L212.326 92.6892H218.706Z" fill="#9595CE"/>
</g>
<defs>
<clipPath id="clip0">
<rect width="348" height="217" fill="white"/>
</clipPath>
</defs>
</svg>
