<svg width="71" height="56" viewBox="0 0 71 56" fill="none" xmlns="http://www.w3.org/2000/svg">
<path d="M14.5387 10.5782C14.5364 9.39264 14.8882 8.23309 15.5495 7.2464C16.2108 6.2597 17.1519 5.49025 18.2536 5.03551C19.3553 4.58077 20.568 4.46119 21.7381 4.69192C22.9082 4.92264 23.9831 5.4933 24.8267 6.33161C25.6702 7.16991 26.2444 8.23815 26.4766 9.40103C26.7087 10.5639 26.5884 11.7691 26.1308 12.864C25.6733 13.9588 24.899 14.8941 23.9062 15.5513C22.9133 16.2086 21.7465 16.5582 20.5536 16.5559C19.7614 16.5642 18.9755 16.4153 18.2419 16.1179C17.5084 15.8204 16.8419 15.3804 16.2817 14.8236C15.7215 14.2669 15.2787 13.6046 14.9794 12.8756C14.6801 12.1466 14.5303 11.3655 14.5387 10.5782V10.5782ZM23.6529 10.5782C23.6529 8.74492 22.31 7.45426 20.5536 7.45426C18.7972 7.45426 17.4799 8.73107 17.4799 10.5782C17.4799 12.4253 18.8228 13.7044 20.5536 13.7044C22.2845 13.7044 23.6529 12.4091 23.6529 10.5782Z" fill="white"/>
<path d="M39.0861 9.28282V16.2349H36.1472V9.65455C36.1472 8.11452 35.2179 7.32257 33.8913 7.32257C32.4579 7.32257 31.3868 8.1607 31.3868 10.1302V16.2349H28.4479V4.92133H31.3868V6.19122C32.0699 5.17069 33.2454 4.60502 34.7811 4.60502C37.195 4.59578 39.0861 6.27204 39.0861 9.28282Z" fill="white"/>
<path d="M45.3082 4.80583V4.92128H47.7221V7.72888H45.3082V16.2348H42.3692V7.72195H40.729V4.91435H42.3692V4.80583C42.3692 1.68191 44.1001 -0.151344 47.7128 0.0749263V2.88253C46.1957 2.76247 45.3082 3.26119 45.3082 4.80583Z" fill="white"/>
<path d="M52.6609 4.91431H49.7219V16.2348H52.6609V4.91431Z" fill="white"/>
<path d="M52.5707 3.66971L54.0739 0.386475H50.7028L49.7456 3.66971H52.5707Z" fill="white"/>
<path d="M54.766 10.5782C54.7637 9.39264 55.1155 8.23309 55.7768 7.2464C56.4381 6.2597 57.3792 5.49025 58.4809 5.03551C59.5826 4.58077 60.7953 4.46119 61.9654 4.69192C63.1355 4.92264 64.2104 5.4933 65.0539 6.33161C65.8975 7.16991 66.4717 8.23815 66.7038 9.40103C66.936 10.5639 66.8157 11.7691 66.3581 12.864C65.9005 13.9588 65.1263 14.8941 64.1335 15.5513C63.1406 16.2086 61.9738 16.5582 60.7809 16.5559C59.9887 16.5642 59.2027 16.4153 58.4692 16.1179C57.7356 15.8204 57.0692 15.3804 56.509 14.8236C55.9488 14.2669 55.506 13.6046 55.2067 12.8756C54.9074 12.1466 54.7576 11.3655 54.766 10.5782ZM63.8801 10.5782C63.8801 8.74492 62.535 7.45426 60.7809 7.45426C59.0268 7.45426 57.6979 8.73107 57.6979 10.5782C57.6979 12.4253 59.0408 13.7044 60.7739 13.7044C62.5071 13.7044 63.8732 12.4091 63.8732 10.5782H63.8801Z" fill="white"/>
<path d="M4.58336 0.0681152H1.49573V16.2349H4.58336V0.0681152Z" fill="white"/>
<path d="M13.6092 0.0678711C13.4373 1.97501 13.0284 3.45269 12.3639 4.65101C11.6763 5.87296 10.6751 6.89193 9.46216 7.60407C9.21357 7.75877 9.09044 7.90423 9.09044 8.04276C9.09044 8.18129 9.21357 8.27365 9.46216 8.43527C10.6654 9.14001 11.6774 10.126 12.4104 11.3075C13.1538 12.5005 13.6564 14.1428 13.9182 16.2347H10.5657C10.5038 14.5723 10.194 13.2839 9.6364 12.3696C9.07882 11.4553 8.2045 10.6903 7.01343 10.0746C6.0547 9.58356 5.57455 8.97556 5.573 8.25057C5.57145 7.52558 6.03611 6.80289 6.96696 6.08252C8.22153 5.12972 9.08036 4.24156 9.54347 3.41806C10.0081 2.59379 10.2404 1.5294 10.2637 0.0678711H13.6092Z" fill="white"/>
<path d="M65.7715 2.06969C65.7715 1.69067 65.8846 1.32016 66.0965 1.00501C66.3084 0.689865 66.6095 0.444243 66.9619 0.299197C67.3142 0.154151 67.702 0.1162 68.076 0.190144C68.4501 0.264087 68.7936 0.446601 69.0633 0.71461C69.333 0.98262 69.5167 1.32409 69.5911 1.69583C69.6655 2.06757 69.6273 2.45289 69.4813 2.80306C69.3354 3.15323 69.0882 3.45253 68.7711 3.6631C68.454 3.87368 68.0812 3.98607 67.6998 3.98607C67.4465 3.98638 67.1956 3.93701 66.9615 3.84082C66.7274 3.74462 66.5147 3.60346 66.3356 3.42545C66.1565 3.24744 66.0145 3.03606 65.9177 2.80342C65.8209 2.57077 65.7712 2.32144 65.7715 2.06969V2.06969Z" fill="#58C179"/>
<path opacity="0.3" d="M1.49574 39.5562L70.234 39.5562" stroke="white" stroke-miterlimit="10" stroke-linecap="round"/>
<path d="M5.152 22.834C4.216 22.834 3.508 23.218 3.052 23.854V22.99H1.756V31.39H3.052V28.138C3.508 28.762 4.216 29.146 5.152 29.146C6.784 29.146 8.14 27.778 8.14 25.99C8.14 24.214 6.784 22.834 5.152 22.834ZM4.948 27.91C3.868 27.91 3.052 27.106 3.052 25.99C3.052 24.874 3.868 24.07 4.948 24.07C6.028 24.07 6.844 24.874 6.844 25.99C6.844 27.106 6.028 27.91 4.948 27.91ZM14.0666 22.99V23.842C13.6106 23.218 12.9026 22.834 11.9666 22.834C10.3346 22.834 8.97859 24.202 8.97859 25.99C8.97859 27.766 10.3346 29.146 11.9666 29.146C12.9026 29.146 13.6106 28.762 14.0666 28.126V28.99H15.3626V22.99H14.0666ZM12.1706 27.91C11.0906 27.91 10.2746 27.106 10.2746 25.99C10.2746 24.874 11.0906 24.07 12.1706 24.07C13.2506 24.07 14.0666 24.874 14.0666 25.99C14.0666 27.106 13.2506 27.91 12.1706 27.91ZM21.6492 22.99V23.878C21.1932 23.23 20.4852 22.834 19.5612 22.834C17.8692 22.834 16.5372 24.214 16.5372 25.93C16.5372 27.646 17.8692 29.026 19.5612 29.026C20.4852 29.026 21.1932 28.63 21.6492 27.982V28.714C21.6492 29.758 20.9772 30.37 19.8612 30.37C18.8172 30.37 18.3732 29.962 18.1092 29.446L16.9932 30.094C17.4972 31.054 18.5172 31.546 19.8372 31.546C21.4092 31.546 22.9212 30.646 22.9212 28.714V22.99H21.6492ZM19.7412 27.814C18.6492 27.814 17.8332 27.01 17.8332 25.93C17.8332 24.85 18.6492 24.046 19.7412 24.046C20.8332 24.046 21.6492 24.85 21.6492 25.93C21.6492 27.01 20.8332 27.814 19.7412 27.814ZM27.2638 29.146C29.0278 29.146 30.4318 27.766 30.4318 25.99C30.4318 24.202 29.0278 22.834 27.2638 22.834C25.5118 22.834 24.0958 24.202 24.0958 25.99C24.0958 27.766 25.5118 29.146 27.2638 29.146ZM27.2638 27.886C26.2078 27.886 25.3918 27.082 25.3918 25.99C25.3918 24.898 26.2078 24.094 27.2638 24.094C28.3198 24.094 29.1358 24.898 29.1358 25.99C29.1358 27.082 28.3198 27.886 27.2638 27.886ZM32.6505 24.646C32.6505 24.214 33.0585 24.01 33.5265 24.01C34.0185 24.01 34.4385 24.226 34.6545 24.694L35.7465 24.082C35.3265 23.29 34.5105 22.834 33.5265 22.834C32.3025 22.834 31.3305 23.542 31.3305 24.67C31.3305 26.818 34.5585 26.218 34.5585 27.286C34.5585 27.766 34.1145 27.958 33.5385 27.958C32.8785 27.958 32.3985 27.634 32.2065 27.094L31.0905 27.742C31.4745 28.606 32.3385 29.146 33.5385 29.146C34.8345 29.146 35.8785 28.498 35.8785 27.298C35.8785 25.078 32.6505 25.738 32.6505 24.646Z" fill="#58C179"/>
<path d="M2.269 49.9372C2.269 49.5322 2.665 49.3342 3.07 49.3342C3.466 49.3342 3.862 49.5052 4.033 49.9102L4.69 49.5412C4.402 48.9562 3.808 48.6052 3.07 48.6052C2.161 48.6052 1.477 49.1542 1.477 49.9462C1.477 51.5752 3.997 51.0262 3.997 51.9892C3.997 52.4302 3.583 52.6012 3.106 52.6012C2.548 52.6012 2.134 52.3312 1.99 51.8992L1.315 52.2862C1.576 52.9072 2.206 53.3392 3.106 53.3392C4.069 53.3392 4.789 52.8262 4.789 51.9892C4.789 50.3332 2.269 50.9002 2.269 49.9372ZM6.49907 49.4782V48.7222H5.71607V53.2222H6.49907V50.8372C6.49907 49.7752 7.22807 49.4332 7.90307 49.4602V48.6412C7.33607 48.6412 6.78707 48.8482 6.49907 49.4782ZM8.52259 53.3212C8.85559 53.3212 9.10759 53.0602 9.10759 52.7362C9.10759 52.4122 8.85559 52.1512 8.52259 52.1512C8.19859 52.1512 7.93759 52.4122 7.93759 52.7362C7.93759 53.0602 8.19859 53.3212 8.52259 53.3212ZM12.7001 48.6052C11.9351 48.6052 11.3591 48.9472 10.9991 49.4962V48.7222H10.2161V55.0222H10.9991V52.4482C11.3591 52.9972 11.9351 53.3392 12.7001 53.3392C13.9511 53.3392 14.9771 52.3042 14.9771 50.9722C14.9771 49.6402 13.9511 48.6052 12.7001 48.6052ZM12.6011 52.5832C11.6921 52.5832 10.9991 51.8902 10.9991 50.9722C10.9991 50.0542 11.6921 49.3612 12.6011 49.3612C13.5011 49.3612 14.1941 50.0542 14.1941 50.9722C14.1941 51.8902 13.5011 52.5832 12.6011 52.5832ZM19.6374 48.7222V49.4962C19.2774 48.9472 18.7014 48.6052 17.9364 48.6052C16.6854 48.6052 15.6594 49.6402 15.6594 50.9722C15.6594 52.3042 16.6854 53.3392 17.9364 53.3392C18.7014 53.3392 19.2774 52.9972 19.6374 52.4482V53.2222H20.4204V48.7222H19.6374ZM18.0354 52.5832C17.1354 52.5832 16.4424 51.8902 16.4424 50.9722C16.4424 50.0542 17.1354 49.3612 18.0354 49.3612C18.9444 49.3612 19.6374 50.0542 19.6374 50.9722C19.6374 51.8902 18.9444 52.5832 18.0354 52.5832ZM25.3417 48.7222V49.4962C24.9817 48.9472 24.4057 48.6052 23.6497 48.6052C22.3717 48.6052 21.3547 49.6402 21.3547 50.9452C21.3547 52.2592 22.3717 53.2942 23.6497 53.2942C24.4057 53.2942 24.9817 52.9432 25.3417 52.3942V53.0332C25.3417 53.8792 24.7747 54.4102 23.8387 54.4102C22.9567 54.4102 22.5787 54.0772 22.3717 53.6542L21.6877 54.0412C22.0567 54.7522 22.8127 55.1392 23.8207 55.1392C24.9907 55.1392 26.1157 54.4372 26.1157 53.0332V48.7222H25.3417ZM23.7397 52.5472C22.8307 52.5472 22.1377 51.8542 22.1377 50.9452C22.1377 50.0452 22.8307 49.3522 23.7397 49.3522C24.6487 49.3522 25.3417 50.0452 25.3417 50.9452C25.3417 51.8542 24.6487 52.5472 23.7397 52.5472ZM29.417 53.3392C30.731 53.3392 31.793 52.3042 31.793 50.9722C31.793 49.6402 30.731 48.6052 29.417 48.6052C28.103 48.6052 27.05 49.6402 27.05 50.9722C27.05 52.3042 28.103 53.3392 29.417 53.3392ZM29.417 52.5742C28.526 52.5742 27.833 51.8812 27.833 50.9722C27.833 50.0632 28.526 49.3702 29.417 49.3702C30.317 49.3702 31.01 50.0632 31.01 50.9722C31.01 51.8812 30.317 52.5742 29.417 52.5742Z" fill="white"/>
</svg>
