<svg viewBox="0 0 124 31" fill="black" xmlns="http://www.w3.org/2000/svg" class="w-24 md-up:w-32"><path transform="scale(1)" d="M24.0107 19.7946C24.0107 13.6646 28.8344 8.94141 34.8639 8.94141C40.8935 8.94141 45.7171 13.6646 45.7171 19.7946C45.7171 25.9247 40.8935 30.6478 34.8639 30.6478C28.8344 30.6478 24.0107 25.9247 24.0107 19.7946ZM40.391 19.7946C40.391 16.4784 37.9792 14.167 34.7635 14.167C31.6482 14.167 29.2364 16.4784 29.2364 19.7946C29.2364 23.1109 31.6482 25.4222 34.7635 25.4222C37.9792 25.4222 40.391 23.1109 40.391 19.7946Z" class="fill-current transition-all-100 text-grey-900"></path><path transform="scale(1)" d="M68.1267 17.3828V29.9444H62.8006V18.0862C62.8006 15.2724 61.0922 13.8655 58.7809 13.8655C56.1681 13.8655 54.2587 15.3729 54.2587 18.9907V30.0449H48.9326V9.54436H54.2587V11.8557C55.4646 10.0468 57.575 8.94141 60.3888 8.94141C64.71 8.94141 68.1267 11.9562 68.1267 17.3828Z" class="fill-current transition-all-100 text-grey-900"></path><path transform="scale(1)" d="M79.382 9.34373V9.54472H83.7032V14.6698H79.382V30.0452H74.0559V14.5693H71.1416V9.54472H74.0559V9.34373C74.0559 3.71615 77.1712 0.39989 83.7032 0.801861V5.92698C80.9899 5.62551 79.382 6.52994 79.382 9.34373Z" class="fill-current transition-all-100 text-grey-900"></path><path transform="scale(1)" d="M92.6464 9.54443H87.3203V30.0449H92.6464V9.54443Z" class="fill-current transition-all-100 text-grey-900"></path><path transform="scale(1)" d="M92.4454 7.23326L95.1587 1.3042H89.0287L87.3203 7.23326H92.4454Z" class="fill-current transition-all-100 text-grey-900"></path><path transform="scale(1)" d="M96.3652 19.7946C96.3652 13.6646 101.189 8.94141 107.218 8.94141C113.248 8.94141 118.072 13.6646 118.072 19.7946C118.072 25.9247 113.248 30.6478 107.218 30.6478C101.189 30.5473 96.3652 25.9247 96.3652 19.7946ZM112.746 19.7946C112.746 16.4784 110.334 14.167 107.118 14.167C104.003 14.167 101.591 16.4784 101.591 19.7946C101.591 23.1109 104.003 25.4222 107.118 25.4222C110.334 25.4222 112.746 23.1109 112.746 19.7946Z" class="fill-current transition-all-100 text-grey-900"></path><path transform="scale(1)" d="M6.02221 0.701172H0.495117V29.9445H6.02221V0.701172Z" class="fill-current transition-all-100 text-grey-900"></path><path transform="scale(1)" d="M22.302 0.701172C22.0005 4.11792 21.2971 6.83122 20.0912 9.04206C18.8852 11.2529 17.1769 12.9613 14.8655 14.3682C14.4636 14.6696 14.1621 14.8706 14.1621 15.1721C14.1621 15.3731 14.3631 15.5741 14.8655 15.8756C17.0764 17.182 18.8852 18.8903 20.1916 21.1012C21.498 23.2115 22.4025 26.2263 22.9049 30.045H16.8754C16.7749 27.0302 16.1719 24.7189 15.167 23.0105C14.1621 21.4026 12.5542 19.9958 10.4439 18.8903C8.73549 17.9859 7.83105 16.8805 7.83105 15.5741C7.83105 14.2677 8.635 12.9613 10.3434 11.6549C12.5542 9.94649 14.1621 8.33861 14.966 6.83122C15.77 5.32383 16.2724 3.41447 16.2724 0.801664H22.302V0.701172Z" class="fill-current transition-all-100 text-grey-900"></path><path transform="scale(1)" d="M116.162 4.319C116.162 2.40964 117.669 0.801758 119.679 0.801758C121.589 0.801758 123.197 2.30915 123.197 4.319C123.197 6.32885 121.689 7.83624 119.679 7.83624C117.77 7.83624 116.162 6.32885 116.162 4.319Z" class="fill-current transition-all-100 text-purple"></path></svg>