<svg xmlns="http://www.w3.org/2000/svg" width="19" height="30" viewBox="0 0 19 30">
    <g fill="none" fill-rule="evenodd">
        <g>
            <g>
                <g>
                    <g>
                        <g>
                            <g>
                                <g transform="translate(-772 -1457) translate(157 915) translate(94 165) translate(480) translate(36 204) translate(5 173)">
                                    <path fill="#FFF" d="M19 9.334c0 2.195-.792 4.328-2.23 6.005-1.355 1.63-2.37 3.257-3.08 4.562.686.429 1.142 1.18 1.142 2.036 0 .524-.172 1.008-.462 1.405.29.396.462.88.462 1.405 0 1.266-.997 2.306-2.26 2.406C12.476 28.738 11.136 30 9.5 30s-2.976-1.262-3.073-2.847c-1.263-.1-2.26-1.14-2.26-2.406 0-.524.173-1.009.463-1.405-.29-.397-.463-.881-.463-1.405 0-.856.457-1.607 1.142-2.036-.711-1.305-1.727-2.935-3.09-4.574C.793 13.662 0 11.53 0 9.334c0-2.492.989-4.836 2.784-6.6C4.578.972 6.964 0 9.5 0c2.537 0 4.922.971 6.716 2.735C18.012 4.498 19 6.842 19 9.335zm-6.625 12.207h-5.75c-.222 0-.402.178-.402.396 0 .218.18.395.402.395h5.75c.222 0 .402-.177.402-.395 0-.219-.18-.396-.402-.396zM9.5 27.98c.5 0 .917-.353 1.008-.817H8.492c.091.464.509.817 1.008.817zm2.875-2.838c.222 0 .402-.177.402-.395 0-.219-.18-.395-.402-.395h-5.75c-.222 0-.402.177-.402.395 0 .218.18.395.402.395h5.75zm-.802-5.62c.762-1.473 1.949-3.468 3.615-5.472 1.136-1.325 1.756-2.996 1.756-4.715 0-1.954-.774-3.79-2.18-5.171C13.356 2.78 11.487 2.02 9.5 2.02c-1.987 0-3.856.76-5.262 2.142C2.83 5.545 2.057 7.381 2.057 9.334c0 1.72.62 3.39 1.745 4.704 1.675 2.015 2.863 4.01 3.625 5.483h4.146z"/>
                                </g>
                            </g>
                        </g>
                    </g>
                </g>
            </g>
        </g>
    </g>
</svg>
