<svg width="79" height="79" viewBox="0 0 79 79" fill="none" xmlns="http://www.w3.org/2000/svg">
<g id="Group 95">
<g id="Group 3">
<mask id="mask0" style="mask-type:alpha" maskUnits="userSpaceOnUse" x="0" y="0" width="79" height="79">
<path id="Clip 2" fill-rule="evenodd" clip-rule="evenodd" d="M0.759155 0.6698H78.4847V78.3952H0.759155V0.6698Z" fill="white"/>
</mask>
<g mask="url(#mask0)">
<path id="Fill 1" fill-rule="evenodd" clip-rule="evenodd" d="M39.6218 0.6698C61.0853 0.6698 78.4848 18.0693 78.4848 39.5325C78.4848 60.996 61.0853 78.3952 39.6218 78.3952C18.1586 78.3952 0.759155 60.996 0.759155 39.5325C0.759155 18.0693 18.1586 0.6698 39.6218 0.6698Z" fill="#F0ECF8"/>
</g>
</g>
<g id="Group 22">
<g id="Group 6">
<mask id="mask1" style="mask-type:alpha" maskUnits="userSpaceOnUse" x="0" y="0" width="79" height="79">
<path id="Clip 5" fill-rule="evenodd" clip-rule="evenodd" d="M39.6468 0.669678C18.245 0.741821 0.918945 18.1137 0.918945 39.5324C0.918945 60.9958 18.3187 78.3953 39.7819 78.3953C61.2451 78.3953 78.6446 60.9958 78.6446 39.5324C78.6446 18.1137 61.3186 0.741821 39.917 0.669678" fill="white"/>
</mask>
<g mask="url(#mask1)">
<path id="Fill 4" fill-rule="evenodd" clip-rule="evenodd" d="M21.4889 101.485H55.2389C57.7152 101.485 59.7473 99.4843 59.7473 96.9761V20.5227C59.7473 18.0464 57.7471 16.0143 55.2389 16.0143H21.4889C19.0123 16.0143 16.9805 18.0146 16.9805 20.5227V96.9761C16.9805 99.4843 19.0123 101.485 21.4889 101.485Z" fill="white"/>
</g>
</g>
<g id="Group 9">
<mask id="mask2" style="mask-type:alpha" maskUnits="userSpaceOnUse" x="0" y="0" width="79" height="79">
<path id="Clip 8" fill-rule="evenodd" clip-rule="evenodd" d="M39.6468 0.669678C18.245 0.741821 0.918945 18.1137 0.918945 39.5324C0.918945 60.9958 18.3187 78.3953 39.7819 78.3953C61.2451 78.3953 78.6446 60.9958 78.6446 39.5324C78.6446 18.1137 61.3186 0.741821 39.917 0.669678H39.6468Z" fill="white"/>
</mask>
<g mask="url(#mask2)">
<path id="Fill 7" fill-rule="evenodd" clip-rule="evenodd" d="M21.4895 16.172C19.0764 16.172 17.1396 18.1085 17.1396 20.5216V96.975C17.1396 99.3879 19.0764 101.325 21.4895 101.325H55.2395C57.6524 101.325 59.5892 99.3879 59.5892 96.975V20.5216C59.5892 18.1085 57.6524 16.172 55.2395 16.172H21.4895ZM55.208 101.641H21.4896C18.9177 101.641 16.8542 99.5459 16.8542 97.0058V20.5527C16.8542 17.9808 18.9498 15.9171 21.4896 15.9171H55.2396C57.8112 15.9171 59.8749 18.0127 59.8749 20.5527V97.0058C59.8433 99.5459 57.7793 101.641 55.208 101.641Z" fill="black"/>
</g>
</g>
<g id="Group 12">
<mask id="mask3" style="mask-type:alpha" maskUnits="userSpaceOnUse" x="0" y="0" width="79" height="79">
<path id="Clip 11" fill-rule="evenodd" clip-rule="evenodd" d="M39.6468 0.669678C18.245 0.741821 0.918945 18.1137 0.918945 39.5324C0.918945 60.9958 18.3187 78.3953 39.7819 78.3953C61.2451 78.3953 78.6446 60.9958 78.6446 39.5324C78.6446 18.1137 61.3186 0.741821 39.917 0.669678" fill="white"/>
</mask>
<g mask="url(#mask3)">
<path id="Fill 10" fill-rule="evenodd" clip-rule="evenodd" d="M22.6645 99.4512H54.0016C56.1288 99.4512 57.875 97.705 57.875 95.5778V21.9818C57.875 19.8546 56.1288 18.1084 54.0016 18.1084H22.6645C20.5373 18.1084 18.7911 19.8546 18.7911 21.9818V95.5778C18.7911 97.705 20.5373 99.4512 22.6645 99.4512Z" fill="black"/>
</g>
</g>
<g id="Group 15">
<mask id="mask4" style="mask-type:alpha" maskUnits="userSpaceOnUse" x="0" y="0" width="79" height="79">
<path id="Clip 14" fill-rule="evenodd" clip-rule="evenodd" d="M39.6468 0.669678C18.245 0.741821 0.918945 18.1137 0.918945 39.5324C0.918945 60.9958 18.3187 78.3953 39.7819 78.3953C61.2451 78.3953 78.6446 60.9958 78.6446 39.5324C78.6446 18.1137 61.3186 0.741821 39.917 0.669678" fill="white"/>
</mask>
<g mask="url(#mask4)">
<path id="Fill 13" fill-rule="evenodd" clip-rule="evenodd" d="M53.1456 19.6014H48.4784C48.4149 21.062 47.1766 22.2368 45.6845 22.2368H30.7621C29.2698 22.2368 28.0633 21.062 27.9683 19.6014H23.3008C21.5549 19.6014 20.1578 20.9985 20.1578 22.7447V94.9753C20.1578 96.7215 21.5549 98.1185 23.3008 98.1185H53.114C54.8602 98.1185 56.257 96.7215 56.257 94.9753V22.7447C56.2888 21.0301 54.892 19.6014 53.1456 19.6014Z" fill="#FEFEFE"/>
</g>
</g>
<g id="Group 18">
<mask id="mask5" style="mask-type:alpha" maskUnits="userSpaceOnUse" x="0" y="0" width="79" height="79">
<path id="Clip 17" fill-rule="evenodd" clip-rule="evenodd" d="M39.6468 0.669678C18.245 0.741821 0.918945 18.1137 0.918945 39.5324C0.918945 60.9958 18.3187 78.3953 39.7819 78.3953C61.2451 78.3953 78.6446 60.9958 78.6446 39.5324C78.6446 18.1137 61.3186 0.741821 39.917 0.669678H39.6468Z" fill="white"/>
</mask>
<g mask="url(#mask5)">
<path id="Fill 16" fill-rule="evenodd" clip-rule="evenodd" d="M23.3301 19.665C21.6155 19.665 20.2187 21.0621 20.2187 22.7764V95.007C20.2187 96.7216 21.6155 98.1184 23.3301 98.1184H53.143C54.8573 98.1184 56.2544 96.7216 56.2544 95.007V22.7764C56.2544 21.0621 54.8573 19.665 53.143 19.665H48.5392C48.4442 21.1571 47.2059 22.3001 45.7135 22.3001H30.7912C29.2991 22.3001 28.0608 21.1571 27.9655 19.665H23.3301ZM53.1446 98.1833H23.3317C21.5853 98.1833 20.1248 96.7544 20.1248 94.9766V22.746C20.1248 20.9996 21.5537 19.5393 23.3317 19.5393H28.0305V19.5709C28.094 21.0314 29.3007 22.1744 30.7612 22.1744H45.6835C47.1438 22.1744 48.3505 21.0314 48.4139 19.5709V19.5393H53.1127C54.8589 19.5393 56.3194 20.968 56.3194 22.746V94.9766C56.3513 96.7228 54.9224 98.1833 53.1446 98.1833Z" fill="black"/>
</g>
</g>
<mask id="mask6" style="mask-type:alpha" maskUnits="userSpaceOnUse" x="0" y="0" width="79" height="79">
<path id="Clip 20" fill-rule="evenodd" clip-rule="evenodd" d="M39.6468 0.669678C18.245 0.741821 0.918945 18.1137 0.918945 39.5324C0.918945 60.9958 18.3187 76.8965 39.7819 76.8965V78.3953C61.2451 78.3953 78.6446 60.9958 78.6446 39.5324C78.6446 18.1137 61.3186 0.741821 39.917 0.669678H39.6468Z" fill="white"/>
</mask>
<g mask="url(#mask6)">
<path id="Fill 19" fill-rule="evenodd" clip-rule="evenodd" d="M34.4742 20.682H40.0306V19.92H34.4742V20.682Z" fill="white"/>
<path id="Fill 21" fill-rule="evenodd" clip-rule="evenodd" d="M41.4925 19.6976C41.8256 19.6976 42.0957 19.9678 42.0957 20.3008C42.0957 20.6339 41.8256 20.9041 41.4925 20.9041C41.1592 20.9041 40.889 20.6339 40.889 20.3008C40.889 19.9678 41.1592 19.6976 41.4925 19.6976Z" fill="white"/>
</g>
</g>
<g id="Group 45">
<path id="Fill 23" fill-rule="evenodd" clip-rule="evenodd" d="M23.6791 30.3904L23.5479 38.8493C23.5391 39.4299 23.9706 39.935 24.5389 39.9452L51.8746 40.4304C52.4173 40.4401 52.8896 39.9784 52.8992 39.3702L53.0302 30.9112C53.0392 30.3309 52.6077 29.8255 52.0395 29.8153L24.7035 29.3304C24.1352 29.3201 23.6882 29.8098 23.6791 30.3904Z" fill="white"/>
<path id="Fill 25" fill-rule="evenodd" clip-rule="evenodd" d="M24.7008 29.5258C24.2357 29.5175 23.8419 29.9253 23.8341 30.4229L23.7031 38.8818C23.6951 39.3792 24.0765 39.8008 24.5417 39.8091L51.8774 40.2943C52.3425 40.3024 52.7364 39.8948 52.7441 39.3972L52.8751 30.9383C52.8831 30.4409 52.502 30.0193 52.0368 30.011L24.7008 29.5258ZM51.8475 40.598L24.5373 40.1133C23.8913 40.1017 23.3832 39.5397 23.3938 38.8488L23.5251 30.3898C23.5357 29.6986 24.0611 29.1551 24.7068 29.1664L52.0431 29.6516C52.6888 29.6633 53.1969 30.225 53.1863 30.9162L53.0553 39.3752C53.0186 40.0658 52.4932 40.6093 51.8475 40.598Z" fill="#1F3040"/>
<path id="Fill 27" fill-rule="evenodd" clip-rule="evenodd" d="M30.4777 31.9478C31.9188 31.9735 33.0677 33.2442 33.0439 34.786C33.0199 36.3282 31.8322 37.5574 30.3908 37.5317C28.9497 37.5062 27.8008 36.2353 27.8246 34.6934C27.8486 33.1515 29.0363 31.9223 30.4777 31.9478Z" fill="#773DBD"/>
<path id="Fill 29" fill-rule="evenodd" clip-rule="evenodd" d="M30.4738 32.1158C29.1303 32.092 28.0011 33.2609 27.9786 34.6983C27.9564 36.1359 29.0489 37.3441 30.3926 37.3682C31.7361 37.3917 32.8653 36.2228 32.8878 34.7854C32.9101 33.348 31.8172 32.1395 30.4738 32.1158ZM30.3857 37.6992C28.8616 37.6721 27.6419 36.3232 27.6673 34.6923C27.6923 33.0613 28.9531 31.7564 30.4777 31.7835C32.0021 31.8106 33.2217 33.1595 33.1962 34.7904C33.1708 36.4213 31.9101 37.7263 30.3857 37.6992Z" fill="#1F3040"/>
</g>
<g id="Group 46">
<path id="Fill 23_2" fill-rule="evenodd" clip-rule="evenodd" d="M23.6791 45.9173L23.5479 54.3763C23.5391 54.9569 23.9706 55.462 24.5389 55.4722L51.8746 55.9574C52.4173 55.9671 52.8896 55.5054 52.8992 54.8971L53.0302 46.4382C53.0392 45.8579 52.6077 45.3525 52.0395 45.3423L24.7035 44.8573C24.1352 44.8471 23.6882 45.3367 23.6791 45.9173Z" fill="white"/>
<path id="Fill 25_2" fill-rule="evenodd" clip-rule="evenodd" d="M24.7008 45.0527C24.2357 45.0444 23.8419 45.4522 23.8341 45.9499L23.7031 54.4088C23.6951 54.9062 24.0765 55.3278 24.5417 55.3361L51.8774 55.8213C52.3425 55.8293 52.7364 55.4218 52.7441 54.9242L52.8751 46.4652C52.8831 45.9679 52.502 45.5462 52.0368 45.5379L24.7008 45.0527ZM51.8475 56.125L24.5373 55.6403C23.8913 55.6287 23.3832 55.0666 23.3938 54.3757L23.5251 45.9168C23.5357 45.2256 24.0611 44.6821 24.7068 44.6934L52.0431 45.1786C52.6888 45.1902 53.1969 45.752 53.1863 46.4432L53.0553 54.9021C53.0186 55.5928 52.4932 56.1363 51.8475 56.125Z" fill="#1F3040"/>
<path id="Fill 27_2" fill-rule="evenodd" clip-rule="evenodd" d="M30.4777 47.4748C31.9188 47.5005 33.0677 48.7711 33.0439 50.313C33.0199 51.8552 31.8322 53.0844 30.3908 53.0587C28.9497 53.0332 27.8008 51.7623 27.8246 50.2204C27.8486 48.6785 29.0363 47.4493 30.4777 47.4748Z" fill="#773DBD"/>
<path id="Fill 29_2" fill-rule="evenodd" clip-rule="evenodd" d="M30.4738 47.6427C29.1303 47.619 28.0011 48.7879 27.9786 50.2253C27.9564 51.6629 29.0489 52.8711 30.3926 52.8952C31.7361 52.9187 32.8653 51.7497 32.8878 50.3124C32.9101 48.875 31.8172 47.6665 30.4738 47.6427ZM30.3857 53.2261C28.8616 53.1991 27.6419 51.8501 27.6673 50.2192C27.6923 48.5883 28.9531 47.2834 30.4777 47.3105C32.0021 47.3376 33.2217 48.6865 33.1962 50.3174C33.1708 51.9483 31.9101 53.2532 30.3857 53.2261Z" fill="#1F3040"/>
</g>
<g id="Group 47">
<path id="Fill 23_3" fill-rule="evenodd" clip-rule="evenodd" d="M23.6791 60.5433L23.5479 69.0022C23.5391 69.5828 23.9706 70.0879 24.5389 70.0982L51.8746 70.5834C52.4173 70.5931 52.8896 70.1314 52.8992 69.5231L53.0302 61.0642C53.0392 60.4839 52.6077 59.9785 52.0395 59.9682L24.7035 59.4833C24.1352 59.4731 23.6882 59.9627 23.6791 60.5433Z" fill="white"/>
<path id="Fill 25_3" fill-rule="evenodd" clip-rule="evenodd" d="M24.7008 59.6787C24.2357 59.6704 23.8419 60.0782 23.8341 60.5759L23.7031 69.0348C23.6951 69.5322 24.0765 69.9538 24.5417 69.9621L51.8774 70.4473C52.3425 70.4553 52.7364 70.0478 52.7441 69.5501L52.8751 61.0912C52.8831 60.5938 52.502 60.1722 52.0368 60.1639L24.7008 59.6787ZM51.8475 70.751L24.5373 70.2663C23.8913 70.2547 23.3832 69.6926 23.3938 69.0017L23.5251 60.5428C23.5357 59.8516 24.0611 59.3081 24.7068 59.3194L52.0431 59.8046C52.6888 59.8162 53.1969 60.378 53.1863 61.0692L53.0553 69.5281C53.0186 70.2187 52.4932 70.7623 51.8475 70.751Z" fill="#1F3040"/>
<path id="Fill 27_3" fill-rule="evenodd" clip-rule="evenodd" d="M30.4777 62.1007C31.9188 62.1264 33.0677 63.3971 33.0439 64.939C33.0199 66.4812 31.8322 67.7103 30.3908 67.6846C28.9497 67.6592 27.8008 66.3883 27.8246 64.8464C27.8486 63.3045 29.0363 62.0753 30.4777 62.1007Z" fill="#773DBD"/>
<path id="Fill 29_3" fill-rule="evenodd" clip-rule="evenodd" d="M30.4738 62.2687C29.1303 62.2449 28.0011 63.4139 27.9786 64.8512C27.9564 66.2889 29.0489 67.4971 30.3926 67.5211C31.7361 67.5446 32.8653 66.3757 32.8878 64.9383C32.9101 63.501 31.8172 62.2925 30.4738 62.2687ZM30.3857 67.8521C28.8616 67.825 27.6419 66.4761 27.6673 64.8452C27.6923 63.2143 28.9531 61.9094 30.4777 61.9364C32.0021 61.9635 33.2217 63.3125 33.1962 64.9434C33.1708 66.5743 31.9101 67.8792 30.3857 67.8521Z" fill="#1F3040"/>
</g>
</g>
</svg>
