<svg width="52" height="53" viewBox="0 0 52 53" fill="none" xmlns="http://www.w3.org/2000/svg">
<g id="Group 39">
<g id="Group 3">
<mask id="mask0" mask-type="alpha" maskUnits="userSpaceOnUse" x="-1" y="0" width="53" height="53">
<path id="Clip 2" fill-rule="evenodd" clip-rule="evenodd" d="M-0.328125 0.915771H51.5439V52.7879H-0.328125V0.915771Z" fill="white"/>
</mask>
<g mask="url(#mask0)">
<path id="Fill 1" fill-rule="evenodd" clip-rule="evenodd" d="M-0.328125 26.8518C-0.328125 12.5278 11.2839 0.915771 25.6081 0.915771C39.9322 0.915771 51.544 12.5278 51.544 26.8518C51.544 41.1759 39.9322 52.7879 25.6081 52.7879C11.2839 52.7879 -0.328125 41.1759 -0.328125 26.8518Z" fill="#F3F5FC"/>
</g>
</g>
<path id="Fill 4" fill-rule="evenodd" clip-rule="evenodd" d="M18.6719 19.7878H8.67188V15.1981C8.67188 12.7624 10.7004 10.7878 13.2026 10.7878H18.6719V19.7878Z" fill="#1F3040"/>
<path id="Fill 6" fill-rule="evenodd" clip-rule="evenodd" d="M12.6719 11.7878C12.6719 11.7878 15.9969 11.9913 17.1795 15.2022C17.411 15.8308 17.519 16.4962 17.519 17.1641V38.229C17.519 38.229 17.292 43.3944 22.7954 43.7878H35.6708V16.9284C35.6708 16.9284 35.8406 13.2489 31.8622 12.0677C31.2715 11.8925 30.6556 11.8124 30.0382 11.8133L12.6719 11.7878Z" fill="white"/>
<path id="Fill 8" fill-rule="evenodd" clip-rule="evenodd" d="M22.7711 43.6599H35.5393V16.9721C35.5396 16.96 35.5751 16.0506 35.1309 15.0122C34.7222 14.0566 33.8105 12.7917 31.7884 12.1919C31.2275 12.0256 30.6255 11.9411 29.9989 11.9411H29.9894L13.4303 11.917C13.7344 11.9922 14.1083 12.1104 14.5089 12.2952C15.4106 12.7112 16.6149 13.5584 17.2315 15.231C17.4589 15.8474 17.5742 16.5121 17.5742 17.2066V38.1872C17.5735 38.2027 17.5257 39.48 18.1426 40.7862C18.9672 42.532 20.5247 43.4988 22.7711 43.6599ZM35.6707 43.7878L22.7639 43.7877C21.4997 43.6973 20.433 43.3466 19.593 42.7449C18.92 42.263 18.3912 41.6203 18.0212 40.8352C17.3927 39.5015 17.442 38.1976 17.4425 38.1845V17.2066C17.4425 16.5268 17.3299 15.8766 17.1079 15.2742C16.5063 13.6427 15.332 12.8164 14.4524 12.4108C13.4989 11.9708 12.6799 11.9161 12.6719 11.9156L12.676 11.7878L29.9894 11.8133H29.9991C30.6386 11.8133 31.2535 11.8996 31.8268 12.0696C33.9004 12.6847 34.8352 13.9852 35.2543 14.9681C35.7084 16.0321 35.6723 16.9368 35.6705 16.9748L35.6707 43.7878Z" fill="#1F3040"/>
<path id="Fill 10" fill-rule="evenodd" clip-rule="evenodd" d="M12.9264 11.9345C12.9637 11.9395 13.0062 11.946 13.054 11.9538L12.9763 11.9345H12.9264ZM22.7842 43.5142H35.39V17.0215C35.3913 16.9812 35.4157 16.0958 34.9899 15.0986C34.5902 14.1621 33.6979 12.9219 31.717 12.3332C31.1671 12.1697 30.5762 12.0867 29.9613 12.0867L14.0143 12.0634C14.2158 12.1319 14.4137 12.2109 14.6063 12.3001C15.5146 12.72 16.7281 13.5752 17.3492 15.2639C17.5778 15.8852 17.6939 16.5552 17.6939 17.2552V38.1398C17.6934 38.1554 17.6467 39.4127 18.2521 40.6963C19.0583 42.4072 20.5832 43.3554 22.7842 43.5142ZM35.6704 43.7878L22.7743 43.7877C21.4988 43.6966 20.4261 43.3427 19.5803 42.7354C18.9012 42.2483 18.3678 41.5991 17.9948 40.806C17.3674 39.4719 17.4112 38.1883 17.4132 38.1342V17.2552C17.4132 16.5868 17.3029 15.9479 17.0852 15.3561C16.4963 13.7554 15.3466 12.9452 14.4859 12.5471C13.5581 12.1181 12.7522 12.0617 12.7444 12.0611L12.6719 12.0566L12.6808 11.7878L29.952 11.8132C30.6042 11.8132 31.2225 11.9001 31.7989 12.0716C33.8869 12.692 34.8287 14.0057 35.2511 14.9987C35.7121 16.0815 35.6722 16.9899 35.6702 17.0279L35.6704 43.7878Z" fill="#1F3040"/>
<path id="Fill 12" fill-rule="evenodd" clip-rule="evenodd" d="M27.3865 35.7878V39.9461C27.3865 40.9254 27.0686 41.8839 26.4569 42.6409C26.0414 43.155 25.4621 43.619 24.6719 43.7878H36.2603C36.3814 43.7878 36.5022 43.7796 36.6221 43.7625C37.3965 43.6518 39.8897 43.0789 40.5513 40.2519C40.6351 39.893 40.6719 39.5243 40.6719 39.1554V35.7878H27.3865Z" fill="white"/>
<path id="Fill 14" fill-rule="evenodd" clip-rule="evenodd" d="M24.7608 43.6594H36.1107C36.2328 43.6594 36.3535 43.6513 36.4703 43.635C37.2286 43.5306 39.7544 42.9759 40.4196 40.2297C40.5 39.8974 40.5409 39.5393 40.5409 39.1657V35.9163H27.1334V39.9436C27.1334 40.9383 26.7918 41.8945 26.1713 42.6358C25.7659 43.1203 25.2929 43.4633 24.7608 43.6594ZM36.1107 43.7878H23.6719L24.2881 43.6608C24.9746 43.5192 25.5743 43.1469 26.0702 42.5543C26.6714 41.8358 27.0026 40.9086 27.0026 39.9436V35.7878H40.6719V39.1657C40.6719 39.5493 40.6299 39.9174 40.547 40.2593C39.8623 43.0847 37.2676 43.6548 36.4885 43.7623C36.3658 43.7793 36.2388 43.7878 36.1107 43.7878Z" fill="#1F3040"/>
<path id="Fill 16" fill-rule="evenodd" clip-rule="evenodd" d="M24.8632 43.5168H35.9831C36.103 43.5168 36.2219 43.5091 36.3361 43.4936C37.0908 43.3926 39.605 42.8568 40.2669 40.2048C40.3467 39.884 40.3874 39.5381 40.3874 39.1769V36.0589H26.9802V39.9408C26.9802 40.9343 26.6285 41.8894 25.9899 42.6302C25.6582 43.015 25.2805 43.3122 24.8632 43.5168ZM24.129 43.6429L24.1563 43.6364C24.1472 43.6386 24.1379 43.6409 24.129 43.6429ZM35.9831 43.7878H22.6719L24.011 43.5197C24.6879 43.3841 25.2799 43.027 25.7702 42.4583C26.3671 41.7656 26.6959 40.8716 26.6959 39.9408V35.7878H40.6719V39.1769C40.6719 39.5591 40.6287 39.9262 40.5434 40.2674C39.8398 43.0862 37.1756 43.6548 36.3758 43.762C36.2476 43.7791 36.1155 43.7878 35.9831 43.7878Z" fill="#1F3040"/>
<path id="Fill 18" fill-rule="evenodd" clip-rule="evenodd" d="M27.6682 23.7878H26.6756L26.6924 23.5019C26.7944 21.7589 26.8211 20.0013 26.7822 18.2545C26.7705 17.723 26.7524 17.191 26.7261 16.6602C26.7165 16.4665 26.7066 16.2716 26.6927 16.0782L26.6719 15.7878H27.6719L27.6512 16.0782C27.6373 16.2729 27.6271 16.4692 27.6175 16.6642C27.5912 17.1952 27.5734 17.7274 27.5617 18.2594C27.5229 20.0046 27.5493 21.7605 27.6515 23.5019L27.6682 23.7878Z" fill="#9F97E7"/>
<path id="Fill 20" fill-rule="evenodd" clip-rule="evenodd" d="M26.7985 23.6286H27.5451L27.535 23.4336C27.4481 21.7713 27.4214 20.0398 27.4562 18.2875C27.4673 17.7291 27.4832 17.2168 27.5052 16.7215C27.5137 16.5295 27.5225 16.3365 27.5348 16.1451L27.5475 15.9471H26.7961L26.8088 16.1451C26.8211 16.3351 26.8297 16.5269 26.8382 16.7173C26.8604 17.2162 26.8765 17.7281 26.8874 18.2828C26.9223 20.0349 26.8958 21.7679 26.8087 23.4336L26.7985 23.6286ZM27.6677 23.7878H26.6761L26.6951 23.4221C26.782 21.7615 26.8084 20.0342 26.7736 18.2873C26.7627 17.7346 26.7467 17.2241 26.7247 16.7272C26.7163 16.5382 26.7076 16.3478 26.6955 16.1593L26.6719 15.7878H27.6719L27.6481 16.1593C27.6361 16.3491 27.6273 16.5409 27.6188 16.7311C27.5969 17.2247 27.5809 17.7351 27.57 18.2919C27.5352 20.0391 27.5617 21.7651 27.6485 23.4221L27.6677 23.7878Z" fill="#1F3040"/>
<path id="Fill 22" fill-rule="evenodd" clip-rule="evenodd" d="M24.6719 18.784V17.7915L24.8506 17.8084C25.9399 17.9104 27.0385 17.9369 28.1301 17.898C28.4623 17.8863 28.7949 17.8684 29.1267 17.842C29.2477 17.8324 29.3694 17.8226 29.4903 17.8087L29.6719 17.7878V18.7878L29.4903 18.767C29.3687 18.753 29.2459 18.7429 29.124 18.7334C28.792 18.707 28.4595 18.6892 28.1272 18.6773C27.0363 18.6388 25.9388 18.6653 24.8506 18.7673L24.6719 18.784Z" fill="#9F97E7"/>
<path id="Fill 24" fill-rule="evenodd" clip-rule="evenodd" d="M27.1812 18.5558C27.4866 18.5558 27.7938 18.5606 28.1021 18.5705C28.4474 18.5815 28.765 18.5976 29.0733 18.6195C29.1926 18.628 29.3129 18.6367 29.4315 18.6489L29.5242 18.6585V17.9172L29.4315 17.9266C29.3134 17.9389 29.1944 17.9476 29.0759 17.9561C28.7662 17.9781 28.4488 17.9941 28.1051 18.005C27.0176 18.0398 25.943 18.0133 24.9111 17.9266L24.8197 17.919V18.6567L24.9111 18.6491C25.6497 18.587 26.41 18.5558 27.1812 18.5558ZM29.6719 18.7878L29.4119 18.761C29.295 18.749 29.1768 18.7404 29.0596 18.7321C28.7539 18.7103 28.4386 18.6945 28.096 18.6834C27.0169 18.6493 25.9511 18.6755 24.9273 18.7615L24.6719 18.7829V17.7927L24.9273 17.8142C25.9518 17.9003 27.0188 17.9262 28.099 17.8921C28.44 17.8812 28.7552 17.8652 29.0622 17.8435C29.1786 17.8351 29.2957 17.8265 29.4121 17.8146L29.6719 17.7878V18.7878Z" fill="#1F3040"/>
<path id="Fill 26" fill-rule="evenodd" clip-rule="evenodd" d="M20.6719 33.7878H32.6719V32.7878H20.6719V33.7878Z" fill="#F3F5FC"/>
<path id="Fill 28" fill-rule="evenodd" clip-rule="evenodd" d="M20.8187 33.6461H32.5251V32.9294H20.8187V33.6461ZM20.6719 33.7878H32.6719V32.7878H20.6719V33.7878Z" fill="#1F3040"/>
<path id="Fill 29" fill-rule="evenodd" clip-rule="evenodd" d="M20.6719 31.7878H32.6719V30.7878H20.6719V31.7878Z" fill="#F3F5FC"/>
<path id="Fill 30" fill-rule="evenodd" clip-rule="evenodd" d="M20.8187 31.6461H32.5251V30.9294H20.8187V31.6461ZM20.6719 31.7878H32.6719V30.7878H20.6719V31.7878Z" fill="#1F3040"/>
<path id="Fill 31" fill-rule="evenodd" clip-rule="evenodd" d="M20.6719 29.7878H32.6719V28.7878H20.6719V29.7878Z" fill="#F3F5FC"/>
<path id="Fill 32" fill-rule="evenodd" clip-rule="evenodd" d="M20.8187 29.6463H32.5251V28.9297H20.8187V29.6463ZM20.6719 29.7878H32.6719V28.7878H20.6719V29.7878Z" fill="#1F3040"/>
<path id="Fill 33" fill-rule="evenodd" clip-rule="evenodd" d="M20.6719 27.7878H32.6719V26.7878H20.6719V27.7878Z" fill="#F3F5FC"/>
<path id="Fill 34" fill-rule="evenodd" clip-rule="evenodd" d="M20.8187 27.6461H32.5251V26.9294H20.8187V27.6461ZM20.6719 27.7878H32.6719V26.7878H20.6719V27.7878Z" fill="#1F3040"/>
<path id="Fill 35" fill-rule="evenodd" clip-rule="evenodd" d="M24.6719 25.7878H28.6719V24.7878H24.6719V25.7878Z" fill="#F3F5FC"/>
<path id="Fill 36" fill-rule="evenodd" clip-rule="evenodd" d="M24.8086 25.6463H28.5352V24.9296H24.8086V25.6463ZM24.6719 25.7878H28.6719V24.7878H24.6719V25.7878Z" fill="#1F3040"/>
<path id="Fill 37" fill-rule="evenodd" clip-rule="evenodd" d="M31.6719 19.2918C31.6695 21.7771 29.653 23.79 27.1679 23.7878C24.6826 23.7857 22.6697 21.7692 22.6719 19.2839C22.674 16.7986 24.6905 14.7857 27.1758 14.7878C29.661 14.7902 31.674 16.8065 31.6719 19.2918Z" fill="#8A79F7"/>
<path id="Fill 38" fill-rule="evenodd" clip-rule="evenodd" d="M26.6115 20.7878L24.7854 19.2173C24.6338 19.0868 24.6341 18.8755 24.7859 18.7451C24.9381 18.615 25.1841 18.6151 25.3359 18.7456L26.6229 19.8527L29.0138 17.8809C29.1686 17.7531 29.4147 17.7575 29.5634 17.8905C29.7122 18.0234 29.7073 18.2346 29.5525 18.3623L26.6115 20.7878Z" fill="white"/>
</g>
</svg>
