<svg width="78" height="77" viewBox="0 0 78 77" fill="none" xmlns="http://www.w3.org/2000/svg">
<g id="Group 54">
<g id="Group 3">
<mask id="mask0" style="mask-type:alpha" maskUnits="userSpaceOnUse" x="0" y="0" width="78" height="77">
<path id="Clip 2" fill-rule="evenodd" clip-rule="evenodd" d="M0.957031 0.755737H77.4852V76.6719H0.957031V0.755737Z" fill="white"/>
</mask>
<g mask="url(#mask0)">
<path id="Fill 1" fill-rule="evenodd" clip-rule="evenodd" d="M0.957031 38.7138C0.957031 17.7502 18.0885 0.755737 39.2212 0.755737C60.354 0.755737 77.4852 17.7502 77.4852 38.7138C77.4852 59.6775 60.354 76.6719 39.2212 76.6719C18.0885 76.6719 0.957031 59.6775 0.957031 38.7138Z" fill="#F0ECF8"/>
</g>
</g>
<path id="Fill 6" fill-rule="evenodd" clip-rule="evenodd" d="M17.3211 11.7008C16.4928 11.7008 15.8302 12.3564 15.8302 13.1757V46.9053C15.8302 47.7248 16.4928 48.3805 17.3211 48.3805H46.9386C47.7669 48.3805 48.4295 47.7248 48.4295 46.9053V13.1757C48.4295 12.3564 47.7669 11.7008 46.9386 11.7008H17.3211ZM46.9039 48.7397H17.2865C16.2594 48.7397 15.3979 47.9201 15.3979 46.8714V13.1415C15.3979 12.1255 16.2262 11.2732 17.2865 11.2732H46.9039C47.931 11.2732 48.7924 12.0927 48.7924 13.1415V46.8714C48.7924 47.9201 47.9641 48.7397 46.9039 48.7397Z" fill="#424242"/>
<path id="Fill 10" fill-rule="evenodd" clip-rule="evenodd" d="M15.7971 19.8105H48.363V13.3036C48.363 12.429 47.7006 11.7295 46.8723 11.7295H17.2549C16.4266 11.7295 15.7639 12.429 15.7639 13.3036V19.8105H15.7971ZM48.7593 20.1938H15.3979V13.2671C15.3979 12.1826 16.2262 11.2732 17.2865 11.2732H46.9039C47.9308 11.2732 48.7924 12.1476 48.7924 13.2671V20.1938H48.7593Z" fill="#424242"/>
<path id="Fill 12" fill-rule="evenodd" clip-rule="evenodd" d="M18.9597 37.1429L18.1063 36.5297C18.1391 36.4616 22.2089 30.2616 28.018 32.7824C30.1515 33.7023 34.0897 35.4057 37.1091 31.8628C37.4045 31.5221 37.6999 31.0793 37.995 30.6364C39.2095 28.7969 40.8834 26.2758 45.1829 26.4465L45.1501 27.5364C41.4414 27.366 40.0629 29.444 38.8487 31.2496C38.5202 31.7266 38.2251 32.2033 37.8968 32.5783C34.3851 36.7001 29.823 34.7243 27.6241 33.7704C22.5699 31.5903 18.9925 37.0748 18.9597 37.1429Z" fill="#424242"/>
<path id="Fill 14" fill-rule="evenodd" clip-rule="evenodd" d="M23.5212 30.8984C24.7673 30.8984 25.7774 31.8968 25.7774 33.1284C25.7774 34.3601 24.7673 35.3587 23.5212 35.3587C22.2751 35.3587 21.2646 34.3601 21.2646 33.1284C21.2646 31.8968 22.2751 30.8984 23.5212 30.8984Z" fill="#773DBD"/>
<path id="Fill 16" fill-rule="evenodd" clip-rule="evenodd" d="M23.9736 31.3246C22.9706 31.3246 22.147 32.1388 22.147 33.1298C22.147 34.121 22.9706 34.9352 23.9736 34.9352C24.9765 34.9352 25.8001 34.121 25.8001 33.1298C25.8001 32.1388 24.9765 31.3246 23.9736 31.3246ZM23.9723 35.3587C22.7189 35.3587 21.7159 34.3675 21.7159 33.1287C21.7159 31.8897 22.7189 30.8984 23.9723 30.8984C25.2258 30.8984 26.2287 31.8897 26.2287 33.1287C26.2287 34.3675 25.2258 35.3587 23.9723 35.3587Z" fill="#424242"/>
<path id="Fill 18" fill-rule="evenodd" clip-rule="evenodd" d="M41.1207 26.4381C42.3668 26.4381 43.3773 27.4368 43.3773 28.6681C43.3773 29.9 42.3668 30.8984 41.1207 30.8984C39.8746 30.8984 38.8645 29.9 38.8645 28.6681C38.8645 27.4368 39.8746 26.4381 41.1207 26.4381Z" fill="#773DBD"/>
<path id="Fill 20" fill-rule="evenodd" clip-rule="evenodd" d="M41.1215 26.8989C40.1185 26.8989 39.295 27.7131 39.295 28.7041C39.295 29.6953 40.1188 30.5096 41.1215 30.5096C42.1245 30.5096 42.948 29.6953 42.948 28.7041C42.948 27.7131 42.1245 26.8989 41.1215 26.8989ZM41.1209 30.8985C39.8675 30.8985 38.8645 29.9073 38.8645 28.6682C38.8645 27.4295 39.8675 26.4382 41.1209 26.4382C42.3743 26.4382 43.3773 27.4295 43.3773 28.6682C43.3417 29.9073 42.3388 30.8985 41.1209 30.8985Z" fill="#424242"/>
<path id="Fill 22" fill-rule="evenodd" clip-rule="evenodd" d="M20.8137 13.9495C21.3124 13.9495 21.7164 14.3487 21.7164 14.8417C21.7164 15.3343 21.3124 15.7336 20.8137 15.7336C20.3152 15.7336 19.9113 15.3343 19.9113 14.8417C19.9113 14.3487 20.3152 13.9495 20.8137 13.9495Z" fill="white"/>
<path id="Fill 24" fill-rule="evenodd" clip-rule="evenodd" d="M20.8138 14.2948C20.4938 14.2948 20.2606 14.5539 20.2606 14.8417C20.2606 15.1294 20.5229 15.3885 20.8138 15.3885C21.105 15.3885 21.3673 15.1294 21.3673 14.8417C21.3673 14.5539 21.1341 14.2948 20.8138 14.2948ZM20.8137 15.7336C20.3187 15.7336 19.9113 15.3309 19.9113 14.8416C19.9113 14.3524 20.3187 13.9495 20.8137 13.9495C21.3087 13.9495 21.7164 14.3524 21.7164 14.8416C21.7164 15.3309 21.3087 15.7336 20.8137 15.7336Z" fill="#424242"/>
<path id="Fill 26" fill-rule="evenodd" clip-rule="evenodd" d="M24.4236 13.9495C24.922 13.9495 25.326 14.3487 25.326 14.8417C25.326 15.3343 24.922 15.7336 24.4236 15.7336C23.9248 15.7336 23.5209 15.3343 23.5209 14.8417C23.5209 14.3487 23.9248 13.9495 24.4236 13.9495Z" fill="white"/>
<path id="Fill 28" fill-rule="evenodd" clip-rule="evenodd" d="M24.4239 14.2948C24.1036 14.2948 23.8704 14.5539 23.8704 14.8417C23.8704 15.1294 24.1327 15.3885 24.4239 15.3885C24.7148 15.3885 24.9771 15.1294 24.9771 14.8417C24.9771 14.5539 24.7439 14.2948 24.4239 14.2948ZM24.4235 15.7336C23.9285 15.7336 23.5209 15.3309 23.5209 14.8416C23.5209 14.3524 23.9285 13.9495 24.4235 13.9495C24.9186 13.9495 25.326 14.3524 25.326 14.8416C25.326 15.3309 24.9186 15.7336 24.4235 15.7336Z" fill="#424242"/>
<path id="Fill 30" fill-rule="evenodd" clip-rule="evenodd" d="M27.1315 13.9495C27.6299 13.9495 28.0339 14.3487 28.0339 14.8417C28.0339 15.3343 27.6299 15.7336 27.1315 15.7336C26.6327 15.7336 26.2288 15.3343 26.2288 14.8417C26.2288 14.3487 26.6327 13.9495 27.1315 13.9495Z" fill="white"/>
<path id="Fill 32" fill-rule="evenodd" clip-rule="evenodd" d="M28.1317 14.2948C27.8115 14.2948 27.5785 14.5539 27.5785 14.8417C27.5785 15.1294 27.8406 15.3885 28.1317 15.3885C28.4226 15.3885 28.6849 15.1294 28.6849 14.8417C28.6849 14.5539 28.4518 14.2948 28.1317 14.2948ZM28.1313 15.7336C27.6364 15.7336 27.2288 15.3309 27.2288 14.8416C27.2288 14.3524 27.6364 13.9495 28.1313 13.9495C28.6263 13.9495 29.0339 14.3524 29.0339 14.8416C29.0339 15.3309 28.6263 15.7336 28.1313 15.7336Z" fill="#424242"/>
<path id="Fill 36" fill-rule="evenodd" clip-rule="evenodd" d="M43.3025 43.8839C42.6367 43.8839 42.0711 44.4473 42.0711 45.1101V63.9653C42.0711 64.6281 42.6367 65.1912 43.3025 65.1912H63.3074C63.9729 65.1912 64.5388 64.6281 64.5388 63.9653V45.1101C64.5388 44.4473 63.9729 43.8839 63.3074 43.8839H43.3025ZM63.3084 65.6889H43.3035C42.3381 65.6889 41.5728 64.9267 41.5728 63.9659V45.1107C41.5728 44.1497 42.3381 43.3875 43.3035 43.3875H63.3084C64.2738 43.3875 65.0392 44.1497 65.0392 45.1107V63.9659C65.0059 64.9267 64.2402 65.6889 63.3084 65.6889Z" fill="#424242"/>
<path id="Fill 38" fill-rule="evenodd" clip-rule="evenodd" d="M60.0489 54.0922C59.9818 57.7614 56.9959 60.7238 53.3048 60.7238C49.614 60.7238 46.6281 57.7614 46.561 54.0922H44.2795C44.3131 56.4485 45.2526 58.6704 46.9301 60.3534C48.6412 62.0701 50.8894 63.0128 53.3048 63.0128C55.7208 63.0128 57.9687 62.0701 59.68 60.3534C61.3575 58.6704 62.2971 56.4485 62.3306 54.0922H60.0489Z" fill="#773DBD"/>
<path id="Fill 42" fill-rule="evenodd" clip-rule="evenodd" d="M60.5258 49.1762L58.6144 50.5238C57.305 49.112 55.3582 48.2457 53.1993 48.2457C52.7745 48.2457 52.35 48.2778 51.925 48.3418L51.5002 46.1918C52.0666 46.0956 52.6329 46.0635 53.1993 46.0635C55.7478 46.0635 58.1191 46.9621 59.924 48.5985C60.1364 48.759 60.3485 48.9515 60.5258 49.1762Z" fill="#773DBD"/>
<path id="Fill 46" fill-rule="evenodd" clip-rule="evenodd" d="M60.1829 53.8078H61.9327C61.9263 52.0799 61.3243 50.468 60.1893 49.1347L58.7997 50.1553C59.6867 51.1848 60.1758 52.4749 60.1829 53.8078ZM62.2338 54.0922H59.8808V53.8358C59.8808 52.5108 59.3792 51.2287 58.4684 50.2257L58.3656 50.1122L60.2349 48.7397L60.3282 48.8455C61.5749 50.258 62.2338 51.9836 62.2338 53.8358V54.0922Z" fill="#773DBD"/>
<path id="Fill 50" fill-rule="evenodd" clip-rule="evenodd" d="M44.6018 54.3726H46.4685C46.4833 51.3687 48.6919 48.7937 51.7526 48.1853L51.4235 46.4265C49.8 46.751 48.2692 47.5414 47.0971 48.6628C45.4957 50.1946 44.6104 52.2214 44.6018 54.3726ZM46.7893 54.6793H44.2795V54.4022C44.2795 52.1572 45.199 50.0414 46.8688 48.4439C48.1245 47.2426 49.7771 46.4075 51.5223 46.0926L51.682 46.0635L52.125 48.4302L51.9674 48.4579C48.967 48.9825 46.7893 51.4827 46.7893 54.4022V54.6793Z" fill="#773DBD"/>
</g>
</svg>
