<svg width="213" height="42" viewBox="0 0 213 42" fill="none" xmlns="http://www.w3.org/2000/svg">
<path d="M213 0H0V42H213V0Z" fill="#ED1C24"/>
<path d="M8.39732 34.1H26.7004V30.4H12.9731V22.55H22.3761V18.8H12.9731V14.2L12.772 12H26.5496V8.25H8.1459L8.39732 10.55V34.1Z" fill="white"/>
<path d="M32.5333 34.1L39.573 23.7L46.4115 34.1H50.585V33.2L42.5397 21.15L50.4342 9.2V8.25H46.6126L40.1261 18.25L33.6395 8.25H29.466V9.2L37.0085 20.65L28.6112 33.2V34.1H32.5333Z" fill="white"/>
<path d="M95.8902 10.85V34.15H100.516V16.1L115.149 34.15H119.171V8.35H114.545V26.15L100.215 8.35L95.8902 10.85ZM52.6969 34.15H57.323V26.4H62.4519C67.4802 26.4 72.056 23.5 72.056 17.25C72.056 11.5 68.2344 8.3 62.9044 8.3H52.3952L52.6969 10.85V34.15ZM57.323 22.7V14.55L57.0715 12.05H61.949C65.3683 12.05 67.5808 13.45 67.5808 17.35C67.5808 20.95 65.3683 22.75 61.8987 22.75L57.323 22.7ZM87.7444 28.4L90.0574 34.15H94.2812V33.25L84.0234 8.15H79.699L69.2401 33.25V34.15H73.4136L75.8775 28.4H87.7444ZM77.2854 24.7L81.8612 12.7L86.3364 24.7H77.2854ZM100.215 8.35H95.5885L95.8902 10.85L100.215 8.35ZM143.106 34.1H147.632V8.25H143.106V34.1ZM185.193 34.15V16.1L199.826 34.15H203.848V8.35H199.222V26.15L184.892 8.35H180.266L180.567 10.85V34.15H185.193ZM131.089 7.75C125.608 7.75 121.635 10.4 121.635 15.05C121.635 19.8 126.965 21.7 129.982 22.9C132.949 24.05 135.363 24.9 135.363 26.85C135.363 29.2 133.301 30.65 130.435 30.65C127.921 30.65 125.407 29.55 123.546 28.25H122.138L121.686 31.5C123.797 33.2 127.267 34.45 130.485 34.45C135.865 34.45 140.039 31.45 140.039 26.65C140.039 22.3 135.715 20.7 132.748 19.5C129.479 18.2 126.211 17.15 126.211 14.8C126.211 12.8 128.072 11.7 131.139 11.7C133.1 11.7 135.363 12.4 136.469 13.25H137.927L138.38 9.75C136.871 8.8 134.256 7.75 131.089 7.75Z" fill="white"/>
<path d="M164.125 7.90002C156.331 7.90002 150.297 13.7 150.297 21.2C150.297 28.75 156.18 34.55 164.125 34.55C171.969 34.55 177.953 28.75 177.953 21.2C177.902 13.6 171.919 7.90002 164.125 7.90002ZM164.125 30.95C158.895 30.95 154.822 26.85 154.822 21.2C154.822 15.55 158.644 11.8 163.974 11.8C169.153 11.8 173.377 15.6 173.377 21.2C173.326 27.2 169.002 30.95 164.125 30.95Z" fill="white"/>
<path d="M174.433 8.25L165.784 16.85H171.215L179.863 8.25H174.433Z" fill="black"/>
</svg>
