<svg width="262" height="30" viewBox="0 0 262 30" fill="none" xmlns="http://www.w3.org/2000/svg">
<path d="M14.7483 29.4967C22.8936 29.4967 29.4967 22.8936 29.4967 14.7483C29.4967 6.60306 22.8936 0 14.7483 0C6.60306 0 0 6.60306 0 14.7483C0 22.8936 6.60306 29.4967 14.7483 29.4967Z" fill="white"/>
<path d="M249.334 8.67544L252.197 17.3509H246.471L249.247 8.67544H249.334ZM244.476 23.684L246.384 17.7847H252.457L254.799 24.8119L252.717 25.0721V25.4191H262V25.0721L260.699 24.8986L252.37 4.16418L249.507 6.07279L243.781 23.684L240.572 24.9854V25.3324H247.772V24.9854L244.476 23.684Z" fill="black"/>
<path d="M56.6509 24.8119V4.77147L58.4728 4.68471V4.16418H50.0576V4.68471L51.8794 4.77147V24.7251L50.0576 24.8119V25.3324H66.1072L66.3675 20.1271H66.1072L62.637 24.7251L56.6509 24.8119Z" fill="black"/>
<path d="M81.2894 4.68471L86.8417 4.77147L90.2251 9.36948H90.4854L90.3119 4.16418H74.6093V4.68471L76.4311 4.77147V24.7251L74.6093 24.8119V25.3324H90.6589L90.9192 20.1271H90.6589L87.1887 24.7251L81.2894 24.8119V15.0086L85.5404 15.1821L87.1887 18.5655H87.449V10.7576H87.1887L85.5404 14.3145L81.2894 14.488V4.68471Z" fill="black"/>
<path d="M200.664 24.8119V25.3324H209.079V24.8119L207.344 24.5516V4.85822L209.079 4.68471V4.16418H200.664V4.68471L202.486 4.85822V24.5516L200.664 24.8119Z" fill="black"/>
<path d="M38.6927 4.68471L44.245 4.77147L47.6285 9.36948H47.8887L47.7152 4.16418H32.0126V4.68471L33.8344 4.77147V24.7251L32.0126 24.8119V25.3324H48.0622L48.3225 20.1271H48.0622L44.592 24.7251L38.6927 24.8119V15.0086L42.9437 15.1821L44.592 18.5655H44.8523V10.7576H44.592L42.9437 14.3145L38.6927 14.488V4.68471Z" fill="black"/>
<path d="M115.558 14.7484C115.558 7.98149 117.379 4.51129 121.197 4.51129C125.014 4.51129 126.836 7.89474 126.836 14.7484C126.836 21.602 125.014 24.9855 121.197 24.9855C117.379 24.9855 115.558 21.5153 115.558 14.7484ZM110.526 14.7484C110.526 16.8589 111.152 18.922 112.324 20.6768C113.497 22.4316 115.163 23.7993 117.113 24.607C119.063 25.4146 121.209 25.6259 123.278 25.2142C125.348 24.8025 127.25 23.7862 128.742 22.2938C130.234 20.8015 131.251 18.9001 131.662 16.8302C132.074 14.7602 131.863 12.6147 131.055 10.6648C130.248 8.71497 128.88 7.04841 127.125 5.87588C125.37 4.70335 123.307 4.07752 121.197 4.07752C119.795 4.07638 118.407 4.35161 117.112 4.88747C115.817 5.42332 114.64 6.20929 113.649 7.2004C112.658 8.1915 111.872 9.3683 111.336 10.6635C110.8 11.9586 110.525 13.3467 110.526 14.7484Z" fill="black"/>
<path d="M157.721 15.0086C157.721 8.24174 159.542 4.77155 163.36 4.77155C167.177 4.77155 168.999 8.15499 168.999 15.0086C168.999 21.8623 167.177 25.2457 163.36 25.2457C159.542 25.2457 157.721 21.7755 157.721 15.0086ZM152.689 15.0086C152.689 17.1191 153.315 19.1822 154.487 20.937C155.66 22.6919 157.326 24.0596 159.276 24.8672C161.226 25.6749 163.371 25.8862 165.441 25.4745C167.511 25.0627 169.413 24.0464 170.905 22.5541C172.397 21.0617 173.414 19.1604 173.825 17.0904C174.237 15.0205 174.026 12.8749 173.218 10.9251C172.411 8.97523 171.043 7.30867 169.288 6.13614C167.533 4.96361 165.47 4.33777 163.36 4.33777C161.958 4.33663 160.57 4.61186 159.275 5.14772C157.98 5.68358 156.803 6.46954 155.812 7.46065C154.82 8.45176 154.035 9.62856 153.499 10.9237C152.963 12.2189 152.688 13.607 152.689 15.0086Z" fill="black"/>
<path d="M108.964 23.5973L109.224 18.5655H108.964L106.882 22.0357C106.275 23.0768 104.626 24.8986 102.718 24.8986C98.5536 24.8986 96.8185 21.5152 96.8185 14.6616C96.8185 7.80791 98.9006 4.42447 102.718 4.42447C104.626 4.42447 106.101 6.24632 106.709 7.28738L108.791 10.7576H109.051L108.877 5.72579C106.795 4.52206 104.429 3.89333 102.024 3.90394C95.7775 3.90394 91.6132 8.4152 91.6132 14.5748C91.6132 20.7344 95.7775 25.2457 102.024 25.2457C104.449 25.3943 106.865 24.8207 108.964 23.5973Z" fill="black"/>
<path d="M148.438 17.1774L139.502 4.16418H131.954V4.59796L135.164 4.77147V23.684L131.954 24.9854V25.3324H139.155V24.9854L135.858 23.684L135.685 7.46087H135.945L148.524 25.4191H149.218V5.81253L152.428 4.5112V4.16418H145.228V4.5112L148.524 5.81253L148.611 17.1774H148.438Z" fill="black"/>
<path d="M188.085 17.5244L182.359 4.16418H174.377V4.68471L177.587 4.85822V23.5973L174.377 24.9854V25.3324H181.578V24.9854L178.281 23.5973L178.108 7.46087H178.281L185.829 25.2456H186.523L192.249 6.2463H192.422V24.6384L190.601 24.8986V25.3324H199.016V24.8986L197.281 24.6384V4.77147L199.016 4.59796V4.16418H192.336L188.258 17.5244H188.085Z" fill="black"/>
<path d="M211.942 23.5973C213.637 24.7401 215.625 25.3724 217.668 25.4192C221.659 25.4192 225.129 23.3371 225.129 18.9126C225.129 15.0954 221.746 13.1 218.709 11.9722C216.54 11.1046 214.545 10.0636 214.545 7.80794C214.545 5.03178 217.234 4.51125 218.189 4.51125C220.184 4.51125 221.572 5.63907 222.873 8.50198C223.134 9.19602 223.481 9.8033 223.741 10.4106H224.001L223.828 4.16423H223.568L223.307 5.3788C221.749 4.48199 219.986 4.00378 218.189 3.99072C214.111 3.99072 210.815 6.1596 210.815 9.97681C210.815 13.6205 213.851 15.1821 216.887 16.4834C219.143 17.4377 221.399 18.7391 221.399 21.255C221.399 24.0311 219.403 24.9854 217.581 24.9854C215.152 24.9854 213.504 23.5106 212.289 20.7344C212.029 20.0404 211.682 19.3463 211.422 18.6523H211.162L211.335 25.3324H211.595L211.942 23.5973Z" fill="black"/>
<path d="M226.257 9.28273H226.517L229.814 4.85822L232.243 4.68471V24.7251L230.421 24.8986V25.3324H238.836V24.8986L237.015 24.7251V4.68471L239.444 4.85822L242.74 9.28273H243.087L242.914 4.16418H226.344L226.257 9.28273Z" fill="black"/>
<path d="M26.894 12.6663C26.8072 12.5795 26.7205 12.5795 26.7205 12.6663C26.1498 14.7447 25.0381 16.6347 23.4988 18.1435C21.9596 19.6523 20.0477 20.726 17.9582 21.255C11.4516 22.9033 4.85824 17.4378 3.64367 12.5795C3.44258 11.9927 3.41249 11.3609 3.55692 10.7576C3.5533 10.8791 3.58333 10.9992 3.64367 11.1047C3.92668 12.4819 4.5534 13.7652 5.46552 14.8351C8.76221 18.5656 15.3556 19.6934 20.1271 17.0908C24.8986 14.4881 25.8529 9.36956 22.5562 5.55234C21.67 4.58404 20.6108 3.78965 19.4331 3.20996H19.3463C19.3349 3.20996 19.3236 3.2122 19.3131 3.21656C19.3026 3.22092 19.293 3.22731 19.285 3.23537C19.2769 3.24343 19.2705 3.25299 19.2662 3.26352C19.2618 3.27404 19.2596 3.28532 19.2596 3.29672V3.38347C19.9426 4.18017 20.4496 5.11214 20.7475 6.11837C21.0454 7.1246 21.1274 8.18239 20.9881 9.2225C20.8489 10.2626 20.4916 11.2616 19.9396 12.1541C19.3875 13.0465 18.6532 13.8123 17.7847 14.4014C15.861 15.7091 13.5304 16.2799 11.2201 16.009C8.90971 15.7381 6.77434 14.6438 5.20526 12.9265C4.62968 12.2823 4.16104 11.5501 3.81718 10.7576C3.77977 10.6149 3.7508 10.47 3.73043 10.3239C5.35738 11.63 7.37033 12.362 9.45625 12.406C18.5655 12.406 17.698 3.81725 11.6251 3.81725C9.5684 3.8595 7.60859 4.69942 6.15956 6.15963C5.03977 7.27389 4.15478 8.60138 3.55692 10.0636C3.3087 10.7139 3.10579 11.3806 2.94963 12.059C2.86288 12.3192 2.86288 12.5795 2.77612 12.8398C2.65953 13.114 2.60047 13.4093 2.60261 13.7073C2.44913 16.9496 3.58605 20.1208 5.76466 22.527C7.94326 24.9332 10.9862 26.3786 14.2278 26.547C16.2902 26.6592 18.3468 26.2394 20.2002 25.3279C22.0537 24.4163 23.6417 23.0437 24.8119 21.3417L24.7251 21.255C23.3485 22.8075 21.5971 23.9814 19.638 24.6648C17.6788 25.3482 15.5773 25.5184 13.5337 25.159C10.6883 24.7295 8.07933 23.3283 6.14994 21.1933C4.22055 19.0583 3.08974 16.3213 2.94963 13.447C2.94752 12.9502 3.00579 12.455 3.12314 11.9722V11.8855C3.13829 12.2953 3.19645 12.7024 3.29665 13.1C3.80478 16.2754 5.52853 19.1284 8.10307 21.0553C10.6776 22.9821 13.9009 23.8316 17.0907 23.4239C19.7104 23.0265 22.114 21.7408 23.8987 19.7823C25.6835 17.8239 26.741 15.3115 26.894 12.6663Z" fill="#00B4FF"/>
</svg>
