<svg xmlns="http://www.w3.org/2000/svg" width="79" height="79" fill="none" viewBox="0 0 79 79">
    <mask id="47sfssf9ca" width="79" height="79" x="0" y="0" maskUnits="userSpaceOnUse">
        <path fill="#fff" fill-rule="evenodd" d="M.69.365h77.726v77.726H.691V.365z" clip-rule="evenodd"/>
    </mask>
    <g mask="url(#47sfssf9ca)">
        <path fill="#F3F5FC" fill-rule="evenodd" d="M39.553.365c21.464 0 38.863 17.4 38.863 38.863 0 21.464-17.4 38.863-38.863 38.863S.691 60.69.691 39.228 18.09.365 39.553.365z" clip-rule="evenodd"/>
    </g>
    <mask id="n2avuoi4xb" width="79" height="79" x="0" y="0" maskUnits="userSpaceOnUse">
        <path fill="#fff" fill-rule="evenodd" d="M39.578.365C18.176.438.85 17.81.85 39.228c0 21.463 17.4 38.863 38.863 38.863 21.464 0 38.863-17.4 38.863-38.863C78.576 17.809 61.25.438 39.848.365" clip-rule="evenodd"/>
    </mask>
    <g mask="url(#n2avuoi4xb)">
        <path fill="#fff" fill-rule="evenodd" d="M21.42 101.18h33.75c2.477 0 4.509-2 4.509-4.508V20.218c0-2.476-2-4.508-4.509-4.508H21.42c-2.476 0-4.508 2-4.508 4.508v76.454c0 2.508 2.032 4.508 4.508 4.508z" clip-rule="evenodd"/>
    </g>
    <mask id="pnv71y41pc" width="79" height="79" x="0" y="0" maskUnits="userSpaceOnUse">
        <path fill="#fff" fill-rule="evenodd" d="M39.578.365C18.176.438.85 17.81.85 39.228c0 21.463 17.4 38.863 38.863 38.863 21.464 0 38.863-17.4 38.863-38.863C78.576 17.809 61.25.438 39.848.365h-.27z" clip-rule="evenodd"/>
    </mask>
    <g mask="url(#pnv71y41pc)">
        <path fill="#000" fill-rule="evenodd" d="M21.421 15.868c-2.413 0-4.35 1.936-4.35 4.35V96.67c0 2.412 1.937 4.349 4.35 4.349h33.75c2.413 0 4.35-1.936 4.35-4.35V20.218c0-2.413-1.937-4.35-4.35-4.35h-33.75zm33.718 85.469H21.421c-2.572 0-4.635-2.096-4.635-4.636V20.248c0-2.572 2.095-4.635 4.635-4.635h33.75c2.572 0 4.635 2.095 4.635 4.635v76.453c-.031 2.54-2.095 4.636-4.666 4.636z" clip-rule="evenodd"/>
    </g>
    <mask id="p8wtwq0mxd" width="79" height="79" x="0" y="0" maskUnits="userSpaceOnUse">
        <path fill="#fff" fill-rule="evenodd" d="M39.578.365C18.176.438.85 17.81.85 39.228c0 21.463 17.4 38.863 38.863 38.863 21.464 0 38.863-17.4 38.863-38.863C78.576 17.809 61.25.438 39.848.365" clip-rule="evenodd"/>
    </mask>
    <g mask="url(#p8wtwq0mxd)">
        <path fill="#000" fill-rule="evenodd" d="M22.596 99.147h31.337c2.127 0 3.873-1.746 3.873-3.873V21.677c0-2.127-1.746-3.873-3.873-3.873H22.596c-2.127 0-3.873 1.746-3.873 3.873v73.597c0 2.127 1.746 3.873 3.873 3.873z" clip-rule="evenodd"/>
    </g>
    <mask id="1kb6bllcoe" width="79" height="79" x="0" y="0" maskUnits="userSpaceOnUse">
        <path fill="#fff" fill-rule="evenodd" d="M39.578.365C18.176.438.85 17.81.85 39.228c0 21.463 17.4 38.863 38.863 38.863 21.464 0 38.863-17.4 38.863-38.863C78.576 17.809 61.25.438 39.848.365" clip-rule="evenodd"/>
    </mask>
    <g mask="url(#1kb6bllcoe)">
        <path fill="#FEFEFE" fill-rule="evenodd" d="M53.077 19.297H48.41c-.064 1.46-1.302 2.635-2.794 2.635H30.694c-1.493 0-2.7-1.174-2.794-2.635h-4.668c-1.746 0-3.143 1.397-3.143 3.143v72.23c0 1.747 1.397 3.144 3.143 3.144h29.813c1.747 0 3.143-1.397 3.143-3.143V22.44c.032-1.715-1.364-3.144-3.111-3.144z" clip-rule="evenodd"/>
    </g>
    <mask id="r4tjc90mrf" width="79" height="79" x="0" y="0" maskUnits="userSpaceOnUse">
        <path fill="#fff" fill-rule="evenodd" d="M39.578.365C18.176.438.85 17.81.85 39.228c0 21.463 17.4 38.863 38.863 38.863 21.464 0 38.863-17.4 38.863-38.863C78.576 17.809 61.25.438 39.848.365h-.27z" clip-rule="evenodd"/>
    </mask>
    <g mask="url(#r4tjc90mrf)">
        <path fill="#000" fill-rule="evenodd" d="M23.262 19.36c-1.715 0-3.112 1.398-3.112 3.112v72.23c0 1.715 1.397 3.112 3.112 3.112h29.813c1.714 0 3.11-1.397 3.11-3.111v-72.23c0-1.715-1.396-3.112-3.11-3.112H48.47c-.095 1.492-1.334 2.635-2.826 2.635H30.723c-1.492 0-2.73-1.143-2.826-2.635h-4.635zM53.076 97.88H23.263c-1.746 0-3.207-1.429-3.207-3.207v-72.23c0-1.747 1.43-3.207 3.207-3.207h4.699v.032c.064 1.46 1.27 2.603 2.73 2.603h14.923c1.46 0 2.667-1.143 2.73-2.603v-.032h4.7c1.745 0 3.206 1.429 3.206 3.207v72.23c.032 1.746-1.397 3.207-3.175 3.207z" clip-rule="evenodd"/>
    </g>
    <mask id="6oag0mp4bg" width="79" height="79" x="0" y="0" maskUnits="userSpaceOnUse">
        <path fill="#fff" fill-rule="evenodd" d="M39.578.365C18.176.438.85 17.81.85 39.228c0 21.463 17.4 37.364 38.863 37.364v1.499c21.464 0 38.863-17.4 38.863-38.863C78.576 17.809 61.25.438 39.848.365h-.27z" clip-rule="evenodd"/>
    </mask>
    <g mask="url(#6oag0mp4bg)">
        <path fill="#fff" fill-rule="evenodd" d="M34.406 20.378h5.556v-.762h-5.556v.762zM41.424 19.393c.333 0 .603.27.603.604 0 .333-.27.603-.603.603-.333 0-.603-.27-.603-.604 0-.333.27-.603.603-.603z" clip-rule="evenodd"/>
    </g>
    <path fill="#fff" fill-rule="evenodd" d="M23.61 30.086l-.13 8.459c-.01.58.422 1.086.99 1.096l27.336.485c.543.01 1.015-.452 1.025-1.06l.13-8.459c.01-.58-.422-1.086-.99-1.096l-27.336-.485c-.568-.01-1.016.48-1.025 1.06z" clip-rule="evenodd"/>
    <path fill="#1F3040" fill-rule="evenodd" d="M24.632 29.221c-.465-.008-.859.4-.867.898l-.13 8.459c-.009.497.373.918.838.927l27.336.485c.465.008.859-.4.867-.897l.13-8.459c.009-.497-.373-.919-.838-.927l-27.336-.486zM51.78 40.294l-27.31-.485c-.646-.012-1.154-.574-1.144-1.264l.131-8.46c.011-.69.536-1.234 1.182-1.223l27.336.485c.646.012 1.154.574 1.144 1.265l-.131 8.459c-.037.69-.562 1.234-1.208 1.223z" clip-rule="evenodd"/>
    <path fill="#8A79F7" fill-rule="evenodd" d="M30.409 31.643c1.441.026 2.59 1.297 2.566 2.839-.024 1.542-1.211 2.771-2.653 2.745-1.441-.025-2.59-1.296-2.566-2.838.024-1.542 1.212-2.77 2.653-2.746z" clip-rule="evenodd"/>
    <path fill="#1F3040" fill-rule="evenodd" d="M30.405 31.811c-1.343-.023-2.473 1.146-2.495 2.583-.022 1.438 1.07 2.646 2.414 2.67 1.343.023 2.473-1.145 2.495-2.583.022-1.437-1.07-2.646-2.414-2.67zm-.088 5.584c-1.524-.027-2.744-1.376-2.718-3.007.025-1.63 1.285-2.936 2.81-2.909 1.524.027 2.744 1.376 2.719 3.007-.026 1.631-1.287 2.936-2.81 2.909z" clip-rule="evenodd"/>
    <path fill="#F3F5FC" fill-rule="evenodd" d="M35.338 32.121l6.356.113-.012.802-6.356-.113.012-.802z" clip-rule="evenodd"/>
    <path fill="#1F3040" fill-rule="evenodd" d="M35.43 33.041l6.15.14.009-.745-6.15-.14-.008.745zm6.354.465l-6.563-.15.017-1.35 6.563.15-.017 1.35z" clip-rule="evenodd"/>
    <path fill="#fff" fill-rule="evenodd" d="M35.355 34.358l14.96.266-.012.802-14.96-.266.012-.801z" clip-rule="evenodd"/>
    <path fill="#1F3040" fill-rule="evenodd" d="M35.447 35.193l14.727.297.01-.66-14.728-.297-.009.66zm14.955.553l-15.167-.305.017-1.194 15.166.306-.016 1.193z" clip-rule="evenodd"/>
    <path fill="#fff" fill-rule="evenodd" d="M35.321 36.57l14.96.266-.013.802-14.96-.266.013-.801z" clip-rule="evenodd"/>
    <path fill="#1F3040" fill-rule="evenodd" d="M35.415 37.379l14.727.297.01-.66-14.728-.296-.009.659zm14.953.55L35.2 37.624l.017-1.193 15.166.305-.016 1.193z" clip-rule="evenodd"/>
    <path fill="#8A79F7" fill-rule="evenodd" d="M48.535 57.015h-20.09c-1.65 0-2.986-1.43-2.986-3.194s1.337-3.194 2.985-3.194h20.09c1.65 0 2.986 1.43 2.986 3.194s-1.337 3.194-2.985 3.194z" clip-rule="evenodd"/>
</svg>
