<svg width="46" height="46" viewBox="0 0 46 46" fill="none" xmlns="http://www.w3.org/2000/svg">
<path d="M22.8659 45.2402C35.2183 45.2402 45.2319 35.2266 45.2319 22.8742C45.2319 10.5219 35.2183 0.508301 22.8659 0.508301C10.5136 0.508301 0.5 10.5219 0.5 22.8742C0.5 35.2266 10.5136 45.2402 22.8659 45.2402Z" fill="#E4E4F3"/>
<path d="M5.60645 13.5155V26.011C5.60645 26.4819 5.98319 26.8273 6.42273 26.8273H28.8079C29.2788 26.8273 29.6242 26.4505 29.6242 26.011V13.5155C29.6242 13.0446 29.2474 12.6992 28.8079 12.6992H6.42273C5.98319 12.6992 5.60645 13.076 5.60645 13.5155Z" fill="#6E43B7"/>
<path d="M28.8066 27.1097H9.02734V26.5132H28.7752C29.0578 26.5132 29.309 26.2934 29.309 25.9794V19.5747H29.9055V25.9794C29.9055 26.6387 29.4032 27.1097 28.8066 27.1097Z" fill="black"/>
<path d="M9.90689 23.8763C10.9126 23.8763 11.7278 23.061 11.7278 22.0553C11.7278 21.0496 10.9126 20.2344 9.90689 20.2344C8.90121 20.2344 8.08594 21.0496 8.08594 22.0553C8.08594 23.061 8.90121 23.8763 9.90689 23.8763Z" fill="white"/>
<path d="M29.6242 15.4302H5.60645V18.4442H29.6242V15.4302Z" fill="black"/>
<path d="M17.2227 20.2971V32.7926C17.2227 33.2635 17.5994 33.6089 18.0389 33.6089H40.4241C40.895 33.6089 41.2404 33.2321 41.2404 32.7926V20.2971C41.2404 19.8262 40.8636 19.4808 40.4241 19.4808H18.0703C17.5994 19.4494 17.2227 19.8262 17.2227 20.2971Z" fill="white"/>
<path d="M40.4247 33.8919H20.6768V33.2954H40.4247C40.7072 33.2954 40.9584 33.0756 40.9584 32.7617V26.3569H41.5549V32.7617C41.5235 33.3896 41.0212 33.8919 40.4247 33.8919Z" fill="black"/>
<path d="M21.5231 30.6272C22.5288 30.6272 23.344 29.812 23.344 28.8063C23.344 27.8006 22.5288 26.9854 21.5231 26.9854C20.5174 26.9854 19.7021 27.8006 19.7021 28.8063C19.7021 29.812 20.5174 30.6272 21.5231 30.6272Z" fill="#9595CE"/>
<path d="M41.2404 22.1816H17.2227V25.1956H41.2404V22.1816Z" fill="black"/>
</svg>
