<svg xmlns="http://www.w3.org/2000/svg" width="84" height="85" fill="none" viewBox="0 0 84 85">
    <path fill="#fff" d="M83.702 42c0 23.032-18.67 41.702-41.701 41.702S.3 65.032.3 42 18.97.3 42 .3C65.033.3 83.703 18.97 83.703 42z"/>
    <path fill="#08315E" fill-rule="evenodd" d="M68.998 42.002c0 14.91-12.087 26.995-26.997 26.995S15.003 56.913 15.003 42.002c0-14.912 12.087-26.999 26.998-26.999 14.91 0 26.997 12.087 26.997 27z" clip-rule="evenodd"/>
    <path fill="#08315E" fill-rule="evenodd" d="M1.076 42.003c0-10.932 4.258-21.21 11.987-28.94 7.73-7.73 18.007-11.987 28.939-11.987 22.565 0 40.922 18.36 40.922 40.927 0 10.931-4.256 21.207-11.986 28.937-7.729 7.729-18.006 11.986-28.936 11.986-22.567 0-40.926-18.358-40.926-40.923zm11.226-29.7C4.37 20.234 0 30.782 0 42.002c0 23.158 18.842 41.999 42.002 41.999 11.217 0 21.764-4.37 29.697-12.302C79.632 63.77 84 53.222 84 42.003 84 18.843 65.16 0 42.002 0c-11.22 0-21.767 4.37-29.7 12.302z" clip-rule="evenodd"/>
    <path fill="#08315E" fill-rule="evenodd" d="M14.126 42.002c0-7.446 2.9-14.447 8.165-19.711 5.264-5.265 12.265-8.165 19.71-8.165s14.445 2.9 19.71 8.165c5.264 5.264 8.163 12.265 8.163 19.711 0 15.37-12.504 27.873-27.873 27.873-15.37 0-27.875-12.504-27.875-27.873zm7.403-20.473c-5.468 5.47-8.48 12.739-8.48 20.473 0 15.963 12.988 28.95 28.952 28.95 15.963 0 28.95-12.987 28.95-28.95 0-7.734-3.012-15.004-8.48-20.473-5.468-5.468-12.737-8.479-20.47-8.479-7.733 0-15.003 3.011-20.472 8.48z" clip-rule="evenodd"/>
    <path fill="#fff" d="M22.556 38.06l5.635-.27-.439.939-.792.291-1.211.23-.73-.188-.648.084-.855-.021-.48-.334-.25-.355-.23-.375z"/>
    <path fill="#FFFFFE" d="M33.603 40.048l-15.593-.803-.745.675.913.864 15.09.67.335-1.406z"/>
    <path fill="#fff" d="M50.444 40.167l.459 1.421 14.99-1.004.844-.69-1.112-1.114-15.291 1.134.11.253zM55.184 37.806h5.254l-.234.637-1.138.334-1.572.2-.837-.2-1.204-.067-.269-.904z"/>
    <path fill="#D0383F" d="M49.654 37.786c.076.072.223-.17.296-.265 0 0 .336-.493 2.04-1.199l1.514-.729s.504-.258.224-.964c0 0-.078-.515-.818-.594 0 0 .111-.639.897-.93 0 0 .112 2.163 1.333 2.757 0 0-.1-.37.023-.605 0 0 .314.426.549.46 0 0-.135-.752.953-.919 0 0 1.491-.37 1.581.571 0 0 .325.819-.673 1.39 0 0-.852.527-1.054.65 0 0-.666.55.04.774 0 0 .655-.079.936-.259 0 0 .004.261.363.273 0 0 .399-.014.769-.34 0 0 .281.6.953.062l.795-.802s.203.024 0-.761c0 0-.605-2.6.203-2.287 0 0 .447.134.627.381 0 0-.291-2.063-1.323-2.04 0 0-.605-.09-1.03.224 0 0-.517.291-1.01-.225 0 0-.718-.605-1.256-1.882 0 0-.515-1.279.763-1.054 0 0-.517-.763-.56-.987 0 0 .717.112.963.337 0 0-.784-1.862-1.726-2.668 0 0 .986-4.17-1.86-4.283 0 0-2.49-.314-6.637.965 0 0-2.22.694-3.252-.314 0 0-.47-.74.763-1.054 0 0 .897-.381 2.13-.112 0 0 3.273.851 5.179-.359 0 0-1.076-.157-1.3-.426 0 0 1.143-.337 2.22-.246 0 0-4.888-2.31-7.264-.404 0 0-3.678.112-3.23 2.712 0 0 .494 2.512 4.037 1.66 0 0 3.654-.874 4.08-.987 0 0 5.604-.963 3.25 1.928 0 0-3.049-.089-6.142.852 0 0-3.093 1.143-5.112 1.233 0 0 .337-.47.269-.852 0 0-1.278.18-1.86-.38 0 0 .582-.853.829-.942 0 0-.426.089-1.143-.27 0 0 .919-.583 1.501-.605 0 0-.448-.538-2.129-.874 0 0 .65-.336.852-.583 0 0-.942-.269-1.86-1.256 0 0-1.1-1.39-1.727-1.21 0 0-.427-.965-1.795-.92 0 0-.537-.582-2.197-.403 0 0-.245-.403-.268-.516 0 0-.852.65-1.21 1.436 0 0-1.145.47-1.862 1.613 0 0-.291.56-.785.852 0 0-2.241.92-2.13 1.93 0 0 0 .806.696.716 0 0 .335.067.29.516 0 0 .791.14 1.338.085 0 0-.82 1.052-1.996 1.545 0 0 1.08.328 3.281-.847 0 0-.041.314-.643.518 0 0-.054.137.027.178 0 0-.067.124-.355.137 0 0 .014.766 2.257.464 0 0-.123.439-.602.903 0 0 .163.096.505.055 0 0-.478 1.586-1.244 2.584 0 0-.465.711-.806 1.025 0 0-1.9 1.231-1.86 1.614 0 0 .356 0 .561-.041 0 0-1.012 1.394-2.516 2.064 0 0-1.955.724-2.379 1.23 0 0-.915 1.495.069 1.495 0 0 1.697-.163 2.08-.053 0 0 .462.09 1.707-1.072 0 0 3.417-2.858 4.716-2.885 0 0 .014.45.178.56 0 0 1.013-1.394 1.614-1.38.601.013 1.394 1.626 5.017 1.517 0 0 2.571.213 5.665-1.67 0 0 2.758-1.547 4.148-2.735 0 0 1.771-.067 1.883.112 0 0-1.592 1.525-1.345 3.542 0 0 .358-.47.403-.482 0 0 .045.37.168.471 0 0 .27-.65.527-.595 0 0 .662-.01.527.797 0 0-.022.706-.852.773 0 0-1.659.09-2.197.337 0 0-.781.277-1.123.78 0 0 1.725.417 2.542 1.188z"/>
    <path fill="#D0383F" fill-rule="evenodd" d="M49.402 37.477l5.964.336s-.013 1.143 1.501.673c0 0 .909.571 1.681.135 0 0 1.765-.142 1.563-.848l4.861.174 1.365 1.552-15.78.883s-.651-2.098-1.155-2.905zM51.992 54.429l14.425-14.28-15.655 1s1.296 4.366 1.33 6.82c0 0 .103 5.183-.1 6.46zM32.318 54.291L17.566 40.206l15.822.889s-1.07 4.958-1.137 5.866c0 0-.27 3.633.067 7.331zM33.586 40.317l-15.868-.807 1.598-1.395 3.585-.067s.135.74.538.91c0 0 .774.167 1.244-.035 0 0 .538-.067.673.101 0 0 .605.27 1.144 0l.974-.404s.538-.215.538-.82l6.323-.189s-.514 2.202-.75 2.706z" clip-rule="evenodd"/>
    <path fill="#E1AB26" d="M42.22 36.03s-7.65-.033-8.153 2.22c0 0-1.144 4.204-1.446 6.255 0 0-.842 5.515-.303 9.786 0 0 .773 5.885 4.17 10.224 0 0 1.474 1.513 5.731 1.513 0 0 3.92.067 5.636-1.513 1.715-1.581 4.103-7.701 4.103-10.224 0 0 .571-5.414-.404-9.786 0 0-.942-4.64-1.681-6.255 0 0-.477-2.22-7.654-2.22z"/>
    <path fill="#5B3814" d="M34.983 39.047c.001.026.016.579.508.797l.131-.294c-.302-.135-.316-.492-.316-.506 0-1.043 4.243-1.567 6.918-1.652.043 0 5.146.118 6.236 1.254.122.129.18.258.176.398v.017l.004.017c.004.018.08.43-.224.574l.138.291c.333-.157.42-.492.42-.742 0-.057-.006-.106-.014-.152v-.016c0-.005-.003-.01-.003-.014v-.004.004c-.004-.215-.091-.415-.265-.596-1.182-1.232-6.254-1.35-6.47-1.354-.749.024-7.239.279-7.239 1.978z"/>
    <path fill="#5B3814" d="M36.039 39.486c-.01.04-.02.078-.02.129 0 .212.108.506.517.718l.15-.286c-.414-.215-.344-.471-.336-.5l.008-.023.001-.03c0-.626 3.047-1.218 5.87-1.407 2.102 0 5.453.382 5.453 1.408v.02l.005.024c.001.004.025.1-.049.22-.079.129-.28.31-.796.43l.074.314c.512-.12.851-.32 1.008-.593.072-.126.09-.242.09-.328 0-.057-.008-.08-.012-.103-.034-1.666-5.193-1.716-5.784-1.716-1.038.07-6.154.477-6.18 1.723z"/>
    <path fill="#5B3814" d="M43.64 39.208h4.056v-.322h-4.057v.322zM36.522 39.208h3.942v-.322h-3.942v.322zM36.536 40.351h10.806v-.322H36.536v.322z"/>
    <path fill="#5B3814" fill-rule="evenodd" d="M42.047 40.722c-.995 0-1.775-.58-1.775-1.322 0-.741.78-1.322 1.776-1.322.995 0 1.776.58 1.776 1.322 0 .741-.78 1.322-1.776 1.322zm0-2.203c-.855 0-1.452.464-1.452.881s.597.88 1.453.88c.856 0 1.453-.463 1.453-.88s-.597-.88-1.453-.88z" clip-rule="evenodd"/>
    <path fill="#5B3814" d="M41.261 38.368v1.362s.398.117.807.117c0 0 .437.007.785-.078v-1.44s-.275-.078-.785-.078c0 0-.447-.011-.807.117z"/>
    <path fill="#fff" d="M42.687 38.575c0 .156-.286.28-.637.28-.354 0-.639-.124-.639-.28 0-.154.285-.28.639-.28.351 0 .637.126.637.28z"/>
    <path fill="#5B3814" d="M34.177 38.005l1.077.675.172-.273-1.078-.675-.171.273zM35.202 37.138l.826 1.052v1.314h.323v-1.425l-.895-1.141-.254.2zM36.879 36.61l.533 1.142v.852h.323v-.924l-.563-1.206-.293.136zM38.581 36.34l.492 1.158v.74h.322v-.806l-.517-1.218-.297.126zM40.477 36.136l.201 1.19-.002.723h.323v-.751l-.204-1.216-.318.054zM42.673 37.208v.717h.323v-.672l.316-1.122-.31-.087-.33 1.164zM44.62 37.36v.722h.324v-.646l.566-1.12-.288-.146-.601 1.19zM46.471 37.647v.839h.323v-.731l.74-.989-.257-.193-.806 1.074zM48.04 38.142v1.7h.322v-1.55l.818-.692-.209-.247-.93.789z"/>
    <path fill="#5B3814" d="M48.678 38.564l.078.313 1.132-.28-.077-.312-1.133.28z"/>
    <path fill="#FFFFFE" d="M49.872 38.25c0 2.388-7.654 2.79-7.654 2.79-7.082 0-8.135-2.752-8.135-2.752-.13.419-.643 2.429-.643 2.429s3.739 2.498 8.696 2.498c0 0 5.149-.058 8.511-2.42l-.775-2.545z"/>
    <path fill="#5B3814" fill-rule="evenodd" d="M33.284 40.677c.021-.082.516-2.018.645-2.436l.136-.437.168.426c.01.026 1.129 2.65 7.976 2.65 2.087-.11 7.502-.797 7.502-2.63l.316-.047.809 2.657-.096.068c-3.365 2.363-8.55 2.449-8.604 2.45-4.949 0-8.747-2.501-8.785-2.527l-.095-.063.028-.11zm8.934.526c-5.678 0-7.538-1.745-8.082-2.508-.161.59-.424 1.612-.51 1.948.587.366 4.071 2.411 8.509 2.411.05 0 5.038-.087 8.322-2.328-.05-.168-.39-1.285-.58-1.906-1.033 2.004-7.358 2.366-7.659 2.383z" clip-rule="evenodd"/>
    <path fill="#FFFFFE" d="M35.485 63.05s2.346 1.431 6.651 1.431c0 0 3.97.102 6.828-1.48 0 0-.706 1.312-1.345 1.683 0 0-1.888 1.345-5.4 1.345 0 0-3.276.1-5.597-1.345l-1.137-1.634z"/>
    <path fill="#5B3814" fill-rule="evenodd" d="M42.14 64.32c.04.001 3.96.08 6.746-1.46l.48-.265-.26.483c-.03.056-.735 1.356-1.394 1.736-.079.057-1.97 1.376-5.488 1.376-.136.004-3.352.085-5.688-1.37l-.028-.017-1.156-1.661.217-.23c.05.03 2.388 1.408 6.571 1.408zm5.398.224c.364-.21.76-.767 1.016-1.169-2.8 1.329-6.267 1.272-6.418 1.267-3.138 0-5.216-.738-6.155-1.163l.377.542.374.54c2.25 1.386 5.45 1.308 5.486 1.306 3.393 0 5.268-1.287 5.319-1.322z" clip-rule="evenodd"/>
    <path fill="#5B3814" d="M36.267 63.54l.283-.157c-5.549-10.04-1.599-21.768-1.558-21.885l-.305-.105c-.041.118-4.04 11.978 1.58 22.147z"/>
    <path fill="#5B3814" d="M37.578 63.89l.308-.096c-3.178-10.13-.828-21.262-.804-21.373l-.315-.068c-.024.111-2.394 11.324.811 21.538zM39.742 64.374l.319-.053c-1.576-9.519-.365-21.195-.352-21.312l-.322-.033c-.012.116-1.227 11.835.355 21.398zM41.975 64.48h.323V43.216h-.323V64.48zM44.433 43.016c.02.133 1.925 13.38.137 21.196l.314.07c1.802-7.874-.112-21.18-.131-21.313l-.32.047zM47.124 42.418c.027.133 2.592 13.378-.318 21.313l.303.11c2.941-8.02.36-21.352.332-21.486l-.317.063z"/>
    <path fill="#5B3814" d="M49.28 41.56c.039.123 3.731 12.51-1.388 21.79l.283.157c5.186-9.402 1.452-21.917 1.414-22.042l-.309.094z"/>
    <path fill="#fff" d="M33.309 19.532s-.348.787-.361.994c0 0-.283-.285-.4-.349 0 0 .49-.645.76-.645zM31.892 21.48s.359-.336.604-.325c0 0 .226-.056.248.158l-.034.425s-.684-.235-.819-.258zM30.68 21.76s.494.561.706.65c0 0-.269.472-.246.695 0 0-.65-.201-.952-.078 0 0 .19-.571.459-.583l.034-.683zM34.077 19.765s.202-.336.572-.146c0 0 .538.381.56.74 0 0-.796-.09-.975-.179 0 0-.225-.079-.157-.415zM36.196 20.494s.212.482.269.684c0 0 .538-.281.685-.27 0 0-.271-.37-.954-.414zM34.738 21.828s.874 2.466 2.298 2.646c0 0-1.334-1.58-1.513-2.187 0 0-.616-.291-.785-.459zM36.499 22.276s.537 1.772 2.287 1.57c0 0-2.04-1.335-2.287-1.57zM37.586 21.682s.314-.212.695.09c0 0 .74.684.818.807 0 0-1.637-.034-1.513-.897zM38.644 24.424h1.148s-.22.336-.594.4c0 0-.477-.09-.554-.4zM39.57 25.583l.684-.034s.056.37.27.628c0 0-.629-.123-.954-.594zM39.548 26.693s.728.392 1.02.46c0 0-.583.213-.729.28 0 0-.224-.381-.291-.74zM36.129 25.427s1.166.661 1.828.705l.19.841s-1.2-.235-2.018-1.546zM35.972 27.186s2.365.55 3.15.437l.235.84s-.875-.302-1.3-.335c0 0 0 .348.1.538 0 0-1.58-.415-2.185-1.48zM38.71 29.355l.484.896-.682-.1s.199-.411.199-.796zM36.532 29.08s1.01.192 1.56.349c0 0-.158.639-.057.84 0 0-.684-.213-1.502-1.188zM34.547 26.76s.92 1.39 1.156 1.592c0 0-.415-.191-.651-.314 0 0-.078.46-.044.617 0 0-.618-.46-.46-1.895zM33.471 26.85s.415.213.27.448c0 0-.56.56-.728.74 0 0-.225-1.143.458-1.189zM33.404 23.812s.583.325.673 1.267c0 0-.28-.47-.673-.47 0 0 .112-.595 0-.797zM34.212 22.78l-.348.46s1.032 1.636 1.098 2.074c0 0 .068-1.02.18-1.155 0 0-.325-.123-.426-.213 0 0-.023-.347.146-.415 0 0-.516-.011-.65-.75zM28.068 23.722s-.44.185-.44.667c0 0-.114.399.412.327 0 0-.114-.739.028-.994zM28.502 23.955s-.27.705.05.705c0 0 .1.017.184-.084 0 0-.2-.438-.234-.621zM30.318 25.56s.317.254.443.365c0 0-.57.348-.838.475 0 0 .348-.554.395-.84zM30.614 24.743s1.356.112 1.132 2.017c0 0 .684-.27.796-.706 0 0 .247.078.404.1l.1-.346.314.112-.09-.696s-.628.605-.874.662c0 0-.662-1.446-1.782-1.143z"/>
    <path fill="#fff" d="M32.082 30.683s.134-1.21.706-1.099c0 0 .212.102.235.191 0 0 .605-1.065.751-1.065l.045.112-.258 1.324.965-.404.908.74.482-.393 1.11 1.12.313-.604.64.84s.2.056.335.023c0 0 .382-.718.796-.594l.662.28-.045-1.816.886-.045.067-1.267 1.165-.415.337.169-1.054.605.169 1.256s-.819.168-.953.336l.134 1.748-1.771.08s-.224.425-.18.862c0 0-.627-.38-1.142-.93 0 0-.215.291-.247.493l-1.054-1.031-.505.414-1.334-1.266-1.502.818-.044-.74s-.415.157-.617.258zM31.51 32.522l-.033-.582s-1.11.694-2.074 1.749c0 0-1.154 1.289-1.614 1.636 0 0-1.01.785-1.558 1.065 0 0-1.245.504-1.548.863 0 0 .898-.37 1.301-.448 0 0 .728-.191 1.401-.796 0 0 1.603-1.402 1.917-1.67 0 0 1.659-1.57 2.209-1.817z"/>
    <path fill="#fff" d="M34.313 32.6s.426-.482.123-.773c0 0-.19-.079-.46.112 0 0-.515.09-.638-.201 0 0-1.39.997-2.275 1.77l-1.76 1.435s-1.155.852-1.704 1.547c0 0-.796.493-1.425.673 0 0-1.468.325-1.49.66 0 0 1.692.068 2.163-.222 0 0 1.58-1.313 1.705-1.436 0 0 1.905-1.626 2.801-2.063 0 0 1.772-.897 2.299-1.031 0 0 .448-.19.661-.47zM37.855 33.06s1.143.18 1.446.067c0 0-.034-.74.47-.796 0 0 .36-.056.505.516 0 0 .023.213.246.191 0 0 .371.201 1.01-1.054 0 0 4.59-.846 6.036-1.67 0 0-2.023 1.984-5.35 2.875 0 0-2.805.706-4.537.135l.174-.264zM42.81 29.036s-.42.42-.42.79c0 0 .857.033 1.833-.387 0 0 2.538-1.294 4.253-1.194 0 0-1.042-.806-3.11-.033 0 0-1.8.723-2.556.824zM48.224 26.985s2.153-1.38 5.6-1.076l.285.621s-4.288.068-5.885.455zM51.385 27.573s3.532-1.177 3.985 2.421c0 0-2.37-2.018-3.985-2.421zM55.471 26.549s0 .773-.114.967c0 0 .926-.078 1.003.039 0 0-.502-.87-.889-1.006zM51.923 31.087s1.228.47 1.412.824c0 0-1.008.706-1.227 1.025 0 0-.555-.622-1.143-.252 0 0 .47-1.277.958-1.597zM54.53 32.23s.117 1.363 1.11 1.564c0 0 1.697 0 1.782.152 0 0 0-.689-1.194-.993 0 0-.925-.033-1.699-.722zM48.511 36.206s-.504.017-.773.302c0 0-.084.152.068.22 0 0 .134.083.352-.034 0 0 .286-.32.353-.488zM49.906 36.619s-.588-.067-.959.252c0 0-.252.252.034.32 0 0 .202.084.42-.051 0 0 .354-.303.505-.521zM58.75 33.459s.538.638.606.907c0 0 .2-.773.32-.858 0 0-.775 0-.925-.05zM60.12 36.485s-.541.522-.754.62c0 0-.329.231-.135.405 0 0 .831.252.889-1.025zM58.506 37.165s-.464.315-.538.37c0 0 .26.761.538-.37zM57.657 37.228s-.656.212-.773.27c0 0 .406.62.773-.27zM54.908 25.465s.464.213.56.387c0 0 .33-1.818-.212-2.495 0 0 .174 1.335-.348 2.108zM44.93 23.623c-1.148-.106-1.272-1.042-1.272-1.042-.194-.989.935-1.483.935-1.483 1.166-.6 3.09-.336 3.09-.336 2.631.53 3.09-.317 3.09-.317-.688.212-2.172-.089-2.172-.089.07-.353 1.307-.582 1.307-.582s-1.386-.485-3.09.539c0 0-.185.053-.494.088 0 0-1.395.185-1.854.432 0 0-1.254.54-1.113 1.713 0 0 .248 1.527 1.58 1.104"/>
    <path fill="#D0383F" fill-rule="evenodd" d="M49.908 37.58c-.079.108-.191.266-.254.206-.817-.771-2.542-1.188-2.542-1.188.342-.503 1.123-.78 1.123-.78.538-.247 2.197-.337 2.197-.337.83-.067.852-.773.852-.773.135-.807-.527-.797-.527-.797-.257-.055-.527.595-.527.595-.123-.101-.168-.47-.168-.47-.045.01-.403.48-.403.48-.247-2.016 1.345-3.541 1.345-3.541-.112-.18-1.883-.112-1.883-.112-1.39 1.188-4.148 2.736-4.148 2.736-3.094 1.882-5.665 1.67-5.665 1.67-2.601.078-3.744-.732-4.404-1.2-.259-.183-.444-.314-.614-.318-.6-.014-1.613 1.38-1.613 1.38-.164-.11-.178-.56-.178-.56-1.299.027-4.716 2.885-4.716 2.885-1.245 1.162-1.706 1.072-1.706 1.072-.384-.11-2.081.053-2.081.053-.984 0-.069-1.494-.069-1.494.424-.507 2.38-1.231 2.38-1.231 1.503-.67 2.515-2.064 2.515-2.064-.205.04-.56.04-.56.04-.04-.382 1.859-1.613 1.859-1.613.341-.314.806-1.025.806-1.025.766-.998 1.244-2.584 1.244-2.584-.341.041-.505-.055-.505-.055.479-.464.602-.903.602-.903-2.243.302-2.257-.464-2.257-.464.288-.013.355-.136.355-.136-.08-.042-.027-.179-.027-.179.602-.204.643-.518.643-.518-2.2 1.175-3.281.847-3.281.847 1.176-.493 1.996-1.545 1.996-1.545-.547.055-1.337-.085-1.337-.085.044-.45-.291-.516-.291-.516-.695.09-.695-.717-.695-.717-.112-1.01 2.129-1.928 2.129-1.928.494-.292.785-.853.785-.853.717-1.142 1.861-1.613 1.861-1.613.359-.786 1.211-1.436 1.211-1.436.023.113.268.516.268.516 1.66-.18 2.197.403 2.197.403 1.368-.045 1.795.92 1.795.92.628-.18 1.726 1.21 1.726 1.21.919.987 1.86 1.256 1.86 1.256-.2.247-.851.583-.851.583 1.681.336 2.13.874 2.13.874-.583.022-1.502.605-1.502.605.717.359 1.143.27 1.143.27-.247.089-.83.941-.83.941.583.56 1.86.381 1.86.381.069.381-.268.852-.268.852C44.907 27.23 48 26.087 48 26.087c3.093-.94 6.143-.852 6.143-.852 2.353-2.891-3.25-1.928-3.25-1.928-.427.113-4.081.987-4.081.987-3.543.852-4.036-1.66-4.036-1.66-.449-2.6 3.229-2.712 3.229-2.712 2.376-1.906 7.264.404 7.264.404-1.077-.09-2.22.246-2.22.246.224.27 1.3.426 1.3.426-1.906 1.21-5.179.359-5.179.359-1.233-.27-2.13.112-2.13.112-1.232.314-.763 1.053-.763 1.053 1.032 1.01 3.252.315 3.252.315 4.148-1.279 6.636-.965 6.636-.965 2.847.112 1.861 4.283 1.861 4.283.942.806 1.726 2.668 1.726 2.668-.246-.225-.964-.337-.964-.337.044.224.56.987.56.987-1.277-.225-.762 1.054-.762 1.054.538 1.277 1.256 1.882 1.256 1.882.493.516 1.01.225 1.01.225.425-.314 1.03-.225 1.03-.225 1.032-.022 1.323 2.041 1.323 2.041-.18-.247-.627-.381-.627-.381-.808-.314-.203 2.287-.203 2.287.203.785 0 .761 0 .761l-.795.802c-.672.538-.953-.061-.953-.061-.37.325-.769.339-.769.339-.36-.012-.363-.273-.363-.273-.28.18-.936.259-.936.259-.706-.223-.04-.773-.04-.773l1.054-.65c.998-.572.673-1.39.673-1.39-.09-.943-1.581-.572-1.581-.572-1.088.167-.953.918-.953.918-.235-.033-.55-.459-.55-.459-.122.235-.022.605-.022.605-1.221-.594-1.333-2.757-1.333-2.757-.786.291-.897.93-.897.93.74.079.818.594.818.594.28.706-.224.964-.224.964l-1.513.73c-1.705.705-2.04 1.198-2.04 1.198-.013.016-.028.036-.043.058zm-16.96-17.055c.013-.206.36-.993.36-.993-.27 0-.76.645-.76.645.117.064.4.348.4.348zm-1.056.955s.359-.336.604-.325c0 0 .226-.056.248.157l-.034.426s-.684-.235-.819-.258zm-.506.93c-.212-.089-.705-.65-.705-.65l-.034.684c-.27.012-.46.583-.46.583.304-.123.953.078.953.078-.023-.223.246-.695.246-.695zm2.691-2.645s.201-.336.572-.146c0 0 .538.381.56.74 0 0-.796-.09-.975-.18 0 0-.225-.078-.157-.414zm2.388 1.413c-.057-.202-.27-.684-.27-.684.684.044.955.414.955.414-.147-.011-.685.27-.685.27zm-1.727.65s.874 2.466 2.298 2.646c0 0-1.334-1.581-1.513-2.187 0 0-.616-.291-.785-.459zm1.76.448s.538 1.771 2.288 1.57c0 0-2.04-1.335-2.287-1.57zm1.088-.594s.314-.212.695.09c0 0 .74.684.818.807 0 0-1.637-.034-1.513-.897zm2.206 2.742h-1.148c.077.31.554.4.554.4.375-.064.594-.4.594-.4zm-.222 1.159l.684-.034s.056.37.27.628c0 0-.629-.124-.954-.594zm.998 1.57c-.292-.068-1.02-.46-1.02-.46.067.358.291.74.291.74.146-.067.729-.28.729-.28zm-4.44-1.726s1.167.661 1.829.705l.19.841s-1.2-.235-2.018-1.546zm2.994 2.196c-.785.112-3.15-.437-3.15-.437.605 1.065 2.185 1.48 2.185 1.48-.1-.19-.1-.538-.1-.538.425.033 1.3.336 1.3.336l-.235-.841zm-.411 1.732l.483.896-.682-.1s.199-.411.199-.796zm-.62.074c-.55-.157-1.559-.348-1.559-.348.819.975 1.503 1.188 1.503 1.188-.1-.201.056-.84.056-.84zm-3.544-2.67s.92 1.391 1.156 1.593c0 0-.415-.191-.651-.314 0 0-.078.46-.044.617 0 0-.618-.46-.46-1.895zm-.807.539c.146-.235-.269-.449-.269-.449-.683.045-.458 1.19-.458 1.19.167-.18.727-.741.727-.741zm-.336-3.486s.583.325.673 1.267c0 0-.28-.47-.673-.47 0 0 .112-.595 0-.797zm.46-.572l.348-.46c.134.74.65.751.65.751-.169.068-.146.415-.146.415.1.09.426.213.426.213-.112.135-.18 1.155-.18 1.155-.067-.438-1.098-2.074-1.098-2.074zm-5.796.482s-.44.184-.44.667c0 0-.114.399.412.327 0 0-.114-.739.028-.994zm.484.938c-.32 0-.05-.705-.05-.705.033.184.234.62.234.62-.084.102-.184.085-.184.085zm1.766.9s.317.254.443.365c0 0-.57.348-.838.475 0 0 .348-.554.395-.84zm1.428 1.2c.224-1.905-1.132-2.017-1.132-2.017 1.12-.303 1.782 1.143 1.782 1.143.246-.057.875-.662.875-.662l.09.696-.314-.112-.101.347c-.157-.023-.404-.1-.404-.1-.112.436-.796.705-.796.705zm.336 3.923s.134-1.21.706-1.099c0 0 .212.102.235.191 0 0 .605-1.065.751-1.065l.045.112-.258 1.324.965-.404.908.74.482-.393 1.11 1.12.313-.604.64.84s.2.056.335.023c0 0 .382-.718.796-.594l.662.28-.045-1.816.886-.045.067-1.267 1.165-.415.337.169-1.054.605.169 1.256s-.819.168-.953.336l.134 1.748-1.771.08s-.224.425-.18.862c0 0-.627-.38-1.142-.93 0 0-.215.291-.247.493l-1.054-1.031-.505.414-1.334-1.266-1.502.818-.044-.74s-.415.157-.617.258zm-.605 1.257l.034.582c-.55.248-2.209 1.816-2.209 1.816-.314.269-1.917 1.67-1.917 1.67-.673.606-1.4.797-1.4.797-.404.078-1.302.448-1.302.448.303-.359 1.548-.863 1.548-.863.548-.28 1.558-1.065 1.558-1.065.46-.347 1.614-1.636 1.614-1.636.964-1.055 2.074-1.75 2.074-1.75zm2.836.66s.426-.482.123-.773c0 0-.19-.079-.46.112 0 0-.515.09-.639-.201 0 0-1.39.997-2.274 1.77l-1.76 1.435s-1.155.852-1.704 1.547c0 0-.796.493-1.425.673 0 0-1.468.325-1.49.66 0 0 1.692.068 2.163-.222 0 0 1.58-1.313 1.704-1.436 0 0 1.906-1.626 2.802-2.063 0 0 1.772-.897 2.299-1.031 0 0 .448-.19.661-.47zm4.988.527c-.303.112-1.446-.067-1.446-.067l-.174.264c1.732.57 4.537-.135 4.537-.135 3.327-.89 5.35-2.876 5.35-2.876-1.446.824-6.037 1.671-6.037 1.671-.638 1.255-1.008 1.054-1.008 1.054-.224.022-.247-.191-.247-.191-.146-.572-.504-.516-.504-.516-.505.057-.47.796-.47.796zm3.509-4.091s-.42.42-.42.79c0 0 .857.033 1.833-.387 0 0 2.538-1.294 4.253-1.194 0 0-1.042-.806-3.11-.033 0 0-1.8.723-2.556.824zm11.014-3.128c-3.447-.303-5.6 1.077-5.6 1.077 1.597-.387 5.885-.455 5.885-.455l-.285-.622zm-2.439 1.665s3.532-1.177 3.985 2.421c0 0-2.37-2.018-3.985-2.421zm3.972-.057c.114-.194.114-.967.114-.967.387.135.89 1.006.89 1.006-.078-.117-1.004-.039-1.004-.039zm-3.434 3.57s1.228.472 1.412.825c0 0-1.008.706-1.227 1.025 0 0-.555-.622-1.143-.252 0 0 .47-1.277.958-1.597zm3.716 2.708c-.992-.201-1.11-1.563-1.11-1.563.774.69 1.7.722 1.7.722 1.193.304 1.193.993 1.193.993-.084-.152-1.783-.152-1.783-.152zm-7.128 2.412s-.504.017-.773.302c0 0-.084.152.068.22 0 0 .134.083.352-.035 0 0 .286-.319.353-.487zm.436.665c.37-.32.959-.252.959-.252-.15.218-.504.52-.504.52-.219.135-.42.052-.42.052-.287-.068-.035-.32-.035-.32zm9.803-3.413s.538.64.606.908c0 0 .2-.773.32-.858 0 0-.775 0-.925-.05zm.616 3.646c.213-.097.754-.62.754-.62-.058 1.278-.89 1.026-.89 1.026-.193-.174.136-.406.136-.406zm-.86.06s-.464.316-.538.371c0 0 .26.76.538-.37zm-.849.064s-.656.212-.773.27c0 0 .406.619.773-.27zm-2.75-11.763s.465.213.562.387c0 0 .328-1.818-.213-2.495 0 0 .174 1.335-.348 2.108zm-11.25-2.884s.125.936 1.272 1.042l.008.026c-1.331.424-1.58-1.103-1.58-1.103-.14-1.174 1.113-1.713 1.113-1.713.46-.247 1.854-.432 1.854-.432.309-.035.494-.088.494-.088 1.704-1.024 3.09-.54 3.09-.54s-1.236.23-1.307.583c0 0 1.484.3 2.172.089 0 0-.459.847-3.09.317 0 0-1.924-.264-3.09.336 0 0-1.13.494-.935 1.483z" clip-rule="evenodd"/>
    <path fill="#5B3814" fill-rule="evenodd" d="M32.461 44.481c.3-2.036 1.438-6.231 1.449-6.266.526-2.352 7.987-2.347 8.31-2.346 7.001 0 7.746 2.109 7.805 2.326.738 1.623 1.648 6.088 1.686 6.275.45 2.018.572 4.271.572 6.11 0 2.121-.162 3.692-.164 3.71 0 2.68-2.447 8.769-4.154 10.344-1.744 1.605-5.586 1.559-5.746 1.556-4.275 0-5.785-1.499-5.858-1.576-3.385-4.322-4.196-10.243-4.204-10.302-.534-4.245.295-9.776.304-9.83zm4.142 19.92c.015.016 1.495 1.465 5.62 1.465.037.001 3.875.048 5.523-1.47 1.627-1.5 4.05-7.544 4.05-10.121.007-.055.559-5.44-.4-9.737l-.002-.005c-.035-.176-.955-4.66-1.668-6.215l-.007-.016-.004-.016c-.005-.02-.594-2.094-7.496-2.094-2.092-.01-7.605.35-7.997 2.1l-.001.005c-.041.153-1.147 4.242-1.44 6.233l-.001.002c-.02.138-.827 5.573-.303 9.739l.001.005c.03.214.854 5.946 4.125 10.126z" clip-rule="evenodd"/>
    <path fill="#5B3814" d="M44.138 41.992c0 .21-.17.378-.379.378-.208 0-.377-.168-.377-.378s.169-.379.377-.379c.21 0 .379.17.379.38zM45.19 41.873c0 .21-.17.378-.38.378-.208 0-.377-.168-.377-.378 0-.209.169-.378.378-.378.21 0 .378.169.378.378z"/>
    <path fill="#5B3814" d="M44.614 40.795s1.099.057 1.267.908c0 0 .19.986-1.099 1.244l1.547-.314s.46-.179.382-1.132c0 0-.235-.974-.695-.953l-1.402.247zM40.572 65.173c0 .208-.17.378-.377.378-.21 0-.379-.17-.379-.378 0-.21.17-.379.379-.379.208 0 .377.169.377.379zM41.622 65.26c0 .21-.17.378-.378.378-.21 0-.378-.168-.378-.378 0-.208.169-.378.378-.378.208 0 .378.17.378.378z"/>
    <path fill="#5B3814" d="M39.9 64.347s-.588.017-.688.555c0 0-.018.773.755.958l-1.478-.32s-.186-.32-.135-.857c0 0 .151-.554.504-.504l1.043.168z"/>
    <path fill="#FFFFFE" d="M32.644 44.533s3.842 2.628 9.492 2.628c0 0 6.122-.133 9.384-2.756 0 0 .437 2.085.403 2.454 0 0-4.406 2.523-9.787 2.523 0 0-5.827.116-9.796-2.407l.304-2.442z"/>
    <path fill="#5B3814" fill-rule="evenodd" d="M42.133 47.001c.06-.002 6.105-.164 9.286-2.722l.205-.165.054.258.006.03c.067.321.434 2.103.4 2.472l-.008.084-.072.041c-.045.026-4.507 2.544-9.865 2.544-.084.002-5.93.083-9.886-2.43l-.085-.056.348-2.806.218.15c.069.045 3.892 2.6 9.399 2.6zm9.628-.237c-.013-.337-.195-1.327-.35-2.083-3.304 2.477-9.024 2.637-9.275 2.642-4.886 0-8.471-1.975-9.364-2.518l-.259 2.085c3.88 2.412 9.563 2.332 9.623 2.33 4.893 0 9.021-2.129 9.625-2.456z" clip-rule="evenodd"/>
    <path fill="#5B3814" d="M44.76 48.103c0 .209-.17.379-.378.379-.209 0-.378-.17-.378-.379 0-.208.17-.378.378-.378.209 0 .379.17.379.378zM45.853 47.927c0 .21-.17.378-.378.378-.21 0-.378-.169-.378-.378s.169-.378.378-.378c.208 0 .378.17.378.378z"/>
    <path fill="#5B3814" d="M45.37 46.825s1.099.056 1.267.907c0 0 .19.988-1.099 1.245l1.547-.313s.46-.18.382-1.133c0 0-.236-.975-.695-.953l-1.402.246zM44.132 52.963c0 1.106-.895 2-2 2s-2.001-.894-2.001-2c0-1.104.896-2 2-2 1.106 0 2 .896 2 2z"/>
    <path fill="#fff" d="M43.423 52.963c0 .714-.579 1.292-1.292 1.292-.713 0-1.292-.578-1.292-1.292 0-.713.579-1.292 1.292-1.292.713 0 1.292.58 1.292 1.292z"/>
    <path fill="#5B3814" d="M42.801 52.963c0 .37-.3.67-.669.67-.37 0-.67-.3-.67-.67 0-.369.3-.67.67-.67.37 0 .67.301.67.67z"/>
    <path fill="#FFFFFE" d="M32.46 54.94s3.588 3.017 9.676 3.017c0 0 5.751.034 9.753-3.06 0 0-.302 2.118-.74 3.06 0 0-4.238 2.286-9.013 2.286 0 0-4.856.124-8.926-2.23l-.75-3.073z"/>
    <path fill="#5B3814" fill-rule="evenodd" d="M33.13 58.154l-.06-.035-.883-3.619.377.317c.036.03 3.62 2.979 9.574 2.979.057 0 5.743-.003 9.653-3.027l.315-.243-.057.394c-.012.088-.31 2.153-.752 3.105l-.023.049-.048.026c-.041.022-4.329 2.305-9.086 2.305-.048.002-4.949.099-9.01-2.251zm17.893-.312c.303-.686.542-1.96.647-2.592-3.98 2.858-9.478 2.87-9.534 2.869-4.987 0-8.347-2.035-9.413-2.782l.627 2.568c3.952 2.258 8.69 2.18 8.785 2.178h.001c4.41 0 8.406-1.994 8.887-2.241z" clip-rule="evenodd"/>
    <path fill="#5B3814" d="M39.516 58.874c0 .208-.17.378-.378.378-.209 0-.379-.17-.379-.378 0-.21.17-.379.379-.379.208 0 .378.17.378.379zM40.614 59.01c0 .209-.17.379-.378.379-.21 0-.379-.17-.379-.379 0-.21.17-.379.379-.379.208 0 .378.17.378.379z"/>
    <path fill="#5B3814" d="M39.329 57.738s-1.059.05-1.295.89c0 0-.235 1.095 1.21 1.363l-1.849-.37s-.32-.403-.168-1.16c0 0 .202-.79.69-1.008l1.412.285z"/>
    <path fill="#08315E" fill-rule="evenodd" d="M8.646 34.737l-1.496-.335.853-3.815c.05.007.104.017.162.03.058.01.145.028.258.054 1.227.275 2.106.811 2.638 1.61.531.8.666 1.788.402 2.964-.128.579-.33 1.073-.604 1.485-.275.41-.63.753-1.066 1.028-.417.261-.878.434-1.386.516-.507.083-1.016.067-1.526-.047-.532-.119-1.001-.319-1.407-.601-.404-.282-.745-.642-1.022-1.083-.267-.435-.439-.905-.513-1.407-.075-.503-.053-1.023.067-1.56.156-.698.433-1.286.83-1.761.396-.476.909-.837 1.538-1.081l.43 1.862c-.321.14-.576.322-.767.544-.19.222-.32.488-.39.8-.13.582-.04 1.084.273 1.506.313.421.805.707 1.476.857.678.151 1.25.104 1.714-.144.464-.248.762-.663.891-1.244.11-.495.083-.933-.086-1.318-.167-.384-.446-.648-.836-.793l-.433 1.933zM10.337 26.47l.17-.326c.2-.38.278-.69.24-.934-.038-.242-.195-.435-.472-.58-.323-.168-.596-.207-.818-.114-.222.091-.433.33-.634.715l-.184.353 1.698.886zm2.559 3.44l-6.483-3.38.963-1.845c.377-.723.672-1.209.887-1.458.215-.25.454-.438.718-.563.299-.14.618-.202.957-.184.34.017.675.113 1.005.285.502.262.846.598 1.031 1.007.186.41.208.878.066 1.404l3.534-.403-1.04 1.995-3.315.162 2.54 1.323-.863 1.657zM10.843 18.873l1.325-1.484 2.652 2.368c.39.348.679.588.866.72.188.131.36.226.517.28.189.066.384.063.583-.013.2-.076.39-.215.571-.418.181-.203.297-.408.349-.613.052-.205.035-.4-.05-.584-.073-.149-.185-.309-.338-.48-.153-.172-.424-.431-.813-.78l-.372-.332-2.28-2.035 1.32-1.48 2.883 2.574c.599.534 1.009.964 1.229 1.29.22.326.354.664.403 1.015.055.384-.008.788-.187 1.211-.18.424-.477.868-.892 1.332-.416.467-.824.813-1.224 1.037-.4.226-.794.334-1.184.325-.352-.01-.702-.106-1.053-.287-.35-.18-.823-.538-1.422-1.073l-.566-.505-2.317-2.068zM21.524 13.238l.313-.213c.396-.268.636-.51.72-.725.082-.215.036-.454-.142-.716-.172-.253-.371-.38-.598-.384-.227-.002-.536.128-.927.393l-.33.224.964 1.421zm2.255 3.325l-1.548 1.05-4.101-6.05 1.724-1.17c.674-.457 1.17-.744 1.488-.863.316-.118.624-.162.923-.132.348.034.674.149.979.347.304.198.57.465.801.804.244.361.402.718.472 1.07.07.352.052.694-.054 1.022-.081.248-.217.48-.409.695-.192.214-.543.493-1.052.84l-.28.19-.298.2 1.355 1.997zM31.025 11.177c.522-.182.888-.523 1.096-1.024.208-.502.21-1.044.007-1.628-.2-.576-.541-.997-1.021-1.263-.481-.264-.977-.307-1.49-.13-.523.183-.887.525-1.095 1.028-.208.502-.21 1.045-.008 1.624.204.59.541 1.016 1.01 1.277.469.263.969.301 1.5.116zm2.987-3.306c.172.496.243.992.212 1.49-.032.496-.162.977-.393 1.441-.233.462-.545.864-.933 1.205-.39.342-.828.596-1.315.766-.494.172-.998.245-1.513.218-.515-.027-1.004-.15-1.465-.37-.474-.219-.88-.515-1.215-.887-.336-.373-.589-.805-.76-1.294-.171-.493-.241-.99-.21-1.49.034-.499.168-.98.404-1.447.224-.458.531-.859.918-1.2.387-.34.828-.597 1.321-.769.492-.17.995-.243 1.514-.217.518.026 1.01.148 1.473.366.464.22.864.516 1.2.888.337.373.59.806.762 1.3zM49.048 11.384l-1.854-.166-.143-3.187c-.01-.225-.015-.474-.016-.748 0-.274.005-.573.014-.896-.075.303-.2.68-.378 1.128-.039.094-.066.164-.084.209l-1.295 3.322-1.323-.118-.682-3.501-.04-.22c-.097-.472-.154-.864-.17-1.173-.045.274-.093.544-.143.812-.051.268-.107.535-.167.8l-.71 3.11-1.845-.167 1.78-7.18 1.962.177.76 3.854c.004.027.014.071.028.132.073.344.111.638.116.879.026-.129.063-.27.114-.424.05-.154.117-.34.2-.556l1.446-3.645 1.968.177.462 7.381zM54.514 11.924c.51.215 1.008.205 1.498-.028.49-.234.856-.635 1.096-1.205.237-.563.267-1.105.089-1.624-.178-.519-.518-.884-1.017-1.095-.51-.214-1.01-.204-1.5.031-.492.235-.856.636-1.095 1.202-.243.576-.279 1.12-.107 1.629.172.508.518.872 1.036 1.09zm4.427-.46c-.204.484-.485.9-.84 1.249-.357.347-.776.616-1.257.807-.483.186-.982.276-1.5.27-.517-.007-1.013-.111-1.488-.311-.481-.204-.904-.487-1.268-.852-.365-.365-.644-.783-.839-1.255-.206-.48-.308-.971-.308-1.473 0-.502.101-.992.303-1.47.203-.481.484-.896.842-1.245.359-.349.782-.617 1.268-.805.475-.19.968-.282 1.484-.276.516.006 1.014.11 1.496.313.478.202.9.486 1.268.852.367.366.65.785.848 1.26.198.472.297.96.295 1.461 0 .502-.101.993-.303 1.475zM61.585 15.809l.259.21c.607.49 1.15.724 1.631.701.48-.023.94-.307 1.38-.85.44-.543.622-1.053.549-1.532-.074-.48-.414-.964-1.02-1.455l-.26-.21-2.54 3.136zm-2.565.031l4.598-5.68 1.184.96c.881.714 1.472 1.26 1.77 1.639.299.38.508.777.627 1.195.157.542.169 1.084.038 1.627-.13.542-.4 1.064-.806 1.566s-.861.873-1.365 1.114c-.502.242-1.035.342-1.598.302-.429-.03-.851-.147-1.27-.35-.417-.203-.994-.605-1.734-1.203l-.26-.211-1.184-.959zM65.27 21.365l5.784-4.465 2.735 3.544-1.27.98-1.547-2.005-1.004.775 1.458 1.891-1.24.957-1.458-1.89-.976.752 1.548 2.005-1.295 1-2.735-3.544zM68.946 26.488l6.54-3.252.888 1.782-5.011 2.491 1.103 2.22-1.53.76-1.99-4.001zM73.75 34.879c.12.538.42.938.895 1.2.475.263 1.015.325 1.619.19.597-.136 1.055-.427 1.374-.873.318-.447.418-.935.298-1.463-.121-.538-.421-.938-.898-1.2-.477-.262-1.016-.325-1.617-.189-.609.137-1.072.424-1.386.86-.314.435-.41.927-.285 1.475zm2.952 3.33c-.512.117-1.015.131-1.505.044-.491-.086-.954-.27-1.39-.55-.433-.284-.797-.639-1.092-1.063-.296-.424-.5-.888-.614-1.39-.115-.51-.13-1.019-.046-1.527.085-.51.263-.98.535-1.413.27-.447.61-.816 1.019-1.107.408-.293.865-.496 1.373-.61.51-.115 1.01-.128 1.503-.04.493.087.957.275 1.395.562.43.274.794.623 1.088 1.046.295.422.5.888.616 1.398.114.506.129 1.015.045 1.527s-.261.986-.531 1.422c-.27.436-.61.8-1.018 1.092-.41.291-.868.494-1.378.61zM23.47 76.492l-1.53-1.063 1.45-2.838c.103-.201.222-.42.357-.659.135-.238.287-.495.454-.772-.214.228-.51.492-.886.795-.08.061-.138.108-.175.138l-2.77 2.244-1.09-.757 1.138-3.38.073-.21c.149-.46.293-.826.433-1.103-.174.215-.35.426-.527.634-.177.207-.356.412-.54.612L17.7 72.482l-1.52-1.057 5.097-5.355 1.618 1.126-1.244 3.724c-.01.025-.023.068-.041.129-.107.334-.218.607-.333.82.085-.1.188-.204.308-.312.12-.11.27-.237.45-.384l3.058-2.45 1.623 1.129-3.247 6.64zM27.329 78.095l2.38-6.91 4.238 1.459-.522 1.513-2.404-.828-.414 1.202 2.267.782-.51 1.479-2.267-.78-.402 1.167 2.404.828-.533 1.548-4.237-1.46zM38.907 75.144l.008.021c.098.229.16.428.186.597.049-.149.14-.324.27-.523.014-.023.026-.04.034-.051l1.02-1.618 2.352.2-2.729 3.295 2.372 4.007-2.254-.191-1.052-2.263c-.048-.1-.089-.204-.124-.308-.034-.105-.06-.21-.079-.315-.04.114-.083.218-.13.314-.05.096-.104.186-.164.267l-1.427 2.053-2.253-.19 3.025-3.592-2.151-3.667 2.364.2.732 1.764zM46.172 80.687l-.962-7.247 1.993-.265.962 7.247-1.993.265zM55.384 71.074l.728 2.047c-.358-.191-.688-.309-.99-.35-.303-.043-.6-.012-.89.091-.54.193-.91.532-1.112 1.02-.203.486-.199 1.027.012 1.62.197.553.53.951 1 1.195.468.242.966.271 1.493.083.29-.103.54-.267.75-.49.207-.224.387-.527.542-.907l.73 2.056c-.246.25-.504.464-.772.64-.27.177-.555.32-.855.427-.377.133-.74.212-1.09.237-.35.022-.69-.01-1.021-.096-.637-.163-1.183-.458-1.64-.886-.455-.428-.8-.97-1.033-1.626-.188-.528-.273-1.038-.255-1.53.017-.492.136-.975.356-1.449.205-.452.484-.833.833-1.146.35-.311.776-.556 1.278-.734.3-.107.61-.177.931-.21.321-.033.655-.03 1.005.008zM63.603 72.541c.45-.32.704-.748.763-1.288.06-.54-.09-1.062-.448-1.567-.354-.501-.8-.813-1.334-.936-.535-.123-1.024-.028-1.466.285-.45.319-.704.75-.762 1.291-.059.54.09 1.064.447 1.566.362.51.805.828 1.328.952.523.123 1.013.022 1.472-.302zm1.941-4.009c.305.429.51.887.619 1.373.108.486.116.983.024 1.493-.096.509-.284.98-.562 1.417-.278.435-.628.803-1.049 1.1-.426.303-.89.512-1.392.63-.502.118-1.005.135-1.51.05-.515-.078-.986-.25-1.413-.515-.426-.264-.79-.609-1.09-1.032-.301-.426-.506-.883-.614-1.373-.108-.488-.113-.989-.015-1.502.088-.503.27-.972.548-1.407.276-.435.627-.803 1.054-1.105.423-.3.888-.51 1.393-.629.504-.118 1.01-.138 1.516-.056.507.082.973.254 1.399.52.426.264.79.61 1.092 1.036z" clip-rule="evenodd"/>
</svg>
