<svg xmlns="http://www.w3.org/2000/svg" width="77" height="78" fill="none" viewBox="0 0 77 78">
    <g clip-path="url(#clip0)">
        <mask id="2du3fmg83a" width="76" height="76" x="0" y="0" maskUnits="userSpaceOnUse">
            <path fill="#fff" d="M.25.567h75.592V75.88H.25V.566z"/>
        </mask>
        <g mask="url(#2du3fmg83a)">
            <path fill="#F3F5FC" fill-rule="evenodd" d="M.25 38.223C.25 17.427 17.17.567 38.045.567c20.874 0 37.796 16.86 37.796 37.656 0 20.797-16.922 37.656-37.796 37.656C17.17 75.88.249 59.02.249 38.223z" clip-rule="evenodd"/>
        </g>
        <path fill="#fff" fill-rule="evenodd" d="M61.693 15.01v46.123c0 1.255-1.08 2.286-2.393 2.286H17.359c-1.314 0-2.393-1.031-2.393-2.286V15.009c0-1.255 1.08-2.286 2.393-2.286H59.3c1.314 0 2.393 1.031 2.393 2.286z" clip-rule="evenodd"/>
        <path fill="#000" fill-rule="evenodd" d="M17.406 12.992c-1.173 0-2.111.897-2.111 2.017v46.124c0 1.12.938 2.017 2.11 2.017h41.942c1.173 0 2.11-.896 2.11-2.017V15.009c0-1.12-.937-2.017-2.11-2.017H17.406zM59.3 63.642H17.36c-1.454 0-2.674-1.12-2.674-2.554V14.964c0-1.389 1.173-2.555 2.674-2.555H59.3c1.454 0 2.674 1.121 2.674 2.555v46.124c0 1.434-1.173 2.555-2.674 2.555z" clip-rule="evenodd"/>
        <path fill="#fff" fill-rule="evenodd" d="M61.693 15.01v8.606h-46.68v-8.607c0-1.255 1.08-2.286 2.393-2.286h41.94c1.268 0 2.347 1.031 2.347 2.286z" clip-rule="evenodd"/>
        <path fill="#000" fill-rule="evenodd" d="M15.295 23.346H61.41V15.01c0-1.12-.938-2.017-2.11-2.017H17.358c-1.173 0-2.111.897-2.111 2.017v8.337h.047zm46.679.494H14.732v-8.876c0-1.39 1.173-2.555 2.674-2.555h41.94c1.455 0 2.675 1.121 2.675 2.555v8.876h-.047zM18.954 48.224l-1.22-.807c.047-.09 5.865-8.248 14.168-4.93 3.05 1.21 8.68 3.45 12.995-1.21.423-.45.845-1.032 1.267-1.615 1.736-2.42 4.128-5.737 10.274-5.513l-.047 1.434c-5.301-.224-7.271 2.51-9.007 4.886-.47.628-.892 1.255-1.36 1.748-5.02 5.424-11.541 2.824-14.685 1.57-7.224-2.87-12.338 4.347-12.385 4.437z" clip-rule="evenodd"/>
        <path fill="#8A79F7" fill-rule="evenodd" d="M26.601 40.38c1.477 0 2.674 1.143 2.674 2.554 0 1.412-1.197 2.555-2.674 2.555-1.477 0-2.674-1.143-2.674-2.554 0-1.412 1.197-2.556 2.674-2.556z" clip-rule="evenodd"/>
        <path fill="#000" fill-rule="evenodd" d="M26.601 40.648c-1.314 0-2.393 1.031-2.393 2.286 0 1.256 1.08 2.287 2.393 2.287 1.314 0 2.393-1.031 2.393-2.287 0-1.255-1.08-2.285-2.393-2.285zm0 5.11c-1.642 0-2.956-1.255-2.956-2.823 0-1.57 1.314-2.824 2.956-2.824s2.956 1.255 2.956 2.824-1.314 2.823-2.956 2.823z" clip-rule="evenodd"/>
        <path fill="#8A79F7" fill-rule="evenodd" d="M49.964 34.06c1.477 0 2.674 1.143 2.674 2.554 0 1.411-1.197 2.555-2.674 2.555-1.477 0-2.674-1.144-2.674-2.555 0-1.41 1.197-2.555 2.674-2.555z" clip-rule="evenodd"/>
        <path fill="#000" fill-rule="evenodd" d="M49.964 34.328c-1.313 0-2.393 1.031-2.393 2.286 0 1.255 1.08 2.286 2.393 2.286 1.314 0 2.393-1.03 2.393-2.286 0-1.255-1.08-2.286-2.393-2.286zm0 5.065c-1.642 0-2.956-1.255-2.956-2.824 0-1.568 1.314-2.824 2.956-2.824s2.956 1.256 2.956 2.825c-.047 1.568-1.36 2.823-2.956 2.823z" clip-rule="evenodd"/>
        <path fill="#fff" fill-rule="evenodd" d="M21.675 16.937c.648 0 1.173.501 1.173 1.12 0 .62-.525 1.12-1.173 1.12s-1.173-.5-1.173-1.12c0-.619.525-1.12 1.173-1.12z" clip-rule="evenodd"/>
        <path fill="#000" fill-rule="evenodd" d="M21.675 17.206c-.516 0-.891.403-.891.851 0 .448.422.852.89.852.47 0 .892-.404.892-.852 0-.448-.375-.851-.891-.851zm0 2.24c-.797 0-1.454-.627-1.454-1.389s.657-1.39 1.454-1.39c.797 0 1.454.628 1.454 1.39 0 .762-.657 1.39-1.454 1.39z" clip-rule="evenodd"/>
        <path fill="#fff" fill-rule="evenodd" d="M26.413 16.937c.648 0 1.173.501 1.173 1.12 0 .62-.525 1.12-1.173 1.12-.647 0-1.173-.5-1.173-1.12 0-.619.526-1.12 1.173-1.12z" clip-rule="evenodd"/>
        <path fill="#000" fill-rule="evenodd" d="M26.413 17.206c-.516 0-.89.403-.89.851 0 .448.421.852.89.852.47 0 .892-.404.892-.852 0-.448-.375-.851-.892-.851zm0 2.24c-.797 0-1.454-.627-1.454-1.389s.657-1.39 1.454-1.39c.798 0 1.455.628 1.455 1.39 0 .762-.657 1.39-1.455 1.39z" clip-rule="evenodd"/>
        <path fill="#fff" fill-rule="evenodd" d="M31.152 16.937c.647 0 1.172.501 1.172 1.12 0 .62-.525 1.12-1.172 1.12-.648 0-1.173-.5-1.173-1.12 0-.619.525-1.12 1.173-1.12z" clip-rule="evenodd"/>
        <path fill="#000" fill-rule="evenodd" d="M31.152 17.206c-.516 0-.892.403-.892.851 0 .448.422.852.892.852.469 0 .89-.404.89-.852 0-.448-.374-.851-.89-.851zm0 2.24c-.798 0-1.455-.627-1.455-1.389s.657-1.39 1.455-1.39c.797 0 1.454.628 1.454 1.39 0 .762-.657 1.39-1.454 1.39z" clip-rule="evenodd"/>
    </g>
    <defs>
        <clipPath id="clip0">
            <path fill="#fff" d="M0 0H75.78V76.95H0z" transform="translate(0.249084 0.312267)"/>
        </clipPath>
    </defs>
</svg>
