<svg xmlns="http://www.w3.org/2000/svg" width="24" height="24" viewBox="0 0 24 24">
    <g fill="none" fill-rule="evenodd">
        <g>
            <g>
                <g>
                    <g>
                        <g transform="translate(-319 -3361) translate(276 2780) translate(0 201) translate(42 219) translate(1 161)">
                            <path fill="#FFF" d="M12 0c6.627 0 12 5.373 12 12s-5.373 12-12 12S0 18.627 0 12 5.373 0 12 0zm0 2.4c-5.302 0-9.6 4.298-9.6 9.6s4.298 9.6 9.6 9.6 9.6-4.298 9.6-9.6-4.298-9.6-9.6-9.6zm.518 2.6v1.368l.252.034c.826.132 1.502.468 2.03 1.01.58.594.886 1.359.918 2.293h-2.15l-.012-.159c-.032-.262-.125-.506-.278-.733-.183-.273-.436-.465-.76-.576v3.104l.125.048.126.043c.083.028.167.059.25.092.544.2 1.041.434 1.49.7.45.268.811.621 1.083 1.06.272.44.408 1.004.408 1.694 0 .578-.133 1.118-.4 1.619-.267.5-.659.914-1.176 1.243-.518.328-1.153.514-1.906.559v1.268h-1.051v-1.285l-.272-.04c-.891-.153-1.627-.518-2.207-1.095-.638-.634-.967-1.485-.988-2.553h2.118l.015.188c.044.367.167.694.369.98.235.334.557.562.965.684v-3.52l-.143-.05-.148-.05c-.099-.034-.2-.067-.305-.1-.847-.312-1.493-.712-1.938-1.202-.444-.49-.666-1.14-.666-1.952-.01-.957.282-1.727.878-2.311.596-.584 1.37-.92 2.322-1.01V5h1.05zm0 8.426v3.17c.418-.066.747-.228.988-.483.24-.256.36-.584.36-.985 0-.445-.125-.795-.376-1.051-.25-.256-.575-.473-.972-.65zM11.467 8.17l-.157.04c-.254.08-.466.216-.635.41-.204.234-.306.535-.306.902 0 .356.099.642.298.86.198.216.465.402.8.558V8.17z"/>
                        </g>
                    </g>
                </g>
            </g>
        </g>
    </g>
</svg>
