<svg width="180" height="139" viewBox="0 0 180 139" fill="none" xmlns="http://www.w3.org/2000/svg">
<path d="M144.763 0.663574H112.866V58.231H144.763V0.663574Z" fill="#E3E3F1"/>
<path d="M129.006 0.281738H128.624V58.594H129.006V0.281738Z" fill="black"/>
<path d="M113.057 58.2311H112.675V0.472656H144.744V0.854656H113.057V58.2311Z" fill="black"/>
<path d="M147.838 19.5154H109.791V19.8974H147.838V19.5154Z" fill="black"/>
<path d="M147.838 38.9974H109.791V39.3794H147.838V38.9974Z" fill="black"/>
<path d="M80.3388 98.6085V128.71L78.3524 132.988H91.9707L96.3827 90.8157L80.3388 98.6085Z" fill="#E3E3F1"/>
<path d="M83.3757 54.7549L104.519 53.5325V76.4525V132.988H90.2135L91.9707 129.837L83.3757 54.7549Z" fill="#E3E3F1"/>
<path d="M84.4071 17.166V19.9928C84.4071 22.1702 85.8969 24.0802 88.017 24.5959L92.5055 25.7037V14.6639L88.7619 13.7471C86.5463 13.1932 84.4071 14.8931 84.4071 17.166Z" fill="#E3E3F1"/>
<path d="M92.4673 25.8948L87.9788 24.787C85.7632 24.2522 84.2161 22.2658 84.2161 19.9929H84.5981C84.5981 22.0939 86.0306 23.9084 88.0552 24.405L92.5437 25.5128L92.4673 25.8948Z" fill="black"/>
<path d="M88.9911 19.439C89.1071 19.439 89.2012 19.3449 89.2012 19.2289C89.2012 19.1129 89.1071 19.0188 88.9911 19.0188C88.8751 19.0188 88.781 19.1129 88.781 19.2289C88.781 19.3449 88.8751 19.439 88.9911 19.439Z" fill="black"/>
<path d="M85.6677 19.439C85.7838 19.439 85.8778 19.3449 85.8778 19.2289C85.8778 19.1129 85.7838 19.0188 85.6677 19.0188C85.5517 19.0188 85.4576 19.1129 85.4576 19.2289C85.4576 19.3449 85.5517 19.439 85.6677 19.439Z" fill="black"/>
<path d="M86.8328 20.5086H86.4508V17.3571H84.961V16.9751H86.8328V20.5086Z" fill="black"/>
<path d="M89.4113 16.9751H87.7305V17.3571H89.4113V16.9751Z" fill="black"/>
<path d="M91.9708 18.8851V20.0502C92.6011 20.0502 93.0977 19.5345 93.0977 18.9233C93.0977 18.8851 93.0977 18.8469 93.0977 18.8278C93.0404 18.102 91.9708 18.1784 91.9708 18.8851Z" fill="#EDEEEF"/>
<path d="M91.9708 20.2412V19.8592C92.4865 19.8592 92.9067 19.439 92.9067 18.9233H93.2887C93.3078 19.6491 92.7157 20.2412 91.9708 20.2412Z" fill="black"/>
<path d="M88.0743 21.2724C87.8451 21.2724 87.6159 21.1769 87.444 21.005L87.6541 20.7949C87.8833 21.0241 88.2844 21.0241 88.5136 20.7949L88.7237 21.005C88.5327 21.1769 88.3035 21.2724 88.0743 21.2724Z" fill="#6E43B7"/>
<path d="M87.3676 20.8905C87.3485 20.8905 87.3294 20.8905 87.3294 20.8905L86.6036 20.7187C86.5081 20.6996 86.4317 20.5849 86.4699 20.4894C86.489 20.3939 86.6036 20.3175 86.6991 20.3557L87.4249 20.5277C87.5204 20.5468 87.5968 20.6613 87.5586 20.7568C87.5395 20.8332 87.444 20.8905 87.3676 20.8905Z" fill="black"/>
<path d="M91.9707 18.8085C91.2067 18.8085 90.6337 17.3378 90.4618 15.8862C90.309 14.7402 88.6282 14.6638 87.1193 14.6065C86.8519 14.5874 86.6036 14.5874 86.3553 14.5683C85.9351 14.5301 85.5913 14.6447 85.3239 14.8739C84.8082 15.3323 84.7509 16.1154 84.7509 16.1345L84.3689 16.1154C84.3689 16.0772 84.4453 15.1604 85.0756 14.5874C85.4194 14.2818 85.8587 14.1481 86.3744 14.1863C86.6227 14.2054 86.871 14.2054 87.1384 14.2245C88.7046 14.2818 90.6528 14.3773 90.8438 15.848C91.0348 17.4524 91.646 18.4265 91.9707 18.4265V18.8085Z" fill="black"/>
<path d="M92.5819 22.2848L92.5055 21.9028C96.1155 21.2534 99.7827 18.9805 99.2288 14.5111C98.5985 9.43051 93.4223 6.62281 88.9911 6.94751C86.2216 7.13851 84.388 8.07441 83.5094 9.67881C81.714 12.9831 84.5408 18.1592 84.5599 18.2165L84.2161 18.4075C84.1779 18.3502 83.4712 17.0514 82.9746 15.2942C82.3061 12.964 82.3825 10.9585 83.1656 9.50691C84.1015 7.76881 86.0497 6.79471 88.9529 6.58461C91.6842 6.39361 94.2818 7.17671 96.2873 8.80021C98.1209 10.29 99.3242 12.3528 99.5916 14.4729C100.012 17.5671 98.3693 21.2534 92.5819 22.2848Z" fill="black"/>
<path d="M91.9707 21.8265C91.4359 21.8265 91.0157 21.3872 91.0157 20.8715C91.0157 20.3558 91.455 19.9165 91.9707 19.9165V20.203C91.6078 20.203 91.3022 20.5086 91.3022 20.8715C91.3022 21.2344 91.6078 21.54 91.9707 21.54C92.3336 21.54 92.6392 21.2344 92.6392 20.8715H92.9257C92.9448 21.3872 92.5055 21.8265 91.9707 21.8265Z" fill="#6E43B7"/>
<path d="M83.8914 21.8265C83.3566 21.8265 82.9364 21.3872 82.9364 20.8715C82.9364 20.3558 83.3757 19.9165 83.8914 19.9165V20.203C83.5285 20.203 83.2229 20.5086 83.2229 20.8715C83.2229 21.2344 83.5285 21.54 83.8914 21.54C84.0442 21.54 84.197 21.4827 84.3307 21.3872L84.5217 21.5973C84.3307 21.7501 84.1015 21.8265 83.8914 21.8265Z" fill="#6E43B7"/>
<path d="M104.519 37.4311V55.1368L79.4411 61.287V41.5758C79.4411 34.5852 84.2161 28.4923 90.9966 26.8306C97.8726 25.1307 104.519 30.345 104.519 37.4311Z" fill="#E3E3F1"/>
<path d="M104.519 55.1177L79.4411 61.287V100.06L117.546 94.0435L104.519 55.1177Z" fill="#6E43B7"/>
<path d="M90.3854 133.084L90.0607 132.893L91.7797 129.799L86.9474 87.6068L87.3294 87.5686L92.1808 129.875L90.3854 133.084Z" fill="black"/>
<path d="M96.3065 59.4343C95.5043 59.4343 94.6447 59.3579 93.747 59.2242C90.7674 58.7467 85.7632 57.2378 78.9254 52.6538C74.8762 49.9416 71.5719 47.0193 71.4382 46.3317C71.3427 45.7969 71.5146 45.3194 71.9539 45.0138C72.8134 44.3835 74.4942 44.4599 75.984 45.1666C75.9649 44.8419 76.0222 44.4026 76.2896 44.1734C76.4997 44.0015 76.8053 43.9824 77.1873 44.1161C78.276 44.5363 78.9063 45.6632 79.0782 46.007L95.9245 46.7137L93.747 37.4884L94.11 37.3929L96.402 47.1148L78.8108 46.389L78.7726 46.2744C78.7726 46.2553 78.1805 44.9183 77.0536 44.479C76.8244 44.3835 76.6334 44.3835 76.5379 44.4599C76.3087 44.6509 76.366 45.2621 76.3851 45.4531L76.4615 45.8542L76.1177 45.6632C74.5515 44.8037 72.8898 44.8228 72.1831 45.3385C71.8584 45.5677 71.7438 45.8924 71.8202 46.2744C72.0112 47.3249 83.8723 57.3142 93.8043 58.8613C98.9804 59.6826 102.705 58.0591 104.882 54.0481C108.893 46.6564 107.575 40.3725 105.761 36.3997C103.794 32.0831 100.833 29.5046 100.795 29.4664L101.043 29.1799C101.081 29.199 104.099 31.8348 106.105 36.2278C107.957 40.277 109.314 46.6755 105.226 54.22C103.335 57.6962 100.356 59.4343 96.3065 59.4343Z" fill="black"/>
<path d="M70.4068 55.3468L70.3495 55.194L59.558 31.0898L77.2637 26.2766L84.8846 46.3698L84.5217 46.5035L77.0154 26.735L60.0928 31.3381L70.636 54.9075L80.0523 52.9975L80.1287 53.3795L70.4068 55.3468Z" fill="black"/>
<path d="M82.8409 54.8503C82.8409 54.8503 92.5055 67.38 106.773 61.8983L104.462 55.0986C99.8208 62.0129 90.4045 59.1096 82.8409 54.8503Z" fill="black"/>
<path d="M84.457 30.0425L79.9553 34.0919L80.2108 34.3759L84.7125 30.3265L84.457 30.0425Z" fill="black"/>
<path d="M74.8189 58.0399C72.8707 58.0399 70.4259 57.486 67.7137 55.6715C60.9523 51.1448 63.7027 40.4488 63.7409 40.3342L64.1038 40.4297C64.0847 40.5252 61.3916 50.9729 67.9238 55.3468C74.456 59.7207 79.2883 56.531 79.3456 56.4928L79.5557 56.7984C79.5175 56.8366 77.703 58.0399 74.8189 58.0399Z" fill="black"/>
<path d="M167.989 105.122H167.607V82.7937C167.607 80.2343 166.862 77.7704 165.467 75.6312C163.386 72.4797 160.215 70.2832 156.548 69.4619C156.548 70.0922 156.605 71.9067 157.465 73.8167C158.859 76.93 161.571 78.7636 165.544 79.2411L165.506 79.6231C160.368 78.9928 158.114 76.1851 157.121 73.9504C156.051 71.5247 156.185 69.29 156.185 69.2136L156.204 68.9844L156.643 69.0799C160.425 69.9394 163.672 72.1741 165.811 75.4211C167.263 77.6176 168.027 80.1579 168.027 82.7937V105.122H167.989Z" fill="black"/>
<path d="M167.989 108.12H167.607V85.7922C167.607 83.1564 168.371 80.6161 169.822 78.4196C171.942 75.1917 175.209 72.9379 178.99 72.0784L179.43 71.9829L179.449 72.2121C179.449 72.3076 179.582 74.5423 178.513 76.9489C177.52 79.1836 175.247 81.9913 170.128 82.6216L170.09 82.2396C174.063 81.743 176.775 79.9285 178.169 76.8152C179.029 74.9052 179.086 73.0907 179.086 72.4604C175.4 73.2817 172.229 75.4782 170.166 78.6297C168.772 80.7689 168.027 83.2328 168.027 85.7922V108.12H167.989Z" fill="black"/>
<path d="M165.62 75.5164C163.519 72.3458 160.291 70.092 156.567 69.2707L156.338 69.2134C156.338 69.2134 157.675 78.5724 167.435 79.7757L167.779 105.102V82.7935C167.798 80.215 167.034 77.6747 165.62 75.5164Z" fill="#E3E3F1"/>
<path d="M179.239 72.2312L179.009 72.2885C175.304 73.1289 172.057 75.3636 169.956 78.5342C168.543 80.6925 167.779 83.2137 167.779 85.7922V108.12L168.332 82.0104C178.112 80.8071 179.239 72.2312 179.239 72.2312Z" fill="#E3E3F1"/>
<path d="M167.989 103.555H167.607V90.5865C167.607 89.1158 167.187 87.7024 166.365 86.48C165.181 84.7037 163.405 83.4431 161.323 82.9465C161.323 83.9397 161.667 87.8552 166.48 88.4473L166.442 88.8293C160.654 88.1226 160.941 82.7555 160.96 82.6982L160.979 82.469L161.323 82.5454C163.538 83.042 165.448 84.3599 166.69 86.2508C167.53 87.5305 167.989 89.0394 167.989 90.5674V103.555Z" fill="black"/>
<path d="M175.304 102.123H160.291V138.375H175.304V102.123Z" fill="#8E8DC9"/>
<path d="M145.775 138.26H1.66589V138.642H145.775V138.26Z" fill="black"/>
<path d="M144.801 63.0632H2.65912V70.8943H144.801V63.0632Z" fill="#AAAAD6"/>
<path d="M144.992 71.0852H2.65912V70.7032H144.61V63.0632H144.992V71.0852Z" fill="black"/>
<path d="M10.28 70.8949H9.89801V138.452H10.28V70.8949Z" fill="black"/>
<path d="M25.5758 70.7856L9.94263 90.322L10.2409 90.5607L25.874 71.0243L25.5758 70.7856Z" fill="black"/>
<path d="M137.543 70.8943H137.161V138.451H137.543V70.8943Z" fill="black"/>
<path d="M121.877 70.7869L121.578 71.0255L137.204 90.5668L137.502 90.3283L121.877 70.7869Z" fill="black"/>
<path d="M34.0977 61.7455H35.5493L28.3677 45.2812H27.0116L34.0977 61.7455Z" fill="black"/>
<path d="M8.44637 62.8913H47.9261V60.8667H7.64417L8.44637 62.8913Z" fill="black"/>
<path d="M8.44637 62.8913H47.9261V60.8667H7.64417L8.44637 62.8913Z" fill="black"/>
<path d="M8.3891 62.8914H34.5561L27.0116 45.2812H0.844604L8.3891 62.8914Z" fill="#6E43B7"/>
<path d="M46.6273 62.7004H2.60181V63.0824H46.6273V62.7004Z" fill="black"/>
</svg>
