<svg xmlns="http://www.w3.org/2000/svg" xmlns:xlink="http://www.w3.org/1999/xlink" viewBox="0 0 52 52">
    <defs>
        <path id="cuc7z3d6da" d="M0 0.128L51.872 0.128 51.872 52 0 52z"/>
    </defs>
    <g fill="none" fill-rule="evenodd">
        <g>
            <g>
                <g>
                    <g>
                        <g transform="translate(-30 -4034) translate(16 3797) translate(14 237)">
                            <mask id="7pj77x4e6b" fill="#fff">
                                <use xlink:href="#cuc7z3d6da"/>
                            </mask>
                            <path fill="#F3F5FC" d="M0 26.064C0 11.74 11.612.128 25.936.128S51.872 11.74 51.872 26.064 40.26 52 25.936 52 0 40.388 0 26.064" mask="url(#7pj77x4e6b)"/>
                        </g>
                        <path fill="#1F3040" d="M19 19H9v-4.59C9 11.975 11.029 10 13.53 10H19v9z" transform="translate(-30 -4034) translate(16 3797) translate(14 237)"/>
                        <path fill="#FFF" d="M13 11s3.325.203 4.508 3.414c.231.629.34 1.294.34 1.962v21.065S17.62 42.607 23.123 43h12.875V16.14s.17-3.679-3.809-4.86c-.59-.175-1.206-.255-1.824-.255L13 11z" transform="translate(-30 -4034) translate(16 3797) translate(14 237)"/>
                        <path fill="#1F3040" d="M23.1 42.872h12.767V16.184c0-.012.036-.921-.408-1.96-.409-.955-1.32-2.22-3.342-2.82-.561-.166-1.163-.25-1.79-.25h-.01l-16.559-.025c.305.075.678.194 1.079.378.902.416 2.106 1.264 2.723 2.936.227.617.342 1.281.342 1.976v20.98c0 .016-.048 1.293.569 2.6.824 1.745 2.382 2.712 4.628 2.873zM35.998 43H23.092c-1.264-.09-2.33-.441-3.17-1.043-.674-.482-1.203-1.125-1.573-1.91-.628-1.333-.579-2.637-.578-2.65V16.419c0-.68-.113-1.33-.335-1.933-.602-1.631-1.776-2.457-2.655-2.863-.954-.44-1.773-.495-1.781-.495l.004-.128 17.314.025h.01c.639 0 1.254.087 1.827.257 2.074.615 3.008 1.915 3.427 2.898.454 1.064.418 1.969.417 2.007V43z" transform="translate(-30 -4034) translate(16 3797) translate(14 237)"/>
                        <path fill="#1F3040" d="M13.255 11.147l.127.019-.078-.02h-.05zm9.857 31.58h12.606V16.233c.001-.04.026-.926-.4-1.923-.4-.937-1.292-2.177-3.273-2.766-.55-.163-1.14-.246-1.756-.246l-15.947-.023c.202.068.4.147.592.236.909.42 2.122 1.275 2.743 2.964.229.621.345 1.291.345 1.991v20.885c0 .016-.047 1.273.558 2.556.806 1.711 2.331 2.66 4.532 2.818zM36 43H23.102c-1.275-.091-2.348-.445-3.194-1.052-.679-.488-1.212-1.137-1.585-1.93-.627-1.334-.584-2.618-.582-2.672V16.467c0-.668-.11-1.307-.328-1.899-.589-1.6-1.738-2.41-2.599-2.809-.928-.429-1.734-.485-1.741-.486L13 11.27l.009-.269 17.271.025c.652 0 1.27.087 1.847.259 2.088.62 3.03 1.934 3.452 2.927.461 1.083.421 1.991.42 2.03V43z" transform="translate(-30 -4034) translate(16 3797) translate(14 237)"/>
                        <path fill="#FFF" d="M27.715 35v4.158c0 .98-.318 1.938-.93 2.695-.415.514-.995.978-1.785 1.147h11.588c.122 0 .242-.008.362-.025.775-.111 3.268-.684 3.93-3.51.083-.36.12-.729.12-1.097V35H27.715z" transform="translate(-30 -4034) translate(16 3797) translate(14 237)"/>
                        <path fill="#1F3040" d="M25.089 42.872h11.35c.122 0 .243-.009.36-.025.758-.104 3.284-.659 3.949-3.405.08-.332.121-.69.121-1.064v-3.25H27.461v4.028c0 .994-.341 1.95-.962 2.692-.405.484-.878.827-1.41 1.024m11.35.128H24l.616-.127c.687-.142 1.286-.514 1.782-1.106.602-.72.933-1.646.933-2.611V35H41v3.378c0 .383-.042.752-.125 1.093-.685 2.826-3.28 3.396-4.058 3.503-.123.017-.25.026-.378.026" transform="translate(-30 -4034) translate(16 3797) translate(14 237)"/>
                        <path fill="#1F3040" d="M25.191 42.729h11.12c.12 0 .239-.008.353-.023.755-.101 3.27-.637 3.931-3.289.08-.32.12-.667.12-1.028v-3.118H27.308v3.882c0 .993-.351 1.949-.99 2.69-.332.384-.71.681-1.127.886m-.734.126l.027-.006-.027.006M36.311 43H23l1.34-.268c.676-.136 1.268-.493 1.758-1.062.597-.692.926-1.586.926-2.517V35H41v3.39c0 .381-.043.748-.128 1.09-.704 2.818-3.368 3.387-4.168 3.494-.128.017-.26.026-.393.026" transform="translate(-30 -4034) translate(16 3797) translate(14 237)"/>
                        <path fill="#9F97E7" d="M27.996 23h-.992l.017-.286c.102-1.743.128-3.5.09-5.247-.012-.532-.03-1.064-.057-1.595-.01-.193-.02-.388-.033-.582L27 15h1l-.02.29c-.015.195-.025.391-.034.586-.027.531-.044 1.064-.056 1.596-.039 1.745-.013 3.5.09 5.242l.016.286z" transform="translate(-30 -4034) translate(16 3797) translate(14 237)"/>
                        <path fill="#1F3040" d="M27.127 22.84h.746l-.01-.194c-.087-1.663-.113-3.394-.079-5.146.011-.559.027-1.071.05-1.566.008-.192.017-.385.029-.577l.013-.198h-.752l.013.198c.012.19.02.382.03.572.022.5.038 1.011.049 1.566.034 1.752.008 3.485-.08 5.15l-.01.196zm.869.16h-.992l.02-.366c.086-1.66.113-3.388.078-5.135-.011-.552-.027-1.063-.05-1.56-.008-.189-.016-.379-.028-.568L27 15h1l-.024.371c-.012.19-.02.382-.03.572-.021.494-.037 1.004-.048 1.561-.035 1.747-.008 3.473.079 5.13l.019.366z" transform="translate(-30 -4034) translate(16 3797) translate(14 237)"/>
                        <path fill="#9F97E7" d="M25 17.996v-.992l.179.017c1.089.102 2.188.128 3.28.09.331-.013.664-.03.996-.057.12-.01.243-.02.363-.033L30 17v1l-.182-.02c-.121-.015-.244-.025-.366-.034-.332-.027-.664-.045-.997-.056-1.09-.04-2.188-.013-3.276.09l-.179.016z" transform="translate(-30 -4034) translate(16 3797) translate(14 237)"/>
                        <path fill="#1F3040" d="M27.51 17.768c.305 0 .612.005.92.015.346.01.663.027.971.049.12.008.24.017.359.03l.092.009v-.742l-.092.01c-.118.012-.237.02-.356.03-.31.021-.627.037-.97.048-1.088.035-2.163.008-3.195-.078l-.091-.008v.738l.091-.008c.739-.062 1.5-.093 2.27-.093zM30 18l-.26-.027c-.117-.012-.235-.02-.352-.029-.306-.022-.621-.037-.964-.048-1.079-.035-2.145-.008-3.169.078l-.255.021v-.99l.255.021c1.025.086 2.092.112 3.172.078.341-.01.656-.027.963-.048.117-.009.234-.017.35-.03L30 17v1z" transform="translate(-30 -4034) translate(16 3797) translate(14 237)"/>
                        <path fill="#F3F5FC" d="M21 33L33 33 33 32 21 32z" transform="translate(-30 -4034) translate(16 3797) translate(14 237)"/>
                        <path fill="#1F3040" d="M21.147 32.858h11.706v-.716H21.147v.716zM21 33h12v-1H21v1z" transform="translate(-30 -4034) translate(16 3797) translate(14 237)"/>
                        <path fill="#F3F5FC" d="M21 31L33 31 33 30 21 30z" transform="translate(-30 -4034) translate(16 3797) translate(14 237)"/>
                        <path fill="#1F3040" d="M21.147 30.858h11.706v-.716H21.147v.716zM21 31h12v-1H21v1z" transform="translate(-30 -4034) translate(16 3797) translate(14 237)"/>
                        <path fill="#F3F5FC" d="M21 29L33 29 33 28 21 28z" transform="translate(-30 -4034) translate(16 3797) translate(14 237)"/>
                        <path fill="#1F3040" d="M21.147 28.858h11.706v-.716H21.147v.716zM21 29h12v-1H21v1z" transform="translate(-30 -4034) translate(16 3797) translate(14 237)"/>
                        <path fill="#F3F5FC" d="M21 27L33 27 33 26 21 26z" transform="translate(-30 -4034) translate(16 3797) translate(14 237)"/>
                        <path fill="#1F3040" d="M21.147 26.858h11.706v-.716H21.147v.716zM21 27h12v-1H21v1z" transform="translate(-30 -4034) translate(16 3797) translate(14 237)"/>
                        <path fill="#F3F5FC" d="M25 25L29 25 29 24 25 24z" transform="translate(-30 -4034) translate(16 3797) translate(14 237)"/>
                        <path fill="#1F3040" d="M25.137 24.858h3.726v-.716h-3.726v.716zM25 25h4v-1h-4v1z" transform="translate(-30 -4034) translate(16 3797) translate(14 237)"/>
                        <path fill="#8A79F7" d="M32 18.504c-.002 2.485-2.019 4.498-4.504 4.496-2.485-.002-4.498-2.019-4.496-4.504.002-2.485 2.019-4.498 4.504-4.496 2.485.002 4.498 2.019 4.496 4.504" transform="translate(-30 -4034) translate(16 3797) translate(14 237)"/>
                        <path fill="#FFF" d="M26.94 20l-1.826-1.57c-.152-.131-.152-.342 0-.473.152-.13.398-.13.55 0l1.287 1.108 2.391-1.972c.155-.128.4-.123.55.01.148.133.143.344-.011.472L26.94 20z" transform="translate(-30 -4034) translate(16 3797) translate(14 237)"/>
                    </g>
                </g>
            </g>
        </g>
    </g>
</svg>
