<svg xmlns="http://www.w3.org/2000/svg" xmlns:xlink="http://www.w3.org/1999/xlink" width="72" height="72" viewBox="0 0 72 72">
    <defs>
        <path id="xfvzpeffma" d="M0 0.177L71.823 0.177 71.823 72 0 72z"/>
        <path id="j5lf5vafec" d="M0 72L72 72 72 1.014 0 1.014z"/>
    </defs>
    <g fill="none" fill-rule="evenodd">
        <g>
            <g>
                <g>
                    <g transform="translate(-503 -2033) translate(248 1912) translate(0 102) translate(255 19)">
                        <g>
                            <mask id="nxcyfviw8b" fill="#fff">
                                <use xlink:href="#xfvzpeffma"/>
                            </mask>
                            <path fill="#F3F5FC" d="M0 36.088C0 16.255 16.078.177 35.911.177c19.834 0 35.912 16.078 35.912 35.911C71.823 55.922 55.745 72 35.91 72 16.078 72 0 55.922 0 36.088" mask="url(#nxcyfviw8b)"/>
                        </g>
                        <path fill="#FFF" d="M16.225 12.809v45.368c0 .898.765 1.654 1.672 1.654h36.206c.907 0 1.672-.756 1.672-1.654V12.809c0-.898-.765-1.654-1.672-1.654H17.897c-.955 0-1.672.709-1.672 1.654"/>
                        <path fill="#000" d="M17.24 10.665c-.773 0-1.401.62-1.401 1.383v45.78c0 .763.628 1.383 1.4 1.383h36.604c.773 0 1.4-.62 1.4-1.383v-45.78c0-.763-.627-1.383-1.4-1.383H17.24zm36.554 49.166H17.191c-1.11 0-1.98-.858-1.98-1.955v-45.78c0-1.097.87-1.955 1.98-1.955h36.603c1.111 0 1.98.858 1.98 1.955v45.78c0 1.049-.869 1.955-1.98 1.955z"/>
                        <mask id="5fw4ceyjsd" fill="#fff">
                            <use xlink:href="#j5lf5vafec"/>
                        </mask>
                        <path fill="#FFF" d="M33.465 19.268L41.577 19.268 41.577 18.254 33.465 18.254z" mask="url(#5fw4ceyjsd)"/>
                        <path fill="#000" d="M32.861 20.011h8.306v-.473h-8.306v.473zm-.41.27h9.126v-1.013h-9.126v1.014z" mask="url(#5fw4ceyjsd)"/>
                        <path fill="#FFF" d="M33.465 23.324L50.704 23.324 50.704 22.31 33.465 22.31z" mask="url(#5fw4ceyjsd)"/>
                        <path fill="#000" d="M33.794 23.053h16.535v-.473H33.794v.473zm-.33.27h17.24V22.31h-17.24v1.014z" mask="url(#5fw4ceyjsd)"/>
                        <path fill="#FFF" d="M33.465 34.479L41.577 34.479 41.577 33.465 33.465 33.465z" mask="url(#5fw4ceyjsd)"/>
                        <path fill="#000" d="M32.861 34.208h8.306v-.473h-8.306v.473zm-.41.27h9.126v-1.013h-9.126v1.014z" mask="url(#5fw4ceyjsd)"/>
                        <path fill="#FFF" d="M33.465 37.521L50.704 37.521 50.704 36.507 33.465 36.507z" mask="url(#5fw4ceyjsd)"/>
                        <path fill="#000" d="M33.794 37.284h16.535v-.473H33.794v.473zm-.33.237h17.24v-1.014h-17.24v1.014z" mask="url(#5fw4ceyjsd)"/>
                        <path fill="#FFF" d="M33.465 48.676L41.577 48.676 41.577 47.662 33.465 47.662z" mask="url(#5fw4ceyjsd)"/>
                        <path fill="#000" d="M32.861 48.406h8.306v-.474h-8.306v.474zm-.41.27h9.126v-1.014h-9.126v1.014z" mask="url(#5fw4ceyjsd)"/>
                        <path fill="#FFF" d="M33.465 51.718L50.704 51.718 50.704 50.704 33.465 50.704z" mask="url(#5fw4ceyjsd)"/>
                        <path fill="#000" d="M33.794 51.482h16.535v-.474H33.794v.474zm-.33.236h17.24v-1.014h-17.24v1.014z" mask="url(#5fw4ceyjsd)"/>
                        <path fill="#8A79F7" d="M25.269 53.746l-.006-1.061c-.763-.03-1.505-.227-1.94-.47l.336-1.31c.48.254 1.153.485 1.893.482.649-.004 1.092-.252 1.09-.7-.003-.424-.369-.69-1.213-.965-1.221-.396-2.056-.95-2.062-2.035-.005-.983.697-1.758 1.914-2l-.006-1.061 1.116-.006.006.983c.763.03 1.276.184 1.653.36l-.323 1.265c-.297-.121-.822-.376-1.642-.371-.74.004-.978.318-.976.63.002.37.402.602 1.372.955 1.357.462 1.908 1.074 1.913 2.08.006.995-.707 1.848-2.016 2.078l.007 1.14-1.116.006z" mask="url(#5fw4ceyjsd)"/>
                        <path fill="#8A79F7" d="M25.399 53.548l.872-.004-.005-1.1.081-.015c1.147-.206 1.856-.948 1.85-1.936-.005-.945-.517-1.508-1.767-1.942-.934-.347-1.378-.588-1.38-1.026-.002-.167.07-.71 1.032-.716.716-.004 1.207.197 1.507.326l.262-1.047c-.415-.185-.899-.286-1.473-.309l-.094-.003-.005-.958-.873.004.006 1.022-.08.016c-1.104.223-1.76.918-1.755 1.86.005.888.576 1.455 1.908 1.897.736.244 1.227.514 1.23 1.038.002.479-.436.778-1.142.782-.752.004-1.385-.242-1.75-.425l-.272 1.087c.433.226 1.108.386 1.748.411l.094.004.006 1.034zm1.07.192l-1.266.006-.006-1.044c-.674-.04-1.375-.22-1.809-.468l-.064-.037.37-1.476.11.06c.32.173.976.464 1.768.46.594-.004.948-.223.946-.586-.002-.351-.309-.59-1.095-.851-.947-.314-2.035-.834-2.042-2.084-.006-1.003.694-1.778 1.833-2.036l-.006-1.057 1.266-.007.005.967c.595.033 1.096.15 1.53.357l.072.035-.357 1.426-.186-.078c-.284-.122-.758-.325-1.455-.321-.534.003-.839.192-.837.518.002.283.317.495 1.25.842 1.325.46 1.893 1.096 1.898 2.126.006 1.05-.75 1.873-1.93 2.116l.005 1.132z" mask="url(#5fw4ceyjsd)"/>
                        <path fill="#1F3040" d="M27.38 20.282c0 1.12-.908 2.028-2.028 2.028s-2.028-.908-2.028-2.028.908-2.028 2.028-2.028 2.028.908 2.028 2.028M27.38 33.465c0 1.12-.908 2.028-2.028 2.028s-2.028-.908-2.028-2.028.908-2.028 2.028-2.028 2.028.908 2.028 2.028" mask="url(#5fw4ceyjsd)"/>
                    </g>
                </g>
            </g>
        </g>
    </g>
</svg>