<svg width="27" height="24" viewBox="0 0 27 24" fill="none" xmlns="http://www.w3.org/2000/svg">
<path fill-rule="evenodd" clip-rule="evenodd" d="M11.5004 0C17.8255 0 22.9996 5.175 22.9996 11.5C22.9996 17.825 17.8255 23 11.5004 23C5.17527 23 0 17.825 0 11.5C0 5.175 5.17527 0 11.5004 0ZM11.5004 2.42127C6.51164 2.42127 2.42073 6.51214 2.42073 11.5C2.42073 16.4879 6.51164 20.5787 11.5004 20.5787C16.488 20.5787 20.5789 16.4879 20.5789 11.5C20.5789 6.51214 16.488 2.42127 11.5004 2.42127ZM14.1229 12.1189C15.348 12.1189 16.3418 13.1121 16.3418 14.3384V15.8177C16.3418 17.043 15.3491 18.0372 14.1229 18.0372H8.87673C7.65164 18.0372 6.65782 17.044 6.65782 15.8177V14.3384C6.65782 13.1121 7.65055 12.1189 8.87673 12.1189H14.1229ZM11.5004 4.23618C13.2196 4.23618 14.6127 5.62873 14.6127 7.34745C14.6127 9.00032 13.3255 10.351 11.6967 10.4525L11.5004 10.4587C9.78 10.4587 8.38691 9.06723 8.38691 7.34745C8.38691 5.69564 9.67418 4.34491 11.3029 4.24245L11.4993 4.23723L11.5004 4.23618Z" fill="#6E43B7"/>
</svg>
