<svg width="21" height="21" viewBox="0 0 21 21" fill="none" xmlns="http://www.w3.org/2000/svg">
<path d="M18.9929 6C19.0024 5.93036 19.0024 5.85964 18.9929 5.79C18.9984 5.73348 18.9984 5.67652 18.9929 5.62L18.908 5.48C18.8692 5.41899 18.8249 5.36206 18.7758 5.31L18.6625 5.24C18.6081 5.19696 18.5475 5.16321 18.4832 5.14H18.2944C18.2249 5.0724 18.1405 5.02428 18.049 5H13.3292C13.0788 5 12.8387 5.10536 12.6617 5.29289C12.4847 5.48043 12.3852 5.73478 12.3852 6C12.3852 6.26522 12.4847 6.51957 12.6617 6.70711C12.8387 6.89464 13.0788 7 13.3292 7H16.0006L12.2247 11.71L8.14684 9.14C7.95369 9.0183 7.72589 8.97359 7.5044 9.01392C7.28292 9.05425 7.08228 9.17696 6.93857 9.36L2.21877 15.36C2.13929 15.461 2.0794 15.5777 2.04255 15.7033C2.00569 15.8289 1.99259 15.961 2.00399 16.092C2.01539 16.2229 2.05106 16.3503 2.10898 16.4666C2.16689 16.5829 2.2459 16.686 2.34149 16.77C2.51132 16.9191 2.72506 17.0005 2.94562 17C3.0843 17.0002 3.22132 16.9681 3.34695 16.9059C3.47257 16.8437 3.58372 16.7529 3.67247 16.64L7.87309 11.3L11.9038 13.86C12.095 13.9801 12.32 14.0249 12.5393 13.9865C12.7587 13.9481 12.9581 13.8289 13.1026 13.65L17.105 8.7V11C17.105 11.2652 17.2045 11.5196 17.3815 11.7071C17.5585 11.8946 17.7986 12 18.049 12C18.2993 12 18.5394 11.8946 18.7165 11.7071C18.8935 11.5196 18.9929 11.2652 18.9929 11V6Z" fill="#7172BB"/>
</svg>
