<svg width="74" height="73" viewBox="0 0 74 73" fill="none" xmlns="http://www.w3.org/2000/svg">
<path d="M37.1948 72.6C57.2427 72.6 73.4947 56.3479 73.4947 36.3C73.4947 16.2521 57.2427 0 37.1948 0C17.1468 0 0.894775 16.2521 0.894775 36.3C0.894775 56.3479 17.1468 72.6 37.1948 72.6Z" fill="#F0ECF8"/>
<path d="M25.149 38.11C27.8928 38.11 30.117 35.8858 30.117 33.142C30.117 30.3983 27.8928 28.174 25.149 28.174C22.4053 28.174 20.181 30.3983 20.181 33.142C20.181 35.8858 22.4053 38.11 25.149 38.11Z" fill="#00BF6F"/>
<path d="M25.149 33.395C24.229 33.395 23.493 32.659 23.493 31.739C23.493 30.819 24.229 30.083 25.149 30.083C26.069 30.083 26.805 30.819 26.805 31.739H26.299C26.299 31.095 25.793 30.589 25.149 30.589C24.505 30.589 23.999 31.095 23.999 31.739C23.999 32.383 24.505 32.889 25.149 32.889V33.395Z" fill="white"/>
<path d="M25.149 36.201C24.229 36.201 23.493 35.465 23.493 34.545H23.999C23.999 35.189 24.505 35.695 25.149 35.695C25.793 35.695 26.299 35.189 26.299 34.545C26.299 33.901 25.793 33.395 25.149 33.395V32.889C26.069 32.889 26.805 33.625 26.805 34.545C26.805 35.465 26.046 36.201 25.149 36.201Z" fill="white"/>
<path d="M25.379 29.508H24.873V36.753H25.379V29.508Z" fill="white"/>
<path d="M9.60101 49.127C9.55501 49.288 9.50901 49.472 9.46301 49.656C9.76201 49.656 10.061 49.633 10.36 49.587L10.291 49.081C10.038 49.104 9.83101 49.127 9.60101 49.127Z" fill="#222222"/>
<path d="M12.223 48.483L12.43 48.943C13.051 48.69 13.672 48.345 14.316 47.954L14.04 47.517C13.419 47.908 12.798 48.23 12.223 48.483Z" fill="#222222"/>
<path d="M20.112 41.928C19.698 42.48 19.261 43.009 18.778 43.515L19.146 43.86C19.629 43.331 20.089 42.779 20.503 42.227L20.112 41.928Z" fill="#222222"/>
<path d="M15.742 46.344L16.064 46.758C16.616 46.321 17.168 45.861 17.674 45.401L17.329 45.033C16.823 45.47 16.271 45.907 15.742 46.344Z" fill="#222222"/>
<path d="M21.745 40.479L21.308 40.203C21.331 40.157 21.377 40.111 21.4 40.065C21.561 39.812 21.699 39.559 21.814 39.329L22.274 39.559C22.159 39.812 22.021 40.042 21.86 40.318C21.791 40.387 21.768 40.433 21.745 40.479Z" fill="#222222"/>
<path d="M55.67 60.88H38.19C35.959 60.88 34.142 59.063 34.142 56.832V17.111C34.142 14.88 35.959 13.063 38.19 13.063H55.67C57.901 13.063 59.718 14.88 59.718 17.111V56.832C59.718 59.086 57.901 60.88 55.67 60.88Z" fill="white"/>
<path d="M56.705 61.156H37.132C35.338 61.156 33.866 59.684 33.866 57.89V16.076C33.866 14.282 35.338 12.81 37.132 12.81H56.705C58.499 12.81 59.971 14.282 59.971 16.076V57.89C59.971 59.684 58.499 61.156 56.705 61.156ZM37.132 13.316C35.614 13.316 34.372 14.558 34.372 16.076V57.89C34.372 59.408 35.614 60.65 37.132 60.65H56.705C58.223 60.65 59.465 59.408 59.465 57.89V16.076C59.465 14.558 58.223 13.316 56.705 13.316H37.132Z" fill="#222222"/>
<path d="M59.649 17.755H34.165V18.261H59.649V17.755Z" fill="#222222"/>
<path d="M52.634 24.977H45.251V25.483H52.634V24.977Z" fill="black"/>
<path d="M56.199 26.472H45.251V26.978H56.199V26.472Z" fill="black"/>
<path d="M52.634 33.004H45.251V33.51H52.634V33.004Z" fill="black"/>
<path d="M56.199 34.522H45.251V35.028H56.199V34.522Z" fill="black"/>
<path d="M40.352 36.661C41.8382 36.661 43.043 35.4562 43.043 33.97C43.043 32.4838 41.8382 31.279 40.352 31.279C38.8658 31.279 37.661 32.4838 37.661 33.97C37.661 35.4562 38.8658 36.661 40.352 36.661Z" fill="#9594D2"/>
<path d="M40.352 36.914C39.593 36.914 38.857 36.615 38.305 36.086L38.65 35.718C39.11 36.155 39.708 36.385 40.329 36.385C41.663 36.385 42.767 35.304 42.767 33.947C42.767 33.142 42.376 32.383 41.686 31.923L41.962 31.509C42.767 32.061 43.25 32.958 43.25 33.947C43.296 35.58 41.985 36.914 40.352 36.914Z" fill="black"/>
<path d="M40.352 28.657C41.8382 28.657 43.043 27.4522 43.043 25.966C43.043 24.4798 41.8382 23.275 40.352 23.275C38.8658 23.275 37.661 24.4798 37.661 25.966C37.661 27.4522 38.8658 28.657 40.352 28.657Z" fill="#9594D2"/>
<path d="M40.352 28.91C39.593 28.91 38.857 28.611 38.305 28.082L38.65 27.714C39.11 28.151 39.708 28.381 40.329 28.381C41.663 28.381 42.767 27.3 42.767 25.943C42.767 25.138 42.376 24.379 41.686 23.919L41.962 23.505C42.767 24.057 43.25 24.954 43.25 25.943C43.296 27.599 41.985 28.91 40.352 28.91Z" fill="black"/>
<path d="M52.634 41.859H45.251V42.365H52.634V41.859Z" fill="black"/>
<path d="M56.199 43.377H45.251V43.883H56.199V43.377Z" fill="black"/>
<path d="M52.634 49.909H45.251V50.415H52.634V49.909Z" fill="black"/>
<path d="M56.199 51.427H45.251V51.933H56.199V51.427Z" fill="black"/>
<path d="M40.352 53.566C41.8382 53.566 43.043 52.3612 43.043 50.875C43.043 49.3888 41.8382 48.184 40.352 48.184C38.8658 48.184 37.661 49.3888 37.661 50.875C37.661 52.3612 38.8658 53.566 40.352 53.566Z" fill="#00BF6F"/>
<path d="M40.352 53.796C39.593 53.796 38.857 53.497 38.305 52.9681L38.65 52.6C39.11 53.037 39.708 53.267 40.329 53.267C41.663 53.267 42.767 52.186 42.767 50.8291C42.767 50.0241 42.376 49.2651 41.686 48.8051L41.962 48.3911C42.767 48.9431 43.25 49.8401 43.25 50.8291C43.296 52.485 41.985 53.796 40.352 53.796Z" fill="black"/>
<path d="M40.352 45.562C41.8382 45.562 43.043 44.3572 43.043 42.871C43.043 41.3848 41.8382 40.18 40.352 40.18C38.8658 40.18 37.661 41.3848 37.661 42.871C37.661 44.3572 38.8658 45.562 40.352 45.562Z" fill="#00BF6F"/>
<path d="M40.352 45.815C39.593 45.815 38.857 45.516 38.305 44.987L38.65 44.619C39.11 45.056 39.708 45.286 40.329 45.286C41.663 45.286 42.767 44.205 42.767 42.848C42.767 42.043 42.376 41.284 41.686 40.824L41.962 40.41C42.767 40.962 43.25 41.859 43.25 42.848C43.296 44.504 41.985 45.815 40.352 45.815Z" fill="black"/>
</svg>