<svg xmlns="http://www.w3.org/2000/svg" width="118" height="38" fill="none" viewBox="0 0 118 38">
    <path fill="#F6921E" fill-rule="evenodd" d="M22.503 22.75c.968.632 2.129 1 3.378 1 3.378 0 6.117-2.692 6.117-6.013 0-3.32-2.739-6.013-6.117-6.013-1.255 0-2.399.358-3.37.996v-1.667l-3.006.686v15.67l2.998-.649v-4.01zM12.17 23.753c3.636 0 5.854-2.207 5.854-4.973V7.451l-3.115.65v9.587c0 1.828-.425 3.233-2.597 3.233-2.431 0-2.69-1.65-2.69-2.988V7.451l-3.117.65v10.256c0 3.902 2.88 5.396 5.665 5.396zm22.965-2.139c-.12.833.161 1.642.79 2.278l.025.024c.447.436.983.82 1.596 1.15v10.4H0V0h37.545v10.723c-.23.187-.447.387-.645.604-.81.882-1.22 1.977-1.22 3.254 0 1.452.641 2.746 1.852 3.74l.008.006.005.004v.784c-.376.093-.787.268-1.206.573-.678.485-1.095 1.151-1.205 1.926zM22.22 17.733c0-1.851 1.463-3.434 3.47-3.434 2.006 0 3.47 1.583 3.47 3.434 0 1.85-1.464 3.433-3.47 3.433-2.007 0-3.47-1.583-3.47-3.433z" clip-rule="evenodd"/>
    <path fill="#485756" fill-rule="evenodd" d="M57.435 3.8c-.343 0-.64.119-.893.356l-2.788 2.617c-.198.203-.297.466-.297.788 0 .34.121.622.365.851.244.229.546.343.907.343.36 0 .65-.11.866-.33l2.76-2.592c.145-.102.24-.224.285-.369.045-.143.068-.292.068-.444 0-.339-.118-.627-.352-.864-.235-.237-.542-.356-.92-.356zM44.2 16.71c1.354.236 2.423.554 3.208.952.785.398 1.344.856 1.678 1.372.334.517.5 1.106.5 1.766 0 .797-.23 1.504-.69 2.122-.46.619-1.119 1.106-1.975 1.461-.858.356-1.908.534-3.154.534-1.19 0-2.318-.178-3.383-.534-1.065-.355-1.904-.83-2.517-1.423-.253-.254-.356-.537-.311-.851.045-.313.212-.572.5-.775.325-.237.65-.339.975-.305.325.034.595.17.812.407.36.372.884.694 1.57.965.685.271 1.452.407 2.3.407 1.137 0 1.99-.178 2.558-.534.568-.355.861-.804.88-1.347 0-.542-.28-1.003-.84-1.384-.559-.382-1.542-.69-2.95-.928-1.822-.322-3.148-.821-3.978-1.5-.83-.677-1.245-1.499-1.245-2.464 0-.864.261-1.58.785-2.147.523-.568 1.204-.992 2.043-1.271.84-.28 1.728-.42 2.666-.42 1.19 0 2.242.183 3.153.547.911.364 1.638.868 2.179 1.512.217.254.316.517.298.788-.018.27-.172.5-.46.686-.253.17-.56.224-.92.165-.362-.06-.668-.199-.92-.42-.452-.44-.948-.749-1.49-.927-.54-.178-1.172-.267-1.894-.267-.866 0-1.58.149-2.138.445-.56.297-.84.708-.84 1.232 0 .322.095.615.285.877.19.263.541.496 1.055.7.515.202 1.268.389 2.26.558zm9.609-5.465c.234-.22.54-.33.92-.33.379 0 .685.11.92.33.234.22.352.509.352.865V23.62c0 .356-.118.644-.352.864-.235.22-.541.33-.92.33-.38 0-.686-.11-.92-.33-.235-.22-.352-.508-.352-.864V12.11c0-.356.117-.644.352-.864zm21.67-.24c.308-.094.623-.073.948.063.289.118.487.313.596.584.108.271.09.534-.054.788l-5.792 11.588c-.254.508-.641.762-1.164.762-.524 0-.92-.254-1.191-.762l-5.846-11.563c-.127-.27-.136-.537-.027-.8.108-.262.324-.461.65-.597.287-.136.576-.157.865-.064.289.094.505.276.65.547l4.868 9.863 4.821-9.863c.145-.271.37-.454.677-.547zm14.928 9.389c-.443.746-1.038 1.334-1.787 1.766-.749.432-1.61.648-2.584.648-.939 0-1.791-.216-2.558-.648-.767-.432-1.372-1.02-1.814-1.766-.442-.745-.663-1.584-.663-2.516 0-.949.221-1.795.663-2.541.442-.745 1.047-1.334 1.814-1.766.767-.432 1.62-.648 2.558-.648.974 0 1.835.216 2.584.648.749.432 1.344 1.02 1.787 1.766.442.746.663 1.592.663 2.541 0 .932-.221 1.77-.663 2.516zm-.555-8.653c-1.12-.618-2.391-.927-3.816-.927-1.408 0-2.676.309-3.803.927-1.128.619-2.021 1.457-2.68 2.516-.659 1.059-.988 2.266-.988 3.621 0 1.338.307 2.541.92 3.608.614 1.068 1.453 1.906 2.518 2.516 1.064.61 2.264.915 3.6.915 1.335 0 2.52-.3 3.559-.902.699-.405 1.297-.91 1.8-1.512v1.143c0 .34.121.623.365.852.244.228.546.343.907.343.379 0 .685-.115.92-.343.234-.229.352-.513.352-.852v-5.768c0-1.338-.33-2.541-.988-3.608-.66-1.068-1.548-1.91-2.666-2.529zm11.178 10.736h.677c.342 0 .613.107.812.318.198.212.297.496.297.851 0 .356-.153.64-.46.852-.307.212-.695.317-1.164.317h-.162c-.776 0-1.462-.199-2.057-.597-.596-.398-1.06-.94-1.394-1.626-.334-.686-.5-1.478-.5-2.376V6.138c0-.356.112-.64.338-.851.225-.212.527-.318.906-.318.38 0 .681.106.907.318.225.212.338.495.338.851v14.078c0 .66.136 1.203.406 1.626.271.424.623.636 1.056.636zm7.538-8.982c.748-.432 1.637-.648 2.666-.648.938 0 1.741.203 2.409.61.667.406 1.181.96 1.542 1.664.259.504.424 1.06.497 1.664h-9.31c.093-.537.255-1.037.491-1.499.387-.762.956-1.36 1.705-1.791zm9.107 4.904c.217-.195.325-.445.325-.75 0-1.338-.271-2.52-.812-3.545-.541-1.024-1.322-1.83-2.341-2.414-1.02-.584-2.224-.876-3.613-.876-1.408 0-2.657.3-3.749.902-1.092.601-1.944 1.432-2.558 2.49-.613 1.059-.92 2.283-.92 3.672 0 1.372.325 2.588.974 3.646.65 1.06 1.552 1.89 2.707 2.49 1.155.602 2.472.903 3.952.903.829 0 1.705-.148 2.625-.445.92-.296 1.678-.673 2.274-1.13.288-.204.423-.445.405-.725-.018-.28-.171-.537-.46-.775-.216-.169-.469-.25-.757-.241-.289.009-.56.098-.812.267-.379.27-.871.508-1.476.711-.604.204-1.204.305-1.799.305-1.047 0-1.972-.216-2.775-.648-.803-.432-1.434-1.025-1.894-1.779-.327-.535-.535-1.124-.63-1.766h10.495c.343 0 .623-.097.839-.292zM48.708 31.253c-.066.06-.153.09-.26.09h-3.14v1.826h2.267c.107 0 .194.03.26.09.067.06.1.138.1.234 0 .091-.033.166-.1.226-.066.06-.153.09-.26.09h-2.267v1.87h3.14c.107 0 .194.03.26.089.067.06.1.136.1.226 0 .096-.033.174-.1.234-.066.06-.153.09-.26.09h-3.5c-.107 0-.195-.032-.264-.097-.068-.065-.103-.147-.103-.248V31.05c0-.1.035-.184.103-.248.07-.065.157-.098.265-.098h3.499c.107 0 .194.03.26.09.067.06.1.138.1.234 0 .091-.033.166-.1.226zm2.29 4.404h-.192c-.122 0-.222-.06-.299-.18-.076-.12-.114-.273-.114-.46v-3.983c0-.1-.032-.18-.096-.24s-.15-.09-.257-.09c-.107 0-.192.03-.256.09s-.096.14-.096.24v3.983c0 .254.047.478.142.672.094.194.226.347.394.46.169.113.363.169.582.169h.046c.133 0 .242-.03.33-.09.086-.06.13-.14.13-.24 0-.101-.029-.181-.085-.242-.056-.06-.133-.09-.23-.09zm6.178-.09c.215-.123.384-.29.51-.5.124-.21.187-.448.187-.712 0-.268-.063-.508-.188-.718-.125-.211-.294-.378-.509-.5-.214-.122-.457-.183-.727-.183-.27 0-.513.06-.727.183-.215.122-.383.289-.506.5-.122.21-.184.45-.184.718 0 .264.062.503.184.716.123.213.291.38.506.5.214.12.456.18.727.18.27 0 .513-.062.727-.184zm-.735-3.21c.409 0 .772.088 1.091.262.32.175.572.413.758.712.187.3.28.641.28 1.024 0 .38-.088.72-.264 1.021-.176.302-.415.54-.716.712-.302.172-.64.259-1.019.259-.316 0-.604-.062-.865-.184-.26-.122-.477-.288-.65-.5v2c0 .1-.034.181-.1.244-.067.062-.153.093-.26.093-.108 0-.194-.031-.26-.093-.067-.063-.1-.144-.1-.245v-3.314c.005-.378.1-.718.287-1.02.186-.303.438-.54.754-.712.316-.173.671-.259 1.064-.259zm6.424 2.72c-.122.21-.29.374-.505.493-.214.12-.46.18-.735.18-.276 0-.52-.06-.735-.18-.215-.12-.383-.284-.505-.492-.123-.209-.184-.45-.184-.723 0-.273.061-.515.184-.726.122-.21.29-.376.505-.496.214-.12.46-.18.735-.18.276 0 .52.06.735.18.214.12.383.285.505.496.123.211.184.453.184.727 0 .273-.061.514-.184.722zm-.153-2.465c-.316-.17-.679-.255-1.087-.255-.409 0-.772.085-1.091.255-.32.17-.57.405-.75.705-.182.3-.272.645-.272 1.038 0 .389.09.732.271 1.032.182.3.432.535.75.705.32.17.683.255 1.092.255.413 0 .778-.085 1.095-.255.316-.17.565-.405.746-.705.181-.3.272-.643.272-1.032 0-.393-.092-.739-.276-1.038-.183-.3-.434-.535-.75-.705zm4.82 2.955c.212-.123.38-.29.505-.504.125-.213.188-.451.188-.715 0-.268-.063-.507-.188-.715-.125-.209-.293-.374-.505-.496-.212-.122-.456-.183-.731-.183-.266 0-.507.06-.724.183-.217.122-.388.288-.513.496-.125.208-.187.447-.187.715 0 .264.062.502.187.715.125.214.296.381.513.504.217.122.458.183.724.183.275 0 .52-.061.73-.183zm.766-4.77c.069-.062.154-.094.256-.094.107 0 .194.032.26.094.067.062.1.144.1.244v3.314c0 .38-.093.72-.28 1.021-.186.302-.439.54-.758.712-.319.172-.677.259-1.075.259-.398 0-.757-.088-1.076-.263-.32-.175-.572-.413-.758-.715-.186-.302-.28-.642-.28-1.02 0-.38.087-.718.26-1.018.174-.3.412-.537.713-.712.301-.174.64-.262 1.018-.262.317 0 .606.061.87.183.262.123.478.29.646.5v-1.998c0-.101.035-.183.104-.245zm3.07 2.318c.212-.122.463-.183.754-.183.266 0 .493.058.682.173.188.115.334.272.436.47.073.143.12.3.14.471h-2.63c.025-.151.07-.293.136-.424.11-.215.27-.384.482-.507zm1.776-.51c-.288-.165-.629-.248-1.022-.248-.398 0-.751.085-1.06.255-.31.17-.55.405-.724.705-.173.3-.26.645-.26 1.038 0 .389.092.732.275 1.032.184.3.44.535.766.705.327.17.7.255 1.118.255.235 0 .482-.042.743-.126.26-.084.474-.19.643-.32.081-.058.12-.126.115-.205-.005-.079-.049-.152-.13-.22-.062-.047-.133-.07-.215-.067-.081.002-.158.027-.23.075-.107.077-.246.144-.417.201-.17.058-.34.087-.509.087-.296 0-.558-.061-.785-.184-.227-.122-.406-.29-.536-.503-.092-.151-.15-.318-.177-.5h2.968c.097 0 .176-.027.238-.082.06-.055.091-.126.091-.212 0-.379-.076-.713-.23-1.003-.153-.29-.373-.518-.662-.683zm3.886-.262c.28 0 .493.042.636.125.142.084.199.188.168.313-.02.067-.053.117-.096.151-.043.034-.095.053-.157.058-.061.004-.127 0-.199-.015-.316-.048-.598-.04-.846.022-.247.062-.443.167-.585.316-.143.149-.215.335-.215.56v2.114c0 .106-.03.187-.088.245-.059.057-.147.086-.264.086-.112 0-.2-.028-.26-.083-.062-.055-.092-.137-.092-.248v-3.27c0-.106.03-.187.092-.245.06-.058.148-.086.26-.086.117 0 .205.027.264.082.059.055.088.138.088.248v.191c.129-.145.282-.267.463-.363.253-.134.53-.201.831-.201zm7.033 2.72c-.126.214-.294.381-.506.504-.212.122-.455.183-.73.183-.266 0-.508-.061-.724-.183-.218-.123-.388-.29-.514-.504-.125-.213-.187-.451-.187-.715 0-.268.062-.507.187-.715.126-.209.296-.374.514-.496.216-.122.458-.183.723-.183.276 0 .52.06.731.183.212.122.38.288.506.496.124.208.187.447.187.715 0 .264-.063.502-.187.715zm.516-4.36c-.102 0-.187.032-.256.094-.07.062-.103.144-.103.244v1.999c-.169-.21-.385-.377-.647-.5-.263-.122-.553-.183-.87-.183-.377 0-.717.088-1.018.262-.301.175-.538.413-.712.712-.174.3-.26.639-.26 1.017 0 .379.093.72.28 1.021.186.302.438.54.757.715.32.175.678.263 1.076.263s.757-.087 1.076-.26c.319-.172.571-.409.758-.71.186-.303.28-.643.28-1.022v-3.313c0-.101-.034-.183-.1-.245-.067-.062-.153-.094-.26-.094zm3.569 2.229c-.291 0-.543.061-.755.183-.212.123-.372.292-.482.507-.067.13-.11.273-.137.424h2.631c-.02-.17-.067-.328-.14-.47-.102-.2-.248-.356-.436-.471-.19-.115-.416-.173-.681-.173zm0-.575c.392 0 .733.083 1.022.248.288.165.509.393.662.683.153.29.23.624.23 1.003 0 .086-.031.157-.092.212-.062.055-.14.083-.238.083h-2.968c.027.181.085.348.177.5.13.212.31.38.536.502.227.123.489.184.785.184.169 0 .338-.03.51-.087.17-.057.31-.124.417-.2.071-.049.148-.074.23-.076.08-.003.153.02.214.068.081.067.125.14.13.22.005.078-.033.146-.115.204-.168.13-.383.236-.643.32-.26.084-.508.126-.743.126-.418 0-.791-.085-1.118-.255-.326-.17-.582-.405-.765-.705-.184-.3-.276-.643-.276-1.032 0-.392.087-.739.26-1.038.174-.3.415-.535.724-.705.309-.17.662-.255 1.06-.255zm7.828.165c-.252-.11-.532-.165-.838-.165-.398 0-.752.085-1.06.255-.31.17-.552.406-.728.708-.176.302-.264.647-.264 1.035 0 .38.09.718.272 1.018.18.3.43.537.746.711.317.175.679.263 1.087.263.552 0 1.011-.16 1.379-.482.066-.057.095-.126.088-.205-.008-.079-.053-.15-.134-.212-.061-.048-.132-.07-.21-.065-.08.005-.158.036-.234.094-.118.096-.25.165-.395.208-.145.043-.31.065-.494.065-.28 0-.527-.061-.738-.183-.212-.123-.378-.288-.498-.496-.12-.209-.18-.447-.18-.716 0-.277.057-.522.172-.733.115-.21.275-.375.479-.492.204-.118.441-.176.712-.176.398 0 .73.136.995.41.067.062.14.1.218.114.08.015.152 0 .219-.043.086-.057.139-.124.157-.201.017-.077-.007-.148-.073-.216-.2-.22-.425-.386-.678-.496zm3.91-.18c.28 0 .492.043.634.126.143.084.2.188.169.313-.021.067-.053.117-.096.151-.043.034-.095.053-.157.058-.061.004-.127 0-.199-.015-.316-.048-.598-.04-.846.022s-.443.167-.586.316c-.143.149-.214.335-.214.56v2.114c0 .106-.03.187-.088.245-.059.057-.147.086-.264.086-.113 0-.2-.028-.26-.083-.062-.055-.092-.137-.092-.248v-3.27c0-.106.03-.187.091-.245.062-.058.148-.086.26-.086.118 0 .206.027.265.082.059.055.088.138.088.248v.191c.129-.145.282-.267.463-.363.253-.134.53-.201.831-.201zm2.422.773c.212-.122.464-.183.755-.183.265 0 .492.058.681.173.189.115.334.272.436.47.074.143.119.3.14.471h-2.63c.026-.151.07-.293.136-.424.11-.215.271-.384.482-.507zm1.777-.51c-.289-.165-.629-.248-1.022-.248-.399 0-.752.085-1.061.255-.309.17-.55.405-.723.705-.174.3-.261.645-.261 1.038 0 .389.092.732.276 1.032.184.3.439.535.765.705.327.17.7.255 1.118.255.235 0 .483-.042.743-.126.26-.084.475-.19.643-.32.082-.058.12-.126.115-.205-.005-.079-.049-.152-.13-.22-.061-.047-.133-.07-.214-.067-.082.002-.159.027-.23.075-.107.077-.246.144-.417.201-.171.058-.341.087-.51.087-.296 0-.557-.061-.784-.184-.228-.122-.406-.29-.536-.503-.093-.151-.151-.318-.177-.5h2.967c.097 0 .177-.027.238-.082.061-.055.092-.126.092-.212 0-.379-.077-.713-.23-1.003-.153-.29-.374-.518-.662-.683zm3.572-.248c.306 0 .585.055.838.165.253.11.479.276.678.496.066.068.09.14.072.216-.018.077-.07.144-.157.201-.066.043-.139.058-.218.043-.079-.014-.152-.052-.218-.115-.265-.273-.597-.41-.995-.41-.271 0-.508.06-.712.177-.205.117-.364.281-.479.492-.115.211-.172.456-.172.733 0 .269.06.507.18.716.12.208.285.373.497.496.212.122.458.183.739.183.184 0 .349-.022.494-.065.146-.043.277-.112.394-.208.077-.058.155-.089.234-.093.079-.005.149.016.211.064.081.062.126.133.133.212.008.08-.021.148-.088.205-.367.321-.826.482-1.378.482-.408 0-.771-.088-1.087-.263-.317-.175-.565-.412-.747-.712-.181-.299-.271-.638-.271-1.017 0-.388.088-.733.264-1.035.176-.302.418-.538.727-.708.309-.17.662-.255 1.061-.255zm3.824.758c.212-.122.463-.183.754-.183.266 0 .493.058.682.173.189.115.334.272.436.47.073.143.119.3.14.471h-2.631c.027-.151.07-.293.137-.424.11-.215.27-.384.482-.507zm1.776-.51c-.288-.165-.629-.248-1.022-.248-.398 0-.751.085-1.06.255-.309.17-.55.405-.724.705-.173.3-.26.645-.26 1.038 0 .389.092.732.276 1.032.183.3.439.535.765.705.327.17.7.255 1.118.255.235 0 .483-.042.743-.126.26-.084.475-.19.643-.32.082-.058.12-.126.115-.205-.005-.079-.049-.152-.13-.22-.061-.047-.133-.07-.215-.067-.081.002-.158.027-.229.075-.108.077-.247.144-.418.201-.171.058-.34.087-.509.087-.296 0-.558-.061-.785-.184-.227-.122-.405-.29-.536-.503-.092-.151-.15-.318-.177-.5h2.968c.097 0 .176-.027.238-.082.061-.055.092-.126.092-.212 0-.379-.077-.713-.23-1.003-.153-.29-.374-.518-.663-.683zm3.886-.262c.281 0 .493.042.636.125.142.084.199.188.168.313-.02.067-.052.117-.096.151-.043.034-.095.053-.156.058-.062.004-.128 0-.2-.015-.316-.048-.598-.04-.846.022-.247.062-.443.167-.585.316-.143.149-.215.335-.215.56v2.114c0 .106-.029.187-.088.245-.059.057-.147.086-.264.086-.112 0-.199-.028-.26-.083-.062-.055-.092-.137-.092-.248v-3.27c0-.106.03-.187.092-.245.061-.058.148-.086.26-.086.117 0 .205.027.264.082.059.055.088.138.088.248v.191c.129-.145.283-.267.463-.363.253-.134.53-.201.831-.201z" clip-rule="evenodd"/>
</svg>
