<svg width="49" height="21" viewBox="0 0 49 21" fill="none" xmlns="http://www.w3.org/2000/svg">
<path d="M22.4312 12.7583C22.4312 12.9344 22.4312 13.0625 22.4312 13.1986C22.4312 14.0471 22.4312 14.9037 22.4312 15.7523C22.4312 16.5769 22.7998 16.9451 23.6332 16.9451C25.8609 16.9531 28.0885 16.9451 30.3162 16.9531C31.1335 16.9531 31.7986 17.4174 32.0871 18.1539C32.3756 18.9064 32.1913 19.731 31.5983 20.2754C31.2377 20.6036 30.813 20.7717 30.3242 20.7717C28.6735 20.7717 27.0148 20.8037 25.364 20.7637C23.9698 20.7317 22.9361 20.0352 22.4072 18.7543C22.0386 17.8657 21.4456 17.2573 20.6122 16.8731C19.2099 16.2246 18.5609 15.1599 18.5929 13.6069C18.633 11.7016 18.5849 9.79628 18.5929 7.899C18.6009 6.61013 19.2019 5.64948 20.3558 5.0811C21.3094 4.60878 22.0306 3.98436 22.4633 2.95967C22.9922 1.71082 24.0339 1.07039 25.4041 1.04638C27.0308 1.02236 28.6575 1.03837 30.2841 1.04638C31.3899 1.05438 32.2233 1.87093 32.2313 2.95166C32.2393 4.03239 31.414 4.86495 30.3001 4.86495C28.1126 4.88096 25.925 4.86495 23.7374 4.86495C22.7758 4.86495 22.4473 5.19317 22.4473 6.16183C22.4473 7.06644 22.4473 7.96304 22.4473 8.92369C22.6396 8.92369 22.7998 8.92369 22.9521 8.92369C24.6028 8.92369 26.2615 8.91568 27.9122 8.92369C29.3225 8.9317 30.2601 10.1565 29.8434 11.4294C29.587 12.2219 28.8818 12.7503 28.0404 12.7583C26.3336 12.7663 24.6268 12.7583 22.92 12.7583C22.7598 12.7583 22.6155 12.7583 22.4312 12.7583Z" fill="#616161"/>
<path d="M0.586964 6.00164C0.586964 4.99296 0.586964 3.98428 0.586964 2.9676C0.594977 1.79881 1.46841 0.902204 2.58224 0.910209C3.70408 0.918215 4.56149 1.80681 4.5695 2.98361C4.57752 4.46461 4.60156 5.9376 4.56149 7.4186C4.52944 8.6034 4.67367 9.74817 4.94612 10.8929C5.36281 12.6701 5.74744 14.4553 6.14008 16.2325C6.26829 16.8249 6.5167 17.0411 7.13371 17.0571C7.87894 17.0731 8.63217 17.0731 9.3774 17.0571C9.99441 17.0491 10.2508 16.8249 10.379 16.2406C10.8839 13.943 11.3967 11.6374 11.9015 9.3399C11.9416 9.16378 11.9576 8.97165 11.9576 8.78752C11.9656 6.85822 11.9576 4.92092 11.9576 2.99161C11.9576 1.82283 12.807 0.918215 13.9289 0.918215C15.0347 0.910209 15.9081 1.7828 15.9161 2.93558C15.9322 4.97695 15.9241 7.01032 15.9161 9.0517C15.9161 9.3479 15.844 9.66011 15.7479 9.94831C15.1629 11.6615 14.5459 13.3666 13.9529 15.0718C13.6484 15.9444 13.1436 16.6008 12.2461 16.953C11.4849 17.2492 10.9961 17.8416 10.7797 18.6422C10.7396 18.7863 10.6996 18.9224 10.6515 19.0585C10.2428 20.1792 9.28124 20.9077 8.23152 20.8997C7.20583 20.8917 6.26028 20.1632 5.85161 19.0585C5.80353 18.9224 5.76346 18.7783 5.7234 18.6422C5.49903 17.8176 4.98619 17.2252 4.19288 16.913C3.39958 16.6008 2.90277 16.0324 2.63032 15.2559C1.98125 13.4547 1.34821 11.6455 0.723188 9.82823C0.635043 9.57205 0.594977 9.28386 0.594977 9.00367C0.578951 8.00299 0.586964 7.00232 0.586964 6.00164Z" fill="#616161"/>
<path d="M38.7139 8.92362C39.0024 8.92362 39.2267 8.92362 39.4511 8.92362C41.0377 8.92362 42.6243 8.91562 44.2109 8.92362C45.2607 8.93163 46.054 9.61209 46.1822 10.5968C46.3104 11.5494 45.7334 12.43 44.7799 12.6942C44.5875 12.7422 44.3872 12.7582 44.1869 12.7582C42.5202 12.7662 40.8534 12.7582 39.1867 12.7582C39.0424 12.7582 38.8982 12.7582 38.7059 12.7582C38.7059 12.9423 38.7059 13.0864 38.7059 13.2305C38.7059 15.1358 38.7139 17.0411 38.6979 18.9464C38.6899 19.7629 38.3213 20.3874 37.568 20.7236C36.8629 21.0438 36.1817 20.9477 35.5727 20.4674C35.0839 20.0751 34.8676 19.5548 34.8676 18.9304C34.8676 16.3206 34.8676 13.7109 34.8676 11.1011C34.8676 10.0524 34.8516 8.99567 34.8516 7.94696C34.8516 6.61807 35.4606 5.64942 36.6465 5.06502C37.5921 4.60071 38.2972 3.97629 38.7219 2.96761C39.2588 1.70275 40.3085 1.06232 41.6948 1.04631C43.3375 1.0303 44.9722 1.0303 46.6149 1.04631C47.5204 1.05432 48.2896 1.70275 48.4659 2.58335C48.6422 3.46394 48.1855 4.36855 47.3521 4.70478C47.0636 4.82486 46.7351 4.86489 46.4146 4.86489C44.267 4.8809 42.1195 4.87289 39.972 4.87289C39.0585 4.87289 38.7059 5.21712 38.7059 6.12173C38.7139 7.02634 38.7139 7.93896 38.7139 8.92362Z" fill="#616161"/>
</svg>
