<svg xmlns="http://www.w3.org/2000/svg" width="136" height="59" viewBox="0 0 136 59">
    <g fill="none" fill-rule="evenodd">
        <path fill="#231F20" d="M98.73 16.117l7.581 21.657 7.403-21.657h8.686l-11.194 29.356-1.999 5.312c-.737 1.78-1.438 3.141-2.104 4.08-.667.938-1.433 1.699-2.298 2.284-.866.582-1.932 1.037-3.197 1.364-1.262.325-2.689.487-4.28.487-1.613 0-3.196-.162-4.746-.487l-.746-6.32c1.312.247 2.496.373 3.55.373 1.95 0 3.394-.55 4.328-1.653.936-1.1 1.652-2.503 2.15-4.206l-12.059-30.59h8.926zm-27.91-.69c4.796 0 8.727 1.499 11.79 4.495 3.065 2.998 4.596 6.784 4.596 11.36 0 4.615-1.547 8.44-4.64 11.476-3.095 3.034-6.99 4.553-11.685 4.553-2.908 0-5.677-.632-8.314-1.897-2.638-1.263-4.642-3.117-6.015-5.558-1.375-2.44-2.06-5.415-2.06-8.92 0-2.68.685-5.273 2.06-7.782 1.373-2.508 3.317-4.423 5.836-5.745 2.516-1.32 5.328-1.982 8.433-1.982zM25.36 4.513l11.072 31.164L47.15 4.513h9.373L40.85 46.621h-9.43L15.776 4.513h9.583zm-15.161 10.64V46.48H0V15.153h10.199zm60.65 6.852c-2.188 0-4.03.805-5.521 2.413-1.493 1.607-2.239 3.925-2.239 6.95 0 3.026.746 5.342 2.239 6.95 1.491 1.61 3.333 2.416 5.521 2.416 2.188 0 4.026-.805 5.507-2.416 1.483-1.608 2.225-3.943 2.225-7.008 0-2.986-.742-5.285-2.225-6.892-1.481-1.608-3.32-2.413-5.507-2.413zM5.1 0c2.708 0 4.905 2.112 4.905 4.718 0 2.605-2.197 4.718-4.905 4.718-2.707 0-4.902-2.113-4.902-4.718C.197 2.112 2.392 0 5.099 0z"/>
        <path fill="#91268F" d="M125.405 37.83c1.579.123 2.867 1.487 2.917 3.042.053 1.556-1.15 2.78-2.723 2.737l-.018-.001-.02.41 2.923 2.619 1.055.108 1.015-.98.581.51-.07-2.175c-.002-.048.033-.086.081-.084l4.543.142c.042.002.078.04.08.09l.003.114h.018l-.017.038.227 7.148c.002.045-.033.084-.074.086l-4.525.181c-.047.003-.087-.035-.089-.084l-.09-2.784-1.655.072-3.133-.9-1.045-.731-.014.276-.82 2.736-.315.494 3.549 1.799 1.791 1.782 2.006-.834.659.811-2.359 2.125-3.076-1.823-4.382-1.25-4.126 3.983-4.097-1.924-2.767.81-1.127-.708 4.241-2.454 3.135 1.847s2.57-4.712 2.977-6.356c.405-1.644.061-3.033.061-3.033l-3.812 1.225-.493 2.188-.872.117-.3-.945-1.452.83s-.89-.254-1.127-2.33c.068.717 9.115-4.584 9.115-4.584l1.452.242c-.417-.515-.68-1.159-.704-1.851-.054-1.64 1.249-2.86 2.873-2.731z"/>
    </g>
</svg>
