<svg width="143" height="41" viewBox="0 0 143 41" fill="none" xmlns="http://www.w3.org/2000/svg">
<path d="M19.7476 18.82C22.5565 18.82 24.7696 18.7915 27.6069 18.6776C28.0893 18.7346 28.0609 19.9304 27.7488 20.1013L27.0962 20.2151C26.0748 20.4144 25.4506 20.6138 25.4506 20.8415C25.4506 21.1832 25.5357 21.411 25.7911 22.0943C26.6139 24.0304 27.8339 26.6499 28.827 28.6144C29.9052 26.2797 30.5861 24.2867 31.2954 22.4075C31.5792 21.6957 31.6927 21.1263 31.6927 20.8415C31.6927 20.6422 31.3238 20.4429 30.5861 20.2721L29.8484 20.1013C29.5647 19.8165 29.5647 18.8485 30.0186 18.6776C31.494 18.7631 32.5438 18.7915 33.6504 18.7915C34.9272 18.7915 36.0905 18.7346 37.0552 18.6492C37.4524 18.82 37.5375 19.7026 37.197 20.0728L36.5728 20.1867C35.1258 20.4714 34.8137 20.87 34.1044 22.379C32.0615 26.5075 30.047 30.9776 28.1744 35.2485C27.8907 35.5047 27.5786 35.5332 27.153 35.5332C26.699 35.5332 26.4153 35.4763 26.1315 35.2485C25.1952 33.0561 22.8686 28.3297 21.5351 25.7388C20.4002 27.8457 17.7331 33.2269 16.7117 35.2485C16.4563 35.5047 16.1442 35.5332 15.6903 35.5332C15.2363 35.5332 14.9242 35.4763 14.6688 35.2485C12.5409 30.6929 10.3561 26.0235 8.17142 21.8096C7.54722 20.6422 7.09325 20.4714 6.35555 20.2721L5.56111 20.0728C5.249 19.7311 5.249 18.8769 5.70297 18.6492C7.51884 18.7346 8.93749 18.7631 10.8101 18.7631L19.7476 18.82ZM18.5559 20.4999C17.9317 20.386 17.2224 20.329 16.428 20.329C15.0093 20.329 14.1581 20.4999 14.1581 20.9554C14.1581 21.2117 14.3 21.6957 14.5554 22.2936C15.1796 23.7172 16.9387 27.3617 17.7048 28.6429C18.329 27.561 19.8327 24.6283 20.0313 23.8311C20.1732 23.2901 20.1732 22.9485 20.1732 22.6068C20.2016 21.9519 19.4355 20.6422 18.5559 20.4999Z" fill="#2B2B33"/>
<path d="M41.3962 25.3972C40.3748 25.3972 40.2897 25.4826 40.2897 26.1374C40.2897 29.184 42.4176 32.1166 46.5601 32.1166C47.8085 32.1166 49.4825 31.8888 50.6742 30.0097C51.1565 29.9243 51.8375 30.2659 51.8375 30.9493C50.0216 34.3944 46.7303 35.5618 44.0916 35.5618C38.1049 35.5618 34.8704 31.718 34.842 27.3048C34.842 22.2083 38.871 18.2222 44.4037 18.2222C49.0285 18.2222 51.497 20.927 51.497 24.059C51.497 24.8277 51.2984 25.3972 49.9081 25.3972H41.3962ZM44.347 23.6319C44.9712 23.6319 45.6805 23.5465 46.1629 23.2618C46.3899 23.1479 46.475 22.7493 46.475 22.3222C46.475 20.984 45.6238 20.1013 44.12 20.1013C42.2758 20.1013 40.6585 21.7243 40.6585 23.0055C40.6585 23.5749 41.2827 23.6319 42.7014 23.6034H44.347V23.6319Z" fill="#2B2B33"/>
<path d="M66.024 18.7634C68.8045 18.7634 71.046 18.7064 73.8833 18.621C74.3656 18.6779 74.3373 19.8738 73.9968 20.0446L73.3442 20.1585C72.3228 20.3578 71.6986 20.5571 71.6986 20.7564C71.6986 21.0696 71.7837 21.3259 72.0674 22.0092C72.8619 23.9738 74.1103 26.5932 75.1033 28.5293C76.1531 26.1661 76.8625 24.2016 77.5718 22.3224C77.8271 21.5821 77.969 21.0411 77.969 20.7564C77.969 20.5571 77.6002 20.3578 76.8625 20.187L76.1248 20.0161C75.841 19.7314 75.841 18.7634 76.295 18.5925C77.7704 18.6779 78.8202 18.7064 79.9268 18.7064C81.2035 18.7064 82.3668 18.6779 83.3315 18.5925C83.7287 18.7634 83.8139 19.646 83.4734 20.0161L82.8492 20.1585C81.3738 20.4432 81.09 20.8418 80.3807 22.3509C78.3379 26.4793 76.295 30.9495 74.4508 35.2203C74.1954 35.4766 73.8833 35.505 73.4293 35.505C73.0037 35.505 72.6633 35.4766 72.4079 35.2203C71.4716 33.0279 69.145 28.3016 67.8399 25.7106C66.6766 27.8175 64.0379 33.1988 63.0164 35.2203C62.7611 35.4766 62.449 35.505 61.995 35.505C61.541 35.505 61.2289 35.4481 60.9736 35.2203C58.8456 30.6648 56.6325 25.9953 54.4762 21.7814C53.852 20.6141 53.398 20.4432 52.6603 20.2439L51.8659 20.0446C51.5538 19.7314 51.5538 18.8203 52.0077 18.621C53.8236 18.7064 55.2422 18.7349 57.1149 18.7349L66.024 18.7634ZM64.8323 20.4432C64.2081 20.3293 63.4988 20.2724 62.7043 20.3009C61.2857 20.3009 60.4345 20.4717 60.4345 20.8988C60.4345 21.155 60.5764 21.6391 60.8601 22.237C61.4843 23.6606 63.2434 27.305 64.0095 28.5863C64.6337 27.5043 66.1375 24.5717 66.3361 23.7745C66.4779 23.2335 66.4779 22.8918 66.4779 22.5502C66.4779 21.8953 65.7119 20.5856 64.8323 20.4432Z" fill="#2B2B33"/>
<path d="M81.2319 27.1625C81.1752 21.3826 86.1972 18.1653 91.4178 18.1653C96.6385 18.1653 101.377 21.0694 101.377 26.7639C101.377 32.6861 96.6385 35.4764 91.1908 35.4764C85.8851 35.5049 81.2603 32.7715 81.2319 27.1625ZM87.6158 26.2799C87.6158 30.5222 89.0912 33.6542 91.6732 33.6542C94.1984 33.6542 95.0496 31.0347 94.9928 27.3903C94.9361 23.4611 93.716 20.0729 91.1908 20.0729C89.2047 20.0444 87.6158 21.8667 87.6158 26.2799Z" fill="#2B2B33"/>
<path d="M102.427 24.2015C102.427 22.5786 102.427 22.0946 101.575 21.6105L100.951 21.2404C100.639 20.9841 100.639 20.2723 100.951 20.0161C102.994 19.4751 106.058 18.3932 107.42 17.5959C107.761 17.5959 108.044 17.7098 108.215 17.9661C108.13 18.7918 108.044 19.3328 108.044 19.7029C108.044 19.9876 108.13 20.1015 108.498 20.1869C109.69 19.5036 110.967 18.1654 112.839 18.1654C114.031 18.1654 115.28 19.0196 115.28 20.5571C115.28 22.4362 113.861 23.205 112.442 23.205C111.818 23.205 111.279 22.9772 110.712 22.4647C109.69 21.6959 109.293 21.6675 109.038 21.6675C108.413 21.6675 108.186 22.5501 108.186 24.0876V30.323C108.186 33.1418 108.385 33.4834 109.832 33.5973L111.251 33.7112C111.591 33.9675 111.619 34.8786 111.222 35.1348C109.094 35.0494 107.307 35.021 105.236 35.021C103.42 35.021 101.462 35.0779 99.9865 35.1633C99.5893 34.9355 99.5893 33.996 99.9298 33.7397L100.781 33.6543C102.256 33.5404 102.427 33.1703 102.427 30.323V24.2015Z" fill="#2B2B33"/>
<path d="M116.017 12.3854C116.017 10.7625 116.017 10.3354 115.109 9.85138L114.343 9.45277C114.031 9.22499 114.031 8.48471 114.343 8.22846C116.159 7.82985 118.855 6.83332 121.124 5.95068C121.38 5.95068 121.72 6.00763 121.89 6.23541C121.805 7.88679 121.777 9.59513 121.777 12.1576V24.8562C121.777 25.3118 121.919 25.4257 122.401 25.4257C123.139 25.4257 124.075 25.2264 124.983 24.2868L126.827 22.2937C127.679 21.3542 127.906 20.9271 127.906 20.6708C127.906 20.4715 127.452 20.3007 127.054 20.2722L125.948 20.1014C125.551 19.7312 125.579 18.8486 126.033 18.6778H127.083C129.182 18.6778 132.842 18.4785 135.481 18.1083C135.935 18.3076 135.963 19.1903 135.68 19.5319L134.261 19.8167C133.41 19.9875 132.474 20.3861 131.282 21.2403C129.608 22.4076 128.927 23.0055 128.303 23.6035C128.076 23.8312 128.047 24.0021 128.047 24.1444C128.047 24.2583 128.133 24.5146 128.36 24.8278C129.154 26.109 133.069 31.6326 134.176 32.5437C134.8 33.0562 135.623 33.2555 136.786 33.4549L137.439 33.5687C137.779 33.8535 137.694 34.8215 137.269 34.9924C135.907 34.9069 134.261 34.8785 131.679 34.8785C129.04 34.8785 127.452 34.9354 126.203 35.0208C125.749 34.8215 125.664 33.9674 126.033 33.5972L126.629 33.4549C127.054 33.3694 127.338 33.284 127.338 33.1417C127.338 32.9708 126.941 32.316 126.572 31.8319L123.423 27.4757C123.11 27.0201 122.77 26.8778 122.316 26.8778C122.004 26.8778 121.777 27.0771 121.777 27.8458V30.1805C121.777 33.0278 121.947 33.341 123.508 33.4833L124.217 33.5687C124.586 33.7965 124.586 34.7361 124.16 34.9924C122.742 34.9069 120.869 34.8785 118.826 34.8785C116.783 34.8785 114.967 34.9354 113.407 35.0208C113.01 34.793 113.01 33.8535 113.35 33.5972L114.201 33.5118C115.79 33.341 115.989 33.0278 115.989 30.1805L116.017 12.3854Z" fill="#2B2B33"/>
</svg>
