<svg width="73" height="73" viewBox="0 0 73 73" fill="none" xmlns="http://www.w3.org/2000/svg">
<path d="M36.5 73C56.6584 73 73 56.6584 73 36.5C73 16.3416 56.6584 0 36.5 0C16.3416 0 0 16.3416 0 36.5C0 56.6584 16.3416 73 36.5 73Z" fill="#F0ECF8"/>
<path d="M53.1224 34.6915V36.0754H52.1159V34.7072C50.3861 34.5971 49.128 33.7322 48.5933 32.3169L50.1344 31.4362C50.4804 32.3012 51.1094 32.8516 52.1159 32.9616V29.7378C50.6062 29.1717 49.0808 28.5112 49.0808 26.5297C49.0808 24.6898 50.4961 23.6361 52.1159 23.4789V22.1107H53.1224V23.4946C54.3805 23.6676 55.4498 24.3438 56.016 25.6176L54.5063 26.4825C54.2232 25.7906 53.7671 25.3974 53.1224 25.2559V28.3382C54.6006 28.9043 56.1889 29.4862 56.1889 31.5463C56.1889 33.3391 54.8994 34.4713 53.1224 34.6915ZM52.1159 27.9136V25.2087C51.3611 25.3345 50.8736 25.8063 50.8736 26.4983C50.8736 27.1588 51.2353 27.5205 52.1159 27.9136ZM54.3962 31.562C54.3962 30.8386 53.9087 30.4769 53.1224 30.1152V32.9459C53.9716 32.7729 54.3962 32.2225 54.3962 31.562Z" fill="#773DBD"/>
<path d="M38.6387 37.6165H5.34684C4.38756 37.6165 3.60126 36.8302 3.60126 35.8709V14.4521C3.60126 13.4928 4.38756 12.7065 5.34684 12.7065H38.6387C39.598 12.7065 40.3843 13.4928 40.3843 14.4521V35.8709C40.3686 36.8459 39.598 37.6165 38.6387 37.6165Z" fill="#9594D2"/>
<path d="M69.2258 66.0176H36.8931C35.6665 66.0176 34.6758 65.0268 34.6758 63.8002V43.325C34.6758 42.0983 35.6665 41.1076 36.8931 41.1076H69.2258C70.4524 41.1076 71.4431 42.0983 71.4431 43.325V63.8002C71.4431 65.0268 70.4524 66.0176 69.2258 66.0176Z" fill="white"/>
<path d="M69.2258 66.175H36.8931C35.5879 66.175 34.5185 65.1056 34.5185 63.8003V43.3251C34.5185 42.0199 35.5879 40.9505 36.8931 40.9505H69.2258C70.531 40.9505 71.6004 42.0199 71.6004 43.3251V63.8003C71.6004 65.1056 70.531 66.175 69.2258 66.175ZM36.8931 41.265C35.7609 41.265 34.833 42.1928 34.833 43.3251V63.8003C34.833 64.9326 35.7609 65.8605 36.8931 65.8605H69.2258C70.358 65.8605 71.2859 64.9326 71.2859 63.8003V43.3251C71.2859 42.1928 70.358 41.265 69.2258 41.265H36.8931Z" fill="black"/>
<path d="M65.5616 47.3981H40.3686V48.0743H65.5616V47.3981Z" fill="#773DBD"/>
<path d="M65.5616 51.5026H40.3686V52.1788H65.5616V51.5026Z" fill="#773DBD"/>
<path d="M65.5616 55.6071H40.3686V56.2833H65.5616V55.6071Z" fill="#773DBD"/>
<path d="M65.5616 59.7115H40.3686V60.3878H65.5616V59.7115Z" fill="#773DBD"/>
<path d="M34.6601 18.4938H9.46704V19.17H34.6601V18.4938Z" fill="white"/>
<path d="M34.7387 19.2486H9.3884V18.4151H34.7387V19.2486ZM9.54566 19.0913H34.5814V18.5724H9.54566V19.0913Z" fill="white"/>
<path d="M34.6601 22.5983H9.46704V23.2745H34.6601V22.5983Z" fill="white"/>
<path d="M34.7387 23.3689H9.3884V22.5197H34.7387V23.3689ZM9.54566 23.2117H34.5814V22.677H9.54566V23.2117Z" fill="white"/>
<path d="M34.6601 26.7184H9.46704V27.3947H34.6601V26.7184Z" fill="white"/>
<path d="M34.7387 27.4734H9.3884V26.6399H34.7387V27.4734ZM9.54566 27.3161H34.5814V26.7972H9.54566V27.3161Z" fill="white"/>
<path d="M34.6601 30.8229H9.46704V31.4992H34.6601V30.8229Z" fill="white"/>
<path d="M34.7387 31.5779H9.3884V30.7444H34.7387V31.5779ZM9.54566 31.4207H34.5814V30.9017H9.54566V31.4207Z" fill="white"/>
</svg>
