<svg width="72" height="72" viewBox="0 0 72 72" fill="none" xmlns="http://www.w3.org/2000/svg">
<path d="M35.9424 69.408C54.4011 69.408 69.3648 54.4443 69.3648 35.9856C69.3648 17.5269 54.4011 2.56323 35.9424 2.56323C17.4837 2.56323 2.52 17.5269 2.52 35.9856C2.52 54.4443 17.4837 69.408 35.9424 69.408Z" fill="#F0ECF8"/>
<path d="M48.4992 47.232H20.232C17.2512 47.232 14.8464 44.8272 14.8464 41.8464V26.7264C14.8464 23.7456 17.2512 21.3408 20.232 21.3408H48.5136C51.4944 21.3408 53.8992 23.7456 53.8992 26.7264V41.8464C53.8848 44.8128 51.48 47.232 48.4992 47.232Z" fill="white"/>
<path d="M48.4992 47.376H20.232C17.1792 47.376 14.7024 44.8992 14.7024 41.8464V26.7264C14.7024 23.6736 17.1792 21.1968 20.232 21.1968H48.5136C51.5664 21.1968 54.0432 23.6736 54.0432 26.7264V41.8464C54.0288 44.8992 51.552 47.376 48.4992 47.376ZM20.232 21.4848C17.3376 21.4848 14.9904 23.832 14.9904 26.7264V41.8464C14.9904 44.7408 17.3376 47.088 20.232 47.088H48.5136C51.408 47.088 53.7552 44.7408 53.7552 41.8464V26.7264C53.7552 23.832 51.408 21.4848 48.5136 21.4848H20.232Z" fill="black"/>
<path d="M50.4 48.9312H22.1184C19.1376 48.9312 16.7328 46.5264 16.7328 43.5456V28.4256C16.7328 25.4448 19.1376 23.04 22.1184 23.04H50.4C53.3808 23.04 55.7856 25.4448 55.7856 28.4256V43.5456C55.7856 46.5264 53.3664 48.9312 50.4 48.9312Z" fill="white"/>
<path d="M50.4 49.0753H22.1184C19.0656 49.0753 16.5888 46.5985 16.5888 43.5457V28.4257C16.5888 25.3729 19.0656 22.8961 22.1184 22.8961H50.4C53.4528 22.8961 55.9296 25.3729 55.9296 28.4257V43.5457C55.9296 46.5985 53.4528 49.0753 50.4 49.0753ZM22.1184 23.1841C19.224 23.1841 16.8768 25.5313 16.8768 28.4257V43.5457C16.8768 46.4401 19.224 48.7873 22.1184 48.7873H50.4C53.2944 48.7873 55.6416 46.4401 55.6416 43.5457V28.4257C55.6416 25.5313 53.2944 23.1841 50.4 23.1841H22.1184Z" fill="black"/>
<path d="M52.2864 50.6304H24.0192C21.0384 50.6304 18.6336 48.2256 18.6336 45.2448V30.1248C18.6336 27.144 21.0384 24.7392 24.0192 24.7392H52.3008C55.2816 24.7392 57.6864 27.144 57.6864 30.1248V45.2448C57.672 48.2256 55.2672 50.6304 52.2864 50.6304Z" fill="white"/>
<path d="M52.2864 50.7744H24.0192C20.9664 50.7744 18.4896 48.2976 18.4896 45.2448V30.1248C18.4896 27.072 20.9664 24.5952 24.0192 24.5952H52.3008C55.3536 24.5952 57.8304 27.072 57.8304 30.1248V45.2448C57.816 48.2976 55.3392 50.7744 52.2864 50.7744ZM24.0192 24.8832C21.1248 24.8832 18.7776 27.2304 18.7776 30.1248V45.2448C18.7776 48.1392 21.1248 50.4864 24.0192 50.4864H52.3008C55.1952 50.4864 57.5424 48.1392 57.5424 45.2448V30.1248C57.5424 27.2304 55.1952 24.8832 52.3008 24.8832H24.0192Z" fill="black"/>
<path d="M35.0064 30.6H25.2432V44.6256H35.0064V30.6Z" fill="#F0ECF8"/>
<path d="M36.1296 42.8113C36.1296 42.2785 36.288 41.7889 36.5328 41.5153C36.288 41.2273 36.1296 40.7521 36.1296 40.2193C36.1296 39.6865 36.288 39.1969 36.5328 38.9233C36.288 38.6353 36.1296 38.1601 36.1296 37.6273C36.1296 37.0945 36.288 36.6049 36.5328 36.3313C36.288 36.0433 36.1296 35.5681 36.1296 35.0353C36.1296 34.5025 36.288 34.0129 36.5328 33.7393C36.288 33.4513 36.1296 32.9761 36.1296 32.4433C36.1296 31.7377 36.4032 31.1473 36.7776 30.9457V29.0449H35.712C35.5392 29.4193 35.0496 29.6785 34.4592 29.6785C34.0128 29.6785 33.6096 29.5201 33.3792 29.2753C33.1488 29.5201 32.7456 29.6785 32.2992 29.6785C31.8528 29.6785 31.4496 29.5201 31.2192 29.2753C30.9888 29.5201 30.5856 29.6785 30.1392 29.6785C29.6928 29.6785 29.2896 29.5201 29.0592 29.2753C28.8288 29.5201 28.4256 29.6785 27.9792 29.6785C27.5328 29.6785 27.1296 29.5201 26.8992 29.2753C26.6688 29.5201 26.2656 29.6785 25.8192 29.6785C25.2432 29.6785 24.7392 29.4049 24.5664 29.0449H23.472V30.9457C23.8464 31.1473 24.12 31.7377 24.12 32.4433C24.12 32.9761 23.9616 33.4657 23.7168 33.7393C23.9616 34.0273 24.12 34.5025 24.12 35.0353C24.12 35.5681 23.9616 36.0577 23.7168 36.3313C23.9616 36.6193 24.12 37.0945 24.12 37.6273C24.12 38.1601 23.9616 38.6497 23.7168 38.9233C23.9616 39.2113 24.12 39.6865 24.12 40.2193C24.12 40.7521 23.9616 41.2417 23.7168 41.5153C23.9616 41.8033 24.12 42.2785 24.12 42.8113C24.12 43.5169 23.8464 44.1073 23.472 44.3089V46.2097H24.5376C24.7104 45.8353 25.2 45.5761 25.7904 45.5761C26.2368 45.5761 26.64 45.7345 26.8704 45.9793C27.1008 45.7345 27.504 45.5761 27.9504 45.5761C28.3968 45.5761 28.8 45.7345 29.0304 45.9793C29.2608 45.7345 29.664 45.5761 30.1104 45.5761C30.5568 45.5761 30.96 45.7345 31.1904 45.9793C31.4208 45.7345 31.824 45.5761 32.2704 45.5761C32.7168 45.5761 33.12 45.7345 33.3504 45.9793C33.5808 45.7345 33.984 45.5761 34.4304 45.5761C35.0064 45.5761 35.5104 45.8497 35.6832 46.2097H36.7488V44.3089C36.4032 44.1073 36.1296 43.5169 36.1296 42.8113ZM35.0064 44.6401H25.2432V30.6145H35.0064V44.6401Z" fill="#9594D2"/>
<path d="M36.936 46.3536H35.6256L35.5824 46.2672C35.424 45.936 34.9776 45.7056 34.4736 45.7056C34.0704 45.7056 33.7104 45.8352 33.4944 46.0656L33.3936 46.1808L33.2928 46.0656C33.0768 45.8352 32.7024 45.7056 32.3136 45.7056C31.9248 45.7056 31.5504 45.8352 31.3344 46.0656L31.2336 46.1808L31.104 46.08C30.888 45.8496 30.5136 45.72 30.1248 45.72C29.736 45.72 29.3616 45.8496 29.1456 46.08L29.0448 46.1952L28.944 46.08C28.728 45.8496 28.3536 45.72 27.9648 45.72C27.576 45.72 27.2016 45.8496 26.9856 46.08L26.8848 46.1952L26.784 46.08C26.568 45.8496 26.1936 45.72 25.8048 45.72C25.3008 45.72 24.84 45.9504 24.696 46.2816L24.6528 46.368H23.328V44.3232H23.616V46.08H24.4512C24.6816 45.6912 25.2 45.4464 25.7904 45.4464C26.208 45.4464 26.5968 45.576 26.8704 45.8064C27.144 45.576 27.5328 45.4464 27.9504 45.4464C28.368 45.4464 28.7568 45.576 29.0304 45.8064C29.304 45.576 29.6928 45.4464 30.1104 45.4464C30.528 45.4464 30.9168 45.576 31.1904 45.8064C31.464 45.576 31.8528 45.4464 32.2704 45.4464C32.688 45.4464 33.0768 45.576 33.3504 45.8064C33.624 45.576 34.0128 45.4464 34.4304 45.4464C35.0064 45.4464 35.5392 45.7056 35.7696 46.08H36.6048V44.3952C36.216 44.136 35.9568 43.5168 35.9568 42.8112C35.9568 42.3072 36.0864 41.832 36.3312 41.5152C36.1008 41.1984 35.9568 40.7232 35.9568 40.2192C35.9568 39.7152 36.0864 39.24 36.3312 38.9232C36.1008 38.6064 35.9568 38.1312 35.9568 37.6272C35.9568 37.1232 36.0864 36.648 36.3312 36.3312C36.1008 36.0144 35.9568 35.5392 35.9568 35.0352C35.9568 34.5312 36.0864 34.056 36.3312 33.7392C36.1008 33.4224 35.9568 32.9472 35.9568 32.4432C35.9568 31.7376 36.216 31.1184 36.6048 30.8592V29.1744H35.712V28.8864H36.9216V31.0176L36.8496 31.0608C36.504 31.2336 36.2736 31.8096 36.2736 32.4288C36.2736 32.9184 36.4176 33.3648 36.648 33.6384L36.7344 33.7392L36.648 33.84C36.4176 34.1136 36.2736 34.56 36.2736 35.0496C36.2736 35.5392 36.4176 35.9856 36.648 36.2592L36.7344 36.36L36.648 36.4608C36.4176 36.7344 36.2736 37.1808 36.2736 37.6704C36.2736 38.16 36.4176 38.6064 36.648 38.88L36.7344 38.9808L36.648 39.0816C36.4176 39.3552 36.2736 39.8016 36.2736 40.2912C36.2736 40.7808 36.4176 41.2272 36.648 41.5008L36.7344 41.6016L36.648 41.7024C36.4176 41.976 36.2736 42.4224 36.2736 42.912C36.2736 43.5456 36.504 44.1072 36.8496 44.28L36.9216 44.3232V46.3536H36.936Z" fill="black"/>
<path d="M25.3872 44.64H25.0992V30.456H35.0064V30.744H25.3872V44.64Z" fill="black"/>
<path d="M52.7328 33.1344H38.8512V33.5952H52.7328V33.1344Z" fill="#9594D2"/>
<path d="M52.7328 35.8992H38.8512V36.36H52.7328V35.8992Z" fill="#9594D2"/>
<path d="M52.7328 38.8224H38.8512V39.2832H52.7328V38.8224Z" fill="#9594D2"/>
<path d="M52.7328 41.5872H38.8512V42.048H52.7328V41.5872Z" fill="#9594D2"/>
</svg>
