<?xml version="1.0" encoding="utf-8"?>
<!-- Generator: Adobe Illustrator 24.3.0, SVG Export Plug-In . SVG Version: 6.00 Build 0)  -->
<svg version="1.1" id="Layer_1" xmlns="http://www.w3.org/2000/svg" xmlns:xlink="http://www.w3.org/1999/xlink" x="0px" y="0px"
	 viewBox="0 0 221.34 98.39" style="enable-background:new 0 0 221.34 98.39;" xml:space="preserve">
<style type="text/css">
	.st0{fill:#192550;}
	.st1{fill:#AE9FF3;}
</style>
<g>
	<path class="st0" d="M201.09,64.1c7.26,0,13.99-2.78,17.99-6.86c0.75-0.75,0.75-1.63,0-2.38l-4.35-4.28
		c-0.88-0.88-1.77-0.88-2.78,0c-1.7,1.49-5.43,4.07-10.46,4.07c-6.38,0-11.47-4.35-12.22-11.27c0,0,22.81,0,29.6,0
		c1.56,0,2.44-0.48,2.44-2.24c0.48-14.66-9.3-24.58-22-24.58c-13.31,0-21.93,10.93-21.93,23.83
		C177.39,54.66,187.71,64.1,201.09,64.1z M189.75,35.25c0-3.53,3.26-9.23,9.78-9.23c6.92,0,9.3,6.04,9.3,8.35
		c0,0.41-0.34,0.88-0.95,0.88H189.75z"/>
	<g>
		<g>
			<path class="st0" d="M2.4,10.93h43.86V1.5c0-0.83-0.67-1.5-1.5-1.5H2.4C1.57,0,0.9,0.67,0.9,1.5v7.93
				C0.9,10.25,1.57,10.93,2.4,10.93z M1.44,63.01h43.39c0.79,0,1.44-0.64,1.44-1.44v-8.05c0-0.79-0.64-1.44-1.44-1.44H0v9.49
				C0,62.36,0.64,63.01,1.44,63.01z"/>
			<polygon class="st1" points="32.4,10.93 0,52.08 14.49,52.08 46.26,10.93 			"/>
		</g>
		<path class="st0" d="M73.3,64.1c7.26,0,13.99-2.78,17.99-6.86c0.75-0.75,0.75-1.63,0-2.38l-4.35-4.28c-0.88-0.88-1.77-0.88-2.78,0
			c-1.7,1.49-5.43,4.07-10.46,4.07c-6.38,0-11.47-4.35-12.22-11.27c0,0,22.81,0,29.6,0c1.56,0,2.44-0.48,2.44-2.24
			c0.48-14.66-9.3-24.58-22-24.58c-13.31,0-21.93,10.93-21.93,23.83C49.6,54.66,59.92,64.1,73.3,64.1z M61.96,35.25
			c0-3.53,3.26-9.23,9.78-9.23c6.92,0,9.3,6.04,9.3,8.35c0,0.41-0.34,0.88-0.95,0.88H61.96z"/>
		<path class="st0" d="M169.04,63.01h-8.28c-0.81,0-1.44-0.63-1.44-1.44V1.44c0-0.81,0.63-1.44,1.44-1.44h8.28
			c0.81,0,1.44,0.63,1.44,1.44v60.12C170.48,62.38,169.85,63.01,169.04,63.01z M108.01,63.01h8.28c0.72,0,1.44-0.63,1.44-1.44V27.45
			h15.21v34.11c0,0.81,0.63,1.44,1.44,1.44h8.28c0.81,0,1.44-0.63,1.44-1.44v-33.3c0-0.45,0.36-0.81,0.9-0.81h7.92
			c0.81,0,1.44-0.54,1.44-1.26v-7.2c0-0.81-0.63-1.35-1.44-1.35H145c-0.54,0-0.9-0.45-0.9-0.9V6.75c0-0.81-0.63-1.44-1.44-1.44
			h-8.28c-0.81,0-1.44,0.63-1.44,1.44v10.89h-15.21V6.75c0-0.81-0.72-1.44-1.44-1.44h-8.28c-0.81,0-1.44,0.63-1.44,1.44v9.99
			c0,0.45-0.36,0.9-0.9,0.9h-8.01c-0.81,0-1.35,0.54-1.35,1.35v7.02c0,0.81,0.54,1.44,1.35,1.44h8.01c0.54,0,0.9,0.36,0.9,0.81v33.3
			C106.57,62.38,107.2,63.01,108.01,63.01z"/>
		<g>
			<g>
				<polygon class="st0" points="121.95,92.32 117.75,98.39 119.97,98.39 129.56,84.13 127.38,84.13 123.3,90.37 120.97,84.13 
					118.73,84.13 				"/>
				<path class="st0" d="M113.7,83.7c-1.49,0-2.82,0.78-3.82,1.98h-0.03l1.61-10.23h-1.93l-2.96,18.59h1.95l0.23-1.55h0.06
					c0.57,1.12,1.7,1.9,3.1,1.9c3.1,0,5.23-2.56,5.69-5.43C118.04,86.2,116.6,83.7,113.7,83.7z M115.65,89.02
					c-0.32,1.98-1.75,3.65-3.85,3.65c-2.04,0-2.9-1.75-2.59-3.65c0.29-1.87,1.75-3.59,3.74-3.59
					C115.05,85.43,115.97,87.06,115.65,89.02z"/>
			</g>
			<g>
				<g>
					<path class="st0" d="M193.35,75.45h-6.69c-0.46,0-0.85,0.33-0.92,0.79l-2.71,17.16c-0.05,0.34,0.21,0.65,0.55,0.65h3.43
						c0.32,0,0.59-0.23,0.64-0.55l0.77-4.87c0.07-0.45,0.46-0.79,0.92-0.79h2.12c4.41,0,6.95-2.13,7.62-6.36
						c0.3-1.85,0.01-3.3-0.85-4.32C197.28,76.05,195.59,75.45,193.35,75.45 M194.12,81.72c-0.37,2.4-2.2,2.4-3.98,2.4h-1.01
						l0.71-4.49c0.04-0.27,0.28-0.47,0.55-0.47h0.46c1.21,0,2.35,0,2.94,0.69C194.15,80.27,194.25,80.88,194.12,81.72"/>
					<path class="st0" d="M145.61,75.45h-6.69c-0.46,0-0.85,0.33-0.92,0.79l-2.71,17.16c-0.05,0.34,0.21,0.65,0.55,0.65h3.2
						c0.46,0,0.85-0.33,0.92-0.79l0.73-4.63c0.07-0.45,0.46-0.79,0.92-0.79h2.12c4.41,0,6.95-2.13,7.62-6.36
						c0.3-1.85,0.01-3.3-0.85-4.32C149.53,76.05,147.85,75.45,145.61,75.45 M146.38,81.72c-0.37,2.4-2.2,2.4-3.98,2.4h-1.01
						l0.71-4.49c0.04-0.27,0.28-0.47,0.55-0.47h0.46c1.21,0,2.35,0,2.94,0.69C146.41,80.27,146.51,80.88,146.38,81.72"/>
					<path class="st0" d="M165.61,81.65h-3.21c-0.28,0-0.51,0.2-0.55,0.47l-0.14,0.9l-0.22-0.32c-0.69-1.01-2.24-1.34-3.79-1.34
						c-3.54,0-6.57,2.68-7.15,6.45c-0.31,1.88,0.13,3.67,1.19,4.92c0.98,1.15,2.37,1.63,4.04,1.63c2.85,0,4.44-1.83,4.44-1.83
						l-0.14,0.89c-0.05,0.34,0.21,0.65,0.55,0.65h2.89c0.46,0,0.85-0.33,0.92-0.79l1.73-10.97
						C166.22,81.95,165.96,81.65,165.61,81.65 M161.15,87.89c-0.31,1.83-1.76,3.06-3.62,3.06c-0.93,0-1.67-0.3-2.15-0.87
						c-0.47-0.56-0.65-1.36-0.5-2.25c0.29-1.81,1.77-3.08,3.59-3.08c0.91,0,1.65,0.3,2.14,0.87C161.09,86.19,161.29,87,161.15,87.89
						"/>
					<path class="st0" d="M213.36,81.65h-3.21c-0.27,0-0.51,0.2-0.55,0.47l-0.14,0.9l-0.22-0.32c-0.69-1.01-2.24-1.34-3.79-1.34
						c-3.54,0-6.57,2.68-7.15,6.45c-0.31,1.88,0.13,3.67,1.19,4.92c0.98,1.15,2.37,1.63,4.04,1.63c2.85,0,4.44-1.83,4.44-1.83
						l-0.14,0.89c-0.05,0.34,0.21,0.65,0.55,0.65h2.89c0.46,0,0.85-0.33,0.92-0.79l1.73-10.97
						C213.96,81.95,213.7,81.65,213.36,81.65 M208.89,87.89c-0.31,1.83-1.76,3.06-3.62,3.06c-0.93,0-1.67-0.3-2.15-0.87
						c-0.47-0.56-0.65-1.36-0.5-2.25c0.29-1.81,1.77-3.08,3.59-3.08c0.91,0,1.65,0.3,2.14,0.87C208.84,86.19,209.03,87,208.89,87.89
						"/>
					<path class="st0" d="M182.69,81.65h-3.22c-0.31,0-0.6,0.15-0.77,0.41l-4.44,6.55l-1.88-6.29c-0.12-0.39-0.48-0.66-0.89-0.66
						h-3.17c-0.38,0-0.65,0.38-0.53,0.74l3.55,10.41l-3.34,4.71c-0.26,0.37,0,0.88,0.45,0.88h3.22c0.31,0,0.59-0.15,0.76-0.4
						l10.71-15.46C183.4,82.15,183.14,81.65,182.69,81.65"/>
					<path class="st0" d="M217.13,75.93l-2.75,17.48c-0.05,0.34,0.21,0.64,0.55,0.64h2.76c0.46,0,0.85-0.33,0.92-0.79l2.71-17.16
						c0.05-0.34-0.21-0.64-0.55-0.64h-3.09C217.41,75.46,217.18,75.66,217.13,75.93"/>
				</g>
			</g>
		</g>
	</g>
</g>
</svg>
